<svg width="365" height="137" viewBox="0 0 365 137" fill="none" xmlns="http://www.w3.org/2000/svg">
<g clip-path="url(#clip0_66_245)">
<rect width="365" height="137" fill="white"/>
<circle cx="337.5" cy="109.188" r="27.5" fill="#1E26E8"/>
<path d="M325.862 113.818C325.273 113.818 324.753 113.71 324.302 113.493C323.86 113.268 323.518 112.947 323.275 112.531C323.041 112.107 322.924 111.613 322.924 111.049V109.177C322.924 108.605 323.041 108.111 323.275 107.695C323.518 107.279 323.86 106.963 324.302 106.746C324.753 106.521 325.273 106.408 325.862 106.408C326.72 106.408 327.409 106.634 327.929 107.084C328.449 107.535 328.722 108.15 328.748 108.93H327.344C327.318 108.523 327.175 108.207 326.915 107.981C326.655 107.756 326.304 107.643 325.862 107.643C325.385 107.643 325.008 107.778 324.731 108.046C324.454 108.306 324.315 108.679 324.315 109.164V111.049C324.315 111.535 324.454 111.912 324.731 112.18C325.008 112.449 325.385 112.583 325.862 112.583C326.304 112.583 326.655 112.471 326.915 112.245C327.175 112.02 327.318 111.704 327.344 111.296H328.748C328.722 112.076 328.449 112.692 327.929 113.142C327.409 113.593 326.72 113.818 325.862 113.818ZM330.849 113.688V104.185H336.582V105.485H332.214V108.319H336.244V109.619H332.24V113.688H330.849ZM338.917 113.688V104.198H340.321V112.401H344.468V113.688H338.917ZM346.387 113.688V104.198H349.364C349.962 104.198 350.482 104.315 350.924 104.549C351.366 104.775 351.708 105.095 351.951 105.511C352.202 105.927 352.328 106.417 352.328 106.98C352.328 107.613 352.163 108.163 351.834 108.631C351.513 109.091 351.076 109.416 350.521 109.606L352.458 113.688H350.859L349.13 109.788H347.791V113.688H346.387ZM347.791 108.553H349.364C349.832 108.553 350.205 108.415 350.482 108.137C350.759 107.851 350.898 107.474 350.898 107.006C350.898 106.521 350.759 106.14 350.482 105.862C350.205 105.585 349.832 105.446 349.364 105.446H347.791V108.553Z" fill="white"/>
<path d="M54 71.6885C59.8889 67.6885 62.8333 67.6885 62.8333 71.6885C62.8333 75.6885 65.7778 75.6885 71.6667 71.6885C77.5556 67.6885 80.5 67.6885 80.5 71.6885C80.5 75.6885 83.4444 75.6885 89.3333 71.6885C95.2222 67.6885 98.1667 67.6885 98.1667 71.6885C98.1667 75.6885 101.111 75.6885 107 71.6885" stroke="black" stroke-linecap="round"/>
<path d="M163 71.6885C168.889 67.6885 171.833 67.6885 171.833 71.6885C171.833 75.6885 174.778 75.6885 180.667 71.6885C186.556 67.6885 189.5 67.6885 189.5 71.6885C189.5 75.6885 192.444 75.6885 198.333 71.6885C204.222 67.6885 207.167 67.6885 207.167 71.6885C207.167 75.6885 210.111 75.6885 216 71.6885" stroke="black" stroke-linecap="round"/>
<circle cx="27.5" cy="70.1885" r="27.5" fill="#E61F59"/>
<path d="M16.9516 74.6885V65.1855H22.6846V66.4855H18.3166V69.3195H22.3466V70.6195H18.3426V74.6885H16.9516ZM25.0195 74.6885V65.1985H26.4235V73.4015H30.5705V74.6885H25.0195ZM32.4895 74.6885V65.1985H35.4665C36.0645 65.1985 36.5845 65.3155 37.0265 65.5495C37.4685 65.7748 37.8108 66.0955 38.0535 66.5115C38.3048 66.9275 38.4305 67.4171 38.4305 67.9805C38.4305 68.6131 38.2658 69.1635 37.9365 69.6315C37.6158 70.0908 37.1781 70.4158 36.6235 70.6065L38.5605 74.6885H36.9615L35.2325 70.7885H33.8935V74.6885H32.4895ZM33.8935 69.5535H35.4665C35.9345 69.5535 36.3071 69.4148 36.5845 69.1375C36.8618 68.8515 37.0005 68.4745 37.0005 68.0065C37.0005 67.5211 36.8618 67.1398 36.5845 66.8625C36.3071 66.5851 35.9345 66.4465 35.4665 66.4465H33.8935V69.5535Z" fill="white"/>
<path d="M122.12 57.8085L132.2 57.8085L132.2 73.4885L137.8 73.4885L137.8 52.2085L116.52 52.2085L116.52 88.6085L152.92 88.6085L152.92 42.6885L163 42.6885L163 98.6885L107 98.6885L107 42.6885L147.32 42.6885L147.32 83.0085L122.12 83.0085L122.12 57.8085Z" fill="black"/>
<path d="M314.579 0.5H360.421C361.033 0.5 361.53 0.996287 361.53 1.60849V51.0583C361.53 52.02 360.389 52.5255 359.676 51.8794L357.314 49.7366C356.51 49.0077 355.284 49.0077 354.481 49.7366L350.509 53.3382C350.087 53.7214 349.443 53.7214 349.02 53.3382L345.049 49.7366C344.245 49.0077 343.02 49.0077 342.216 49.7366L338.245 53.3382C337.822 53.7214 337.178 53.7214 336.755 53.3382L332.784 49.7366C331.981 49.0077 330.755 49.0077 329.951 49.7366L325.98 53.3382C325.558 53.7214 324.913 53.7214 324.491 53.3382L320.52 49.7366C319.716 49.0077 318.49 49.0077 317.687 49.7366L315.324 51.8794C314.611 52.5255 313.471 52.02 313.471 51.0583V1.60849C313.471 0.996287 313.967 0.5 314.579 0.5Z" fill="white" stroke="black"/>
<path d="M319.453 29.1699V24.7466H320.289V25.591H320.498L320.233 26.1138C320.233 25.6366 320.337 25.2774 320.546 25.0361C320.756 24.7895 321.067 24.6662 321.479 24.6662C321.951 24.6662 322.324 24.8136 322.597 25.1085C322.876 25.398 323.015 25.7975 323.015 26.3068V26.6044H322.123V26.3792C322.123 26.0629 322.042 25.8216 321.882 25.6554C321.726 25.4838 321.506 25.398 321.222 25.398C320.938 25.398 320.715 25.4838 320.555 25.6554C320.399 25.827 320.321 26.0682 320.321 26.3792V29.1699H319.453ZM325.867 29.2503C325.508 29.2503 325.192 29.1806 324.918 29.0412C324.65 28.8965 324.444 28.6954 324.299 28.4381C324.154 28.1807 324.082 27.8805 324.082 27.5373V26.3792C324.082 26.0307 324.154 25.7304 324.299 25.4784C324.444 25.2211 324.65 25.0227 324.918 24.8833C325.192 24.7385 325.508 24.6662 325.867 24.6662C326.232 24.6662 326.548 24.7385 326.816 24.8833C327.084 25.0227 327.291 25.2211 327.436 25.4784C327.58 25.7304 327.653 26.0307 327.653 26.3792V27.1674H324.918V27.5373C324.918 27.8644 324.999 28.1137 325.16 28.2853C325.326 28.4568 325.564 28.5426 325.875 28.5426C326.127 28.5426 326.331 28.4997 326.487 28.4139C326.642 28.3228 326.739 28.1914 326.776 28.0199H327.637C327.572 28.3952 327.379 28.6954 327.058 28.9206C326.736 29.1404 326.339 29.2503 325.867 29.2503ZM326.816 26.6446V26.3712C326.816 26.0495 326.736 25.8001 326.575 25.6232C326.414 25.4463 326.178 25.3578 325.867 25.3578C325.562 25.3578 325.326 25.4463 325.16 25.6232C324.999 25.8001 324.918 26.0521 324.918 26.3792V26.5803L326.881 26.5722L326.816 26.6446ZM330.722 29.2503C330.357 29.2503 330.036 29.1833 329.757 29.0493C329.483 28.9099 329.272 28.7115 329.121 28.4541C328.977 28.1914 328.904 27.8858 328.904 27.5373V26.3792C328.904 26.0253 328.977 25.7197 329.121 25.4624C329.272 25.205 329.483 25.0093 329.757 24.8753C330.036 24.7359 330.357 24.6662 330.722 24.6662C331.253 24.6662 331.679 24.8056 332.001 25.0844C332.322 25.3632 332.491 25.7438 332.507 26.2264H331.639C331.623 25.9744 331.534 25.7787 331.373 25.6393C331.212 25.4999 330.995 25.4302 330.722 25.4302C330.427 25.4302 330.194 25.5133 330.022 25.6795C329.851 25.8404 329.765 26.0709 329.765 26.3712V27.5373C329.765 27.8376 329.851 28.0708 330.022 28.237C330.194 28.4032 330.427 28.4863 330.722 28.4863C330.995 28.4863 331.212 28.4166 331.373 28.2772C331.534 28.1378 331.623 27.9421 331.639 27.6901H332.507C332.491 28.1727 332.322 28.5533 332.001 28.8321C331.679 29.1109 331.253 29.2503 330.722 29.2503ZM335.512 29.2503C335.153 29.2503 334.836 29.1806 334.563 29.0412C334.295 28.8965 334.089 28.6954 333.944 28.4381C333.799 28.1807 333.727 27.8805 333.727 27.5373V26.3792C333.727 26.0307 333.799 25.7304 333.944 25.4784C334.089 25.2211 334.295 25.0227 334.563 24.8833C334.836 24.7385 335.153 24.6662 335.512 24.6662C335.877 24.6662 336.193 24.7385 336.461 24.8833C336.729 25.0227 336.936 25.2211 337.08 25.4784C337.225 25.7304 337.297 26.0307 337.297 26.3792V27.1674H334.563V27.5373C334.563 27.8644 334.643 28.1137 334.804 28.2853C334.971 28.4568 335.209 28.5426 335.52 28.5426C335.772 28.5426 335.976 28.4997 336.131 28.4139C336.287 28.3228 336.383 28.1914 336.421 28.0199H337.281C337.217 28.3952 337.024 28.6954 336.702 28.9206C336.381 29.1404 335.984 29.2503 335.512 29.2503ZM336.461 26.6446V26.3712C336.461 26.0495 336.381 25.8001 336.22 25.6232C336.059 25.4463 335.823 25.3578 335.512 25.3578C335.206 25.3578 334.971 25.4463 334.804 25.6232C334.643 25.8001 334.563 26.0521 334.563 26.3792V26.5803L336.525 26.5722L336.461 26.6446ZM338.573 29.1699V28.3818H340.125V25.5347H338.774V24.7466H340.97V28.3818H342.393V29.1699H338.573ZM340.463 23.9826C340.275 23.9826 340.125 23.9343 340.013 23.8378C339.9 23.7359 339.844 23.6019 339.844 23.4357C339.844 23.2641 339.9 23.1301 340.013 23.0335C340.125 22.9317 340.275 22.8807 340.463 22.8807C340.651 22.8807 340.801 22.9317 340.913 23.0335C341.026 23.1301 341.082 23.2641 341.082 23.4357C341.082 23.6019 341.026 23.7359 340.913 23.8378C340.801 23.9343 340.651 23.9826 340.463 23.9826ZM343.42 30.6176V24.7466H344.28V25.591H344.465L344.28 25.7921C344.28 25.4436 344.387 25.1702 344.602 24.9718C344.822 24.768 345.114 24.6662 345.478 24.6662C345.923 24.6662 346.277 24.8163 346.54 25.1165C346.808 25.4114 346.942 25.8162 346.942 26.3309V27.5775C346.942 27.9207 346.88 28.2182 346.757 28.4702C346.639 28.7169 346.47 28.9099 346.25 29.0493C346.036 29.1833 345.779 29.2503 345.478 29.2503C345.119 29.2503 344.83 29.1512 344.61 28.9528C344.39 28.749 344.28 28.4729 344.28 28.1244L344.465 28.3255H344.264L344.288 29.3549V30.6176H343.42ZM345.181 28.4944C345.465 28.4944 345.685 28.4139 345.84 28.2531C346.001 28.0869 346.082 27.8483 346.082 27.5373V26.3792C346.082 26.0682 346.001 25.8323 345.84 25.6715C345.685 25.5053 345.465 25.4221 345.181 25.4221C344.907 25.4221 344.69 25.5079 344.529 25.6795C344.369 25.8457 344.288 26.0789 344.288 26.3792V27.5373C344.288 27.8376 344.369 28.0735 344.529 28.245C344.69 28.4113 344.907 28.4944 345.181 28.4944ZM350.462 29.1699C350.059 29.1699 349.746 29.06 349.521 28.8402C349.295 28.6204 349.183 28.3147 349.183 27.9233V25.5347H347.96V24.7466H349.183V23.5H350.051V24.7466H351.78V25.5347H350.051V27.9233C350.051 28.229 350.199 28.3818 350.494 28.3818H351.7V29.1699H350.462ZM354.649 29.2423C354.332 29.2423 354.053 29.1914 353.812 29.0895C353.576 28.9876 353.389 28.8482 353.249 28.6713C353.115 28.489 353.037 28.2745 353.016 28.0279H353.884C353.906 28.1727 353.984 28.2906 354.118 28.3818C354.252 28.4675 354.429 28.5104 354.649 28.5104H354.994C355.257 28.5104 355.455 28.4568 355.589 28.3496C355.724 28.2424 355.791 28.1003 355.791 27.9233C355.791 27.7518 355.729 27.6177 355.606 27.5212C355.488 27.4194 355.311 27.3523 355.075 27.3202L354.504 27.2317C354.032 27.1566 353.683 27.0226 353.458 26.8296C353.238 26.6312 353.128 26.339 353.128 25.9529C353.128 25.5455 353.26 25.2318 353.523 25.012C353.791 24.7868 354.185 24.6742 354.705 24.6742H355.01C355.472 24.6742 355.839 24.7814 356.112 24.9959C356.391 25.205 356.549 25.4865 356.587 25.8404H355.718C355.697 25.7117 355.624 25.6071 355.501 25.5267C355.383 25.4463 355.22 25.4061 355.01 25.4061H354.705C354.453 25.4061 354.268 25.4543 354.15 25.5508C354.037 25.642 353.981 25.7787 353.981 25.961C353.981 26.1218 354.032 26.2425 354.134 26.3229C354.236 26.4033 354.394 26.4596 354.608 26.4918L355.195 26.5883C355.694 26.658 356.059 26.7974 356.289 27.0065C356.525 27.2102 356.643 27.5078 356.643 27.8992C356.643 28.3228 356.504 28.6525 356.225 28.8884C355.951 29.1243 355.541 29.2423 354.994 29.2423H354.649Z" fill="black"/>
<path d="M306.337 97.9214C306.604 97.85 306.762 97.5758 306.691 97.3091L305.526 92.9624C305.455 92.6957 305.181 92.5374 304.914 92.6088C304.647 92.6803 304.489 92.9545 304.56 93.2212L305.596 97.0849L301.732 98.1202C301.465 98.1917 301.307 98.4658 301.378 98.7326C301.45 98.9993 301.724 99.1576 301.991 99.0861L306.337 97.9214ZM271.75 78.1215L305.958 97.8715L306.458 97.0055L272.25 77.2555L271.75 78.1215Z" fill="black"/>
<path d="M306.337 45.2055C306.604 45.277 306.762 45.5512 306.691 45.8179L305.526 50.1646C305.455 50.4313 305.181 50.5896 304.914 50.5181C304.647 50.4466 304.489 50.1725 304.56 49.9057L305.596 46.042L301.732 45.0068C301.465 44.9353 301.307 44.6611 301.378 44.3944C301.45 44.1276 301.724 43.9694 301.991 44.0408L306.337 45.2055ZM271.75 65.0055L305.958 45.2555L306.458 46.1215L272.25 65.8715L271.75 65.0055Z" fill="black"/>
<ellipse cx="247" cy="71.1885" rx="31" ry="12.5" fill="#D9D9D9"/>
<path d="M232.177 75.6885V68.5385H233.347V69.4485H233.607L233.412 69.7215C233.412 69.3228 233.52 69.0065 233.737 68.7725C233.954 68.5298 234.244 68.4085 234.608 68.4085C234.998 68.4085 235.297 68.5601 235.505 68.8635C235.722 69.1668 235.83 69.5828 235.83 70.1115L235.518 69.4485H236.012L235.804 69.7215C235.804 69.3228 235.912 69.0065 236.129 68.7725C236.354 68.5298 236.653 68.4085 237.026 68.4085C237.468 68.4085 237.815 68.5775 238.066 68.9155C238.317 69.2448 238.443 69.6868 238.443 70.2415V75.6885H237.195V70.2805C237.195 70.0118 237.134 69.8038 237.013 69.6565C236.9 69.5091 236.736 69.4355 236.519 69.4355C236.302 69.4355 236.133 69.5091 236.012 69.6565C235.899 69.7951 235.843 69.9988 235.843 70.2675V75.6885H234.79V70.2805C234.79 70.0031 234.729 69.7951 234.608 69.6565C234.487 69.5091 234.313 69.4355 234.088 69.4355C233.871 69.4355 233.707 69.5091 233.594 69.6565C233.49 69.7951 233.438 69.9988 233.438 70.2675V75.6885H232.177ZM240.258 75.6885V74.4145H242.767V69.8125H240.583V68.5385H244.132V74.4145H246.433V75.6885H240.258ZM243.313 67.3035C243.01 67.3035 242.767 67.2255 242.585 67.0695C242.403 66.9048 242.312 66.6881 242.312 66.4195C242.312 66.1421 242.403 65.9255 242.585 65.7695C242.767 65.6048 243.01 65.5225 243.313 65.5225C243.616 65.5225 243.859 65.6048 244.041 65.7695C244.223 65.9255 244.314 66.1421 244.314 66.4195C244.314 66.6881 244.223 66.9048 244.041 67.0695C243.859 67.2255 243.616 67.3035 243.313 67.3035ZM248.092 75.6885V68.5385H249.483V69.9035H249.821L249.483 70.2285C249.483 69.6565 249.652 69.2101 249.99 68.8895C250.328 68.5688 250.796 68.4085 251.394 68.4085C252.105 68.4085 252.672 68.6381 253.097 69.0975C253.522 69.5481 253.734 70.1591 253.734 70.9305V75.6885H252.33V71.0865C252.33 70.6185 252.204 70.2588 251.953 70.0075C251.702 69.7561 251.359 69.6305 250.926 69.6305C250.484 69.6305 250.133 69.7648 249.873 70.0335C249.622 70.2935 249.496 70.6748 249.496 71.1775V75.6885H248.092ZM259.475 75.6885C258.825 75.6885 258.318 75.5108 257.954 75.1555C257.59 74.8001 257.408 74.3061 257.408 73.6735V69.8125H255.432V68.5385H257.408V66.5235H258.812V68.5385H261.607V69.8125H258.812V73.6735C258.812 74.1675 259.05 74.4145 259.527 74.4145H261.477V75.6885H259.475Z" fill="black"/>
</g>
<defs>
<clipPath id="clip0_66_245">
<rect width="365" height="137" fill="white"/>
</clipPath>
</defs>
</svg>
