<svg width="204" height="156" viewBox="0 0 204 156" fill="none" xmlns="http://www.w3.org/2000/svg">
<path d="M102 36C106 41.8889 106 44.8333 102 44.8333C98 44.8333 98 47.7778 102 53.6667C106 59.5556 106 62.5 102 62.5C98 62.5 98 65.4444 102 71.3333" stroke="white" stroke-width="2" stroke-linecap="round"/>
<path d="M102 119C106 124.889 106 127.833 102 127.833C98 127.833 98 130.778 102 136.667C106 142.556 106 145.5 102 145.5C98 145.5 98 148.444 102 154.333" stroke="white" stroke-width="2" stroke-linecap="round"/>
<path d="M90.96 83.96L99.6 83.96L99.6 97.4L104.4 97.4L104.4 79.16L86.16 79.16L86.16 110.36L117.36 110.36L117.36 71L126 71L126 119L78 119L78 71L112.56 71L112.56 105.56L90.96 105.56L90.96 83.96Z" fill="white"/>
<ellipse cx="102" cy="23.5" rx="31" ry="12.5" fill="white"/>
<path d="M90.2436 27V18.97H92.6086C93.3713 18.97 93.9689 19.1533 94.4016 19.52C94.8343 19.8867 95.0506 20.3927 95.0506 21.038C95.0506 21.4047 94.9699 21.7237 94.8086 21.995C94.6546 22.259 94.4383 22.4643 94.1596 22.611C93.8809 22.7577 93.5546 22.831 93.1806 22.831V22.721C93.5839 22.7137 93.9396 22.7907 94.2476 22.952C94.5556 23.106 94.7976 23.337 94.9736 23.645C95.1496 23.953 95.2376 24.3197 95.2376 24.745C95.2376 25.1997 95.1349 25.5993 94.9296 25.944C94.7316 26.2813 94.4456 26.5417 94.0716 26.725C93.7049 26.9083 93.2686 27 92.7626 27H90.2436ZM91.3986 25.977H92.6636C93.0889 25.977 93.4263 25.8633 93.6756 25.636C93.9249 25.4087 94.0496 25.0933 94.0496 24.69C94.0496 24.2793 93.9249 23.9493 93.6756 23.7C93.4263 23.4507 93.0889 23.326 92.6636 23.326H91.3986V25.977ZM91.3986 22.336H92.5976C92.9936 22.336 93.3053 22.2297 93.5326 22.017C93.7599 21.8043 93.8736 21.5183 93.8736 21.159C93.8736 20.7997 93.7599 20.5173 93.5326 20.312C93.3053 20.0993 92.9973 19.993 92.6086 19.993H91.3986V22.336ZM99.2043 27.11C98.4343 27.11 97.8403 26.901 97.4223 26.483C97.0043 26.0577 96.7953 25.482 96.7953 24.756V18.97H97.9833V24.756C97.9833 25.1593 98.0823 25.4783 98.2803 25.713C98.4856 25.9477 98.7936 26.065 99.2043 26.065C99.6076 26.065 99.912 25.9477 100.117 25.713C100.323 25.4783 100.425 25.1593 100.425 24.756V18.97H101.613V24.756C101.613 25.482 101.404 26.0577 100.986 26.483C100.568 26.901 99.9743 27.11 99.2043 27.11ZM103.424 27V18.97H105.943C106.449 18.97 106.889 19.069 107.263 19.267C107.637 19.4577 107.927 19.729 108.132 20.081C108.345 20.433 108.451 20.8473 108.451 21.324C108.451 21.8593 108.312 22.325 108.033 22.721C107.762 23.1097 107.391 23.3847 106.922 23.546L108.561 27H107.208L105.745 23.7H104.612V27H103.424ZM104.612 22.655H105.943C106.339 22.655 106.654 22.5377 106.889 22.303C107.124 22.061 107.241 21.742 107.241 21.346C107.241 20.9353 107.124 20.6127 106.889 20.378C106.654 20.1433 106.339 20.026 105.943 20.026H104.612V22.655ZM109.987 27V18.97H111.483L113.826 25.647C113.811 25.4343 113.793 25.1813 113.771 24.888C113.749 24.5947 113.73 24.2903 113.716 23.975C113.708 23.6597 113.705 23.3737 113.705 23.117V18.97H114.805V27H113.309L110.977 20.323C110.991 20.5137 111.006 20.752 111.021 21.038C111.043 21.324 111.057 21.621 111.065 21.929C111.079 22.237 111.087 22.523 111.087 22.787V27H109.987Z" fill="#1E26E8"/>
<path d="M1 0V24H71" stroke="white" stroke-width="2"/>
<path d="M203 0V24H133" stroke="white" stroke-width="2"/>
</svg>
