<svg width="655" height="403" viewBox="0 0 655 403" fill="none" xmlns="http://www.w3.org/2000/svg">
<rect x="0.5" y="0.5" width="654" height="402" fill="white"/>
<rect x="0.5" y="0.5" width="654" height="402" stroke="black"/>
<path d="M129 201C138.778 194.333 143.667 194.333 143.667 201C143.667 207.667 148.556 207.667 158.333 201C168.111 194.333 173 194.333 173 201C173 207.667 177.889 207.667 187.667 201C197.444 194.333 202.333 194.333 202.333 201C202.333 207.667 207.222 207.667 217 201" stroke="black" stroke-linecap="round"/>
<rect width="87" height="37" transform="translate(44 182)" fill="#E61F59"/>
<path d="M61.3878 205V203.934H63.9618V196.485L61.3878 198.409V197.109L63.5328 195.51H65.1318V203.934H67.2378V205H61.3878ZM71.9127 205.13C71.332 205.13 70.825 205.017 70.3917 204.792C69.967 204.558 69.6377 204.233 69.4037 203.817C69.1697 203.392 69.0527 202.898 69.0527 202.335V198.175C69.0527 197.603 69.1697 197.109 69.4037 196.693C69.6377 196.277 69.967 195.956 70.3917 195.731C70.825 195.497 71.332 195.38 71.9127 195.38C72.502 195.38 73.009 195.497 73.4337 195.731C73.8584 195.956 74.1877 196.277 74.4217 196.693C74.6557 197.109 74.7727 197.603 74.7727 198.175V202.335C74.7727 202.898 74.6557 203.392 74.4217 203.817C74.1877 204.233 73.854 204.558 73.4207 204.792C72.996 205.017 72.4934 205.13 71.9127 205.13ZM71.9127 204.129C72.4327 204.129 72.8487 203.964 73.1607 203.635C73.4814 203.297 73.6417 202.864 73.6417 202.335V198.175C73.6417 197.646 73.4814 197.217 73.1607 196.888C72.8487 196.55 72.4327 196.381 71.9127 196.381C71.3927 196.381 70.9724 196.55 70.6517 196.888C70.3397 197.217 70.1837 197.646 70.1837 198.175V202.335C70.1837 202.864 70.3397 203.297 70.6517 203.635C70.9724 203.964 71.3927 204.129 71.9127 204.129ZM71.9127 201.022C71.6787 201.022 71.488 200.948 71.3407 200.801C71.202 200.654 71.1327 200.459 71.1327 200.216C71.1327 199.982 71.202 199.796 71.3407 199.657C71.488 199.51 71.6787 199.436 71.9127 199.436C72.1467 199.436 72.333 199.51 72.4717 199.657C72.619 199.796 72.6927 199.982 72.6927 200.216C72.6927 200.459 72.619 200.654 72.4717 200.801C72.333 200.948 72.1467 201.022 71.9127 201.022ZM79.7076 205.13C79.127 205.13 78.62 205.017 78.1866 204.792C77.762 204.558 77.4326 204.233 77.1986 203.817C76.9646 203.392 76.8476 202.898 76.8476 202.335V198.175C76.8476 197.603 76.9646 197.109 77.1986 196.693C77.4326 196.277 77.762 195.956 78.1866 195.731C78.62 195.497 79.127 195.38 79.7076 195.38C80.297 195.38 80.804 195.497 81.2286 195.731C81.6533 195.956 81.9826 196.277 82.2166 196.693C82.4506 197.109 82.5676 197.603 82.5676 198.175V202.335C82.5676 202.898 82.4506 203.392 82.2166 203.817C81.9826 204.233 81.649 204.558 81.2156 204.792C80.791 205.017 80.2883 205.13 79.7076 205.13ZM79.7076 204.129C80.2276 204.129 80.6436 203.964 80.9556 203.635C81.2763 203.297 81.4366 202.864 81.4366 202.335V198.175C81.4366 197.646 81.2763 197.217 80.9556 196.888C80.6436 196.55 80.2276 196.381 79.7076 196.381C79.1876 196.381 78.7673 196.55 78.4466 196.888C78.1346 197.217 77.9786 197.646 77.9786 198.175V202.335C77.9786 202.864 78.1346 203.297 78.4466 203.635C78.7673 203.964 79.1876 204.129 79.7076 204.129ZM79.7076 201.022C79.4736 201.022 79.283 200.948 79.1356 200.801C78.997 200.654 78.9276 200.459 78.9276 200.216C78.9276 199.982 78.997 199.796 79.1356 199.657C79.283 199.51 79.4736 199.436 79.7076 199.436C79.9416 199.436 80.128 199.51 80.2666 199.657C80.414 199.796 80.4876 199.982 80.4876 200.216C80.4876 200.459 80.414 200.654 80.2666 200.801C80.128 200.948 79.9416 201.022 79.7076 201.022ZM92.6325 205V195.497H98.2225V196.563H93.7765V199.722H97.8845V200.788H93.8025V205H92.6325ZM100.687 205V195.51H101.857V203.934H106.147V205H100.687ZM108.183 205V195.51H111.121C111.685 195.51 112.179 195.627 112.603 195.861C113.028 196.086 113.357 196.403 113.591 196.81C113.825 197.217 113.942 197.694 113.942 198.24C113.942 198.881 113.773 199.432 113.435 199.891C113.106 200.35 112.655 200.667 112.083 200.84L114.072 205H112.694L110.874 200.97H109.353V205H108.183ZM109.353 199.917H111.121C111.607 199.917 111.997 199.765 112.291 199.462C112.586 199.15 112.733 198.743 112.733 198.24C112.733 197.729 112.586 197.321 112.291 197.018C111.997 196.715 111.607 196.563 111.121 196.563H109.353V199.917Z" fill="white"/>
<rect x="266.5" y="71.5" width="122" height="49" stroke="#E6E6E6"/>
<path d="M315.354 92V83.959H320.084V84.861H316.322V87.534H319.798V88.436H316.344V92H315.354ZM323.709 92V84.861H321.509V83.959H326.899V84.861H324.699V92H323.709ZM330.844 92.11C330.316 92.11 329.861 92.022 329.48 91.846C329.106 91.67 328.816 91.417 328.611 91.087C328.406 90.757 328.299 90.3647 328.292 89.91H329.282C329.282 90.3133 329.418 90.6323 329.689 90.867C329.968 91.1017 330.353 91.219 330.844 91.219C331.306 91.219 331.665 91.1053 331.922 90.878C332.186 90.6507 332.318 90.3353 332.318 89.932C332.318 89.6093 332.23 89.327 332.054 89.085C331.885 88.843 331.64 88.6743 331.317 88.579L330.228 88.238C329.678 88.0693 329.253 87.787 328.952 87.391C328.659 86.995 328.512 86.5293 328.512 85.994C328.512 85.5613 328.607 85.1873 328.798 84.872C328.996 84.5493 329.271 84.3 329.623 84.124C329.975 83.9407 330.389 83.849 330.866 83.849C331.57 83.849 332.135 84.047 332.56 84.443C332.985 84.8317 333.202 85.3523 333.209 86.005H332.219C332.219 85.609 332.098 85.301 331.856 85.081C331.621 84.8537 331.288 84.74 330.855 84.74C330.43 84.74 330.096 84.8427 329.854 85.048C329.619 85.2533 329.502 85.5393 329.502 85.906C329.502 86.236 329.59 86.522 329.766 86.764C329.942 87.006 330.195 87.1783 330.525 87.281L331.625 87.633C332.16 87.8017 332.575 88.0877 332.868 88.491C333.161 88.8943 333.308 89.3673 333.308 89.91C333.308 90.35 333.205 90.735 333 91.065C332.795 91.395 332.505 91.6517 332.131 91.835C331.764 92.0183 331.335 92.11 330.844 92.11ZM337.396 92.11C336.912 92.11 336.494 92.0183 336.142 91.835C335.797 91.6517 335.529 91.3877 335.339 91.043C335.155 90.691 335.064 90.2767 335.064 89.8V86.17C335.064 85.686 335.155 85.2717 335.339 84.927C335.529 84.5823 335.797 84.3183 336.142 84.135C336.494 83.9517 336.912 83.86 337.396 83.86C337.88 83.86 338.294 83.9517 338.639 84.135C338.991 84.3183 339.258 84.5823 339.442 84.927C339.632 85.2717 339.728 85.6823 339.728 86.159V89.8C339.728 90.2767 339.632 90.691 339.442 91.043C339.258 91.3877 338.991 91.6517 338.639 91.835C338.294 92.0183 337.88 92.11 337.396 92.11ZM337.396 91.219C337.828 91.219 338.158 91.098 338.386 90.856C338.62 90.6067 338.738 90.2547 338.738 89.8V86.17C338.738 85.7153 338.62 85.367 338.386 85.125C338.158 84.8757 337.828 84.751 337.396 84.751C336.97 84.751 336.64 84.8757 336.406 85.125C336.171 85.367 336.054 85.7153 336.054 86.17V89.8C336.054 90.2547 336.171 90.6067 336.406 90.856C336.64 91.098 336.97 91.219 337.396 91.219ZM282.375 107V98.959H287.105V99.861H283.343V102.534H286.819V103.436H283.365V107H282.375ZM289.191 107V98.97H290.181V106.098H293.811V107H289.191ZM295.533 107V98.97H298.019C298.496 98.97 298.914 99.069 299.273 99.267C299.633 99.4577 299.911 99.7253 300.109 100.07C300.307 100.415 300.406 100.818 300.406 101.28C300.406 101.823 300.263 102.288 299.977 102.677C299.699 103.066 299.317 103.333 298.833 103.48L300.516 107H299.35L297.81 103.59H296.523V107H295.533ZM296.523 102.699H298.019C298.43 102.699 298.76 102.571 299.009 102.314C299.259 102.05 299.383 101.705 299.383 101.28C299.383 100.847 299.259 100.503 299.009 100.246C298.76 99.9893 298.43 99.861 298.019 99.861H296.523V102.699ZM301.942 108.21L305.847 97.87H306.892L302.987 108.21H301.942ZM311.013 107.11C310.265 107.11 309.693 106.905 309.297 106.494C308.901 106.076 308.703 105.511 308.703 104.8V98.97H309.693V104.8C309.693 105.24 309.799 105.588 310.012 105.845C310.232 106.102 310.566 106.23 311.013 106.23C311.453 106.23 311.783 106.102 312.003 105.845C312.223 105.588 312.333 105.24 312.333 104.8V98.97H313.323V104.8C313.323 105.519 313.125 106.083 312.729 106.494C312.34 106.905 311.768 107.11 311.013 107.11ZM317.653 107.11C317.125 107.11 316.67 107.022 316.289 106.846C315.915 106.67 315.625 106.417 315.42 106.087C315.214 105.757 315.108 105.365 315.101 104.91H316.091C316.091 105.313 316.226 105.632 316.498 105.867C316.776 106.102 317.161 106.219 317.653 106.219C318.115 106.219 318.474 106.105 318.731 105.878C318.995 105.651 319.127 105.335 319.127 104.932C319.127 104.609 319.039 104.327 318.863 104.085C318.694 103.843 318.448 103.674 318.126 103.579L317.037 103.238C316.487 103.069 316.061 102.787 315.761 102.391C315.467 101.995 315.321 101.529 315.321 100.994C315.321 100.561 315.416 100.187 315.607 99.872C315.805 99.5493 316.08 99.3 316.432 99.124C316.784 98.9407 317.198 98.849 317.675 98.849C318.379 98.849 318.943 99.047 319.369 99.443C319.794 99.8317 320.01 100.352 320.018 101.005H319.028C319.028 100.609 318.907 100.301 318.665 100.081C318.43 99.8537 318.096 99.74 317.664 99.74C317.238 99.74 316.905 99.8427 316.663 100.048C316.428 100.253 316.311 100.539 316.311 100.906C316.311 101.236 316.399 101.522 316.575 101.764C316.751 102.006 317.004 102.178 317.334 102.281L318.434 102.633C318.969 102.802 319.383 103.088 319.677 103.491C319.97 103.894 320.117 104.367 320.117 104.91C320.117 105.35 320.014 105.735 319.809 106.065C319.603 106.395 319.314 106.652 318.94 106.835C318.573 107.018 318.144 107.11 317.653 107.11ZM321.916 107V98.97H323.995C324.516 98.97 324.963 99.069 325.337 99.267C325.719 99.465 326.012 99.7437 326.217 100.103C326.43 100.462 326.536 100.888 326.536 101.379V104.58C326.536 105.071 326.43 105.5 326.217 105.867C326.012 106.226 325.719 106.505 325.337 106.703C324.963 106.901 324.516 107 323.995 107H321.916ZM322.906 106.12H323.995C324.479 106.12 324.857 105.984 325.128 105.713C325.407 105.442 325.546 105.064 325.546 104.58V101.379C325.546 100.902 325.407 100.528 325.128 100.257C324.857 99.9857 324.479 99.85 323.995 99.85H322.906V106.12ZM335.031 102.49V101.61H339.761V102.49H335.031ZM335.031 105.13V104.25H339.761V105.13H335.031ZM350.587 107.11C350.096 107.11 349.667 107.015 349.3 106.824C348.941 106.626 348.662 106.351 348.464 105.999C348.266 105.64 348.167 105.222 348.167 104.745V101.225C348.167 100.741 348.266 100.323 348.464 99.971C348.662 99.619 348.941 99.3477 349.3 99.157C349.667 98.959 350.096 98.86 350.587 98.86C351.086 98.86 351.515 98.959 351.874 99.157C352.233 99.3477 352.512 99.619 352.71 99.971C352.908 100.323 353.007 100.741 353.007 101.225V104.745C353.007 105.222 352.908 105.64 352.71 105.999C352.512 106.351 352.23 106.626 351.863 106.824C351.504 107.015 351.078 107.11 350.587 107.11ZM350.587 106.263C351.027 106.263 351.379 106.124 351.643 105.845C351.914 105.559 352.05 105.192 352.05 104.745V101.225C352.05 100.778 351.914 100.415 351.643 100.136C351.379 99.85 351.027 99.707 350.587 99.707C350.147 99.707 349.791 99.85 349.52 100.136C349.256 100.415 349.124 100.778 349.124 101.225V104.745C349.124 105.192 349.256 105.559 349.52 105.845C349.791 106.124 350.147 106.263 350.587 106.263ZM350.587 103.634C350.389 103.634 350.228 103.572 350.103 103.447C349.986 103.322 349.927 103.157 349.927 102.952C349.927 102.754 349.986 102.596 350.103 102.479C350.228 102.354 350.389 102.292 350.587 102.292C350.785 102.292 350.943 102.354 351.06 102.479C351.185 102.596 351.247 102.754 351.247 102.952C351.247 103.157 351.185 103.322 351.06 103.447C350.943 103.572 350.785 103.634 350.587 103.634ZM357.183 107.11C356.904 107.11 356.68 107.029 356.512 106.868C356.35 106.707 356.27 106.49 356.27 106.219C356.27 105.933 356.35 105.706 356.512 105.537C356.68 105.368 356.904 105.284 357.183 105.284C357.461 105.284 357.681 105.368 357.843 105.537C358.011 105.706 358.096 105.933 358.096 106.219C358.096 106.49 358.011 106.707 357.843 106.868C357.681 107.029 357.461 107.11 357.183 107.11ZM363.779 107.11C363.287 107.11 362.858 107.015 362.492 106.824C362.132 106.626 361.854 106.351 361.656 105.999C361.458 105.64 361.359 105.222 361.359 104.745V101.225C361.359 100.741 361.458 100.323 361.656 99.971C361.854 99.619 362.132 99.3477 362.492 99.157C362.858 98.959 363.287 98.86 363.779 98.86C364.277 98.86 364.706 98.959 365.066 99.157C365.425 99.3477 365.704 99.619 365.902 99.971C366.1 100.323 366.199 100.741 366.199 101.225V104.745C366.199 105.222 366.1 105.64 365.902 105.999C365.704 106.351 365.421 106.626 365.055 106.824C364.695 107.015 364.27 107.11 363.779 107.11ZM363.779 106.263C364.219 106.263 364.571 106.124 364.835 105.845C365.106 105.559 365.242 105.192 365.242 104.745V101.225C365.242 100.778 365.106 100.415 364.835 100.136C364.571 99.85 364.219 99.707 363.779 99.707C363.339 99.707 362.983 99.85 362.712 100.136C362.448 100.415 362.316 100.778 362.316 101.225V104.745C362.316 105.192 362.448 105.559 362.712 105.845C362.983 106.124 363.339 106.263 363.779 106.263ZM363.779 103.634C363.581 103.634 363.419 103.572 363.295 103.447C363.177 103.322 363.119 103.157 363.119 102.952C363.119 102.754 363.177 102.596 363.295 102.479C363.419 102.354 363.581 102.292 363.779 102.292C363.977 102.292 364.134 102.354 364.252 102.479C364.376 102.596 364.439 102.754 364.439 102.952C364.439 103.157 364.376 103.322 364.252 103.447C364.134 103.572 363.977 103.634 363.779 103.634ZM370.253 107.11C369.769 107.11 369.344 107.015 368.977 106.824C368.618 106.626 368.339 106.355 368.141 106.01C367.943 105.665 367.844 105.262 367.844 104.8H368.834C368.834 105.247 368.959 105.599 369.208 105.856C369.465 106.105 369.817 106.23 370.264 106.23C370.719 106.23 371.071 106.098 371.32 105.834C371.57 105.57 371.694 105.225 371.694 104.8V104.228C371.694 103.773 371.57 103.421 371.32 103.172C371.071 102.923 370.719 102.798 370.264 102.798H369.439V101.808L371.43 99.872H368.174V98.97H372.431V99.96L370.286 102.039V101.918C371.02 101.918 371.603 102.127 372.035 102.545C372.468 102.963 372.684 103.524 372.684 104.228V104.8C372.684 105.262 372.582 105.665 372.376 106.01C372.178 106.355 371.896 106.626 371.529 106.824C371.163 107.015 370.737 107.11 370.253 107.11Z" fill="black"/>
<path d="M148.694 221.1C148.147 221.1 147.704 220.917 147.364 220.55C147.03 220.183 146.864 219.687 146.864 219.06V217.45C146.864 216.817 147.03 216.317 147.364 215.95C147.697 215.583 148.14 215.4 148.694 215.4C149.147 215.4 149.51 215.523 149.784 215.77C150.057 216.017 150.194 216.347 150.194 216.76L150.014 216.55H150.214L150.194 215.3V213.7H151.094V221H150.194V219.95H150.014L150.194 219.74C150.194 220.16 150.057 220.493 149.784 220.74C149.51 220.98 149.147 221.1 148.694 221.1ZM148.994 220.32C149.367 220.32 149.66 220.203 149.874 219.97C150.087 219.737 150.194 219.413 150.194 219V217.5C150.194 217.087 150.087 216.763 149.874 216.53C149.66 216.297 149.367 216.18 148.994 216.18C148.614 216.18 148.314 216.293 148.094 216.52C147.874 216.747 147.764 217.073 147.764 217.5V219C147.764 219.427 147.874 219.753 148.094 219.98C148.314 220.207 148.614 220.32 148.994 220.32ZM155.01 221.1C154.576 221.1 154.196 221.013 153.87 220.84C153.55 220.667 153.3 220.423 153.12 220.11C152.946 219.79 152.86 219.42 152.86 219V217.5C152.86 217.073 152.946 216.703 153.12 216.39C153.3 216.077 153.55 215.833 153.87 215.66C154.196 215.487 154.576 215.4 155.01 215.4C155.443 215.4 155.82 215.487 156.14 215.66C156.466 215.833 156.716 216.077 156.89 216.39C157.07 216.703 157.16 217.073 157.16 217.5V218.47H153.74V219C153.74 219.433 153.85 219.767 154.07 220C154.29 220.227 154.603 220.34 155.01 220.34C155.356 220.34 155.636 220.28 155.85 220.16C156.063 220.033 156.193 219.847 156.24 219.6H157.14C157.08 220.06 156.853 220.427 156.46 220.7C156.073 220.967 155.59 221.1 155.01 221.1ZM156.28 217.87V217.5C156.28 217.067 156.17 216.733 155.95 216.5C155.736 216.267 155.423 216.15 155.01 216.15C154.603 216.15 154.29 216.267 154.07 216.5C153.85 216.733 153.74 217.067 153.74 217.5V217.79H156.35L156.28 217.87ZM158.926 222.8V215.5H159.826V216.55H160.006L159.826 216.76C159.826 216.34 159.963 216.01 160.236 215.77C160.516 215.523 160.883 215.4 161.336 215.4C161.889 215.4 162.329 215.583 162.656 215.95C162.989 216.31 163.156 216.807 163.156 217.44V219.05C163.156 219.47 163.079 219.833 162.926 220.14C162.779 220.447 162.569 220.683 162.296 220.85C162.029 221.017 161.709 221.1 161.336 221.1C160.889 221.1 160.526 220.977 160.246 220.73C159.966 220.483 159.826 220.153 159.826 219.74L160.006 219.95H159.806L159.826 221.2V222.8H158.926ZM161.036 220.32C161.416 220.32 161.713 220.207 161.926 219.98C162.146 219.753 162.256 219.427 162.256 219V217.5C162.256 217.073 162.146 216.747 161.926 216.52C161.713 216.293 161.416 216.18 161.036 216.18C160.669 216.18 160.376 216.297 160.156 216.53C159.936 216.763 159.826 217.087 159.826 217.5V219C159.826 219.413 159.936 219.737 160.156 219.97C160.376 220.203 160.669 220.32 161.036 220.32ZM167.002 221.08C166.562 221.08 166.182 220.997 165.862 220.83C165.542 220.663 165.292 220.423 165.112 220.11C164.939 219.79 164.852 219.413 164.852 218.98V217.52C164.852 217.08 164.939 216.703 165.112 216.39C165.292 216.077 165.542 215.837 165.862 215.67C166.182 215.503 166.562 215.42 167.002 215.42C167.442 215.42 167.822 215.503 168.142 215.67C168.462 215.837 168.709 216.077 168.882 216.39C169.062 216.703 169.152 217.077 169.152 217.51V218.98C169.152 219.413 169.062 219.79 168.882 220.11C168.709 220.423 168.462 220.663 168.142 220.83C167.822 220.997 167.442 221.08 167.002 221.08ZM167.002 220.28C167.395 220.28 167.702 220.17 167.922 219.95C168.142 219.73 168.252 219.407 168.252 218.98V217.52C168.252 217.093 168.142 216.77 167.922 216.55C167.702 216.33 167.395 216.22 167.002 216.22C166.615 216.22 166.309 216.33 166.082 216.55C165.862 216.77 165.752 217.093 165.752 217.52V218.98C165.752 219.407 165.862 219.73 166.082 219.95C166.309 220.17 166.615 220.28 167.002 220.28ZM172.828 221.08C172.455 221.08 172.128 221.023 171.848 220.91C171.575 220.79 171.355 220.623 171.188 220.41C171.028 220.197 170.931 219.943 170.898 219.65H171.798C171.838 219.843 171.945 219.997 172.118 220.11C172.298 220.223 172.535 220.28 172.828 220.28H173.248C173.601 220.28 173.865 220.21 174.038 220.07C174.211 219.923 174.298 219.73 174.298 219.49C174.298 219.257 174.218 219.073 174.058 218.94C173.905 218.8 173.675 218.707 173.368 218.66L172.628 218.54C172.088 218.447 171.685 218.28 171.418 218.04C171.158 217.793 171.028 217.437 171.028 216.97C171.028 216.477 171.185 216.097 171.498 215.83C171.811 215.557 172.281 215.42 172.908 215.42H173.288C173.815 215.42 174.238 215.543 174.558 215.79C174.878 216.037 175.071 216.37 175.138 216.79H174.238C174.198 216.617 174.098 216.48 173.938 216.38C173.778 216.273 173.561 216.22 173.288 216.22H172.908C172.568 216.22 172.318 216.283 172.158 216.41C172.005 216.537 171.928 216.727 171.928 216.98C171.928 217.207 171.995 217.373 172.128 217.48C172.261 217.587 172.471 217.663 172.758 217.71L173.498 217.83C174.091 217.923 174.521 218.097 174.788 218.35C175.061 218.603 175.198 218.97 175.198 219.45C175.198 219.957 175.035 220.357 174.708 220.65C174.388 220.937 173.901 221.08 173.248 221.08H172.828ZM176.844 221V220.18H178.794V216.32H177.094V215.5H179.694V220.18H181.544V221H176.844ZM179.144 214.51C178.924 214.51 178.751 214.453 178.624 214.34C178.497 214.227 178.434 214.073 178.434 213.88C178.434 213.68 178.497 213.523 178.624 213.41C178.751 213.29 178.924 213.23 179.144 213.23C179.364 213.23 179.537 213.29 179.664 213.41C179.791 213.523 179.854 213.68 179.854 213.88C179.854 214.073 179.791 214.227 179.664 214.34C179.537 214.453 179.364 214.51 179.144 214.51ZM185.59 221C185.117 221 184.747 220.873 184.48 220.62C184.22 220.367 184.09 220.01 184.09 219.55V216.32H182.54V215.5H184.09V213.95H184.99V215.5H187.19V216.32H184.99V219.55C184.99 219.97 185.19 220.18 185.59 220.18H187.09V221H185.59Z" fill="black"/>
<path d="M442 190L494.586 153.5M442 216L495 249" stroke="black" stroke-dasharray="5 5"/>
<path d="M449.668 206V200.5H450.458V201.16H450.638L450.498 201.4C450.498 201.093 450.578 200.85 450.738 200.67C450.904 200.49 451.128 200.4 451.408 200.4C451.714 200.4 451.951 200.513 452.118 200.74C452.284 200.967 452.368 201.287 452.368 201.7L452.098 201.16H452.518L452.328 201.4C452.328 201.093 452.411 200.85 452.578 200.67C452.751 200.49 452.978 200.4 453.258 200.4C453.604 200.4 453.871 200.53 454.058 200.79C454.251 201.05 454.348 201.393 454.348 201.82V206H453.518V201.81C453.518 201.583 453.468 201.407 453.368 201.28C453.274 201.153 453.134 201.09 452.948 201.09C452.768 201.09 452.624 201.153 452.518 201.28C452.418 201.4 452.368 201.573 452.368 201.8V206H451.648V201.81C451.648 201.577 451.594 201.4 451.488 201.28C451.388 201.153 451.244 201.09 451.058 201.09C450.871 201.09 450.731 201.153 450.638 201.28C450.544 201.4 450.498 201.573 450.498 201.8V206H449.668ZM455.854 206V205.18H457.804V201.32H456.104V200.5H458.704V205.18H460.554V206H455.854ZM458.154 199.51C457.934 199.51 457.761 199.453 457.634 199.34C457.507 199.227 457.444 199.073 457.444 198.88C457.444 198.68 457.507 198.523 457.634 198.41C457.761 198.29 457.934 198.23 458.154 198.23C458.374 198.23 458.547 198.29 458.674 198.41C458.801 198.523 458.864 198.68 458.864 198.88C458.864 199.073 458.801 199.227 458.674 199.34C458.547 199.453 458.374 199.51 458.154 199.51ZM461.92 206V200.5H462.82V201.55H463.01L462.82 201.76C462.82 201.327 462.95 200.993 463.21 200.76C463.47 200.52 463.83 200.4 464.29 200.4C464.843 200.4 465.283 200.57 465.61 200.91C465.937 201.25 466.1 201.713 466.1 202.3V206H465.2V202.4C465.2 202.007 465.093 201.707 464.88 201.5C464.673 201.287 464.39 201.18 464.03 201.18C463.657 201.18 463.36 201.293 463.14 201.52C462.927 201.747 462.82 202.073 462.82 202.5V206H461.92ZM470.596 206C470.123 206 469.753 205.873 469.486 205.62C469.226 205.367 469.096 205.01 469.096 204.55V201.32H467.546V200.5H469.096V198.95H469.996V200.5H472.196V201.32H469.996V204.55C469.996 204.97 470.196 205.18 470.596 205.18H472.096V206H470.596Z" fill="black"/>
<path d="M328 121L328 144" stroke="black" stroke-dasharray="5 5"/>
<path d="M182.798 373V363.51H185.255C185.87 363.51 186.399 363.627 186.841 363.861C187.291 364.095 187.638 364.424 187.881 364.849C188.132 365.274 188.258 365.776 188.258 366.357V370.14C188.258 370.721 188.132 371.228 187.881 371.661C187.638 372.086 187.291 372.415 186.841 372.649C186.399 372.883 185.87 373 185.255 373H182.798ZM183.968 371.96H185.255C185.827 371.96 186.273 371.8 186.594 371.479C186.923 371.158 187.088 370.712 187.088 370.14V366.357C187.088 365.794 186.923 365.352 186.594 365.031C186.273 364.71 185.827 364.55 185.255 364.55H183.968V371.96ZM193.296 373.13C192.733 373.13 192.239 373.017 191.814 372.792C191.398 372.567 191.073 372.25 190.839 371.843C190.614 371.427 190.501 370.946 190.501 370.4V368.45C190.501 367.895 190.614 367.414 190.839 367.007C191.073 366.6 191.398 366.283 191.814 366.058C192.239 365.833 192.733 365.72 193.296 365.72C193.86 365.72 194.349 365.833 194.765 366.058C195.19 366.283 195.515 366.6 195.74 367.007C195.974 367.414 196.091 367.895 196.091 368.45V369.711H191.645V370.4C191.645 370.963 191.788 371.397 192.074 371.7C192.36 371.995 192.768 372.142 193.296 372.142C193.747 372.142 194.111 372.064 194.388 371.908C194.666 371.743 194.835 371.501 194.895 371.18H196.065C195.987 371.778 195.693 372.255 195.181 372.61C194.679 372.957 194.05 373.13 193.296 373.13ZM194.947 368.931V368.45C194.947 367.887 194.804 367.453 194.518 367.15C194.241 366.847 193.834 366.695 193.296 366.695C192.768 366.695 192.36 366.847 192.074 367.15C191.788 367.453 191.645 367.887 191.645 368.45V368.827H195.038L194.947 368.931ZM198.387 375.34V365.85H199.557V367.215H199.791L199.557 367.488C199.557 366.942 199.735 366.513 200.09 366.201C200.454 365.88 200.931 365.72 201.52 365.72C202.24 365.72 202.812 365.958 203.236 366.435C203.67 366.903 203.886 367.549 203.886 368.372V370.465C203.886 371.011 203.787 371.483 203.587 371.882C203.397 372.281 203.124 372.588 202.768 372.805C202.422 373.022 202.006 373.13 201.52 373.13C200.94 373.13 200.467 372.97 200.103 372.649C199.739 372.328 199.557 371.899 199.557 371.362L199.791 371.635H199.531L199.557 373.26V375.34H198.387ZM201.13 372.116C201.624 372.116 202.01 371.969 202.287 371.674C202.573 371.379 202.716 370.955 202.716 370.4V368.45C202.716 367.895 202.573 367.471 202.287 367.176C202.01 366.881 201.624 366.734 201.13 366.734C200.654 366.734 200.272 366.886 199.986 367.189C199.7 367.492 199.557 367.913 199.557 368.45V370.4C199.557 370.937 199.7 371.358 199.986 371.661C200.272 371.964 200.654 372.116 201.13 372.116ZM208.886 373.104C208.314 373.104 207.82 372.996 207.404 372.779C206.988 372.562 206.663 372.25 206.429 371.843C206.204 371.427 206.091 370.937 206.091 370.374V368.476C206.091 367.904 206.204 367.414 206.429 367.007C206.663 366.6 206.988 366.288 207.404 366.071C207.82 365.854 208.314 365.746 208.886 365.746C209.458 365.746 209.952 365.854 210.368 366.071C210.784 366.288 211.105 366.6 211.33 367.007C211.564 367.414 211.681 367.9 211.681 368.463V370.374C211.681 370.937 211.564 371.427 211.33 371.843C211.105 372.25 210.784 372.562 210.368 372.779C209.952 372.996 209.458 373.104 208.886 373.104ZM208.886 372.064C209.398 372.064 209.796 371.921 210.082 371.635C210.368 371.349 210.511 370.929 210.511 370.374V368.476C210.511 367.921 210.368 367.501 210.082 367.215C209.796 366.929 209.398 366.786 208.886 366.786C208.384 366.786 207.985 366.929 207.69 367.215C207.404 367.501 207.261 367.921 207.261 368.476V370.374C207.261 370.929 207.404 371.349 207.69 371.635C207.985 371.921 208.384 372.064 208.886 372.064ZM216.46 373.104C215.975 373.104 215.55 373.03 215.186 372.883C214.831 372.727 214.545 372.51 214.328 372.233C214.12 371.956 213.995 371.626 213.951 371.245H215.121C215.173 371.496 215.312 371.696 215.537 371.843C215.771 371.99 216.079 372.064 216.46 372.064H217.006C217.466 372.064 217.808 371.973 218.033 371.791C218.259 371.6 218.371 371.349 218.371 371.037C218.371 370.734 218.267 370.495 218.059 370.322C217.86 370.14 217.561 370.019 217.162 369.958L216.2 369.802C215.498 369.681 214.974 369.464 214.627 369.152C214.289 368.831 214.12 368.368 214.12 367.761C214.12 367.12 214.324 366.626 214.731 366.279C215.139 365.924 215.75 365.746 216.564 365.746H217.058C217.743 365.746 218.293 365.906 218.709 366.227C219.125 366.548 219.377 366.981 219.463 367.527H218.293C218.241 367.302 218.111 367.124 217.903 366.994C217.695 366.855 217.414 366.786 217.058 366.786H216.564C216.122 366.786 215.797 366.868 215.589 367.033C215.39 367.198 215.29 367.445 215.29 367.774C215.29 368.069 215.377 368.285 215.55 368.424C215.724 368.563 215.997 368.662 216.369 368.723L217.331 368.879C218.103 369 218.662 369.226 219.008 369.555C219.364 369.884 219.541 370.361 219.541 370.985C219.541 371.644 219.329 372.164 218.904 372.545C218.488 372.918 217.856 373.104 217.006 373.104H216.46ZM221.681 373V371.934H224.216V366.916H222.006V365.85H225.386V371.934H227.791V373H221.681ZM224.671 364.563C224.385 364.563 224.16 364.489 223.995 364.342C223.831 364.195 223.748 363.995 223.748 363.744C223.748 363.484 223.831 363.28 223.995 363.133C224.16 362.977 224.385 362.899 224.671 362.899C224.957 362.899 225.183 362.977 225.347 363.133C225.512 363.28 225.594 363.484 225.594 363.744C225.594 363.995 225.512 364.195 225.347 364.342C225.183 364.489 224.957 364.563 224.671 364.563ZM233.051 373C232.436 373 231.955 372.835 231.608 372.506C231.27 372.177 231.101 371.713 231.101 371.115V366.916H229.086V365.85H231.101V363.835H232.271V365.85H235.131V366.916H232.271V371.115C232.271 371.661 232.531 371.934 233.051 371.934H235.001V373H233.051ZM237.271 373V371.934H239.806V366.916H237.596V365.85H240.976V371.934H243.381V373H237.271ZM240.261 364.563C239.975 364.563 239.75 364.489 239.585 364.342C239.42 364.195 239.338 363.995 239.338 363.744C239.338 363.484 239.42 363.28 239.585 363.133C239.75 362.977 239.975 362.899 240.261 362.899C240.547 362.899 240.772 362.977 240.937 363.133C241.102 363.28 241.184 363.484 241.184 363.744C241.184 363.995 241.102 364.195 240.937 364.342C240.772 364.489 240.547 364.563 240.261 364.563ZM245.157 373V365.85H246.327V367.215H246.574L246.327 367.488C246.327 366.925 246.496 366.491 246.834 366.188C247.172 365.876 247.64 365.72 248.238 365.72C248.957 365.72 249.529 365.941 249.954 366.383C250.379 366.825 250.591 367.427 250.591 368.19V373H249.421V368.32C249.421 367.809 249.282 367.419 249.005 367.15C248.736 366.873 248.368 366.734 247.9 366.734C247.415 366.734 247.029 366.881 246.743 367.176C246.466 367.471 246.327 367.895 246.327 368.45V373H245.157ZM253.849 375.34V374.274H256.124C256.488 374.274 256.752 374.192 256.917 374.027C257.09 373.862 257.177 373.607 257.177 373.26V372.35L257.203 371.05H256.969L257.19 370.855C257.19 371.375 257.017 371.787 256.67 372.09C256.323 372.393 255.86 372.545 255.279 372.545C254.542 372.545 253.962 372.307 253.537 371.83C253.112 371.345 252.9 370.695 252.9 369.88V368.372C252.9 367.557 253.112 366.912 253.537 366.435C253.962 365.958 254.542 365.72 255.279 365.72C255.86 365.72 256.323 365.872 256.67 366.175C257.017 366.478 257.19 366.89 257.19 367.41L256.969 367.215H257.19V365.85H258.347V373.26C258.347 373.901 258.148 374.408 257.749 374.781C257.359 375.154 256.813 375.34 256.111 375.34H253.849ZM255.63 371.531C256.115 371.531 256.497 371.379 256.774 371.076C257.051 370.773 257.19 370.352 257.19 369.815V368.45C257.19 367.913 257.051 367.492 256.774 367.189C256.497 366.886 256.115 366.734 255.63 366.734C255.136 366.734 254.75 366.881 254.473 367.176C254.204 367.471 254.07 367.895 254.07 368.45V369.815C254.07 370.37 254.204 370.794 254.473 371.089C254.75 371.384 255.136 371.531 255.63 371.531ZM268.581 373V363.497H274.171V364.563H269.725V367.722H273.833V368.788H269.751V373H268.581ZM276.636 373V363.51H277.806V371.934H282.096V373H276.636ZM284.132 373V363.51H287.07C287.633 363.51 288.127 363.627 288.552 363.861C288.976 364.086 289.306 364.403 289.54 364.81C289.774 365.217 289.891 365.694 289.891 366.24C289.891 366.881 289.722 367.432 289.384 367.891C289.054 368.35 288.604 368.667 288.032 368.84L290.021 373H288.643L286.823 368.97H285.302V373H284.132ZM285.302 367.917H287.07C287.555 367.917 287.945 367.765 288.24 367.462C288.534 367.15 288.682 366.743 288.682 366.24C288.682 365.729 288.534 365.321 288.24 365.018C287.945 364.715 287.555 364.563 287.07 364.563H285.302V367.917ZM303.205 373C302.59 373 302.109 372.835 301.762 372.506C301.424 372.177 301.255 371.713 301.255 371.115V366.916H299.24V365.85H301.255V363.835H302.425V365.85H305.285V366.916H302.425V371.115C302.425 371.661 302.685 371.934 303.205 371.934H305.155V373H303.205ZM310.22 373.104C309.648 373.104 309.154 372.996 308.738 372.779C308.322 372.562 307.997 372.25 307.763 371.843C307.538 371.427 307.425 370.937 307.425 370.374V368.476C307.425 367.904 307.538 367.414 307.763 367.007C307.997 366.6 308.322 366.288 308.738 366.071C309.154 365.854 309.648 365.746 310.22 365.746C310.792 365.746 311.286 365.854 311.702 366.071C312.118 366.288 312.439 366.6 312.664 367.007C312.898 367.414 313.015 367.9 313.015 368.463V370.374C313.015 370.937 312.898 371.427 312.664 371.843C312.439 372.25 312.118 372.562 311.702 372.779C311.286 372.996 310.792 373.104 310.22 373.104ZM310.22 372.064C310.732 372.064 311.13 371.921 311.416 371.635C311.702 371.349 311.845 370.929 311.845 370.374V368.476C311.845 367.921 311.702 367.501 311.416 367.215C311.13 366.929 310.732 366.786 310.22 366.786C309.718 366.786 309.319 366.929 309.024 367.215C308.738 367.501 308.595 367.921 308.595 368.476V370.374C308.595 370.929 308.738 371.349 309.024 371.635C309.319 371.921 309.718 372.064 310.22 372.064ZM322.768 373V365.85H323.795V366.708H324.029L323.847 367.02C323.847 366.621 323.951 366.305 324.159 366.071C324.376 365.837 324.666 365.72 325.03 365.72C325.429 365.72 325.736 365.867 325.953 366.162C326.17 366.457 326.278 366.873 326.278 367.41L325.927 366.708H326.473L326.226 367.02C326.226 366.621 326.334 366.305 326.551 366.071C326.776 365.837 327.071 365.72 327.435 365.72C327.886 365.72 328.232 365.889 328.475 366.227C328.726 366.565 328.852 367.011 328.852 367.566V373H327.773V367.553C327.773 367.258 327.708 367.029 327.578 366.864C327.457 366.699 327.275 366.617 327.032 366.617C326.798 366.617 326.612 366.699 326.473 366.864C326.343 367.02 326.278 367.245 326.278 367.54V373H325.342V367.553C325.342 367.25 325.273 367.02 325.134 366.864C325.004 366.699 324.818 366.617 324.575 366.617C324.332 366.617 324.15 366.699 324.029 366.864C323.908 367.02 323.847 367.245 323.847 367.54V373H322.768ZM330.81 373V371.934H333.345V366.916H331.135V365.85H334.515V371.934H336.92V373H330.81ZM333.8 364.563C333.514 364.563 333.289 364.489 333.124 364.342C332.959 364.195 332.877 363.995 332.877 363.744C332.877 363.484 332.959 363.28 333.124 363.133C333.289 362.977 333.514 362.899 333.8 362.899C334.086 362.899 334.311 362.977 334.476 363.133C334.641 363.28 334.723 363.484 334.723 363.744C334.723 363.995 334.641 364.195 334.476 364.342C334.311 364.489 334.086 364.563 333.8 364.563ZM338.696 373V365.85H339.866V367.215H340.113L339.866 367.488C339.866 366.925 340.035 366.491 340.373 366.188C340.711 365.876 341.179 365.72 341.777 365.72C342.496 365.72 343.068 365.941 343.493 366.383C343.918 366.825 344.13 367.427 344.13 368.19V373H342.96V368.32C342.96 367.809 342.821 367.419 342.544 367.15C342.275 366.873 341.907 366.734 341.439 366.734C340.954 366.734 340.568 366.881 340.282 367.176C340.005 367.471 339.866 367.895 339.866 368.45V373H338.696ZM349.975 373C349.36 373 348.879 372.835 348.532 372.506C348.194 372.177 348.025 371.713 348.025 371.115V366.916H346.01V365.85H348.025V363.835H349.195V365.85H352.055V366.916H349.195V371.115C349.195 371.661 349.455 371.934 349.975 371.934H351.925V373H349.975ZM362.978 375.34V374.274H365.253C365.617 374.274 365.881 374.192 366.046 374.027C366.219 373.862 366.306 373.607 366.306 373.26V372.35L366.332 371.05H366.098L366.319 370.855C366.319 371.375 366.145 371.787 365.799 372.09C365.452 372.393 364.988 372.545 364.408 372.545C363.671 372.545 363.09 372.307 362.666 371.83C362.241 371.345 362.029 370.695 362.029 369.88V368.372C362.029 367.557 362.241 366.912 362.666 366.435C363.09 365.958 363.671 365.72 364.408 365.72C364.988 365.72 365.452 365.872 365.799 366.175C366.145 366.478 366.319 366.89 366.319 367.41L366.098 367.215H366.319V365.85H367.476V373.26C367.476 373.901 367.276 374.408 366.878 374.781C366.488 375.154 365.942 375.34 365.24 375.34H362.978ZM364.759 371.531C365.244 371.531 365.625 371.379 365.903 371.076C366.18 370.773 366.319 370.352 366.319 369.815V368.45C366.319 367.913 366.18 367.492 365.903 367.189C365.625 366.886 365.244 366.734 364.759 366.734C364.265 366.734 363.879 366.881 363.602 367.176C363.333 367.471 363.199 367.895 363.199 368.45V369.815C363.199 370.37 363.333 370.794 363.602 371.089C363.879 371.384 364.265 371.531 364.759 371.531ZM369.915 373V363.497H375.505V364.563H371.059V367.722H375.167V368.788H371.085V373H369.915ZM377.97 373V363.51H379.14V371.934H383.43V373H377.97ZM385.466 373V363.51H388.404C388.967 363.51 389.461 363.627 389.886 363.861C390.31 364.086 390.64 364.403 390.874 364.81C391.108 365.217 391.225 365.694 391.225 366.24C391.225 366.881 391.056 367.432 390.718 367.891C390.388 368.35 389.938 368.667 389.366 368.84L391.355 373H389.977L388.157 368.97H386.636V373H385.466ZM386.636 367.917H388.404C388.889 367.917 389.279 367.765 389.574 367.462C389.868 367.15 390.016 366.743 390.016 366.24C390.016 365.729 389.868 365.321 389.574 365.018C389.279 364.715 388.889 364.563 388.404 364.563H386.636V367.917ZM403.135 373.13C402.381 373.13 401.788 372.939 401.354 372.558C400.921 372.168 400.704 371.644 400.704 370.985C400.704 370.318 400.921 369.793 401.354 369.412C401.788 369.031 402.373 368.84 403.109 368.84H405.319V368.125C405.319 367.683 405.185 367.345 404.916 367.111C404.656 366.868 404.284 366.747 403.798 366.747C403.374 366.747 403.018 366.838 402.732 367.02C402.446 367.193 402.282 367.432 402.238 367.735H401.068C401.146 367.12 401.437 366.63 401.939 366.266C402.442 365.902 403.07 365.72 403.824 365.72C404.648 365.72 405.298 365.932 405.774 366.357C406.251 366.782 406.489 367.358 406.489 368.086V373H405.345V371.635H405.15L405.345 371.44C405.345 371.96 405.142 372.372 404.734 372.675C404.336 372.978 403.803 373.13 403.135 373.13ZM403.421 372.207C403.976 372.207 404.431 372.068 404.786 371.791C405.142 371.514 405.319 371.158 405.319 370.725V369.711H403.135C402.745 369.711 402.438 369.819 402.212 370.036C401.987 370.253 401.874 370.547 401.874 370.92C401.874 371.319 402.009 371.635 402.277 371.869C402.555 372.094 402.936 372.207 403.421 372.207ZM408.85 373V365.85H410.02V367.215H410.267L410.02 367.488C410.02 366.925 410.189 366.491 410.527 366.188C410.865 365.876 411.333 365.72 411.931 365.72C412.651 365.72 413.223 365.941 413.647 366.383C414.072 366.825 414.284 367.427 414.284 368.19V373H413.114V368.32C413.114 367.809 412.976 367.419 412.698 367.15C412.43 366.873 412.061 366.734 411.593 366.734C411.108 366.734 410.722 366.881 410.436 367.176C410.159 367.471 410.02 367.895 410.02 368.45V373H408.85ZM418.933 373.13C418.223 373.13 417.646 372.892 417.204 372.415C416.771 371.938 416.554 371.293 416.554 370.478V368.385C416.554 367.562 416.771 366.912 417.204 366.435C417.638 365.958 418.214 365.72 418.933 365.72C419.523 365.72 419.995 365.88 420.35 366.201C420.706 366.522 420.883 366.951 420.883 367.488L420.649 367.215H420.909L420.883 365.59V363.51H422.053V373H420.883V371.635H420.649L420.883 371.362C420.883 371.908 420.706 372.341 420.35 372.662C419.995 372.974 419.523 373.13 418.933 373.13ZM419.323 372.116C419.809 372.116 420.19 371.964 420.467 371.661C420.745 371.358 420.883 370.937 420.883 370.4V368.45C420.883 367.913 420.745 367.492 420.467 367.189C420.19 366.886 419.809 366.734 419.323 366.734C418.829 366.734 418.439 366.881 418.153 367.176C417.867 367.471 417.724 367.895 417.724 368.45V370.4C417.724 370.955 417.867 371.379 418.153 371.674C418.439 371.969 418.829 372.116 419.323 372.116ZM432.235 373V363.51H435.173C435.736 363.51 436.23 363.627 436.655 363.861C437.08 364.086 437.409 364.403 437.643 364.81C437.877 365.217 437.994 365.694 437.994 366.24C437.994 366.881 437.825 367.432 437.487 367.891C437.158 368.35 436.707 368.667 436.135 368.84L438.124 373H436.746L434.926 368.97H433.405V373H432.235ZM433.405 367.917H435.173C435.658 367.917 436.048 367.765 436.343 367.462C436.638 367.15 436.785 366.743 436.785 366.24C436.785 365.729 436.638 365.321 436.343 365.018C436.048 364.715 435.658 364.563 435.173 364.563H433.405V367.917ZM442.734 373.13C442.171 373.13 441.677 373.017 441.252 372.792C440.836 372.567 440.511 372.25 440.277 371.843C440.052 371.427 439.939 370.946 439.939 370.4V368.45C439.939 367.895 440.052 367.414 440.277 367.007C440.511 366.6 440.836 366.283 441.252 366.058C441.677 365.833 442.171 365.72 442.734 365.72C443.297 365.72 443.787 365.833 444.203 366.058C444.628 366.283 444.953 366.6 445.178 367.007C445.412 367.414 445.529 367.895 445.529 368.45V369.711H441.083V370.4C441.083 370.963 441.226 371.397 441.512 371.7C441.798 371.995 442.205 372.142 442.734 372.142C443.185 372.142 443.549 372.064 443.826 371.908C444.103 371.743 444.272 371.501 444.333 371.18H445.503C445.425 371.778 445.13 372.255 444.619 372.61C444.116 372.957 443.488 373.13 442.734 373.13ZM444.385 368.931V368.45C444.385 367.887 444.242 367.453 443.956 367.15C443.679 366.847 443.271 366.695 442.734 366.695C442.205 366.695 441.798 366.847 441.512 367.15C441.226 367.453 441.083 367.887 441.083 368.45V368.827H444.476L444.385 368.931ZM450.581 373.13C450.009 373.13 449.506 373.022 449.073 372.805C448.648 372.588 448.319 372.276 448.085 371.869C447.851 371.453 447.734 370.963 447.734 370.4V368.45C447.734 367.878 447.851 367.388 448.085 366.981C448.319 366.574 448.648 366.262 449.073 366.045C449.506 365.828 450.009 365.72 450.581 365.72C451.404 365.72 452.067 365.941 452.57 366.383C453.073 366.825 453.337 367.427 453.363 368.19H452.193C452.167 367.731 452.011 367.38 451.725 367.137C451.448 366.886 451.066 366.76 450.581 366.76C450.07 366.76 449.662 366.907 449.359 367.202C449.056 367.488 448.904 367.9 448.904 368.437V370.4C448.904 370.937 449.056 371.353 449.359 371.648C449.662 371.943 450.07 372.09 450.581 372.09C451.066 372.09 451.448 371.964 451.725 371.713C452.011 371.462 452.167 371.111 452.193 370.66H453.363C453.337 371.423 453.073 372.025 452.57 372.467C452.067 372.909 451.404 373.13 450.581 373.13ZM458.324 373.13C457.76 373.13 457.266 373.017 456.842 372.792C456.426 372.567 456.101 372.25 455.867 371.843C455.641 371.427 455.529 370.946 455.529 370.4V368.45C455.529 367.895 455.641 367.414 455.867 367.007C456.101 366.6 456.426 366.283 456.842 366.058C457.266 365.833 457.76 365.72 458.324 365.72C458.887 365.72 459.377 365.833 459.793 366.058C460.217 366.283 460.542 366.6 460.768 367.007C461.002 367.414 461.119 367.895 461.119 368.45V369.711H456.673V370.4C456.673 370.963 456.816 371.397 457.102 371.7C457.388 371.995 457.795 372.142 458.324 372.142C458.774 372.142 459.138 372.064 459.416 371.908C459.693 371.743 459.862 371.501 459.923 371.18H461.093C461.015 371.778 460.72 372.255 460.209 372.61C459.706 372.957 459.078 373.13 458.324 373.13ZM459.975 368.931V368.45C459.975 367.887 459.832 367.453 459.546 367.15C459.268 366.847 458.861 366.695 458.324 366.695C457.795 366.695 457.388 366.847 457.102 367.15C456.816 367.453 456.673 367.887 456.673 368.45V368.827H460.066L459.975 368.931ZM463.324 373V371.934H465.859V366.916H463.649V365.85H467.029V371.934H469.434V373H463.324ZM466.314 364.563C466.028 364.563 465.802 364.489 465.638 364.342C465.473 364.195 465.391 363.995 465.391 363.744C465.391 363.484 465.473 363.28 465.638 363.133C465.802 362.977 466.028 362.899 466.314 362.899C466.6 362.899 466.825 362.977 466.99 363.133C467.154 363.28 467.237 363.484 467.237 363.744C467.237 363.995 467.154 364.195 466.99 364.342C466.825 364.489 466.6 364.563 466.314 364.563ZM471.21 375.34V365.85H472.38V367.215H472.614L472.38 367.488C472.38 366.942 472.557 366.513 472.913 366.201C473.277 365.88 473.753 365.72 474.343 365.72C475.062 365.72 475.634 365.958 476.059 366.435C476.492 366.903 476.709 367.549 476.709 368.372V370.465C476.709 371.011 476.609 371.483 476.41 371.882C476.219 372.281 475.946 372.588 475.591 372.805C475.244 373.022 474.828 373.13 474.343 373.13C473.762 373.13 473.29 372.97 472.926 372.649C472.562 372.328 472.38 371.899 472.38 371.362L472.614 371.635H472.354L472.38 373.26V375.34H471.21ZM473.953 372.116C474.447 372.116 474.832 371.969 475.11 371.674C475.396 371.379 475.539 370.955 475.539 370.4V368.45C475.539 367.895 475.396 367.471 475.11 367.176C474.832 366.881 474.447 366.734 473.953 366.734C473.476 366.734 473.095 366.886 472.809 367.189C472.523 367.492 472.38 367.913 472.38 368.45V370.4C472.38 370.937 472.523 371.358 472.809 371.661C473.095 371.964 473.476 372.116 473.953 372.116ZM482.489 373C481.873 373 481.392 372.835 481.046 372.506C480.708 372.177 480.539 371.713 480.539 371.115V366.916H478.524V365.85H480.539V363.835H481.709V365.85H484.569V366.916H481.709V371.115C481.709 371.661 481.969 371.934 482.489 371.934H484.439V373H482.489ZM489.283 373.104C488.797 373.104 488.373 373.03 488.009 372.883C487.653 372.727 487.367 372.51 487.151 372.233C486.943 371.956 486.817 371.626 486.774 371.245H487.944C487.996 371.496 488.134 371.696 488.36 371.843C488.594 371.99 488.901 372.064 489.283 372.064H489.829C490.288 372.064 490.63 371.973 490.856 371.791C491.081 371.6 491.194 371.349 491.194 371.037C491.194 370.734 491.09 370.495 490.882 370.322C490.682 370.14 490.383 370.019 489.985 369.958L489.023 369.802C488.321 369.681 487.796 369.464 487.45 369.152C487.112 368.831 486.943 368.368 486.943 367.761C486.943 367.12 487.146 366.626 487.554 366.279C487.961 365.924 488.572 365.746 489.387 365.746H489.881C490.565 365.746 491.116 365.906 491.532 366.227C491.948 366.548 492.199 366.981 492.286 367.527H491.116C491.064 367.302 490.934 367.124 490.726 366.994C490.518 366.855 490.236 366.786 489.881 366.786H489.387C488.945 366.786 488.62 366.868 488.412 367.033C488.212 367.198 488.113 367.445 488.113 367.774C488.113 368.069 488.199 368.285 488.373 368.424C488.546 368.563 488.819 368.662 489.192 368.723L490.154 368.879C490.925 369 491.484 369.226 491.831 369.555C492.186 369.884 492.364 370.361 492.364 370.985C492.364 371.644 492.151 372.164 491.727 372.545C491.311 372.918 490.678 373.104 489.829 373.104H489.283Z" fill="black"/>
<rect x="213" y="144" width="229" height="116" fill="#E6E6E6"/>
<path d="M239.093 216V206.497H244.683V207.563H240.237V210.722H244.345V211.788H240.263V216H239.093ZM247.148 216V206.51H248.318V214.934H252.608V216H247.148ZM254.644 216V206.51H257.582C258.146 206.51 258.64 206.627 259.064 206.861C259.489 207.086 259.818 207.403 260.052 207.81C260.286 208.217 260.403 208.694 260.403 209.24C260.403 209.881 260.234 210.432 259.896 210.891C259.567 211.35 259.116 211.667 258.544 211.84L260.533 216H259.155L257.335 211.97H255.814V216H254.644ZM255.814 210.917H257.582C258.068 210.917 258.458 210.765 258.752 210.462C259.047 210.15 259.194 209.743 259.194 209.24C259.194 208.729 259.047 208.321 258.752 208.018C258.458 207.715 258.068 207.563 257.582 207.563H255.814V210.917ZM269.688 216L272.223 212.321L269.844 208.85H271.222L272.639 211.06C272.7 211.155 272.756 211.259 272.808 211.372C272.869 211.485 272.916 211.576 272.951 211.645C272.977 211.576 273.016 211.485 273.068 211.372C273.129 211.259 273.189 211.155 273.25 211.06L274.68 208.85H276.045L273.666 212.334L276.188 216H274.81L273.276 213.66C273.215 213.565 273.155 213.456 273.094 213.335C273.042 213.205 272.994 213.101 272.951 213.023C272.916 213.101 272.864 213.205 272.795 213.335C272.734 213.456 272.669 213.565 272.6 213.66L271.053 216H269.688ZM285.863 216V206.497H291.453V207.563H287.007V210.722H291.115V211.788H287.033V216H285.863ZM295.738 216V207.563H293.138V206.497H299.508V207.563H296.908V216H295.738ZM304.17 216.13C303.546 216.13 303.008 216.026 302.558 215.818C302.116 215.61 301.773 215.311 301.531 214.921C301.288 214.531 301.162 214.067 301.154 213.53H302.324C302.324 214.007 302.484 214.384 302.805 214.661C303.134 214.938 303.589 215.077 304.17 215.077C304.716 215.077 305.14 214.943 305.444 214.674C305.756 214.405 305.912 214.033 305.912 213.556C305.912 213.175 305.808 212.841 305.6 212.555C305.4 212.269 305.11 212.07 304.729 211.957L303.442 211.554C302.792 211.355 302.289 211.021 301.934 210.553C301.587 210.085 301.414 209.535 301.414 208.902C301.414 208.391 301.526 207.949 301.752 207.576C301.986 207.195 302.311 206.9 302.727 206.692C303.143 206.475 303.632 206.367 304.196 206.367C305.028 206.367 305.695 206.601 306.198 207.069C306.7 207.528 306.956 208.144 306.965 208.915H305.795C305.795 208.447 305.652 208.083 305.366 207.823C305.088 207.554 304.694 207.42 304.183 207.42C303.68 207.42 303.286 207.541 303 207.784C302.722 208.027 302.584 208.365 302.584 208.798C302.584 209.188 302.688 209.526 302.896 209.812C303.104 210.098 303.403 210.302 303.793 210.423L305.093 210.839C305.725 211.038 306.215 211.376 306.562 211.853C306.908 212.33 307.082 212.889 307.082 213.53C307.082 214.05 306.96 214.505 306.718 214.895C306.475 215.285 306.133 215.588 305.691 215.805C305.257 216.022 304.75 216.13 304.17 216.13ZM311.913 216.13C311.341 216.13 310.847 216.022 310.431 215.805C310.023 215.588 309.707 215.276 309.482 214.869C309.265 214.453 309.157 213.963 309.157 213.4V209.11C309.157 208.538 309.265 208.048 309.482 207.641C309.707 207.234 310.023 206.922 310.431 206.705C310.847 206.488 311.341 206.38 311.913 206.38C312.485 206.38 312.974 206.488 313.382 206.705C313.798 206.922 314.114 207.234 314.331 207.641C314.556 208.048 314.669 208.534 314.669 209.097V213.4C314.669 213.963 314.556 214.453 314.331 214.869C314.114 215.276 313.798 215.588 313.382 215.805C312.974 216.022 312.485 216.13 311.913 216.13ZM311.913 215.077C312.424 215.077 312.814 214.934 313.083 214.648C313.36 214.353 313.499 213.937 313.499 213.4V209.11C313.499 208.573 313.36 208.161 313.083 207.875C312.814 207.58 312.424 207.433 311.913 207.433C311.41 207.433 311.02 207.58 310.743 207.875C310.465 208.161 310.327 208.573 310.327 209.11V213.4C310.327 213.937 310.465 214.353 310.743 214.648C311.02 214.934 311.41 215.077 311.913 215.077ZM324.799 218.34V208.85H325.969V210.215H326.203L325.969 210.488C325.969 209.942 326.146 209.513 326.502 209.201C326.866 208.88 327.342 208.72 327.932 208.72C328.651 208.72 329.223 208.958 329.648 209.435C330.081 209.903 330.298 210.549 330.298 211.372V213.465C330.298 214.011 330.198 214.483 329.999 214.882C329.808 215.281 329.535 215.588 329.18 215.805C328.833 216.022 328.417 216.13 327.932 216.13C327.351 216.13 326.879 215.97 326.515 215.649C326.151 215.328 325.969 214.899 325.969 214.362L326.203 214.635H325.943L325.969 216.26V218.34H324.799ZM327.542 215.116C328.036 215.116 328.421 214.969 328.699 214.674C328.985 214.379 329.128 213.955 329.128 213.4V211.45C329.128 210.895 328.985 210.471 328.699 210.176C328.421 209.881 328.036 209.734 327.542 209.734C327.065 209.734 326.684 209.886 326.398 210.189C326.112 210.492 325.969 210.913 325.969 211.45V213.4C325.969 213.937 326.112 214.358 326.398 214.661C326.684 214.964 327.065 215.116 327.542 215.116ZM332.84 216V208.85H333.984V210.215H334.257L333.88 211.06C333.88 210.289 334.045 209.708 334.374 209.318C334.712 208.919 335.211 208.72 335.869 208.72C336.623 208.72 337.221 208.958 337.663 209.435C338.114 209.903 338.339 210.54 338.339 211.346V211.775H337.169V211.45C337.169 210.887 337.031 210.458 336.753 210.163C336.485 209.86 336.099 209.708 335.596 209.708C335.102 209.708 334.712 209.86 334.426 210.163C334.149 210.466 334.01 210.895 334.01 211.45V216H332.84ZM340.297 216V214.934H342.832V209.916H340.622V208.85H344.002V214.934H346.407V216H340.297ZM343.287 207.563C343.001 207.563 342.776 207.489 342.611 207.342C342.447 207.195 342.364 206.995 342.364 206.744C342.364 206.484 342.447 206.28 342.611 206.133C342.776 205.977 343.001 205.899 343.287 205.899C343.573 205.899 343.799 205.977 343.963 206.133C344.128 206.28 344.21 206.484 344.21 206.744C344.21 206.995 344.128 207.195 343.963 207.342C343.799 207.489 343.573 207.563 343.287 207.563ZM350.939 216.13C350.367 216.13 349.865 216.022 349.431 215.805C349.007 215.588 348.677 215.276 348.443 214.869C348.209 214.453 348.092 213.963 348.092 213.4V211.45C348.092 210.878 348.209 210.388 348.443 209.981C348.677 209.574 349.007 209.262 349.431 209.045C349.865 208.828 350.367 208.72 350.939 208.72C351.763 208.72 352.426 208.941 352.928 209.383C353.431 209.825 353.695 210.427 353.721 211.19H352.551C352.525 210.731 352.369 210.38 352.083 210.137C351.806 209.886 351.425 209.76 350.939 209.76C350.428 209.76 350.021 209.907 349.717 210.202C349.414 210.488 349.262 210.9 349.262 211.437V213.4C349.262 213.937 349.414 214.353 349.717 214.648C350.021 214.943 350.428 215.09 350.939 215.09C351.425 215.09 351.806 214.964 352.083 214.713C352.369 214.462 352.525 214.111 352.551 213.66H353.721C353.695 214.423 353.431 215.025 352.928 215.467C352.426 215.909 351.763 216.13 350.939 216.13ZM358.682 216.13C358.119 216.13 357.625 216.017 357.2 215.792C356.784 215.567 356.459 215.25 356.225 214.843C356 214.427 355.887 213.946 355.887 213.4V211.45C355.887 210.895 356 210.414 356.225 210.007C356.459 209.6 356.784 209.283 357.2 209.058C357.625 208.833 358.119 208.72 358.682 208.72C359.246 208.72 359.735 208.833 360.151 209.058C360.576 209.283 360.901 209.6 361.126 210.007C361.36 210.414 361.477 210.895 361.477 211.45V212.711H357.031V213.4C357.031 213.963 357.174 214.397 357.46 214.7C357.746 214.995 358.154 215.142 358.682 215.142C359.133 215.142 359.497 215.064 359.774 214.908C360.052 214.743 360.221 214.501 360.281 214.18H361.451C361.373 214.778 361.079 215.255 360.567 215.61C360.065 215.957 359.436 216.13 358.682 216.13ZM360.333 211.931V211.45C360.333 210.887 360.19 210.453 359.904 210.15C359.627 209.847 359.22 209.695 358.682 209.695C358.154 209.695 357.746 209.847 357.46 210.15C357.174 210.453 357.031 210.887 357.031 211.45V211.827H360.424L360.333 211.931ZM371.477 210.67V209.63H377.067V210.67H371.477ZM371.477 213.79V212.75H377.067V213.79H371.477ZM388.055 218.34V217.274H390.33C390.694 217.274 390.958 217.192 391.123 217.027C391.296 216.862 391.383 216.607 391.383 216.26V215.35L391.409 214.05H391.175L391.396 213.855C391.396 214.375 391.223 214.787 390.876 215.09C390.529 215.393 390.066 215.545 389.485 215.545C388.748 215.545 388.168 215.307 387.743 214.83C387.318 214.345 387.106 213.695 387.106 212.88V211.372C387.106 210.557 387.318 209.912 387.743 209.435C388.168 208.958 388.748 208.72 389.485 208.72C390.066 208.72 390.529 208.872 390.876 209.175C391.223 209.478 391.396 209.89 391.396 210.41L391.175 210.215H391.396V208.85H392.553V216.26C392.553 216.901 392.354 217.408 391.955 217.781C391.565 218.154 391.019 218.34 390.317 218.34H388.055ZM389.836 214.531C390.321 214.531 390.703 214.379 390.98 214.076C391.257 213.773 391.396 213.352 391.396 212.815V211.45C391.396 210.913 391.257 210.492 390.98 210.189C390.703 209.886 390.321 209.734 389.836 209.734C389.342 209.734 388.956 209.881 388.679 210.176C388.41 210.471 388.276 210.895 388.276 211.45V212.815C388.276 213.37 388.41 213.794 388.679 214.089C388.956 214.384 389.342 214.531 389.836 214.531ZM394.992 216V206.497H400.582V207.563H396.136V210.722H400.244V211.788H396.162V216H394.992ZM403.047 216V206.51H404.217V214.934H408.507V216H403.047ZM410.543 216V206.51H413.481C414.044 206.51 414.538 206.627 414.963 206.861C415.387 207.086 415.717 207.403 415.951 207.81C416.185 208.217 416.302 208.694 416.302 209.24C416.302 209.881 416.133 210.432 415.795 210.891C415.465 211.35 415.015 211.667 414.443 211.84L416.432 216H415.054L413.234 211.97H411.713V216H410.543ZM411.713 210.917H413.481C413.966 210.917 414.356 210.765 414.651 210.462C414.945 210.15 415.093 209.743 415.093 209.24C415.093 208.729 414.945 208.321 414.651 208.018C414.356 207.715 413.966 207.563 413.481 207.563H411.713V210.917ZM254.618 238V236.934H257.192V229.485L254.618 231.409V230.109L256.763 228.51H258.362V236.934H260.468V238H254.618ZM265.143 238.13C264.562 238.13 264.055 238.017 263.622 237.792C263.197 237.558 262.868 237.233 262.634 236.817C262.4 236.392 262.283 235.898 262.283 235.335V231.175C262.283 230.603 262.4 230.109 262.634 229.693C262.868 229.277 263.197 228.956 263.622 228.731C264.055 228.497 264.562 228.38 265.143 228.38C265.732 228.38 266.239 228.497 266.664 228.731C267.089 228.956 267.418 229.277 267.652 229.693C267.886 230.109 268.003 230.603 268.003 231.175V235.335C268.003 235.898 267.886 236.392 267.652 236.817C267.418 237.233 267.084 237.558 266.651 237.792C266.226 238.017 265.724 238.13 265.143 238.13ZM265.143 237.129C265.663 237.129 266.079 236.964 266.391 236.635C266.712 236.297 266.872 235.864 266.872 235.335V231.175C266.872 230.646 266.712 230.217 266.391 229.888C266.079 229.55 265.663 229.381 265.143 229.381C264.623 229.381 264.203 229.55 263.882 229.888C263.57 230.217 263.414 230.646 263.414 231.175V235.335C263.414 235.864 263.57 236.297 263.882 236.635C264.203 236.964 264.623 237.129 265.143 237.129ZM265.143 234.022C264.909 234.022 264.718 233.948 264.571 233.801C264.432 233.654 264.363 233.459 264.363 233.216C264.363 232.982 264.432 232.796 264.571 232.657C264.718 232.51 264.909 232.436 265.143 232.436C265.377 232.436 265.563 232.51 265.702 232.657C265.849 232.796 265.923 232.982 265.923 233.216C265.923 233.459 265.849 233.654 265.702 233.801C265.563 233.948 265.377 234.022 265.143 234.022ZM272.938 238.13C272.357 238.13 271.85 238.017 271.417 237.792C270.992 237.558 270.663 237.233 270.429 236.817C270.195 236.392 270.078 235.898 270.078 235.335V231.175C270.078 230.603 270.195 230.109 270.429 229.693C270.663 229.277 270.992 228.956 271.417 228.731C271.85 228.497 272.357 228.38 272.938 228.38C273.527 228.38 274.034 228.497 274.459 228.731C274.884 228.956 275.213 229.277 275.447 229.693C275.681 230.109 275.798 230.603 275.798 231.175V235.335C275.798 235.898 275.681 236.392 275.447 236.817C275.213 237.233 274.879 237.558 274.446 237.792C274.021 238.017 273.519 238.13 272.938 238.13ZM272.938 237.129C273.458 237.129 273.874 236.964 274.186 236.635C274.507 236.297 274.667 235.864 274.667 235.335V231.175C274.667 230.646 274.507 230.217 274.186 229.888C273.874 229.55 273.458 229.381 272.938 229.381C272.418 229.381 271.998 229.55 271.677 229.888C271.365 230.217 271.209 230.646 271.209 231.175V235.335C271.209 235.864 271.365 236.297 271.677 236.635C271.998 236.964 272.418 237.129 272.938 237.129ZM272.938 234.022C272.704 234.022 272.513 233.948 272.366 233.801C272.227 233.654 272.158 233.459 272.158 233.216C272.158 232.982 272.227 232.796 272.366 232.657C272.513 232.51 272.704 232.436 272.938 232.436C273.172 232.436 273.358 232.51 273.497 232.657C273.644 232.796 273.718 232.982 273.718 233.216C273.718 233.459 273.644 233.654 273.497 233.801C273.358 233.948 273.172 234.022 272.938 234.022ZM285.278 238L287.813 234.321L285.434 230.85H286.812L288.229 233.06C288.29 233.155 288.346 233.259 288.398 233.372C288.459 233.485 288.506 233.576 288.541 233.645C288.567 233.576 288.606 233.485 288.658 233.372C288.719 233.259 288.779 233.155 288.84 233.06L290.27 230.85H291.635L289.256 234.334L291.778 238H290.4L288.866 235.66C288.805 235.565 288.745 235.456 288.684 235.335C288.632 235.205 288.584 235.101 288.541 235.023C288.506 235.101 288.454 235.205 288.385 235.335C288.324 235.456 288.259 235.565 288.19 235.66L286.643 238H285.278ZM304.118 238.13C303.537 238.13 303.03 238.017 302.597 237.792C302.172 237.558 301.843 237.233 301.609 236.817C301.375 236.392 301.258 235.898 301.258 235.335V231.175C301.258 230.603 301.375 230.109 301.609 229.693C301.843 229.277 302.172 228.956 302.597 228.731C303.03 228.497 303.537 228.38 304.118 228.38C304.707 228.38 305.214 228.497 305.639 228.731C306.063 228.956 306.393 229.277 306.627 229.693C306.861 230.109 306.978 230.603 306.978 231.175V235.335C306.978 235.898 306.861 236.392 306.627 236.817C306.393 237.233 306.059 237.558 305.626 237.792C305.201 238.017 304.698 238.13 304.118 238.13ZM304.118 237.129C304.638 237.129 305.054 236.964 305.366 236.635C305.686 236.297 305.847 235.864 305.847 235.335V231.175C305.847 230.646 305.686 230.217 305.366 229.888C305.054 229.55 304.638 229.381 304.118 229.381C303.598 229.381 303.177 229.55 302.857 229.888C302.545 230.217 302.389 230.646 302.389 231.175V235.335C302.389 235.864 302.545 236.297 302.857 236.635C303.177 236.964 303.598 237.129 304.118 237.129ZM304.118 234.022C303.884 234.022 303.693 233.948 303.546 233.801C303.407 233.654 303.338 233.459 303.338 233.216C303.338 232.982 303.407 232.796 303.546 232.657C303.693 232.51 303.884 232.436 304.118 232.436C304.352 232.436 304.538 232.51 304.677 232.657C304.824 232.796 304.898 232.982 304.898 233.216C304.898 233.459 304.824 233.654 304.677 233.801C304.538 233.948 304.352 234.022 304.118 234.022ZM311.913 238.13C311.583 238.13 311.319 238.035 311.12 237.844C310.929 237.653 310.834 237.398 310.834 237.077C310.834 236.739 310.929 236.47 311.12 236.271C311.319 236.072 311.583 235.972 311.913 235.972C312.242 235.972 312.502 236.072 312.693 236.271C312.892 236.47 312.992 236.739 312.992 237.077C312.992 237.398 312.892 237.653 312.693 237.844C312.502 238.035 312.242 238.13 311.913 238.13ZM319.708 238.13C319.127 238.13 318.62 238.017 318.187 237.792C317.762 237.558 317.433 237.233 317.199 236.817C316.965 236.392 316.848 235.898 316.848 235.335V231.175C316.848 230.603 316.965 230.109 317.199 229.693C317.433 229.277 317.762 228.956 318.187 228.731C318.62 228.497 319.127 228.38 319.708 228.38C320.297 228.38 320.804 228.497 321.229 228.731C321.653 228.956 321.983 229.277 322.217 229.693C322.451 230.109 322.568 230.603 322.568 231.175V235.335C322.568 235.898 322.451 236.392 322.217 236.817C321.983 237.233 321.649 237.558 321.216 237.792C320.791 238.017 320.288 238.13 319.708 238.13ZM319.708 237.129C320.228 237.129 320.644 236.964 320.956 236.635C321.276 236.297 321.437 235.864 321.437 235.335V231.175C321.437 230.646 321.276 230.217 320.956 229.888C320.644 229.55 320.228 229.381 319.708 229.381C319.188 229.381 318.767 229.55 318.447 229.888C318.135 230.217 317.979 230.646 317.979 231.175V235.335C317.979 235.864 318.135 236.297 318.447 236.635C318.767 236.964 319.188 237.129 319.708 237.129ZM319.708 234.022C319.474 234.022 319.283 233.948 319.136 233.801C318.997 233.654 318.928 233.459 318.928 233.216C318.928 232.982 318.997 232.796 319.136 232.657C319.283 232.51 319.474 232.436 319.708 232.436C319.942 232.436 320.128 232.51 320.267 232.657C320.414 232.796 320.488 232.982 320.488 233.216C320.488 233.459 320.414 233.654 320.267 233.801C320.128 233.948 319.942 234.022 319.708 234.022ZM327.36 238.13C326.788 238.13 326.285 238.017 325.852 237.792C325.427 237.558 325.098 237.237 324.864 236.83C324.63 236.423 324.513 235.946 324.513 235.4H325.683C325.683 235.929 325.83 236.345 326.125 236.648C326.428 236.943 326.844 237.09 327.373 237.09C327.91 237.09 328.326 236.934 328.621 236.622C328.915 236.31 329.063 235.903 329.063 235.4V234.724C329.063 234.187 328.915 233.771 328.621 233.476C328.326 233.181 327.91 233.034 327.373 233.034H326.398V231.864L328.751 229.576H324.903V228.51H329.934V229.68L327.399 232.137V231.994C328.265 231.994 328.954 232.241 329.466 232.735C329.977 233.229 330.233 233.892 330.233 234.724V235.4C330.233 235.946 330.111 236.423 329.869 236.83C329.635 237.237 329.301 237.558 328.868 237.792C328.434 238.017 327.932 238.13 327.36 238.13ZM340.297 232.67V231.63H345.887V232.67H340.297ZM340.297 235.79V234.75H345.887V235.79H340.297ZM358.565 238.13C357.967 238.13 357.447 238.017 357.005 237.792C356.563 237.567 356.221 237.25 355.978 236.843C355.744 236.427 355.627 235.946 355.627 235.4H357.031C357.031 235.877 357.166 236.249 357.434 236.518C357.712 236.787 358.093 236.921 358.578 236.921C359.072 236.921 359.454 236.782 359.722 236.505C359.991 236.228 360.125 235.859 360.125 235.4V234.698C360.125 234.213 359.991 233.84 359.722 233.58C359.454 233.311 359.072 233.177 358.578 233.177H357.564V231.851L359.774 229.745H356.03V228.51H361.204V229.836L358.591 232.293V231.955C359.493 231.955 360.208 232.202 360.736 232.696C361.265 233.19 361.529 233.853 361.529 234.685V235.4C361.529 235.946 361.408 236.427 361.165 236.843C360.923 237.25 360.576 237.567 360.125 237.792C359.683 238.017 359.163 238.13 358.565 238.13ZM372.4 240.34V239.131H374.597C374.961 239.131 375.23 239.044 375.403 238.871C375.585 238.698 375.676 238.442 375.676 238.104V237.389L375.702 236.063H375.403L375.689 235.803C375.689 236.349 375.516 236.778 375.169 237.09C374.831 237.402 374.372 237.558 373.791 237.558C373.054 237.558 372.474 237.315 372.049 236.83C371.624 236.345 371.412 235.69 371.412 234.867V233.411C371.412 232.588 371.624 231.933 372.049 231.448C372.474 230.963 373.054 230.72 373.791 230.72C374.372 230.72 374.831 230.88 375.169 231.201C375.516 231.513 375.689 231.942 375.689 232.488L375.403 232.215H375.689L375.676 230.85H377.067V238.13C377.067 238.815 376.85 239.352 376.417 239.742C375.984 240.141 375.381 240.34 374.61 240.34H372.4ZM374.246 236.349C374.688 236.349 375.035 236.215 375.286 235.946C375.546 235.669 375.676 235.287 375.676 234.802V233.489C375.676 233.004 375.546 232.627 375.286 232.358C375.035 232.081 374.688 231.942 374.246 231.942C373.787 231.942 373.431 232.076 373.18 232.345C372.937 232.605 372.816 232.986 372.816 233.489V234.802C372.816 235.296 372.937 235.677 373.18 235.946C373.431 236.215 373.787 236.349 374.246 236.349ZM379.311 238V228.497H385.044V229.797H380.676V232.631H384.706V233.931H380.702V238H379.311ZM387.379 238V228.51H388.783V236.713H392.93V238H387.379ZM394.849 238V228.51H397.826C398.424 228.51 398.944 228.627 399.386 228.861C399.828 229.086 400.17 229.407 400.413 229.823C400.664 230.239 400.79 230.729 400.79 231.292C400.79 231.925 400.625 232.475 400.296 232.943C399.975 233.402 399.538 233.727 398.983 233.918L400.92 238H399.321L397.592 234.1H396.253V238H394.849ZM396.253 232.865H397.826C398.294 232.865 398.667 232.726 398.944 232.449C399.221 232.163 399.36 231.786 399.36 231.318C399.36 230.833 399.221 230.451 398.944 230.174C398.667 229.897 398.294 229.758 397.826 229.758H396.253V232.865Z" fill="black"/>
<rect width="118" height="37" transform="translate(494 134)" fill="#1E26E8"/>
<path d="M533.372 157.13C532.8 157.13 532.298 157.017 531.864 156.792C531.44 156.558 531.11 156.237 530.876 155.83C530.642 155.423 530.525 154.946 530.525 154.4H531.695C531.695 154.929 531.843 155.345 532.137 155.648C532.441 155.943 532.857 156.09 533.385 156.09C533.923 156.09 534.339 155.934 534.633 155.622C534.928 155.31 535.075 154.903 535.075 154.4V153.724C535.075 153.187 534.928 152.771 534.633 152.476C534.339 152.181 533.923 152.034 533.385 152.034H532.41V150.864L534.763 148.576H530.915V147.51H535.946V148.68L533.411 151.137V150.994C534.278 150.994 534.967 151.241 535.478 151.735C535.99 152.229 536.245 152.892 536.245 153.724V154.4C536.245 154.946 536.124 155.423 535.881 155.83C535.647 156.237 535.314 156.558 534.88 156.792C534.447 157.017 533.944 157.13 533.372 157.13ZM547.298 159.34V158.274H549.573C549.937 158.274 550.201 158.192 550.366 158.027C550.539 157.862 550.626 157.607 550.626 157.26V156.35L550.652 155.05H550.418L550.639 154.855C550.639 155.375 550.466 155.787 550.119 156.09C549.772 156.393 549.309 156.545 548.728 156.545C547.991 156.545 547.411 156.307 546.986 155.83C546.561 155.345 546.349 154.695 546.349 153.88V152.372C546.349 151.557 546.561 150.912 546.986 150.435C547.411 149.958 547.991 149.72 548.728 149.72C549.309 149.72 549.772 149.872 550.119 150.175C550.466 150.478 550.639 150.89 550.639 151.41L550.418 151.215H550.639V149.85H551.796V157.26C551.796 157.901 551.597 158.408 551.198 158.781C550.808 159.154 550.262 159.34 549.56 159.34H547.298ZM549.079 155.531C549.564 155.531 549.946 155.379 550.223 155.076C550.5 154.773 550.639 154.352 550.639 153.815V152.45C550.639 151.913 550.5 151.492 550.223 151.189C549.946 150.886 549.564 150.734 549.079 150.734C548.585 150.734 548.199 150.881 547.922 151.176C547.653 151.471 547.519 151.895 547.519 152.45V153.815C547.519 154.37 547.653 154.794 547.922 155.089C548.199 155.384 548.585 155.531 549.079 155.531ZM554.235 157V147.497H559.825V148.563H555.379V151.722H559.487V152.788H555.405V157H554.235ZM562.29 157V147.51H563.46V155.934H567.75V157H562.29ZM569.786 157V147.51H572.724C573.287 147.51 573.781 147.627 574.206 147.861C574.631 148.086 574.96 148.403 575.194 148.81C575.428 149.217 575.545 149.694 575.545 150.24C575.545 150.881 575.376 151.432 575.038 151.891C574.709 152.35 574.258 152.667 573.686 152.84L575.675 157H574.297L572.477 152.97H570.956V157H569.786ZM570.956 151.917H572.724C573.209 151.917 573.599 151.765 573.894 151.462C574.189 151.15 574.336 150.743 574.336 150.24C574.336 149.729 574.189 149.321 573.894 149.018C573.599 148.715 573.209 148.563 572.724 148.563H570.956V151.917Z" fill="white"/>
<rect width="118" height="55" transform="translate(494 214)" fill="#1E26E8"/>
<path d="M517.782 237.63C517.21 237.63 516.708 237.517 516.274 237.292C515.85 237.058 515.52 236.737 515.286 236.33C515.052 235.923 514.935 235.446 514.935 234.9H516.105C516.105 235.429 516.253 235.845 516.547 236.148C516.851 236.443 517.267 236.59 517.795 236.59C518.333 236.59 518.749 236.434 519.043 236.122C519.338 235.81 519.485 235.403 519.485 234.9V234.224C519.485 233.687 519.338 233.271 519.043 232.976C518.749 232.681 518.333 232.534 517.795 232.534H516.82V231.364L519.173 229.076H515.325V228.01H520.356V229.18L517.821 231.637V231.494C518.688 231.494 519.377 231.741 519.888 232.235C520.4 232.729 520.655 233.392 520.655 234.224V234.9C520.655 235.446 520.534 235.923 520.291 236.33C520.057 236.737 519.724 237.058 519.29 237.292C518.857 237.517 518.354 237.63 517.782 237.63ZM530.811 237.5V228.01H533.749C534.313 228.01 534.807 228.127 535.231 228.361C535.656 228.586 535.985 228.903 536.219 229.31C536.453 229.717 536.57 230.194 536.57 230.74C536.57 231.381 536.401 231.932 536.063 232.391C535.734 232.85 535.283 233.167 534.711 233.34L536.7 237.5H535.322L533.502 233.47H531.981V237.5H530.811ZM531.981 232.417H533.749C534.235 232.417 534.625 232.265 534.919 231.962C535.214 231.65 535.361 231.243 535.361 230.74C535.361 230.229 535.214 229.821 534.919 229.518C534.625 229.215 534.235 229.063 533.749 229.063H531.981V232.417ZM541.31 237.63C540.747 237.63 540.253 237.517 539.828 237.292C539.412 237.067 539.087 236.75 538.853 236.343C538.628 235.927 538.515 235.446 538.515 234.9V232.95C538.515 232.395 538.628 231.914 538.853 231.507C539.087 231.1 539.412 230.783 539.828 230.558C540.253 230.333 540.747 230.22 541.31 230.22C541.873 230.22 542.363 230.333 542.779 230.558C543.204 230.783 543.529 231.1 543.754 231.507C543.988 231.914 544.105 232.395 544.105 232.95V234.211H539.659V234.9C539.659 235.463 539.802 235.897 540.088 236.2C540.374 236.495 540.781 236.642 541.31 236.642C541.761 236.642 542.125 236.564 542.402 236.408C542.679 236.243 542.848 236.001 542.909 235.68H544.079C544.001 236.278 543.706 236.755 543.195 237.11C542.692 237.457 542.064 237.63 541.31 237.63ZM542.961 233.431V232.95C542.961 232.387 542.818 231.953 542.532 231.65C542.255 231.347 541.847 231.195 541.31 231.195C540.781 231.195 540.374 231.347 540.088 231.65C539.802 231.953 539.659 232.387 539.659 232.95V233.327H543.052L542.961 233.431ZM549.157 237.63C548.585 237.63 548.082 237.522 547.649 237.305C547.224 237.088 546.895 236.776 546.661 236.369C546.427 235.953 546.31 235.463 546.31 234.9V232.95C546.31 232.378 546.427 231.888 546.661 231.481C546.895 231.074 547.224 230.762 547.649 230.545C548.082 230.328 548.585 230.22 549.157 230.22C549.98 230.22 550.643 230.441 551.146 230.883C551.649 231.325 551.913 231.927 551.939 232.69H550.769C550.743 232.231 550.587 231.88 550.301 231.637C550.024 231.386 549.642 231.26 549.157 231.26C548.646 231.26 548.238 231.407 547.935 231.702C547.632 231.988 547.48 232.4 547.48 232.937V234.9C547.48 235.437 547.632 235.853 547.935 236.148C548.238 236.443 548.646 236.59 549.157 236.59C549.642 236.59 550.024 236.464 550.301 236.213C550.587 235.962 550.743 235.611 550.769 235.16H551.939C551.913 235.923 551.649 236.525 551.146 236.967C550.643 237.409 549.98 237.63 549.157 237.63ZM556.9 237.63C556.337 237.63 555.843 237.517 555.418 237.292C555.002 237.067 554.677 236.75 554.443 236.343C554.218 235.927 554.105 235.446 554.105 234.9V232.95C554.105 232.395 554.218 231.914 554.443 231.507C554.677 231.1 555.002 230.783 555.418 230.558C555.843 230.333 556.337 230.22 556.9 230.22C557.463 230.22 557.953 230.333 558.369 230.558C558.794 230.783 559.119 231.1 559.344 231.507C559.578 231.914 559.695 232.395 559.695 232.95V234.211H555.249V234.9C555.249 235.463 555.392 235.897 555.678 236.2C555.964 236.495 556.371 236.642 556.9 236.642C557.351 236.642 557.715 236.564 557.992 236.408C558.269 236.243 558.438 236.001 558.499 235.68H559.669C559.591 236.278 559.296 236.755 558.785 237.11C558.282 237.457 557.654 237.63 556.9 237.63ZM558.551 233.431V232.95C558.551 232.387 558.408 231.953 558.122 231.65C557.845 231.347 557.437 231.195 556.9 231.195C556.371 231.195 555.964 231.347 555.678 231.65C555.392 231.953 555.249 232.387 555.249 232.95V233.327H558.642L558.551 233.431ZM561.9 237.5V236.434H564.435V231.416H562.225V230.35H565.605V236.434H568.01V237.5H561.9ZM564.89 229.063C564.604 229.063 564.379 228.989 564.214 228.842C564.049 228.695 563.967 228.495 563.967 228.244C563.967 227.984 564.049 227.78 564.214 227.633C564.379 227.477 564.604 227.399 564.89 227.399C565.176 227.399 565.401 227.477 565.566 227.633C565.731 227.78 565.813 227.984 565.813 228.244C565.813 228.495 565.731 228.695 565.566 228.842C565.401 228.989 565.176 229.063 564.89 229.063ZM569.786 239.84V230.35H570.956V231.715H571.19L570.956 231.988C570.956 231.442 571.134 231.013 571.489 230.701C571.853 230.38 572.33 230.22 572.919 230.22C573.638 230.22 574.21 230.458 574.635 230.935C575.068 231.403 575.285 232.049 575.285 232.872V234.965C575.285 235.511 575.185 235.983 574.986 236.382C574.795 236.781 574.522 237.088 574.167 237.305C573.82 237.522 573.404 237.63 572.919 237.63C572.338 237.63 571.866 237.47 571.502 237.149C571.138 236.828 570.956 236.399 570.956 235.862L571.19 236.135H570.93L570.956 237.76V239.84H569.786ZM572.529 236.616C573.023 236.616 573.409 236.469 573.686 236.174C573.972 235.879 574.115 235.455 574.115 234.9V232.95C574.115 232.395 573.972 231.971 573.686 231.676C573.409 231.381 573.023 231.234 572.529 231.234C572.052 231.234 571.671 231.386 571.385 231.689C571.099 231.992 570.956 232.413 570.956 232.95V234.9C570.956 235.437 571.099 235.858 571.385 236.161C571.671 236.464 572.052 236.616 572.529 236.616ZM581.065 237.5C580.449 237.5 579.968 237.335 579.622 237.006C579.284 236.677 579.115 236.213 579.115 235.615V231.416H577.1V230.35H579.115V228.335H580.285V230.35H583.145V231.416H580.285V235.615C580.285 236.161 580.545 236.434 581.065 236.434H583.015V237.5H581.065ZM587.859 237.604C587.373 237.604 586.949 237.53 586.585 237.383C586.229 237.227 585.943 237.01 585.727 236.733C585.519 236.456 585.393 236.126 585.35 235.745H586.52C586.572 235.996 586.71 236.196 586.936 236.343C587.17 236.49 587.477 236.564 587.859 236.564H588.405C588.864 236.564 589.206 236.473 589.432 236.291C589.657 236.1 589.77 235.849 589.77 235.537C589.77 235.234 589.666 234.995 589.458 234.822C589.258 234.64 588.959 234.519 588.561 234.458L587.599 234.302C586.897 234.181 586.372 233.964 586.026 233.652C585.688 233.331 585.519 232.868 585.519 232.261C585.519 231.62 585.722 231.126 586.13 230.779C586.537 230.424 587.148 230.246 587.963 230.246H588.457C589.141 230.246 589.692 230.406 590.108 230.727C590.524 231.048 590.775 231.481 590.862 232.027H589.692C589.64 231.802 589.51 231.624 589.302 231.494C589.094 231.355 588.812 231.286 588.457 231.286H587.963C587.521 231.286 587.196 231.368 586.988 231.533C586.788 231.698 586.689 231.945 586.689 232.274C586.689 232.569 586.775 232.785 586.949 232.924C587.122 233.063 587.395 233.162 587.768 233.223L588.73 233.379C589.501 233.5 590.06 233.726 590.407 234.055C590.762 234.384 590.94 234.861 590.94 235.485C590.94 236.144 590.727 236.664 590.303 237.045C589.887 237.418 589.254 237.604 588.405 237.604H587.859ZM529.943 256.84C529.206 256.84 528.565 256.684 528.019 256.372C527.473 256.069 527.048 255.631 526.745 255.059C526.45 254.496 526.303 253.833 526.303 253.07V248.65C526.303 247.87 526.441 247.198 526.719 246.635C527.005 246.072 527.408 245.638 527.928 245.335C528.456 245.032 529.085 244.88 529.813 244.88C530.471 244.88 531.039 245.01 531.516 245.27C531.992 245.521 532.356 245.885 532.608 246.362C532.868 246.839 532.998 247.406 532.998 248.065V253.655H532.075V252.94H531.711L531.958 252.68C531.958 253.009 531.832 253.278 531.581 253.486C531.329 253.685 530.996 253.785 530.58 253.785C530.016 253.785 529.583 253.616 529.28 253.278C528.985 252.931 528.838 252.429 528.838 251.77V250.21C528.838 249.551 528.985 249.053 529.28 248.715C529.583 248.368 530.016 248.195 530.58 248.195C530.996 248.195 531.329 248.299 531.581 248.507C531.832 248.706 531.958 248.975 531.958 249.313L531.776 249.04H532.088L531.958 248.13V248.065C531.958 247.571 531.875 247.155 531.711 246.817C531.546 246.479 531.303 246.223 530.983 246.05C530.671 245.877 530.281 245.79 529.813 245.79C529.033 245.79 528.426 246.041 527.993 246.544C527.559 247.047 527.343 247.749 527.343 248.65V253.07C527.343 253.937 527.572 254.617 528.032 255.111C528.5 255.614 529.137 255.865 529.943 255.865H530.853V256.84H529.943ZM530.918 252.966C531.273 252.966 531.533 252.858 531.698 252.641C531.871 252.424 531.958 252.091 531.958 251.64V250.197C531.958 249.79 531.871 249.491 531.698 249.3C531.533 249.109 531.273 249.014 530.918 249.014C530.571 249.014 530.311 249.114 530.138 249.313C529.964 249.504 529.878 249.803 529.878 250.21V251.77C529.878 252.177 529.964 252.481 530.138 252.68C530.311 252.871 530.571 252.966 530.918 252.966ZM544.883 256.32V254.617C544.068 254.548 543.427 254.288 542.959 253.837C542.499 253.378 542.261 252.775 542.244 252.03H543.414C543.414 252.455 543.539 252.801 543.791 253.07C544.051 253.339 544.415 253.503 544.883 253.564V250.158L544.532 250.054C543.882 249.855 543.379 249.521 543.024 249.053C542.677 248.585 542.504 248.035 542.504 247.402C542.504 246.709 542.716 246.137 543.141 245.686C543.574 245.235 544.155 244.975 544.883 244.906V243.19H545.663V244.893C546.382 244.962 546.958 245.222 547.392 245.673C547.825 246.124 548.046 246.704 548.055 247.415H546.885C546.885 247.008 546.776 246.678 546.56 246.427C546.352 246.167 546.053 246.007 545.663 245.946V249.17L546.183 249.339C546.815 249.538 547.305 249.876 547.652 250.353C547.998 250.83 548.172 251.389 548.172 252.03C548.172 252.741 547.942 253.33 547.483 253.798C547.032 254.266 546.425 254.539 545.663 254.617V256.32H544.883ZM545.663 253.564C546.087 253.495 546.417 253.33 546.651 253.07C546.885 252.81 547.002 252.472 547.002 252.056C547.002 251.675 546.898 251.341 546.69 251.055C546.49 250.769 546.2 250.57 545.819 250.457L545.663 250.405V253.564ZM544.883 249.443V245.946C544.501 246.007 544.202 246.154 543.986 246.388C543.778 246.622 543.674 246.925 543.674 247.298C543.674 247.749 543.812 248.13 544.09 248.442C544.367 248.745 544.766 248.936 545.286 249.014L544.883 249.443ZM553.003 254.63C552.422 254.63 551.915 254.517 551.482 254.292C551.057 254.058 550.728 253.733 550.494 253.317C550.26 252.892 550.143 252.398 550.143 251.835V247.675C550.143 247.103 550.26 246.609 550.494 246.193C550.728 245.777 551.057 245.456 551.482 245.231C551.915 244.997 552.422 244.88 553.003 244.88C553.592 244.88 554.099 244.997 554.524 245.231C554.948 245.456 555.278 245.777 555.512 246.193C555.746 246.609 555.863 247.103 555.863 247.675V251.835C555.863 252.398 555.746 252.892 555.512 253.317C555.278 253.733 554.944 254.058 554.511 254.292C554.086 254.517 553.583 254.63 553.003 254.63ZM553.003 253.629C553.523 253.629 553.939 253.464 554.251 253.135C554.571 252.797 554.732 252.364 554.732 251.835V247.675C554.732 247.146 554.571 246.717 554.251 246.388C553.939 246.05 553.523 245.881 553.003 245.881C552.483 245.881 552.062 246.05 551.742 246.388C551.43 246.717 551.274 247.146 551.274 247.675V251.835C551.274 252.364 551.43 252.797 551.742 253.135C552.062 253.464 552.483 253.629 553.003 253.629ZM553.003 250.522C552.769 250.522 552.578 250.448 552.431 250.301C552.292 250.154 552.223 249.959 552.223 249.716C552.223 249.482 552.292 249.296 552.431 249.157C552.578 249.01 552.769 248.936 553.003 248.936C553.237 248.936 553.423 249.01 553.562 249.157C553.709 249.296 553.783 249.482 553.783 249.716C553.783 249.959 553.709 250.154 553.562 250.301C553.423 250.448 553.237 250.522 553.003 250.522ZM560.797 254.63C560.468 254.63 560.204 254.535 560.004 254.344C559.814 254.153 559.718 253.898 559.718 253.577C559.718 253.239 559.814 252.97 560.004 252.771C560.204 252.572 560.468 252.472 560.797 252.472C561.127 252.472 561.387 252.572 561.577 252.771C561.777 252.97 561.876 253.239 561.876 253.577C561.876 253.898 561.777 254.153 561.577 254.344C561.387 254.535 561.127 254.63 560.797 254.63ZM568.592 254.63C568.012 254.63 567.505 254.517 567.071 254.292C566.647 254.058 566.317 253.733 566.083 253.317C565.849 252.892 565.732 252.398 565.732 251.835V247.675C565.732 247.103 565.849 246.609 566.083 246.193C566.317 245.777 566.647 245.456 567.071 245.231C567.505 244.997 568.012 244.88 568.592 244.88C569.182 244.88 569.689 244.997 570.113 245.231C570.538 245.456 570.867 245.777 571.101 246.193C571.335 246.609 571.452 247.103 571.452 247.675V251.835C571.452 252.398 571.335 252.892 571.101 253.317C570.867 253.733 570.534 254.058 570.1 254.292C569.676 254.517 569.173 254.63 568.592 254.63ZM568.592 253.629C569.112 253.629 569.528 253.464 569.84 253.135C570.161 252.797 570.321 252.364 570.321 251.835V247.675C570.321 247.146 570.161 246.717 569.84 246.388C569.528 246.05 569.112 245.881 568.592 245.881C568.072 245.881 567.652 246.05 567.331 246.388C567.019 246.717 566.863 247.146 566.863 247.675V251.835C566.863 252.364 567.019 252.797 567.331 253.135C567.652 253.464 568.072 253.629 568.592 253.629ZM568.592 250.522C568.358 250.522 568.168 250.448 568.02 250.301C567.882 250.154 567.812 249.959 567.812 249.716C567.812 249.482 567.882 249.296 568.02 249.157C568.168 249.01 568.358 248.936 568.592 248.936C568.826 248.936 569.013 249.01 569.151 249.157C569.299 249.296 569.372 249.482 569.372 249.716C569.372 249.959 569.299 250.154 569.151 250.301C569.013 250.448 568.826 250.522 568.592 250.522ZM576.244 254.63C575.672 254.63 575.17 254.517 574.736 254.292C574.312 254.058 573.982 253.737 573.748 253.33C573.514 252.923 573.397 252.446 573.397 251.9H574.567C574.567 252.429 574.715 252.845 575.009 253.148C575.313 253.443 575.729 253.59 576.257 253.59C576.795 253.59 577.211 253.434 577.505 253.122C577.8 252.81 577.947 252.403 577.947 251.9V251.224C577.947 250.687 577.8 250.271 577.505 249.976C577.211 249.681 576.795 249.534 576.257 249.534H575.282V248.364L577.635 246.076H573.787V245.01H578.818V246.18L576.283 248.637V248.494C577.15 248.494 577.839 248.741 578.35 249.235C578.862 249.729 579.117 250.392 579.117 251.224V251.9C579.117 252.446 578.996 252.923 578.753 253.33C578.519 253.737 578.186 254.058 577.752 254.292C577.319 254.517 576.816 254.63 576.244 254.63Z" fill="white"/>
<path d="M321.1 169.1L326.5 169.1L326.5 177.5L329.5 177.5L329.5 166.1L318.1 166.1L318.1 185.6L337.6 185.6L337.6 161L343 161L343 191L313 191L313 161L334.6 161L334.6 182.6L321.1 182.6L321.1 169.1Z" fill="black"/>
</svg>
