<svg width="655" height="403" viewBox="0 0 655 403" fill="none" xmlns="http://www.w3.org/2000/svg">
<rect x="0.5" y="0.5" width="654" height="402" fill="white"/>
<rect x="0.5" y="0.5" width="654" height="402" stroke="black"/>
<path d="M129 201C138.778 194.333 143.667 194.333 143.667 201C143.667 207.667 148.556 207.667 158.333 201C168.111 194.333 173 194.333 173 201C173 207.667 177.889 207.667 187.667 201C197.444 194.333 202.333 194.333 202.333 201C202.333 207.667 207.222 207.667 217 201" stroke="black" stroke-linecap="round"/>
<rect width="87" height="37" transform="translate(44 182)" fill="#E61F59"/>
<path d="M61.3878 205V203.934H63.9618V196.485L61.3878 198.409V197.109L63.5328 195.51H65.1318V203.934H67.2378V205H61.3878ZM71.9127 205.13C71.332 205.13 70.825 205.017 70.3917 204.792C69.967 204.558 69.6377 204.233 69.4037 203.817C69.1697 203.392 69.0527 202.898 69.0527 202.335V198.175C69.0527 197.603 69.1697 197.109 69.4037 196.693C69.6377 196.277 69.967 195.956 70.3917 195.731C70.825 195.497 71.332 195.38 71.9127 195.38C72.502 195.38 73.009 195.497 73.4337 195.731C73.8584 195.956 74.1877 196.277 74.4217 196.693C74.6557 197.109 74.7727 197.603 74.7727 198.175V202.335C74.7727 202.898 74.6557 203.392 74.4217 203.817C74.1877 204.233 73.854 204.558 73.4207 204.792C72.996 205.017 72.4934 205.13 71.9127 205.13ZM71.9127 204.129C72.4327 204.129 72.8487 203.964 73.1607 203.635C73.4814 203.297 73.6417 202.864 73.6417 202.335V198.175C73.6417 197.646 73.4814 197.217 73.1607 196.888C72.8487 196.55 72.4327 196.381 71.9127 196.381C71.3927 196.381 70.9724 196.55 70.6517 196.888C70.3397 197.217 70.1837 197.646 70.1837 198.175V202.335C70.1837 202.864 70.3397 203.297 70.6517 203.635C70.9724 203.964 71.3927 204.129 71.9127 204.129ZM71.9127 201.022C71.6787 201.022 71.488 200.948 71.3407 200.801C71.202 200.654 71.1327 200.459 71.1327 200.216C71.1327 199.982 71.202 199.796 71.3407 199.657C71.488 199.51 71.6787 199.436 71.9127 199.436C72.1467 199.436 72.333 199.51 72.4717 199.657C72.619 199.796 72.6927 199.982 72.6927 200.216C72.6927 200.459 72.619 200.654 72.4717 200.801C72.333 200.948 72.1467 201.022 71.9127 201.022ZM79.7076 205.13C79.127 205.13 78.62 205.017 78.1866 204.792C77.762 204.558 77.4326 204.233 77.1986 203.817C76.9646 203.392 76.8476 202.898 76.8476 202.335V198.175C76.8476 197.603 76.9646 197.109 77.1986 196.693C77.4326 196.277 77.762 195.956 78.1866 195.731C78.62 195.497 79.127 195.38 79.7076 195.38C80.297 195.38 80.804 195.497 81.2286 195.731C81.6533 195.956 81.9826 196.277 82.2166 196.693C82.4506 197.109 82.5676 197.603 82.5676 198.175V202.335C82.5676 202.898 82.4506 203.392 82.2166 203.817C81.9826 204.233 81.649 204.558 81.2156 204.792C80.791 205.017 80.2883 205.13 79.7076 205.13ZM79.7076 204.129C80.2276 204.129 80.6436 203.964 80.9556 203.635C81.2763 203.297 81.4366 202.864 81.4366 202.335V198.175C81.4366 197.646 81.2763 197.217 80.9556 196.888C80.6436 196.55 80.2276 196.381 79.7076 196.381C79.1876 196.381 78.7673 196.55 78.4466 196.888C78.1346 197.217 77.9786 197.646 77.9786 198.175V202.335C77.9786 202.864 78.1346 203.297 78.4466 203.635C78.7673 203.964 79.1876 204.129 79.7076 204.129ZM79.7076 201.022C79.4736 201.022 79.283 200.948 79.1356 200.801C78.997 200.654 78.9276 200.459 78.9276 200.216C78.9276 199.982 78.997 199.796 79.1356 199.657C79.283 199.51 79.4736 199.436 79.7076 199.436C79.9416 199.436 80.128 199.51 80.2666 199.657C80.414 199.796 80.4876 199.982 80.4876 200.216C80.4876 200.459 80.414 200.654 80.2666 200.801C80.128 200.948 79.9416 201.022 79.7076 201.022ZM92.6325 205V195.497H98.2225V196.563H93.7765V199.722H97.8845V200.788H93.8025V205H92.6325ZM100.687 205V195.51H101.857V203.934H106.147V205H100.687ZM108.183 205V195.51H111.121C111.685 195.51 112.179 195.627 112.603 195.861C113.028 196.086 113.357 196.403 113.591 196.81C113.825 197.217 113.942 197.694 113.942 198.24C113.942 198.881 113.773 199.432 113.435 199.891C113.106 200.35 112.655 200.667 112.083 200.84L114.072 205H112.694L110.874 200.97H109.353V205H108.183ZM109.353 199.917H111.121C111.607 199.917 111.997 199.765 112.291 199.462C112.586 199.15 112.733 198.743 112.733 198.24C112.733 197.729 112.586 197.321 112.291 197.018C111.997 196.715 111.607 196.563 111.121 196.563H109.353V199.917Z" fill="white"/>
<rect x="266.5" y="71.5" width="122" height="49" stroke="#E6E6E6"/>
<path d="M315.354 92V83.959H320.084V84.861H316.322V87.534H319.798V88.436H316.344V92H315.354ZM323.709 92V84.861H321.509V83.959H326.899V84.861H324.699V92H323.709ZM330.844 92.11C330.316 92.11 329.861 92.022 329.48 91.846C329.106 91.67 328.816 91.417 328.611 91.087C328.406 90.757 328.299 90.3647 328.292 89.91H329.282C329.282 90.3133 329.418 90.6323 329.689 90.867C329.968 91.1017 330.353 91.219 330.844 91.219C331.306 91.219 331.665 91.1053 331.922 90.878C332.186 90.6507 332.318 90.3353 332.318 89.932C332.318 89.6093 332.23 89.327 332.054 89.085C331.885 88.843 331.64 88.6743 331.317 88.579L330.228 88.238C329.678 88.0693 329.253 87.787 328.952 87.391C328.659 86.995 328.512 86.5293 328.512 85.994C328.512 85.5613 328.607 85.1873 328.798 84.872C328.996 84.5493 329.271 84.3 329.623 84.124C329.975 83.9407 330.389 83.849 330.866 83.849C331.57 83.849 332.135 84.047 332.56 84.443C332.985 84.8317 333.202 85.3523 333.209 86.005H332.219C332.219 85.609 332.098 85.301 331.856 85.081C331.621 84.8537 331.288 84.74 330.855 84.74C330.43 84.74 330.096 84.8427 329.854 85.048C329.619 85.2533 329.502 85.5393 329.502 85.906C329.502 86.236 329.59 86.522 329.766 86.764C329.942 87.006 330.195 87.1783 330.525 87.281L331.625 87.633C332.16 87.8017 332.575 88.0877 332.868 88.491C333.161 88.8943 333.308 89.3673 333.308 89.91C333.308 90.35 333.205 90.735 333 91.065C332.795 91.395 332.505 91.6517 332.131 91.835C331.764 92.0183 331.335 92.11 330.844 92.11ZM337.396 92.11C336.912 92.11 336.494 92.0183 336.142 91.835C335.797 91.6517 335.529 91.3877 335.339 91.043C335.155 90.691 335.064 90.2767 335.064 89.8V86.17C335.064 85.686 335.155 85.2717 335.339 84.927C335.529 84.5823 335.797 84.3183 336.142 84.135C336.494 83.9517 336.912 83.86 337.396 83.86C337.88 83.86 338.294 83.9517 338.639 84.135C338.991 84.3183 339.258 84.5823 339.442 84.927C339.632 85.2717 339.728 85.6823 339.728 86.159V89.8C339.728 90.2767 339.632 90.691 339.442 91.043C339.258 91.3877 338.991 91.6517 338.639 91.835C338.294 92.0183 337.88 92.11 337.396 92.11ZM337.396 91.219C337.828 91.219 338.158 91.098 338.386 90.856C338.62 90.6067 338.738 90.2547 338.738 89.8V86.17C338.738 85.7153 338.62 85.367 338.386 85.125C338.158 84.8757 337.828 84.751 337.396 84.751C336.97 84.751 336.64 84.8757 336.406 85.125C336.171 85.367 336.054 85.7153 336.054 86.17V89.8C336.054 90.2547 336.171 90.6067 336.406 90.856C336.64 91.098 336.97 91.219 337.396 91.219ZM282.375 107V98.959H287.105V99.861H283.343V102.534H286.819V103.436H283.365V107H282.375ZM289.191 107V98.97H290.181V106.098H293.811V107H289.191ZM295.533 107V98.97H298.019C298.496 98.97 298.914 99.069 299.273 99.267C299.633 99.4577 299.911 99.7253 300.109 100.07C300.307 100.415 300.406 100.818 300.406 101.28C300.406 101.823 300.263 102.288 299.977 102.677C299.699 103.066 299.317 103.333 298.833 103.48L300.516 107H299.35L297.81 103.59H296.523V107H295.533ZM296.523 102.699H298.019C298.43 102.699 298.76 102.571 299.009 102.314C299.259 102.05 299.383 101.705 299.383 101.28C299.383 100.847 299.259 100.503 299.009 100.246C298.76 99.9893 298.43 99.861 298.019 99.861H296.523V102.699ZM301.942 108.21L305.847 97.87H306.892L302.987 108.21H301.942ZM311.013 107.11C310.265 107.11 309.693 106.905 309.297 106.494C308.901 106.076 308.703 105.511 308.703 104.8V98.97H309.693V104.8C309.693 105.24 309.799 105.588 310.012 105.845C310.232 106.102 310.566 106.23 311.013 106.23C311.453 106.23 311.783 106.102 312.003 105.845C312.223 105.588 312.333 105.24 312.333 104.8V98.97H313.323V104.8C313.323 105.519 313.125 106.083 312.729 106.494C312.34 106.905 311.768 107.11 311.013 107.11ZM317.653 107.11C317.125 107.11 316.67 107.022 316.289 106.846C315.915 106.67 315.625 106.417 315.42 106.087C315.214 105.757 315.108 105.365 315.101 104.91H316.091C316.091 105.313 316.226 105.632 316.498 105.867C316.776 106.102 317.161 106.219 317.653 106.219C318.115 106.219 318.474 106.105 318.731 105.878C318.995 105.651 319.127 105.335 319.127 104.932C319.127 104.609 319.039 104.327 318.863 104.085C318.694 103.843 318.448 103.674 318.126 103.579L317.037 103.238C316.487 103.069 316.061 102.787 315.761 102.391C315.467 101.995 315.321 101.529 315.321 100.994C315.321 100.561 315.416 100.187 315.607 99.872C315.805 99.5493 316.08 99.3 316.432 99.124C316.784 98.9407 317.198 98.849 317.675 98.849C318.379 98.849 318.943 99.047 319.369 99.443C319.794 99.8317 320.01 100.352 320.018 101.005H319.028C319.028 100.609 318.907 100.301 318.665 100.081C318.43 99.8537 318.096 99.74 317.664 99.74C317.238 99.74 316.905 99.8427 316.663 100.048C316.428 100.253 316.311 100.539 316.311 100.906C316.311 101.236 316.399 101.522 316.575 101.764C316.751 102.006 317.004 102.178 317.334 102.281L318.434 102.633C318.969 102.802 319.383 103.088 319.677 103.491C319.97 103.894 320.117 104.367 320.117 104.91C320.117 105.35 320.014 105.735 319.809 106.065C319.603 106.395 319.314 106.652 318.94 106.835C318.573 107.018 318.144 107.11 317.653 107.11ZM321.916 107V98.97H323.995C324.516 98.97 324.963 99.069 325.337 99.267C325.719 99.465 326.012 99.7437 326.217 100.103C326.43 100.462 326.536 100.888 326.536 101.379V104.58C326.536 105.071 326.43 105.5 326.217 105.867C326.012 106.226 325.719 106.505 325.337 106.703C324.963 106.901 324.516 107 323.995 107H321.916ZM322.906 106.12H323.995C324.479 106.12 324.857 105.984 325.128 105.713C325.407 105.442 325.546 105.064 325.546 104.58V101.379C325.546 100.902 325.407 100.528 325.128 100.257C324.857 99.9857 324.479 99.85 323.995 99.85H322.906V106.12ZM335.031 102.49V101.61H339.761V102.49H335.031ZM335.031 105.13V104.25H339.761V105.13H335.031ZM350.587 107.11C350.096 107.11 349.667 107.015 349.3 106.824C348.941 106.626 348.662 106.351 348.464 105.999C348.266 105.64 348.167 105.222 348.167 104.745V101.225C348.167 100.741 348.266 100.323 348.464 99.971C348.662 99.619 348.941 99.3477 349.3 99.157C349.667 98.959 350.096 98.86 350.587 98.86C351.086 98.86 351.515 98.959 351.874 99.157C352.233 99.3477 352.512 99.619 352.71 99.971C352.908 100.323 353.007 100.741 353.007 101.225V104.745C353.007 105.222 352.908 105.64 352.71 105.999C352.512 106.351 352.23 106.626 351.863 106.824C351.504 107.015 351.078 107.11 350.587 107.11ZM350.587 106.263C351.027 106.263 351.379 106.124 351.643 105.845C351.914 105.559 352.05 105.192 352.05 104.745V101.225C352.05 100.778 351.914 100.415 351.643 100.136C351.379 99.85 351.027 99.707 350.587 99.707C350.147 99.707 349.791 99.85 349.52 100.136C349.256 100.415 349.124 100.778 349.124 101.225V104.745C349.124 105.192 349.256 105.559 349.52 105.845C349.791 106.124 350.147 106.263 350.587 106.263ZM350.587 103.634C350.389 103.634 350.228 103.572 350.103 103.447C349.986 103.322 349.927 103.157 349.927 102.952C349.927 102.754 349.986 102.596 350.103 102.479C350.228 102.354 350.389 102.292 350.587 102.292C350.785 102.292 350.943 102.354 351.06 102.479C351.185 102.596 351.247 102.754 351.247 102.952C351.247 103.157 351.185 103.322 351.06 103.447C350.943 103.572 350.785 103.634 350.587 103.634ZM357.183 107.11C356.904 107.11 356.68 107.029 356.512 106.868C356.35 106.707 356.27 106.49 356.27 106.219C356.27 105.933 356.35 105.706 356.512 105.537C356.68 105.368 356.904 105.284 357.183 105.284C357.461 105.284 357.681 105.368 357.843 105.537C358.011 105.706 358.096 105.933 358.096 106.219C358.096 106.49 358.011 106.707 357.843 106.868C357.681 107.029 357.461 107.11 357.183 107.11ZM363.779 107.11C363.287 107.11 362.858 107.015 362.492 106.824C362.132 106.626 361.854 106.351 361.656 105.999C361.458 105.64 361.359 105.222 361.359 104.745V101.225C361.359 100.741 361.458 100.323 361.656 99.971C361.854 99.619 362.132 99.3477 362.492 99.157C362.858 98.959 363.287 98.86 363.779 98.86C364.277 98.86 364.706 98.959 365.066 99.157C365.425 99.3477 365.704 99.619 365.902 99.971C366.1 100.323 366.199 100.741 366.199 101.225V104.745C366.199 105.222 366.1 105.64 365.902 105.999C365.704 106.351 365.421 106.626 365.055 106.824C364.695 107.015 364.27 107.11 363.779 107.11ZM363.779 106.263C364.219 106.263 364.571 106.124 364.835 105.845C365.106 105.559 365.242 105.192 365.242 104.745V101.225C365.242 100.778 365.106 100.415 364.835 100.136C364.571 99.85 364.219 99.707 363.779 99.707C363.339 99.707 362.983 99.85 362.712 100.136C362.448 100.415 362.316 100.778 362.316 101.225V104.745C362.316 105.192 362.448 105.559 362.712 105.845C362.983 106.124 363.339 106.263 363.779 106.263ZM363.779 103.634C363.581 103.634 363.419 103.572 363.295 103.447C363.177 103.322 363.119 103.157 363.119 102.952C363.119 102.754 363.177 102.596 363.295 102.479C363.419 102.354 363.581 102.292 363.779 102.292C363.977 102.292 364.134 102.354 364.252 102.479C364.376 102.596 364.439 102.754 364.439 102.952C364.439 103.157 364.376 103.322 364.252 103.447C364.134 103.572 363.977 103.634 363.779 103.634ZM370.253 107.11C369.769 107.11 369.344 107.015 368.977 106.824C368.618 106.626 368.339 106.355 368.141 106.01C367.943 105.665 367.844 105.262 367.844 104.8H368.834C368.834 105.247 368.959 105.599 369.208 105.856C369.465 106.105 369.817 106.23 370.264 106.23C370.719 106.23 371.071 106.098 371.32 105.834C371.57 105.57 371.694 105.225 371.694 104.8V104.228C371.694 103.773 371.57 103.421 371.32 103.172C371.071 102.923 370.719 102.798 370.264 102.798H369.439V101.808L371.43 99.872H368.174V98.97H372.431V99.96L370.286 102.039V101.918C371.02 101.918 371.603 102.127 372.035 102.545C372.468 102.963 372.684 103.524 372.684 104.228V104.8C372.684 105.262 372.582 105.665 372.376 106.01C372.178 106.355 371.896 106.626 371.529 106.824C371.163 107.015 370.737 107.11 370.253 107.11Z" fill="black"/>
<path d="M148.694 221.1C148.147 221.1 147.704 220.917 147.364 220.55C147.03 220.183 146.864 219.687 146.864 219.06V217.45C146.864 216.817 147.03 216.317 147.364 215.95C147.697 215.583 148.14 215.4 148.694 215.4C149.147 215.4 149.51 215.523 149.784 215.77C150.057 216.017 150.194 216.347 150.194 216.76L150.014 216.55H150.214L150.194 215.3V213.7H151.094V221H150.194V219.95H150.014L150.194 219.74C150.194 220.16 150.057 220.493 149.784 220.74C149.51 220.98 149.147 221.1 148.694 221.1ZM148.994 220.32C149.367 220.32 149.66 220.203 149.874 219.97C150.087 219.737 150.194 219.413 150.194 219V217.5C150.194 217.087 150.087 216.763 149.874 216.53C149.66 216.297 149.367 216.18 148.994 216.18C148.614 216.18 148.314 216.293 148.094 216.52C147.874 216.747 147.764 217.073 147.764 217.5V219C147.764 219.427 147.874 219.753 148.094 219.98C148.314 220.207 148.614 220.32 148.994 220.32ZM155.01 221.1C154.576 221.1 154.196 221.013 153.87 220.84C153.55 220.667 153.3 220.423 153.12 220.11C152.946 219.79 152.86 219.42 152.86 219V217.5C152.86 217.073 152.946 216.703 153.12 216.39C153.3 216.077 153.55 215.833 153.87 215.66C154.196 215.487 154.576 215.4 155.01 215.4C155.443 215.4 155.82 215.487 156.14 215.66C156.466 215.833 156.716 216.077 156.89 216.39C157.07 216.703 157.16 217.073 157.16 217.5V218.47H153.74V219C153.74 219.433 153.85 219.767 154.07 220C154.29 220.227 154.603 220.34 155.01 220.34C155.356 220.34 155.636 220.28 155.85 220.16C156.063 220.033 156.193 219.847 156.24 219.6H157.14C157.08 220.06 156.853 220.427 156.46 220.7C156.073 220.967 155.59 221.1 155.01 221.1ZM156.28 217.87V217.5C156.28 217.067 156.17 216.733 155.95 216.5C155.736 216.267 155.423 216.15 155.01 216.15C154.603 216.15 154.29 216.267 154.07 216.5C153.85 216.733 153.74 217.067 153.74 217.5V217.79H156.35L156.28 217.87ZM158.926 222.8V215.5H159.826V216.55H160.006L159.826 216.76C159.826 216.34 159.963 216.01 160.236 215.77C160.516 215.523 160.883 215.4 161.336 215.4C161.889 215.4 162.329 215.583 162.656 215.95C162.989 216.31 163.156 216.807 163.156 217.44V219.05C163.156 219.47 163.079 219.833 162.926 220.14C162.779 220.447 162.569 220.683 162.296 220.85C162.029 221.017 161.709 221.1 161.336 221.1C160.889 221.1 160.526 220.977 160.246 220.73C159.966 220.483 159.826 220.153 159.826 219.74L160.006 219.95H159.806L159.826 221.2V222.8H158.926ZM161.036 220.32C161.416 220.32 161.713 220.207 161.926 219.98C162.146 219.753 162.256 219.427 162.256 219V217.5C162.256 217.073 162.146 216.747 161.926 216.52C161.713 216.293 161.416 216.18 161.036 216.18C160.669 216.18 160.376 216.297 160.156 216.53C159.936 216.763 159.826 217.087 159.826 217.5V219C159.826 219.413 159.936 219.737 160.156 219.97C160.376 220.203 160.669 220.32 161.036 220.32ZM167.002 221.08C166.562 221.08 166.182 220.997 165.862 220.83C165.542 220.663 165.292 220.423 165.112 220.11C164.939 219.79 164.852 219.413 164.852 218.98V217.52C164.852 217.08 164.939 216.703 165.112 216.39C165.292 216.077 165.542 215.837 165.862 215.67C166.182 215.503 166.562 215.42 167.002 215.42C167.442 215.42 167.822 215.503 168.142 215.67C168.462 215.837 168.709 216.077 168.882 216.39C169.062 216.703 169.152 217.077 169.152 217.51V218.98C169.152 219.413 169.062 219.79 168.882 220.11C168.709 220.423 168.462 220.663 168.142 220.83C167.822 220.997 167.442 221.08 167.002 221.08ZM167.002 220.28C167.395 220.28 167.702 220.17 167.922 219.95C168.142 219.73 168.252 219.407 168.252 218.98V217.52C168.252 217.093 168.142 216.77 167.922 216.55C167.702 216.33 167.395 216.22 167.002 216.22C166.615 216.22 166.309 216.33 166.082 216.55C165.862 216.77 165.752 217.093 165.752 217.52V218.98C165.752 219.407 165.862 219.73 166.082 219.95C166.309 220.17 166.615 220.28 167.002 220.28ZM172.828 221.08C172.455 221.08 172.128 221.023 171.848 220.91C171.575 220.79 171.355 220.623 171.188 220.41C171.028 220.197 170.931 219.943 170.898 219.65H171.798C171.838 219.843 171.945 219.997 172.118 220.11C172.298 220.223 172.535 220.28 172.828 220.28H173.248C173.601 220.28 173.865 220.21 174.038 220.07C174.211 219.923 174.298 219.73 174.298 219.49C174.298 219.257 174.218 219.073 174.058 218.94C173.905 218.8 173.675 218.707 173.368 218.66L172.628 218.54C172.088 218.447 171.685 218.28 171.418 218.04C171.158 217.793 171.028 217.437 171.028 216.97C171.028 216.477 171.185 216.097 171.498 215.83C171.811 215.557 172.281 215.42 172.908 215.42H173.288C173.815 215.42 174.238 215.543 174.558 215.79C174.878 216.037 175.071 216.37 175.138 216.79H174.238C174.198 216.617 174.098 216.48 173.938 216.38C173.778 216.273 173.561 216.22 173.288 216.22H172.908C172.568 216.22 172.318 216.283 172.158 216.41C172.005 216.537 171.928 216.727 171.928 216.98C171.928 217.207 171.995 217.373 172.128 217.48C172.261 217.587 172.471 217.663 172.758 217.71L173.498 217.83C174.091 217.923 174.521 218.097 174.788 218.35C175.061 218.603 175.198 218.97 175.198 219.45C175.198 219.957 175.035 220.357 174.708 220.65C174.388 220.937 173.901 221.08 173.248 221.08H172.828ZM176.844 221V220.18H178.794V216.32H177.094V215.5H179.694V220.18H181.544V221H176.844ZM179.144 214.51C178.924 214.51 178.751 214.453 178.624 214.34C178.497 214.227 178.434 214.073 178.434 213.88C178.434 213.68 178.497 213.523 178.624 213.41C178.751 213.29 178.924 213.23 179.144 213.23C179.364 213.23 179.537 213.29 179.664 213.41C179.791 213.523 179.854 213.68 179.854 213.88C179.854 214.073 179.791 214.227 179.664 214.34C179.537 214.453 179.364 214.51 179.144 214.51ZM185.59 221C185.117 221 184.747 220.873 184.48 220.62C184.22 220.367 184.09 220.01 184.09 219.55V216.32H182.54V215.5H184.09V213.95H184.99V215.5H187.19V216.32H184.99V219.55C184.99 219.97 185.19 220.18 185.59 220.18H187.09V221H185.59Z" fill="black"/>
<path d="M442 190L494.586 153.5M442 216L495 249" stroke="black" stroke-dasharray="5 5"/>
<path d="M449.668 206V200.5H450.458V201.16H450.638L450.498 201.4C450.498 201.093 450.578 200.85 450.738 200.67C450.904 200.49 451.128 200.4 451.408 200.4C451.714 200.4 451.951 200.513 452.118 200.74C452.284 200.967 452.368 201.287 452.368 201.7L452.098 201.16H452.518L452.328 201.4C452.328 201.093 452.411 200.85 452.578 200.67C452.751 200.49 452.978 200.4 453.258 200.4C453.604 200.4 453.871 200.53 454.058 200.79C454.251 201.05 454.348 201.393 454.348 201.82V206H453.518V201.81C453.518 201.583 453.468 201.407 453.368 201.28C453.274 201.153 453.134 201.09 452.948 201.09C452.768 201.09 452.624 201.153 452.518 201.28C452.418 201.4 452.368 201.573 452.368 201.8V206H451.648V201.81C451.648 201.577 451.594 201.4 451.488 201.28C451.388 201.153 451.244 201.09 451.058 201.09C450.871 201.09 450.731 201.153 450.638 201.28C450.544 201.4 450.498 201.573 450.498 201.8V206H449.668ZM455.854 206V205.18H457.804V201.32H456.104V200.5H458.704V205.18H460.554V206H455.854ZM458.154 199.51C457.934 199.51 457.761 199.453 457.634 199.34C457.507 199.227 457.444 199.073 457.444 198.88C457.444 198.68 457.507 198.523 457.634 198.41C457.761 198.29 457.934 198.23 458.154 198.23C458.374 198.23 458.547 198.29 458.674 198.41C458.801 198.523 458.864 198.68 458.864 198.88C458.864 199.073 458.801 199.227 458.674 199.34C458.547 199.453 458.374 199.51 458.154 199.51ZM461.92 206V200.5H462.82V201.55H463.01L462.82 201.76C462.82 201.327 462.95 200.993 463.21 200.76C463.47 200.52 463.83 200.4 464.29 200.4C464.843 200.4 465.283 200.57 465.61 200.91C465.937 201.25 466.1 201.713 466.1 202.3V206H465.2V202.4C465.2 202.007 465.093 201.707 464.88 201.5C464.673 201.287 464.39 201.18 464.03 201.18C463.657 201.18 463.36 201.293 463.14 201.52C462.927 201.747 462.82 202.073 462.82 202.5V206H461.92ZM470.596 206C470.123 206 469.753 205.873 469.486 205.62C469.226 205.367 469.096 205.01 469.096 204.55V201.32H467.546V200.5H469.096V198.95H469.996V200.5H472.196V201.32H469.996V204.55C469.996 204.97 470.196 205.18 470.596 205.18H472.096V206H470.596Z" fill="black"/>
<path d="M328 121L328 144" stroke="black" stroke-dasharray="5 5"/>
<path d="M178.9 373V363.51H181.357C181.972 363.51 182.501 363.627 182.943 363.861C183.394 364.095 183.74 364.424 183.983 364.849C184.234 365.274 184.36 365.776 184.36 366.357V370.14C184.36 370.721 184.234 371.228 183.983 371.661C183.74 372.086 183.394 372.415 182.943 372.649C182.501 372.883 181.972 373 181.357 373H178.9ZM180.07 371.96H181.357C181.929 371.96 182.375 371.8 182.696 371.479C183.025 371.158 183.19 370.712 183.19 370.14V366.357C183.19 365.794 183.025 365.352 182.696 365.031C182.375 364.71 181.929 364.55 181.357 364.55H180.07V371.96ZM189.399 373.13C188.836 373.13 188.342 373.017 187.917 372.792C187.501 372.567 187.176 372.25 186.942 371.843C186.717 371.427 186.604 370.946 186.604 370.4V368.45C186.604 367.895 186.717 367.414 186.942 367.007C187.176 366.6 187.501 366.283 187.917 366.058C188.342 365.833 188.836 365.72 189.399 365.72C189.962 365.72 190.452 365.833 190.868 366.058C191.293 366.283 191.618 366.6 191.843 367.007C192.077 367.414 192.194 367.895 192.194 368.45V369.711H187.748V370.4C187.748 370.963 187.891 371.397 188.177 371.7C188.463 371.995 188.87 372.142 189.399 372.142C189.85 372.142 190.214 372.064 190.491 371.908C190.768 371.743 190.937 371.501 190.998 371.18H192.168C192.09 371.778 191.795 372.255 191.284 372.61C190.781 372.957 190.153 373.13 189.399 373.13ZM191.05 368.931V368.45C191.05 367.887 190.907 367.453 190.621 367.15C190.344 366.847 189.936 366.695 189.399 366.695C188.87 366.695 188.463 366.847 188.177 367.15C187.891 367.453 187.748 367.887 187.748 368.45V368.827H191.141L191.05 368.931ZM194.49 375.34V365.85H195.66V367.215H195.894L195.66 367.488C195.66 366.942 195.838 366.513 196.193 366.201C196.557 365.88 197.034 365.72 197.623 365.72C198.342 365.72 198.914 365.958 199.339 366.435C199.772 366.903 199.989 367.549 199.989 368.372V370.465C199.989 371.011 199.889 371.483 199.69 371.882C199.499 372.281 199.226 372.588 198.871 372.805C198.524 373.022 198.108 373.13 197.623 373.13C197.042 373.13 196.57 372.97 196.206 372.649C195.842 372.328 195.66 371.899 195.66 371.362L195.894 371.635H195.634L195.66 373.26V375.34H194.49ZM197.233 372.116C197.727 372.116 198.113 371.969 198.39 371.674C198.676 371.379 198.819 370.955 198.819 370.4V368.45C198.819 367.895 198.676 367.471 198.39 367.176C198.113 366.881 197.727 366.734 197.233 366.734C196.756 366.734 196.375 366.886 196.089 367.189C195.803 367.492 195.66 367.913 195.66 368.45V370.4C195.66 370.937 195.803 371.358 196.089 371.661C196.375 371.964 196.756 372.116 197.233 372.116ZM204.989 373.104C204.417 373.104 203.923 372.996 203.507 372.779C203.091 372.562 202.766 372.25 202.532 371.843C202.307 371.427 202.194 370.937 202.194 370.374V368.476C202.194 367.904 202.307 367.414 202.532 367.007C202.766 366.6 203.091 366.288 203.507 366.071C203.923 365.854 204.417 365.746 204.989 365.746C205.561 365.746 206.055 365.854 206.471 366.071C206.887 366.288 207.208 366.6 207.433 367.007C207.667 367.414 207.784 367.9 207.784 368.463V370.374C207.784 370.937 207.667 371.427 207.433 371.843C207.208 372.25 206.887 372.562 206.471 372.779C206.055 372.996 205.561 373.104 204.989 373.104ZM204.989 372.064C205.5 372.064 205.899 371.921 206.185 371.635C206.471 371.349 206.614 370.929 206.614 370.374V368.476C206.614 367.921 206.471 367.501 206.185 367.215C205.899 366.929 205.5 366.786 204.989 366.786C204.486 366.786 204.088 366.929 203.793 367.215C203.507 367.501 203.364 367.921 203.364 368.476V370.374C203.364 370.929 203.507 371.349 203.793 371.635C204.088 371.921 204.486 372.064 204.989 372.064ZM212.563 373.104C212.077 373.104 211.653 373.03 211.289 372.883C210.933 372.727 210.647 372.51 210.431 372.233C210.223 371.956 210.097 371.626 210.054 371.245H211.224C211.276 371.496 211.414 371.696 211.64 371.843C211.874 371.99 212.181 372.064 212.563 372.064H213.109C213.568 372.064 213.91 371.973 214.136 371.791C214.361 371.6 214.474 371.349 214.474 371.037C214.474 370.734 214.37 370.495 214.162 370.322C213.962 370.14 213.663 370.019 213.265 369.958L212.303 369.802C211.601 369.681 211.076 369.464 210.73 369.152C210.392 368.831 210.223 368.368 210.223 367.761C210.223 367.12 210.426 366.626 210.834 366.279C211.241 365.924 211.852 365.746 212.667 365.746H213.161C213.845 365.746 214.396 365.906 214.812 366.227C215.228 366.548 215.479 366.981 215.566 367.527H214.396C214.344 367.302 214.214 367.124 214.006 366.994C213.798 366.855 213.516 366.786 213.161 366.786H212.667C212.225 366.786 211.9 366.868 211.692 367.033C211.492 367.198 211.393 367.445 211.393 367.774C211.393 368.069 211.479 368.285 211.653 368.424C211.826 368.563 212.099 368.662 212.472 368.723L213.434 368.879C214.205 369 214.764 369.226 215.111 369.555C215.466 369.884 215.644 370.361 215.644 370.985C215.644 371.644 215.431 372.164 215.007 372.545C214.591 372.918 213.958 373.104 213.109 373.104H212.563ZM217.784 373V371.934H220.319V366.916H218.109V365.85H221.489V371.934H223.894V373H217.784ZM220.774 364.563C220.488 364.563 220.262 364.489 220.098 364.342C219.933 364.195 219.851 363.995 219.851 363.744C219.851 363.484 219.933 363.28 220.098 363.133C220.262 362.977 220.488 362.899 220.774 362.899C221.06 362.899 221.285 362.977 221.45 363.133C221.614 363.28 221.697 363.484 221.697 363.744C221.697 363.995 221.614 364.195 221.45 364.342C221.285 364.489 221.06 364.563 220.774 364.563ZM229.154 373C228.538 373 228.057 372.835 227.711 372.506C227.373 372.177 227.204 371.713 227.204 371.115V366.916H225.189V365.85H227.204V363.835H228.374V365.85H231.234V366.916H228.374V371.115C228.374 371.661 228.634 371.934 229.154 371.934H231.104V373H229.154ZM233.374 373V371.934H235.909V366.916H233.699V365.85H237.079V371.934H239.484V373H233.374ZM236.364 364.563C236.078 364.563 235.852 364.489 235.688 364.342C235.523 364.195 235.441 363.995 235.441 363.744C235.441 363.484 235.523 363.28 235.688 363.133C235.852 362.977 236.078 362.899 236.364 362.899C236.65 362.899 236.875 362.977 237.04 363.133C237.204 363.28 237.287 363.484 237.287 363.744C237.287 363.995 237.204 364.195 237.04 364.342C236.875 364.489 236.65 364.563 236.364 364.563ZM241.259 373V365.85H242.429V367.215H242.676L242.429 367.488C242.429 366.925 242.598 366.491 242.936 366.188C243.274 365.876 243.742 365.72 244.34 365.72C245.06 365.72 245.632 365.941 246.056 366.383C246.481 366.825 246.693 367.427 246.693 368.19V373H245.523V368.32C245.523 367.809 245.385 367.419 245.107 367.15C244.839 366.873 244.47 366.734 244.002 366.734C243.517 366.734 243.131 366.881 242.845 367.176C242.568 367.471 242.429 367.895 242.429 368.45V373H241.259ZM249.951 375.34V374.274H252.226C252.59 374.274 252.855 374.192 253.019 374.027C253.193 373.862 253.279 373.607 253.279 373.26V372.35L253.305 371.05H253.071L253.292 370.855C253.292 371.375 253.119 371.787 252.772 372.09C252.426 372.393 251.962 372.545 251.381 372.545C250.645 372.545 250.064 372.307 249.639 371.83C249.215 371.345 249.002 370.695 249.002 369.88V368.372C249.002 367.557 249.215 366.912 249.639 366.435C250.064 365.958 250.645 365.72 251.381 365.72C251.962 365.72 252.426 365.872 252.772 366.175C253.119 366.478 253.292 366.89 253.292 367.41L253.071 367.215H253.292V365.85H254.449V373.26C254.449 373.901 254.25 374.408 253.851 374.781C253.461 375.154 252.915 375.34 252.213 375.34H249.951ZM251.732 371.531C252.218 371.531 252.599 371.379 252.876 371.076C253.154 370.773 253.292 370.352 253.292 369.815V368.45C253.292 367.913 253.154 367.492 252.876 367.189C252.599 366.886 252.218 366.734 251.732 366.734C251.238 366.734 250.853 366.881 250.575 367.176C250.307 367.471 250.172 367.895 250.172 368.45V369.815C250.172 370.37 250.307 370.794 250.575 371.089C250.853 371.384 251.238 371.531 251.732 371.531ZM264.683 373V363.497H270.273V364.563H265.827V367.722H269.935V368.788H265.853V373H264.683ZM272.738 373V363.51H273.908V371.934H278.198V373H272.738ZM280.234 373V363.51H283.172C283.735 363.51 284.229 363.627 284.654 363.861C285.079 364.086 285.408 364.403 285.642 364.81C285.876 365.217 285.993 365.694 285.993 366.24C285.993 366.881 285.824 367.432 285.486 367.891C285.157 368.35 284.706 368.667 284.134 368.84L286.123 373H284.745L282.925 368.97H281.404V373H280.234ZM281.404 367.917H283.172C283.657 367.917 284.047 367.765 284.342 367.462C284.637 367.15 284.784 366.743 284.784 366.24C284.784 365.729 284.637 365.321 284.342 365.018C284.047 364.715 283.657 364.563 283.172 364.563H281.404V367.917ZM299.308 373C298.693 373 298.212 372.835 297.865 372.506C297.527 372.177 297.358 371.713 297.358 371.115V366.916H295.343V365.85H297.358V363.835H298.528V365.85H301.388V366.916H298.528V371.115C298.528 371.661 298.788 371.934 299.308 371.934H301.258V373H299.308ZM306.323 373.104C305.751 373.104 305.257 372.996 304.841 372.779C304.425 372.562 304.1 372.25 303.866 371.843C303.641 371.427 303.528 370.937 303.528 370.374V368.476C303.528 367.904 303.641 367.414 303.866 367.007C304.1 366.6 304.425 366.288 304.841 366.071C305.257 365.854 305.751 365.746 306.323 365.746C306.895 365.746 307.389 365.854 307.805 366.071C308.221 366.288 308.542 366.6 308.767 367.007C309.001 367.414 309.118 367.9 309.118 368.463V370.374C309.118 370.937 309.001 371.427 308.767 371.843C308.542 372.25 308.221 372.562 307.805 372.779C307.389 372.996 306.895 373.104 306.323 373.104ZM306.323 372.064C306.834 372.064 307.233 371.921 307.519 371.635C307.805 371.349 307.948 370.929 307.948 370.374V368.476C307.948 367.921 307.805 367.501 307.519 367.215C307.233 366.929 306.834 366.786 306.323 366.786C305.82 366.786 305.422 366.929 305.127 367.215C304.841 367.501 304.698 367.921 304.698 368.476V370.374C304.698 370.929 304.841 371.349 305.127 371.635C305.422 371.921 305.82 372.064 306.323 372.064ZM318.871 373V365.85H319.898V366.708H320.132L319.95 367.02C319.95 366.621 320.054 366.305 320.262 366.071C320.478 365.837 320.769 365.72 321.133 365.72C321.531 365.72 321.839 365.867 322.056 366.162C322.272 366.457 322.381 366.873 322.381 367.41L322.03 366.708H322.576L322.329 367.02C322.329 366.621 322.437 366.305 322.654 366.071C322.879 365.837 323.174 365.72 323.538 365.72C323.988 365.72 324.335 365.889 324.578 366.227C324.829 366.565 324.955 367.011 324.955 367.566V373H323.876V367.553C323.876 367.258 323.811 367.029 323.681 366.864C323.559 366.699 323.377 366.617 323.135 366.617C322.901 366.617 322.714 366.699 322.576 366.864C322.446 367.02 322.381 367.245 322.381 367.54V373H321.445V367.553C321.445 367.25 321.375 367.02 321.237 366.864C321.107 366.699 320.92 366.617 320.678 366.617C320.435 366.617 320.253 366.699 320.132 366.864C320.01 367.02 319.95 367.245 319.95 367.54V373H318.871ZM326.913 373V371.934H329.448V366.916H327.238V365.85H330.618V371.934H333.023V373H326.913ZM329.903 364.563C329.617 364.563 329.391 364.489 329.227 364.342C329.062 364.195 328.98 363.995 328.98 363.744C328.98 363.484 329.062 363.28 329.227 363.133C329.391 362.977 329.617 362.899 329.903 362.899C330.189 362.899 330.414 362.977 330.579 363.133C330.743 363.28 330.826 363.484 330.826 363.744C330.826 363.995 330.743 364.195 330.579 364.342C330.414 364.489 330.189 364.563 329.903 364.563ZM334.799 373V365.85H335.969V367.215H336.216L335.969 367.488C335.969 366.925 336.138 366.491 336.476 366.188C336.814 365.876 337.282 365.72 337.88 365.72C338.599 365.72 339.171 365.941 339.596 366.383C340.02 366.825 340.233 367.427 340.233 368.19V373H339.063V368.32C339.063 367.809 338.924 367.419 338.647 367.15C338.378 366.873 338.01 366.734 337.542 366.734C337.056 366.734 336.671 366.881 336.385 367.176C336.107 367.471 335.969 367.895 335.969 368.45V373H334.799ZM346.077 373C345.462 373 344.981 372.835 344.634 372.506C344.296 372.177 344.127 371.713 344.127 371.115V366.916H342.112V365.85H344.127V363.835H345.297V365.85H348.157V366.916H345.297V371.115C345.297 371.661 345.557 371.934 346.077 371.934H348.027V373H346.077ZM360.939 373.13C360.367 373.13 359.865 373.022 359.431 372.805C359.007 372.588 358.677 372.276 358.443 371.869C358.209 371.453 358.092 370.963 358.092 370.4V368.45C358.092 367.878 358.209 367.388 358.443 366.981C358.677 366.574 359.007 366.262 359.431 366.045C359.865 365.828 360.367 365.72 360.939 365.72C361.763 365.72 362.426 365.941 362.928 366.383C363.431 366.825 363.695 367.427 363.721 368.19H362.551C362.525 367.731 362.369 367.38 362.083 367.137C361.806 366.886 361.425 366.76 360.939 366.76C360.428 366.76 360.021 366.907 359.717 367.202C359.414 367.488 359.262 367.9 359.262 368.437V370.4C359.262 370.937 359.414 371.353 359.717 371.648C360.021 371.943 360.428 372.09 360.939 372.09C361.425 372.09 361.806 371.964 362.083 371.713C362.369 371.462 362.525 371.111 362.551 370.66H363.721C363.695 371.423 363.431 372.025 362.928 372.467C362.426 372.909 361.763 373.13 360.939 373.13ZM367.096 375.34L368.149 372.558L365.497 365.85H366.797L368.461 370.27C368.522 370.417 368.578 370.595 368.63 370.803C368.682 371.002 368.726 371.171 368.76 371.31C368.795 371.171 368.838 371.002 368.89 370.803C368.942 370.595 368.994 370.417 369.046 370.27L370.606 365.85H371.867L368.344 375.34H367.096ZM373.812 373V363.497H379.402V364.563H374.956V367.722H379.064V368.788H374.982V373H373.812ZM381.867 373V363.51H383.037V371.934H387.327V373H381.867ZM389.363 373V363.51H392.301C392.864 363.51 393.358 363.627 393.783 363.861C394.208 364.086 394.537 364.403 394.771 364.81C395.005 365.217 395.122 365.694 395.122 366.24C395.122 366.881 394.953 367.432 394.615 367.891C394.286 368.35 393.835 368.667 393.263 368.84L395.252 373H393.874L392.054 368.97H390.533V373H389.363ZM390.533 367.917H392.301C392.786 367.917 393.176 367.765 393.471 367.462C393.766 367.15 393.913 366.743 393.913 366.24C393.913 365.729 393.766 365.321 393.471 365.018C393.176 364.715 392.786 364.563 392.301 364.563H390.533V367.917ZM407.033 373.13C406.279 373.13 405.685 372.939 405.252 372.558C404.819 372.168 404.602 371.644 404.602 370.985C404.602 370.318 404.819 369.793 405.252 369.412C405.685 369.031 406.27 368.84 407.007 368.84H409.217V368.125C409.217 367.683 409.083 367.345 408.814 367.111C408.554 366.868 408.181 366.747 407.696 366.747C407.271 366.747 406.916 366.838 406.63 367.02C406.344 367.193 406.179 367.432 406.136 367.735H404.966C405.044 367.12 405.334 366.63 405.837 366.266C406.34 365.902 406.968 365.72 407.722 365.72C408.545 365.72 409.195 365.932 409.672 366.357C410.149 366.782 410.387 367.358 410.387 368.086V373H409.243V371.635H409.048L409.243 371.44C409.243 371.96 409.039 372.372 408.632 372.675C408.233 372.978 407.7 373.13 407.033 373.13ZM407.319 372.207C407.874 372.207 408.329 372.068 408.684 371.791C409.039 371.514 409.217 371.158 409.217 370.725V369.711H407.033C406.643 369.711 406.335 369.819 406.11 370.036C405.885 370.253 405.772 370.547 405.772 370.92C405.772 371.319 405.906 371.635 406.175 371.869C406.452 372.094 406.834 372.207 407.319 372.207ZM412.748 373V365.85H413.918V367.215H414.165L413.918 367.488C413.918 366.925 414.087 366.491 414.425 366.188C414.763 365.876 415.231 365.72 415.829 365.72C416.548 365.72 417.12 365.941 417.545 366.383C417.969 366.825 418.182 367.427 418.182 368.19V373H417.012V368.32C417.012 367.809 416.873 367.419 416.596 367.15C416.327 366.873 415.959 366.734 415.491 366.734C415.005 366.734 414.62 366.881 414.334 367.176C414.056 367.471 413.918 367.895 413.918 368.45V373H412.748ZM422.831 373.13C422.12 373.13 421.544 372.892 421.102 372.415C420.668 371.938 420.452 371.293 420.452 370.478V368.385C420.452 367.562 420.668 366.912 421.102 366.435C421.535 365.958 422.111 365.72 422.831 365.72C423.42 365.72 423.892 365.88 424.248 366.201C424.603 366.522 424.781 366.951 424.781 367.488L424.547 367.215H424.807L424.781 365.59V363.51H425.951V373H424.781V371.635H424.547L424.781 371.362C424.781 371.908 424.603 372.341 424.248 372.662C423.892 372.974 423.42 373.13 422.831 373.13ZM423.221 372.116C423.706 372.116 424.087 371.964 424.365 371.661C424.642 371.358 424.781 370.937 424.781 370.4V368.45C424.781 367.913 424.642 367.492 424.365 367.189C424.087 366.886 423.706 366.734 423.221 366.734C422.727 366.734 422.337 366.881 422.051 367.176C421.765 367.471 421.622 367.895 421.622 368.45V370.4C421.622 370.955 421.765 371.379 422.051 371.674C422.337 371.969 422.727 372.116 423.221 372.116ZM436.133 373V363.51H439.071C439.634 363.51 440.128 363.627 440.553 363.861C440.977 364.086 441.307 364.403 441.541 364.81C441.775 365.217 441.892 365.694 441.892 366.24C441.892 366.881 441.723 367.432 441.385 367.891C441.055 368.35 440.605 368.667 440.033 368.84L442.022 373H440.644L438.824 368.97H437.303V373H436.133ZM437.303 367.917H439.071C439.556 367.917 439.946 367.765 440.241 367.462C440.535 367.15 440.683 366.743 440.683 366.24C440.683 365.729 440.535 365.321 440.241 365.018C439.946 364.715 439.556 364.563 439.071 364.563H437.303V367.917ZM446.631 373.13C446.068 373.13 445.574 373.017 445.149 372.792C444.733 372.567 444.408 372.25 444.174 371.843C443.949 371.427 443.836 370.946 443.836 370.4V368.45C443.836 367.895 443.949 367.414 444.174 367.007C444.408 366.6 444.733 366.283 445.149 366.058C445.574 365.833 446.068 365.72 446.631 365.72C447.195 365.72 447.684 365.833 448.1 366.058C448.525 366.283 448.85 366.6 449.075 367.007C449.309 367.414 449.426 367.895 449.426 368.45V369.711H444.98V370.4C444.98 370.963 445.123 371.397 445.409 371.7C445.695 371.995 446.103 372.142 446.631 372.142C447.082 372.142 447.446 372.064 447.723 371.908C448.001 371.743 448.17 371.501 448.23 371.18H449.4C449.322 371.778 449.028 372.255 448.516 372.61C448.014 372.957 447.385 373.13 446.631 373.13ZM448.282 368.931V368.45C448.282 367.887 448.139 367.453 447.853 367.15C447.576 366.847 447.169 366.695 446.631 366.695C446.103 366.695 445.695 366.847 445.409 367.15C445.123 367.453 444.98 367.887 444.98 368.45V368.827H448.373L448.282 368.931ZM454.478 373.13C453.906 373.13 453.404 373.022 452.97 372.805C452.546 372.588 452.216 372.276 451.982 371.869C451.748 371.453 451.631 370.963 451.631 370.4V368.45C451.631 367.878 451.748 367.388 451.982 366.981C452.216 366.574 452.546 366.262 452.97 366.045C453.404 365.828 453.906 365.72 454.478 365.72C455.302 365.72 455.965 365.941 456.467 366.383C456.97 366.825 457.234 367.427 457.26 368.19H456.09C456.064 367.731 455.908 367.38 455.622 367.137C455.345 366.886 454.964 366.76 454.478 366.76C453.967 366.76 453.56 366.907 453.256 367.202C452.953 367.488 452.801 367.9 452.801 368.437V370.4C452.801 370.937 452.953 371.353 453.256 371.648C453.56 371.943 453.967 372.09 454.478 372.09C454.964 372.09 455.345 371.964 455.622 371.713C455.908 371.462 456.064 371.111 456.09 370.66H457.26C457.234 371.423 456.97 372.025 456.467 372.467C455.965 372.909 455.302 373.13 454.478 373.13ZM462.221 373.13C461.658 373.13 461.164 373.017 460.739 372.792C460.323 372.567 459.998 372.25 459.764 371.843C459.539 371.427 459.426 370.946 459.426 370.4V368.45C459.426 367.895 459.539 367.414 459.764 367.007C459.998 366.6 460.323 366.283 460.739 366.058C461.164 365.833 461.658 365.72 462.221 365.72C462.785 365.72 463.274 365.833 463.69 366.058C464.115 366.283 464.44 366.6 464.665 367.007C464.899 367.414 465.016 367.895 465.016 368.45V369.711H460.57V370.4C460.57 370.963 460.713 371.397 460.999 371.7C461.285 371.995 461.693 372.142 462.221 372.142C462.672 372.142 463.036 372.064 463.313 371.908C463.591 371.743 463.76 371.501 463.82 371.18H464.99C464.912 371.778 464.618 372.255 464.106 372.61C463.604 372.957 462.975 373.13 462.221 373.13ZM463.872 368.931V368.45C463.872 367.887 463.729 367.453 463.443 367.15C463.166 366.847 462.759 366.695 462.221 366.695C461.693 366.695 461.285 366.847 460.999 367.15C460.713 367.453 460.57 367.887 460.57 368.45V368.827H463.963L463.872 368.931ZM467.221 373V371.934H469.756V366.916H467.546V365.85H470.926V371.934H473.331V373H467.221ZM470.211 364.563C469.925 364.563 469.7 364.489 469.535 364.342C469.371 364.195 469.288 363.995 469.288 363.744C469.288 363.484 469.371 363.28 469.535 363.133C469.7 362.977 469.925 362.899 470.211 362.899C470.497 362.899 470.723 362.977 470.887 363.133C471.052 363.28 471.134 363.484 471.134 363.744C471.134 363.995 471.052 364.195 470.887 364.342C470.723 364.489 470.497 364.563 470.211 364.563ZM475.107 375.34V365.85H476.277V367.215H476.511L476.277 367.488C476.277 366.942 476.455 366.513 476.81 366.201C477.174 365.88 477.651 365.72 478.24 365.72C478.959 365.72 479.531 365.958 479.956 366.435C480.389 366.903 480.606 367.549 480.606 368.372V370.465C480.606 371.011 480.506 371.483 480.307 371.882C480.116 372.281 479.843 372.588 479.488 372.805C479.141 373.022 478.725 373.13 478.24 373.13C477.659 373.13 477.187 372.97 476.823 372.649C476.459 372.328 476.277 371.899 476.277 371.362L476.511 371.635H476.251L476.277 373.26V375.34H475.107ZM477.85 372.116C478.344 372.116 478.73 371.969 479.007 371.674C479.293 371.379 479.436 370.955 479.436 370.4V368.45C479.436 367.895 479.293 367.471 479.007 367.176C478.73 366.881 478.344 366.734 477.85 366.734C477.373 366.734 476.992 366.886 476.706 367.189C476.42 367.492 476.277 367.913 476.277 368.45V370.4C476.277 370.937 476.42 371.358 476.706 371.661C476.992 371.964 477.373 372.116 477.85 372.116ZM486.386 373C485.771 373 485.29 372.835 484.943 372.506C484.605 372.177 484.436 371.713 484.436 371.115V366.916H482.421V365.85H484.436V363.835H485.606V365.85H488.466V366.916H485.606V371.115C485.606 371.661 485.866 371.934 486.386 371.934H488.336V373H486.386ZM493.18 373.104C492.695 373.104 492.27 373.03 491.906 372.883C491.551 372.727 491.265 372.51 491.048 372.233C490.84 371.956 490.714 371.626 490.671 371.245H491.841C491.893 371.496 492.032 371.696 492.257 371.843C492.491 371.99 492.799 372.064 493.18 372.064H493.726C494.185 372.064 494.528 371.973 494.753 371.791C494.978 371.6 495.091 371.349 495.091 371.037C495.091 370.734 494.987 370.495 494.779 370.322C494.58 370.14 494.281 370.019 493.882 369.958L492.92 369.802C492.218 369.681 491.694 369.464 491.347 369.152C491.009 368.831 490.84 368.368 490.84 367.761C490.84 367.12 491.044 366.626 491.451 366.279C491.858 365.924 492.469 365.746 493.284 365.746H493.778C494.463 365.746 495.013 365.906 495.429 366.227C495.845 366.548 496.096 366.981 496.183 367.527H495.013C494.961 367.302 494.831 367.124 494.623 366.994C494.415 366.855 494.133 366.786 493.778 366.786H493.284C492.842 366.786 492.517 366.868 492.309 367.033C492.11 367.198 492.01 367.445 492.01 367.774C492.01 368.069 492.097 368.285 492.27 368.424C492.443 368.563 492.716 368.662 493.089 368.723L494.051 368.879C494.822 369 495.381 369.226 495.728 369.555C496.083 369.884 496.261 370.361 496.261 370.985C496.261 371.644 496.049 372.164 495.624 372.545C495.208 372.918 494.575 373.104 493.726 373.104H493.18Z" fill="black"/>
<rect x="213" y="144" width="229" height="116" fill="#E6E6E6"/>
<path d="M235.196 216V206.497H240.786V207.563H236.34V210.722H240.448V211.788H236.366V216H235.196ZM243.251 216V206.51H244.421V214.934H248.711V216H243.251ZM250.747 216V206.51H253.685C254.248 206.51 254.742 206.627 255.167 206.861C255.591 207.086 255.921 207.403 256.155 207.81C256.389 208.217 256.506 208.694 256.506 209.24C256.506 209.881 256.337 210.432 255.999 210.891C255.669 211.35 255.219 211.667 254.647 211.84L256.636 216H255.258L253.438 211.97H251.917V216H250.747ZM251.917 210.917H253.685C254.17 210.917 254.56 210.765 254.855 210.462C255.149 210.15 255.297 209.743 255.297 209.24C255.297 208.729 255.149 208.321 254.855 208.018C254.56 207.715 254.17 207.563 253.685 207.563H251.917V210.917ZM265.791 216L268.326 212.321L265.947 208.85H267.325L268.742 211.06C268.802 211.155 268.859 211.259 268.911 211.372C268.971 211.485 269.019 211.576 269.054 211.645C269.08 211.576 269.119 211.485 269.171 211.372C269.231 211.259 269.292 211.155 269.353 211.06L270.783 208.85H272.148L269.769 212.334L272.291 216H270.913L269.379 213.66C269.318 213.565 269.257 213.456 269.197 213.335C269.145 213.205 269.097 213.101 269.054 213.023C269.019 213.101 268.967 213.205 268.898 213.335C268.837 213.456 268.772 213.565 268.703 213.66L267.156 216H265.791ZM281.965 216V206.497H287.555V207.563H283.109V210.722H287.217V211.788H283.135V216H281.965ZM291.84 216V207.563H289.24V206.497H295.61V207.563H293.01V216H291.84ZM300.272 216.13C299.648 216.13 299.111 216.026 298.66 215.818C298.218 215.61 297.876 215.311 297.633 214.921C297.391 214.531 297.265 214.067 297.256 213.53H298.426C298.426 214.007 298.587 214.384 298.907 214.661C299.237 214.938 299.692 215.077 300.272 215.077C300.818 215.077 301.243 214.943 301.546 214.674C301.858 214.405 302.014 214.033 302.014 213.556C302.014 213.175 301.91 212.841 301.702 212.555C301.503 212.269 301.213 212.07 300.831 211.957L299.544 211.554C298.894 211.355 298.392 211.021 298.036 210.553C297.69 210.085 297.516 209.535 297.516 208.902C297.516 208.391 297.629 207.949 297.854 207.576C298.088 207.195 298.413 206.9 298.829 206.692C299.245 206.475 299.735 206.367 300.298 206.367C301.13 206.367 301.798 206.601 302.3 207.069C302.803 207.528 303.059 208.144 303.067 208.915H301.897C301.897 208.447 301.754 208.083 301.468 207.823C301.191 207.554 300.797 207.42 300.285 207.42C299.783 207.42 299.388 207.541 299.102 207.784C298.825 208.027 298.686 208.365 298.686 208.798C298.686 209.188 298.79 209.526 298.998 209.812C299.206 210.098 299.505 210.302 299.895 210.423L301.195 210.839C301.828 211.038 302.318 211.376 302.664 211.853C303.011 212.33 303.184 212.889 303.184 213.53C303.184 214.05 303.063 214.505 302.82 214.895C302.578 215.285 302.235 215.588 301.793 215.805C301.36 216.022 300.853 216.13 300.272 216.13ZM308.015 216.13C307.443 216.13 306.949 216.022 306.533 215.805C306.126 215.588 305.81 215.276 305.584 214.869C305.368 214.453 305.259 213.963 305.259 213.4V209.11C305.259 208.538 305.368 208.048 305.584 207.641C305.81 207.234 306.126 206.922 306.533 206.705C306.949 206.488 307.443 206.38 308.015 206.38C308.587 206.38 309.077 206.488 309.484 206.705C309.9 206.922 310.217 207.234 310.433 207.641C310.659 208.048 310.771 208.534 310.771 209.097V213.4C310.771 213.963 310.659 214.453 310.433 214.869C310.217 215.276 309.9 215.588 309.484 215.805C309.077 216.022 308.587 216.13 308.015 216.13ZM308.015 215.077C308.527 215.077 308.917 214.934 309.185 214.648C309.463 214.353 309.601 213.937 309.601 213.4V209.11C309.601 208.573 309.463 208.161 309.185 207.875C308.917 207.58 308.527 207.433 308.015 207.433C307.513 207.433 307.123 207.58 306.845 207.875C306.568 208.161 306.429 208.573 306.429 209.11V213.4C306.429 213.937 306.568 214.353 306.845 214.648C307.123 214.934 307.513 215.077 308.015 215.077ZM320.901 218.34V208.85H322.071V210.215H322.305L322.071 210.488C322.071 209.942 322.249 209.513 322.604 209.201C322.968 208.88 323.445 208.72 324.034 208.72C324.753 208.72 325.325 208.958 325.75 209.435C326.183 209.903 326.4 210.549 326.4 211.372V213.465C326.4 214.011 326.3 214.483 326.101 214.882C325.91 215.281 325.637 215.588 325.282 215.805C324.935 216.022 324.519 216.13 324.034 216.13C323.453 216.13 322.981 215.97 322.617 215.649C322.253 215.328 322.071 214.899 322.071 214.362L322.305 214.635H322.045L322.071 216.26V218.34H320.901ZM323.644 215.116C324.138 215.116 324.524 214.969 324.801 214.674C325.087 214.379 325.23 213.955 325.23 213.4V211.45C325.23 210.895 325.087 210.471 324.801 210.176C324.524 209.881 324.138 209.734 323.644 209.734C323.167 209.734 322.786 209.886 322.5 210.189C322.214 210.492 322.071 210.913 322.071 211.45V213.4C322.071 213.937 322.214 214.358 322.5 214.661C322.786 214.964 323.167 215.116 323.644 215.116ZM328.943 216V208.85H330.087V210.215H330.36L329.983 211.06C329.983 210.289 330.148 209.708 330.477 209.318C330.815 208.919 331.313 208.72 331.972 208.72C332.726 208.72 333.324 208.958 333.766 209.435C334.217 209.903 334.442 210.54 334.442 211.346V211.775H333.272V211.45C333.272 210.887 333.133 210.458 332.856 210.163C332.587 209.86 332.202 209.708 331.699 209.708C331.205 209.708 330.815 209.86 330.529 210.163C330.252 210.466 330.113 210.895 330.113 211.45V216H328.943ZM336.4 216V214.934H338.935V209.916H336.725V208.85H340.105V214.934H342.51V216H336.4ZM339.39 207.563C339.104 207.563 338.879 207.489 338.714 207.342C338.549 207.195 338.467 206.995 338.467 206.744C338.467 206.484 338.549 206.28 338.714 206.133C338.879 205.977 339.104 205.899 339.39 205.899C339.676 205.899 339.901 205.977 340.066 206.133C340.231 206.28 340.313 206.484 340.313 206.744C340.313 206.995 340.231 207.195 340.066 207.342C339.901 207.489 339.676 207.563 339.39 207.563ZM347.042 216.13C346.47 216.13 345.967 216.022 345.534 215.805C345.109 215.588 344.78 215.276 344.546 214.869C344.312 214.453 344.195 213.963 344.195 213.4V211.45C344.195 210.878 344.312 210.388 344.546 209.981C344.78 209.574 345.109 209.262 345.534 209.045C345.967 208.828 346.47 208.72 347.042 208.72C347.865 208.72 348.528 208.941 349.031 209.383C349.534 209.825 349.798 210.427 349.824 211.19H348.654C348.628 210.731 348.472 210.38 348.186 210.137C347.909 209.886 347.527 209.76 347.042 209.76C346.531 209.76 346.123 209.907 345.82 210.202C345.517 210.488 345.365 210.9 345.365 211.437V213.4C345.365 213.937 345.517 214.353 345.82 214.648C346.123 214.943 346.531 215.09 347.042 215.09C347.527 215.09 347.909 214.964 348.186 214.713C348.472 214.462 348.628 214.111 348.654 213.66H349.824C349.798 214.423 349.534 215.025 349.031 215.467C348.528 215.909 347.865 216.13 347.042 216.13ZM354.785 216.13C354.221 216.13 353.727 216.017 353.303 215.792C352.887 215.567 352.562 215.25 352.328 214.843C352.102 214.427 351.99 213.946 351.99 213.4V211.45C351.99 210.895 352.102 210.414 352.328 210.007C352.562 209.6 352.887 209.283 353.303 209.058C353.727 208.833 354.221 208.72 354.785 208.72C355.348 208.72 355.838 208.833 356.254 209.058C356.678 209.283 357.003 209.6 357.229 210.007C357.463 210.414 357.58 210.895 357.58 211.45V212.711H353.134V213.4C353.134 213.963 353.277 214.397 353.563 214.7C353.849 214.995 354.256 215.142 354.785 215.142C355.235 215.142 355.599 215.064 355.877 214.908C356.154 214.743 356.323 214.501 356.384 214.18H357.554C357.476 214.778 357.181 215.255 356.67 215.61C356.167 215.957 355.539 216.13 354.785 216.13ZM356.436 211.931V211.45C356.436 210.887 356.293 210.453 356.007 210.15C355.729 209.847 355.322 209.695 354.785 209.695C354.256 209.695 353.849 209.847 353.563 210.15C353.277 210.453 353.134 210.887 353.134 211.45V211.827H356.527L356.436 211.931ZM367.58 210.67V209.63H373.17V210.67H367.58ZM367.58 213.79V212.75H373.17V213.79H367.58ZM386.016 216.13C385.444 216.13 384.942 216.022 384.508 215.805C384.084 215.588 383.754 215.276 383.52 214.869C383.286 214.453 383.169 213.963 383.169 213.4V211.45C383.169 210.878 383.286 210.388 383.52 209.981C383.754 209.574 384.084 209.262 384.508 209.045C384.942 208.828 385.444 208.72 386.016 208.72C386.84 208.72 387.503 208.941 388.005 209.383C388.508 209.825 388.772 210.427 388.798 211.19H387.628C387.602 210.731 387.446 210.38 387.16 210.137C386.883 209.886 386.502 209.76 386.016 209.76C385.505 209.76 385.098 209.907 384.794 210.202C384.491 210.488 384.339 210.9 384.339 211.437V213.4C384.339 213.937 384.491 214.353 384.794 214.648C385.098 214.943 385.505 215.09 386.016 215.09C386.502 215.09 386.883 214.964 387.16 214.713C387.446 214.462 387.602 214.111 387.628 213.66H388.798C388.772 214.423 388.508 215.025 388.005 215.467C387.503 215.909 386.84 216.13 386.016 216.13ZM392.173 218.34L393.226 215.558L390.574 208.85H391.874L393.538 213.27C393.599 213.417 393.655 213.595 393.707 213.803C393.759 214.002 393.803 214.171 393.837 214.31C393.872 214.171 393.915 214.002 393.967 213.803C394.019 213.595 394.071 213.417 394.123 213.27L395.683 208.85H396.944L393.421 218.34H392.173ZM398.889 216V206.497H404.479V207.563H400.033V210.722H404.141V211.788H400.059V216H398.889ZM406.944 216V206.51H408.114V214.934H412.404V216H406.944ZM414.44 216V206.51H417.378C417.941 206.51 418.435 206.627 418.86 206.861C419.285 207.086 419.614 207.403 419.848 207.81C420.082 208.217 420.199 208.694 420.199 209.24C420.199 209.881 420.03 210.432 419.692 210.891C419.363 211.35 418.912 211.667 418.34 211.84L420.329 216H418.951L417.131 211.97H415.61V216H414.44ZM415.61 210.917H417.378C417.863 210.917 418.253 210.765 418.548 210.462C418.843 210.15 418.99 209.743 418.99 209.24C418.99 208.729 418.843 208.321 418.548 208.018C418.253 207.715 417.863 207.563 417.378 207.563H415.61V210.917ZM250.721 238V236.934H253.295V229.485L250.721 231.409V230.109L252.866 228.51H254.465V236.934H256.571V238H250.721ZM261.246 238.13C260.665 238.13 260.158 238.017 259.725 237.792C259.3 237.558 258.971 237.233 258.737 236.817C258.503 236.392 258.386 235.898 258.386 235.335V231.175C258.386 230.603 258.503 230.109 258.737 229.693C258.971 229.277 259.3 228.956 259.725 228.731C260.158 228.497 260.665 228.38 261.246 228.38C261.835 228.38 262.342 228.497 262.767 228.731C263.191 228.956 263.521 229.277 263.755 229.693C263.989 230.109 264.106 230.603 264.106 231.175V235.335C264.106 235.898 263.989 236.392 263.755 236.817C263.521 237.233 263.187 237.558 262.754 237.792C262.329 238.017 261.826 238.13 261.246 238.13ZM261.246 237.129C261.766 237.129 262.182 236.964 262.494 236.635C262.814 236.297 262.975 235.864 262.975 235.335V231.175C262.975 230.646 262.814 230.217 262.494 229.888C262.182 229.55 261.766 229.381 261.246 229.381C260.726 229.381 260.305 229.55 259.985 229.888C259.673 230.217 259.517 230.646 259.517 231.175V235.335C259.517 235.864 259.673 236.297 259.985 236.635C260.305 236.964 260.726 237.129 261.246 237.129ZM261.246 234.022C261.012 234.022 260.821 233.948 260.674 233.801C260.535 233.654 260.466 233.459 260.466 233.216C260.466 232.982 260.535 232.796 260.674 232.657C260.821 232.51 261.012 232.436 261.246 232.436C261.48 232.436 261.666 232.51 261.805 232.657C261.952 232.796 262.026 232.982 262.026 233.216C262.026 233.459 261.952 233.654 261.805 233.801C261.666 233.948 261.48 234.022 261.246 234.022ZM269.041 238.13C268.46 238.13 267.953 238.017 267.52 237.792C267.095 237.558 266.766 237.233 266.532 236.817C266.298 236.392 266.181 235.898 266.181 235.335V231.175C266.181 230.603 266.298 230.109 266.532 229.693C266.766 229.277 267.095 228.956 267.52 228.731C267.953 228.497 268.46 228.38 269.041 228.38C269.63 228.38 270.137 228.497 270.562 228.731C270.986 228.956 271.316 229.277 271.55 229.693C271.784 230.109 271.901 230.603 271.901 231.175V235.335C271.901 235.898 271.784 236.392 271.55 236.817C271.316 237.233 270.982 237.558 270.549 237.792C270.124 238.017 269.621 238.13 269.041 238.13ZM269.041 237.129C269.561 237.129 269.977 236.964 270.289 236.635C270.609 236.297 270.77 235.864 270.77 235.335V231.175C270.77 230.646 270.609 230.217 270.289 229.888C269.977 229.55 269.561 229.381 269.041 229.381C268.521 229.381 268.1 229.55 267.78 229.888C267.468 230.217 267.312 230.646 267.312 231.175V235.335C267.312 235.864 267.468 236.297 267.78 236.635C268.1 236.964 268.521 237.129 269.041 237.129ZM269.041 234.022C268.807 234.022 268.616 233.948 268.469 233.801C268.33 233.654 268.261 233.459 268.261 233.216C268.261 232.982 268.33 232.796 268.469 232.657C268.616 232.51 268.807 232.436 269.041 232.436C269.275 232.436 269.461 232.51 269.6 232.657C269.747 232.796 269.821 232.982 269.821 233.216C269.821 233.459 269.747 233.654 269.6 233.801C269.461 233.948 269.275 234.022 269.041 234.022ZM281.38 238L283.915 234.321L281.536 230.85H282.914L284.331 233.06C284.392 233.155 284.448 233.259 284.5 233.372C284.561 233.485 284.609 233.576 284.643 233.645C284.669 233.576 284.708 233.485 284.76 233.372C284.821 233.259 284.882 233.155 284.942 233.06L286.372 230.85H287.737L285.358 234.334L287.88 238H286.502L284.968 235.66C284.908 235.565 284.847 235.456 284.786 235.335C284.734 235.205 284.687 235.101 284.643 235.023C284.609 235.101 284.557 235.205 284.487 235.335C284.427 235.456 284.362 235.565 284.292 235.66L282.745 238H281.38ZM300.22 238.13C299.64 238.13 299.133 238.017 298.699 237.792C298.275 237.558 297.945 237.233 297.711 236.817C297.477 236.392 297.36 235.898 297.36 235.335V231.175C297.36 230.603 297.477 230.109 297.711 229.693C297.945 229.277 298.275 228.956 298.699 228.731C299.133 228.497 299.64 228.38 300.22 228.38C300.81 228.38 301.317 228.497 301.741 228.731C302.166 228.956 302.495 229.277 302.729 229.693C302.963 230.109 303.08 230.603 303.08 231.175V235.335C303.08 235.898 302.963 236.392 302.729 236.817C302.495 237.233 302.162 237.558 301.728 237.792C301.304 238.017 300.801 238.13 300.22 238.13ZM300.22 237.129C300.74 237.129 301.156 236.964 301.468 236.635C301.789 236.297 301.949 235.864 301.949 235.335V231.175C301.949 230.646 301.789 230.217 301.468 229.888C301.156 229.55 300.74 229.381 300.22 229.381C299.7 229.381 299.28 229.55 298.959 229.888C298.647 230.217 298.491 230.646 298.491 231.175V235.335C298.491 235.864 298.647 236.297 298.959 236.635C299.28 236.964 299.7 237.129 300.22 237.129ZM300.22 234.022C299.986 234.022 299.796 233.948 299.648 233.801C299.51 233.654 299.44 233.459 299.44 233.216C299.44 232.982 299.51 232.796 299.648 232.657C299.796 232.51 299.986 232.436 300.22 232.436C300.454 232.436 300.641 232.51 300.779 232.657C300.927 232.796 301 232.982 301 233.216C301 233.459 300.927 233.654 300.779 233.801C300.641 233.948 300.454 234.022 300.22 234.022ZM308.015 238.13C307.686 238.13 307.422 238.035 307.222 237.844C307.032 237.653 306.936 237.398 306.936 237.077C306.936 236.739 307.032 236.47 307.222 236.271C307.422 236.072 307.686 235.972 308.015 235.972C308.345 235.972 308.605 236.072 308.795 236.271C308.995 236.47 309.094 236.739 309.094 237.077C309.094 237.398 308.995 237.653 308.795 237.844C308.605 238.035 308.345 238.13 308.015 238.13ZM315.81 238.13C315.229 238.13 314.722 238.017 314.289 237.792C313.864 237.558 313.535 237.233 313.301 236.817C313.067 236.392 312.95 235.898 312.95 235.335V231.175C312.95 230.603 313.067 230.109 313.301 229.693C313.535 229.277 313.864 228.956 314.289 228.731C314.722 228.497 315.229 228.38 315.81 228.38C316.399 228.38 316.906 228.497 317.331 228.731C317.756 228.956 318.085 229.277 318.319 229.693C318.553 230.109 318.67 230.603 318.67 231.175V235.335C318.67 235.898 318.553 236.392 318.319 236.817C318.085 237.233 317.751 237.558 317.318 237.792C316.893 238.017 316.391 238.13 315.81 238.13ZM315.81 237.129C316.33 237.129 316.746 236.964 317.058 236.635C317.379 236.297 317.539 235.864 317.539 235.335V231.175C317.539 230.646 317.379 230.217 317.058 229.888C316.746 229.55 316.33 229.381 315.81 229.381C315.29 229.381 314.87 229.55 314.549 229.888C314.237 230.217 314.081 230.646 314.081 231.175V235.335C314.081 235.864 314.237 236.297 314.549 236.635C314.87 236.964 315.29 237.129 315.81 237.129ZM315.81 234.022C315.576 234.022 315.385 233.948 315.238 233.801C315.099 233.654 315.03 233.459 315.03 233.216C315.03 232.982 315.099 232.796 315.238 232.657C315.385 232.51 315.576 232.436 315.81 232.436C316.044 232.436 316.23 232.51 316.369 232.657C316.516 232.796 316.59 232.982 316.59 233.216C316.59 233.459 316.516 233.654 316.369 233.801C316.23 233.948 316.044 234.022 315.81 234.022ZM323.462 238.13C322.89 238.13 322.387 238.017 321.954 237.792C321.529 237.558 321.2 237.237 320.966 236.83C320.732 236.423 320.615 235.946 320.615 235.4H321.785C321.785 235.929 321.932 236.345 322.227 236.648C322.53 236.943 322.946 237.09 323.475 237.09C324.012 237.09 324.428 236.934 324.723 236.622C325.018 236.31 325.165 235.903 325.165 235.4V234.724C325.165 234.187 325.018 233.771 324.723 233.476C324.428 233.181 324.012 233.034 323.475 233.034H322.5V231.864L324.853 229.576H321.005V228.51H326.036V229.68L323.501 232.137V231.994C324.368 231.994 325.057 232.241 325.568 232.735C326.079 233.229 326.335 233.892 326.335 234.724V235.4C326.335 235.946 326.214 236.423 325.971 236.83C325.737 237.237 325.403 237.558 324.97 237.792C324.537 238.017 324.034 238.13 323.462 238.13ZM336.4 232.67V231.63H341.99V232.67H336.4ZM336.4 235.79V234.75H341.99V235.79H336.4ZM354.668 238.13C354.07 238.13 353.55 238.017 353.108 237.792C352.666 237.567 352.323 237.25 352.081 236.843C351.847 236.427 351.73 235.946 351.73 235.4H353.134C353.134 235.877 353.268 236.249 353.537 236.518C353.814 236.787 354.195 236.921 354.681 236.921C355.175 236.921 355.556 236.782 355.825 236.505C356.093 236.228 356.228 235.859 356.228 235.4V234.698C356.228 234.213 356.093 233.84 355.825 233.58C355.556 233.311 355.175 233.177 354.681 233.177H353.667V231.851L355.877 229.745H352.133V228.51H357.307V229.836L354.694 232.293V231.955C355.595 231.955 356.31 232.202 356.839 232.696C357.367 233.19 357.632 233.853 357.632 234.685V235.4C357.632 235.946 357.51 236.427 357.268 236.843C357.025 237.25 356.678 237.567 356.228 237.792C355.786 238.017 355.266 238.13 354.668 238.13ZM370.427 238.13C369.837 238.13 369.317 238.022 368.867 237.805C368.425 237.58 368.082 237.259 367.84 236.843C367.606 236.418 367.489 235.924 367.489 235.361V233.489C367.489 232.917 367.606 232.423 367.84 232.007C368.082 231.591 368.425 231.275 368.867 231.058C369.317 230.833 369.837 230.72 370.427 230.72C371.285 230.72 371.974 230.945 372.494 231.396C373.014 231.847 373.287 232.462 373.313 233.242H371.909C371.883 232.835 371.74 232.518 371.48 232.293C371.22 232.068 370.869 231.955 370.427 231.955C369.95 231.955 369.573 232.089 369.296 232.358C369.018 232.618 368.88 232.991 368.88 233.476V235.361C368.88 235.846 369.018 236.223 369.296 236.492C369.573 236.761 369.95 236.895 370.427 236.895C370.869 236.895 371.22 236.782 371.48 236.557C371.74 236.332 371.883 236.015 371.909 235.608H373.313C373.287 236.388 373.014 237.003 372.494 237.454C371.974 237.905 371.285 238.13 370.427 238.13ZM376.506 240.34L377.533 237.584L374.868 230.85H376.415L377.91 234.88C377.97 235.053 378.031 235.261 378.092 235.504C378.152 235.747 378.204 235.946 378.248 236.102C378.282 235.946 378.33 235.747 378.391 235.504C378.451 235.261 378.512 235.053 378.573 234.88L379.977 230.85H381.472L377.988 240.34H376.506ZM383.208 238V228.497H388.941V229.797H384.573V232.631H388.603V233.931H384.599V238H383.208ZM391.276 238V228.51H392.68V236.713H396.827V238H391.276ZM398.746 238V228.51H401.723C402.321 228.51 402.841 228.627 403.283 228.861C403.725 229.086 404.068 229.407 404.31 229.823C404.562 230.239 404.687 230.729 404.687 231.292C404.687 231.925 404.523 232.475 404.193 232.943C403.873 233.402 403.435 233.727 402.88 233.918L404.817 238H403.218L401.489 234.1H400.15V238H398.746ZM400.15 232.865H401.723C402.191 232.865 402.564 232.726 402.841 232.449C403.119 232.163 403.257 231.786 403.257 231.318C403.257 230.833 403.119 230.451 402.841 230.174C402.564 229.897 402.191 229.758 401.723 229.758H400.15V232.865Z" fill="black"/>
<rect width="118" height="37" transform="translate(494 134)" fill="#1E26E8"/>
<path d="M533.372 157.13C532.8 157.13 532.298 157.017 531.864 156.792C531.44 156.558 531.11 156.237 530.876 155.83C530.642 155.423 530.525 154.946 530.525 154.4H531.695C531.695 154.929 531.843 155.345 532.137 155.648C532.441 155.943 532.857 156.09 533.385 156.09C533.923 156.09 534.339 155.934 534.633 155.622C534.928 155.31 535.075 154.903 535.075 154.4V153.724C535.075 153.187 534.928 152.771 534.633 152.476C534.339 152.181 533.923 152.034 533.385 152.034H532.41V150.864L534.763 148.576H530.915V147.51H535.946V148.68L533.411 151.137V150.994C534.278 150.994 534.967 151.241 535.478 151.735C535.99 152.229 536.245 152.892 536.245 153.724V154.4C536.245 154.946 536.124 155.423 535.881 155.83C535.647 156.237 535.314 156.558 534.88 156.792C534.447 157.017 533.944 157.13 533.372 157.13ZM547.298 159.34V158.274H549.573C549.937 158.274 550.201 158.192 550.366 158.027C550.539 157.862 550.626 157.607 550.626 157.26V156.35L550.652 155.05H550.418L550.639 154.855C550.639 155.375 550.466 155.787 550.119 156.09C549.772 156.393 549.309 156.545 548.728 156.545C547.991 156.545 547.411 156.307 546.986 155.83C546.561 155.345 546.349 154.695 546.349 153.88V152.372C546.349 151.557 546.561 150.912 546.986 150.435C547.411 149.958 547.991 149.72 548.728 149.72C549.309 149.72 549.772 149.872 550.119 150.175C550.466 150.478 550.639 150.89 550.639 151.41L550.418 151.215H550.639V149.85H551.796V157.26C551.796 157.901 551.597 158.408 551.198 158.781C550.808 159.154 550.262 159.34 549.56 159.34H547.298ZM549.079 155.531C549.564 155.531 549.946 155.379 550.223 155.076C550.5 154.773 550.639 154.352 550.639 153.815V152.45C550.639 151.913 550.5 151.492 550.223 151.189C549.946 150.886 549.564 150.734 549.079 150.734C548.585 150.734 548.199 150.881 547.922 151.176C547.653 151.471 547.519 151.895 547.519 152.45V153.815C547.519 154.37 547.653 154.794 547.922 155.089C548.199 155.384 548.585 155.531 549.079 155.531ZM554.235 157V147.497H559.825V148.563H555.379V151.722H559.487V152.788H555.405V157H554.235ZM562.29 157V147.51H563.46V155.934H567.75V157H562.29ZM569.786 157V147.51H572.724C573.287 147.51 573.781 147.627 574.206 147.861C574.631 148.086 574.96 148.403 575.194 148.81C575.428 149.217 575.545 149.694 575.545 150.24C575.545 150.881 575.376 151.432 575.038 151.891C574.709 152.35 574.258 152.667 573.686 152.84L575.675 157H574.297L572.477 152.97H570.956V157H569.786ZM570.956 151.917H572.724C573.209 151.917 573.599 151.765 573.894 151.462C574.189 151.15 574.336 150.743 574.336 150.24C574.336 149.729 574.189 149.321 573.894 149.018C573.599 148.715 573.209 148.563 572.724 148.563H570.956V151.917Z" fill="white"/>
<rect width="118" height="55" transform="translate(494 214)" fill="#1E26E8"/>
<path d="M517.782 237.63C517.21 237.63 516.708 237.517 516.274 237.292C515.85 237.058 515.52 236.737 515.286 236.33C515.052 235.923 514.935 235.446 514.935 234.9H516.105C516.105 235.429 516.253 235.845 516.547 236.148C516.851 236.443 517.267 236.59 517.795 236.59C518.333 236.59 518.749 236.434 519.043 236.122C519.338 235.81 519.485 235.403 519.485 234.9V234.224C519.485 233.687 519.338 233.271 519.043 232.976C518.749 232.681 518.333 232.534 517.795 232.534H516.82V231.364L519.173 229.076H515.325V228.01H520.356V229.18L517.821 231.637V231.494C518.688 231.494 519.377 231.741 519.888 232.235C520.4 232.729 520.655 233.392 520.655 234.224V234.9C520.655 235.446 520.534 235.923 520.291 236.33C520.057 236.737 519.724 237.058 519.29 237.292C518.857 237.517 518.354 237.63 517.782 237.63ZM530.811 237.5V228.01H533.749C534.313 228.01 534.807 228.127 535.231 228.361C535.656 228.586 535.985 228.903 536.219 229.31C536.453 229.717 536.57 230.194 536.57 230.74C536.57 231.381 536.401 231.932 536.063 232.391C535.734 232.85 535.283 233.167 534.711 233.34L536.7 237.5H535.322L533.502 233.47H531.981V237.5H530.811ZM531.981 232.417H533.749C534.235 232.417 534.625 232.265 534.919 231.962C535.214 231.65 535.361 231.243 535.361 230.74C535.361 230.229 535.214 229.821 534.919 229.518C534.625 229.215 534.235 229.063 533.749 229.063H531.981V232.417ZM541.31 237.63C540.747 237.63 540.253 237.517 539.828 237.292C539.412 237.067 539.087 236.75 538.853 236.343C538.628 235.927 538.515 235.446 538.515 234.9V232.95C538.515 232.395 538.628 231.914 538.853 231.507C539.087 231.1 539.412 230.783 539.828 230.558C540.253 230.333 540.747 230.22 541.31 230.22C541.873 230.22 542.363 230.333 542.779 230.558C543.204 230.783 543.529 231.1 543.754 231.507C543.988 231.914 544.105 232.395 544.105 232.95V234.211H539.659V234.9C539.659 235.463 539.802 235.897 540.088 236.2C540.374 236.495 540.781 236.642 541.31 236.642C541.761 236.642 542.125 236.564 542.402 236.408C542.679 236.243 542.848 236.001 542.909 235.68H544.079C544.001 236.278 543.706 236.755 543.195 237.11C542.692 237.457 542.064 237.63 541.31 237.63ZM542.961 233.431V232.95C542.961 232.387 542.818 231.953 542.532 231.65C542.255 231.347 541.847 231.195 541.31 231.195C540.781 231.195 540.374 231.347 540.088 231.65C539.802 231.953 539.659 232.387 539.659 232.95V233.327H543.052L542.961 233.431ZM549.157 237.63C548.585 237.63 548.082 237.522 547.649 237.305C547.224 237.088 546.895 236.776 546.661 236.369C546.427 235.953 546.31 235.463 546.31 234.9V232.95C546.31 232.378 546.427 231.888 546.661 231.481C546.895 231.074 547.224 230.762 547.649 230.545C548.082 230.328 548.585 230.22 549.157 230.22C549.98 230.22 550.643 230.441 551.146 230.883C551.649 231.325 551.913 231.927 551.939 232.69H550.769C550.743 232.231 550.587 231.88 550.301 231.637C550.024 231.386 549.642 231.26 549.157 231.26C548.646 231.26 548.238 231.407 547.935 231.702C547.632 231.988 547.48 232.4 547.48 232.937V234.9C547.48 235.437 547.632 235.853 547.935 236.148C548.238 236.443 548.646 236.59 549.157 236.59C549.642 236.59 550.024 236.464 550.301 236.213C550.587 235.962 550.743 235.611 550.769 235.16H551.939C551.913 235.923 551.649 236.525 551.146 236.967C550.643 237.409 549.98 237.63 549.157 237.63ZM556.9 237.63C556.337 237.63 555.843 237.517 555.418 237.292C555.002 237.067 554.677 236.75 554.443 236.343C554.218 235.927 554.105 235.446 554.105 234.9V232.95C554.105 232.395 554.218 231.914 554.443 231.507C554.677 231.1 555.002 230.783 555.418 230.558C555.843 230.333 556.337 230.22 556.9 230.22C557.463 230.22 557.953 230.333 558.369 230.558C558.794 230.783 559.119 231.1 559.344 231.507C559.578 231.914 559.695 232.395 559.695 232.95V234.211H555.249V234.9C555.249 235.463 555.392 235.897 555.678 236.2C555.964 236.495 556.371 236.642 556.9 236.642C557.351 236.642 557.715 236.564 557.992 236.408C558.269 236.243 558.438 236.001 558.499 235.68H559.669C559.591 236.278 559.296 236.755 558.785 237.11C558.282 237.457 557.654 237.63 556.9 237.63ZM558.551 233.431V232.95C558.551 232.387 558.408 231.953 558.122 231.65C557.845 231.347 557.437 231.195 556.9 231.195C556.371 231.195 555.964 231.347 555.678 231.65C555.392 231.953 555.249 232.387 555.249 232.95V233.327H558.642L558.551 233.431ZM561.9 237.5V236.434H564.435V231.416H562.225V230.35H565.605V236.434H568.01V237.5H561.9ZM564.89 229.063C564.604 229.063 564.379 228.989 564.214 228.842C564.049 228.695 563.967 228.495 563.967 228.244C563.967 227.984 564.049 227.78 564.214 227.633C564.379 227.477 564.604 227.399 564.89 227.399C565.176 227.399 565.401 227.477 565.566 227.633C565.731 227.78 565.813 227.984 565.813 228.244C565.813 228.495 565.731 228.695 565.566 228.842C565.401 228.989 565.176 229.063 564.89 229.063ZM569.786 239.84V230.35H570.956V231.715H571.19L570.956 231.988C570.956 231.442 571.134 231.013 571.489 230.701C571.853 230.38 572.33 230.22 572.919 230.22C573.638 230.22 574.21 230.458 574.635 230.935C575.068 231.403 575.285 232.049 575.285 232.872V234.965C575.285 235.511 575.185 235.983 574.986 236.382C574.795 236.781 574.522 237.088 574.167 237.305C573.82 237.522 573.404 237.63 572.919 237.63C572.338 237.63 571.866 237.47 571.502 237.149C571.138 236.828 570.956 236.399 570.956 235.862L571.19 236.135H570.93L570.956 237.76V239.84H569.786ZM572.529 236.616C573.023 236.616 573.409 236.469 573.686 236.174C573.972 235.879 574.115 235.455 574.115 234.9V232.95C574.115 232.395 573.972 231.971 573.686 231.676C573.409 231.381 573.023 231.234 572.529 231.234C572.052 231.234 571.671 231.386 571.385 231.689C571.099 231.992 570.956 232.413 570.956 232.95V234.9C570.956 235.437 571.099 235.858 571.385 236.161C571.671 236.464 572.052 236.616 572.529 236.616ZM581.065 237.5C580.449 237.5 579.968 237.335 579.622 237.006C579.284 236.677 579.115 236.213 579.115 235.615V231.416H577.1V230.35H579.115V228.335H580.285V230.35H583.145V231.416H580.285V235.615C580.285 236.161 580.545 236.434 581.065 236.434H583.015V237.5H581.065ZM587.859 237.604C587.373 237.604 586.949 237.53 586.585 237.383C586.229 237.227 585.943 237.01 585.727 236.733C585.519 236.456 585.393 236.126 585.35 235.745H586.52C586.572 235.996 586.71 236.196 586.936 236.343C587.17 236.49 587.477 236.564 587.859 236.564H588.405C588.864 236.564 589.206 236.473 589.432 236.291C589.657 236.1 589.77 235.849 589.77 235.537C589.77 235.234 589.666 234.995 589.458 234.822C589.258 234.64 588.959 234.519 588.561 234.458L587.599 234.302C586.897 234.181 586.372 233.964 586.026 233.652C585.688 233.331 585.519 232.868 585.519 232.261C585.519 231.62 585.722 231.126 586.13 230.779C586.537 230.424 587.148 230.246 587.963 230.246H588.457C589.141 230.246 589.692 230.406 590.108 230.727C590.524 231.048 590.775 231.481 590.862 232.027H589.692C589.64 231.802 589.51 231.624 589.302 231.494C589.094 231.355 588.812 231.286 588.457 231.286H587.963C587.521 231.286 587.196 231.368 586.988 231.533C586.788 231.698 586.689 231.945 586.689 232.274C586.689 232.569 586.775 232.785 586.949 232.924C587.122 233.063 587.395 233.162 587.768 233.223L588.73 233.379C589.501 233.5 590.06 233.726 590.407 234.055C590.762 234.384 590.94 234.861 590.94 235.485C590.94 236.144 590.727 236.664 590.303 237.045C589.887 237.418 589.254 237.604 588.405 237.604H587.859ZM529.943 256.84C529.206 256.84 528.565 256.684 528.019 256.372C527.473 256.069 527.048 255.631 526.745 255.059C526.45 254.496 526.303 253.833 526.303 253.07V248.65C526.303 247.87 526.441 247.198 526.719 246.635C527.005 246.072 527.408 245.638 527.928 245.335C528.456 245.032 529.085 244.88 529.813 244.88C530.471 244.88 531.039 245.01 531.516 245.27C531.992 245.521 532.356 245.885 532.608 246.362C532.868 246.839 532.998 247.406 532.998 248.065V253.655H532.075V252.94H531.711L531.958 252.68C531.958 253.009 531.832 253.278 531.581 253.486C531.329 253.685 530.996 253.785 530.58 253.785C530.016 253.785 529.583 253.616 529.28 253.278C528.985 252.931 528.838 252.429 528.838 251.77V250.21C528.838 249.551 528.985 249.053 529.28 248.715C529.583 248.368 530.016 248.195 530.58 248.195C530.996 248.195 531.329 248.299 531.581 248.507C531.832 248.706 531.958 248.975 531.958 249.313L531.776 249.04H532.088L531.958 248.13V248.065C531.958 247.571 531.875 247.155 531.711 246.817C531.546 246.479 531.303 246.223 530.983 246.05C530.671 245.877 530.281 245.79 529.813 245.79C529.033 245.79 528.426 246.041 527.993 246.544C527.559 247.047 527.343 247.749 527.343 248.65V253.07C527.343 253.937 527.572 254.617 528.032 255.111C528.5 255.614 529.137 255.865 529.943 255.865H530.853V256.84H529.943ZM530.918 252.966C531.273 252.966 531.533 252.858 531.698 252.641C531.871 252.424 531.958 252.091 531.958 251.64V250.197C531.958 249.79 531.871 249.491 531.698 249.3C531.533 249.109 531.273 249.014 530.918 249.014C530.571 249.014 530.311 249.114 530.138 249.313C529.964 249.504 529.878 249.803 529.878 250.21V251.77C529.878 252.177 529.964 252.481 530.138 252.68C530.311 252.871 530.571 252.966 530.918 252.966ZM544.883 256.32V254.617C544.068 254.548 543.427 254.288 542.959 253.837C542.499 253.378 542.261 252.775 542.244 252.03H543.414C543.414 252.455 543.539 252.801 543.791 253.07C544.051 253.339 544.415 253.503 544.883 253.564V250.158L544.532 250.054C543.882 249.855 543.379 249.521 543.024 249.053C542.677 248.585 542.504 248.035 542.504 247.402C542.504 246.709 542.716 246.137 543.141 245.686C543.574 245.235 544.155 244.975 544.883 244.906V243.19H545.663V244.893C546.382 244.962 546.958 245.222 547.392 245.673C547.825 246.124 548.046 246.704 548.055 247.415H546.885C546.885 247.008 546.776 246.678 546.56 246.427C546.352 246.167 546.053 246.007 545.663 245.946V249.17L546.183 249.339C546.815 249.538 547.305 249.876 547.652 250.353C547.998 250.83 548.172 251.389 548.172 252.03C548.172 252.741 547.942 253.33 547.483 253.798C547.032 254.266 546.425 254.539 545.663 254.617V256.32H544.883ZM545.663 253.564C546.087 253.495 546.417 253.33 546.651 253.07C546.885 252.81 547.002 252.472 547.002 252.056C547.002 251.675 546.898 251.341 546.69 251.055C546.49 250.769 546.2 250.57 545.819 250.457L545.663 250.405V253.564ZM544.883 249.443V245.946C544.501 246.007 544.202 246.154 543.986 246.388C543.778 246.622 543.674 246.925 543.674 247.298C543.674 247.749 543.812 248.13 544.09 248.442C544.367 248.745 544.766 248.936 545.286 249.014L544.883 249.443ZM553.003 254.63C552.422 254.63 551.915 254.517 551.482 254.292C551.057 254.058 550.728 253.733 550.494 253.317C550.26 252.892 550.143 252.398 550.143 251.835V247.675C550.143 247.103 550.26 246.609 550.494 246.193C550.728 245.777 551.057 245.456 551.482 245.231C551.915 244.997 552.422 244.88 553.003 244.88C553.592 244.88 554.099 244.997 554.524 245.231C554.948 245.456 555.278 245.777 555.512 246.193C555.746 246.609 555.863 247.103 555.863 247.675V251.835C555.863 252.398 555.746 252.892 555.512 253.317C555.278 253.733 554.944 254.058 554.511 254.292C554.086 254.517 553.583 254.63 553.003 254.63ZM553.003 253.629C553.523 253.629 553.939 253.464 554.251 253.135C554.571 252.797 554.732 252.364 554.732 251.835V247.675C554.732 247.146 554.571 246.717 554.251 246.388C553.939 246.05 553.523 245.881 553.003 245.881C552.483 245.881 552.062 246.05 551.742 246.388C551.43 246.717 551.274 247.146 551.274 247.675V251.835C551.274 252.364 551.43 252.797 551.742 253.135C552.062 253.464 552.483 253.629 553.003 253.629ZM553.003 250.522C552.769 250.522 552.578 250.448 552.431 250.301C552.292 250.154 552.223 249.959 552.223 249.716C552.223 249.482 552.292 249.296 552.431 249.157C552.578 249.01 552.769 248.936 553.003 248.936C553.237 248.936 553.423 249.01 553.562 249.157C553.709 249.296 553.783 249.482 553.783 249.716C553.783 249.959 553.709 250.154 553.562 250.301C553.423 250.448 553.237 250.522 553.003 250.522ZM560.797 254.63C560.468 254.63 560.204 254.535 560.004 254.344C559.814 254.153 559.718 253.898 559.718 253.577C559.718 253.239 559.814 252.97 560.004 252.771C560.204 252.572 560.468 252.472 560.797 252.472C561.127 252.472 561.387 252.572 561.577 252.771C561.777 252.97 561.876 253.239 561.876 253.577C561.876 253.898 561.777 254.153 561.577 254.344C561.387 254.535 561.127 254.63 560.797 254.63ZM568.592 254.63C568.012 254.63 567.505 254.517 567.071 254.292C566.647 254.058 566.317 253.733 566.083 253.317C565.849 252.892 565.732 252.398 565.732 251.835V247.675C565.732 247.103 565.849 246.609 566.083 246.193C566.317 245.777 566.647 245.456 567.071 245.231C567.505 244.997 568.012 244.88 568.592 244.88C569.182 244.88 569.689 244.997 570.113 245.231C570.538 245.456 570.867 245.777 571.101 246.193C571.335 246.609 571.452 247.103 571.452 247.675V251.835C571.452 252.398 571.335 252.892 571.101 253.317C570.867 253.733 570.534 254.058 570.1 254.292C569.676 254.517 569.173 254.63 568.592 254.63ZM568.592 253.629C569.112 253.629 569.528 253.464 569.84 253.135C570.161 252.797 570.321 252.364 570.321 251.835V247.675C570.321 247.146 570.161 246.717 569.84 246.388C569.528 246.05 569.112 245.881 568.592 245.881C568.072 245.881 567.652 246.05 567.331 246.388C567.019 246.717 566.863 247.146 566.863 247.675V251.835C566.863 252.364 567.019 252.797 567.331 253.135C567.652 253.464 568.072 253.629 568.592 253.629ZM568.592 250.522C568.358 250.522 568.168 250.448 568.02 250.301C567.882 250.154 567.812 249.959 567.812 249.716C567.812 249.482 567.882 249.296 568.02 249.157C568.168 249.01 568.358 248.936 568.592 248.936C568.826 248.936 569.013 249.01 569.151 249.157C569.299 249.296 569.372 249.482 569.372 249.716C569.372 249.959 569.299 250.154 569.151 250.301C569.013 250.448 568.826 250.522 568.592 250.522ZM576.244 254.63C575.672 254.63 575.17 254.517 574.736 254.292C574.312 254.058 573.982 253.737 573.748 253.33C573.514 252.923 573.397 252.446 573.397 251.9H574.567C574.567 252.429 574.715 252.845 575.009 253.148C575.313 253.443 575.729 253.59 576.257 253.59C576.795 253.59 577.211 253.434 577.505 253.122C577.8 252.81 577.947 252.403 577.947 251.9V251.224C577.947 250.687 577.8 250.271 577.505 249.976C577.211 249.681 576.795 249.534 576.257 249.534H575.282V248.364L577.635 246.076H573.787V245.01H578.818V246.18L576.283 248.637V248.494C577.15 248.494 577.839 248.741 578.35 249.235C578.862 249.729 579.117 250.392 579.117 251.224V251.9C579.117 252.446 578.996 252.923 578.753 253.33C578.519 253.737 578.186 254.058 577.752 254.292C577.319 254.517 576.816 254.63 576.244 254.63Z" fill="white"/>
<path d="M321.1 169.1L326.5 169.1L326.5 177.5L329.5 177.5L329.5 166.1L318.1 166.1L318.1 185.6L337.6 185.6L337.6 161L343 161L343 191L313 191L313 161L334.6 161L334.6 182.6L321.1 182.6L321.1 169.1Z" fill="black"/>
</svg>
