<svg width="655" height="403" viewBox="0 0 655 403" fill="none" xmlns="http://www.w3.org/2000/svg">
<rect x="0.5" y="0.5" width="654" height="402" fill="white"/>
<rect x="0.5" y="0.5" width="654" height="402" stroke="black"/>
<path d="M129 201C138.778 194.333 143.667 194.333 143.667 201C143.667 207.667 148.556 207.667 158.333 201C168.111 194.333 173 194.333 173 201C173 207.667 177.889 207.667 187.667 201C197.444 194.333 202.333 194.333 202.333 201C202.333 207.667 207.222 207.667 217 201" stroke="black" stroke-linecap="round"/>
<rect width="87" height="37" transform="translate(44 182)" fill="#E61F59"/>
<path d="M57.4903 205V203.934H60.0643V196.485L57.4903 198.409V197.109L59.6353 195.51H61.2343V203.934H63.3403V205H57.4903ZM68.0152 205.13C67.4346 205.13 66.9276 205.017 66.4942 204.792C66.0696 204.558 65.7402 204.233 65.5062 203.817C65.2722 203.392 65.1552 202.898 65.1552 202.335V198.175C65.1552 197.603 65.2722 197.109 65.5062 196.693C65.7402 196.277 66.0696 195.956 66.4942 195.731C66.9276 195.497 67.4346 195.38 68.0152 195.38C68.6046 195.38 69.1116 195.497 69.5362 195.731C69.9609 195.956 70.2902 196.277 70.5242 196.693C70.7582 197.109 70.8752 197.603 70.8752 198.175V202.335C70.8752 202.898 70.7582 203.392 70.5242 203.817C70.2902 204.233 69.9566 204.558 69.5232 204.792C69.0986 205.017 68.5959 205.13 68.0152 205.13ZM68.0152 204.129C68.5352 204.129 68.9512 203.964 69.2632 203.635C69.5839 203.297 69.7442 202.864 69.7442 202.335V198.175C69.7442 197.646 69.5839 197.217 69.2632 196.888C68.9512 196.55 68.5352 196.381 68.0152 196.381C67.4952 196.381 67.0749 196.55 66.7542 196.888C66.4422 197.217 66.2862 197.646 66.2862 198.175V202.335C66.2862 202.864 66.4422 203.297 66.7542 203.635C67.0749 203.964 67.4952 204.129 68.0152 204.129ZM68.0152 201.022C67.7812 201.022 67.5906 200.948 67.4432 200.801C67.3046 200.654 67.2352 200.459 67.2352 200.216C67.2352 199.982 67.3046 199.796 67.4432 199.657C67.5906 199.51 67.7812 199.436 68.0152 199.436C68.2492 199.436 68.4356 199.51 68.5742 199.657C68.7216 199.796 68.7952 199.982 68.7952 200.216C68.7952 200.459 68.7216 200.654 68.5742 200.801C68.4356 200.948 68.2492 201.022 68.0152 201.022ZM75.8102 205.13C75.2295 205.13 74.7225 205.017 74.2892 204.792C73.8645 204.558 73.5352 204.233 73.3012 203.817C73.0672 203.392 72.9502 202.898 72.9502 202.335V198.175C72.9502 197.603 73.0672 197.109 73.3012 196.693C73.5352 196.277 73.8645 195.956 74.2892 195.731C74.7225 195.497 75.2295 195.38 75.8102 195.38C76.3995 195.38 76.9065 195.497 77.3312 195.731C77.7558 195.956 78.0852 196.277 78.3192 196.693C78.5532 197.109 78.6702 197.603 78.6702 198.175V202.335C78.6702 202.898 78.5532 203.392 78.3192 203.817C78.0852 204.233 77.7515 204.558 77.3182 204.792C76.8935 205.017 76.3908 205.13 75.8102 205.13ZM75.8102 204.129C76.3302 204.129 76.7462 203.964 77.0582 203.635C77.3788 203.297 77.5392 202.864 77.5392 202.335V198.175C77.5392 197.646 77.3788 197.217 77.0582 196.888C76.7462 196.55 76.3302 196.381 75.8102 196.381C75.2902 196.381 74.8698 196.55 74.5492 196.888C74.2372 197.217 74.0812 197.646 74.0812 198.175V202.335C74.0812 202.864 74.2372 203.297 74.5492 203.635C74.8698 203.964 75.2902 204.129 75.8102 204.129ZM75.8102 201.022C75.5762 201.022 75.3855 200.948 75.2382 200.801C75.0995 200.654 75.0302 200.459 75.0302 200.216C75.0302 199.982 75.0995 199.796 75.2382 199.657C75.3855 199.51 75.5762 199.436 75.8102 199.436C76.0442 199.436 76.2305 199.51 76.3692 199.657C76.5165 199.796 76.5902 199.982 76.5902 200.216C76.5902 200.459 76.5165 200.654 76.3692 200.801C76.2305 200.948 76.0442 201.022 75.8102 201.022ZM91.179 205.104C90.6937 205.104 90.269 205.03 89.905 204.883C89.5497 204.727 89.2637 204.51 89.047 204.233C88.839 203.956 88.7133 203.626 88.67 203.245H89.84C89.892 203.496 90.0307 203.696 90.256 203.843C90.49 203.99 90.7977 204.064 91.179 204.064H91.725C92.1843 204.064 92.5267 203.973 92.752 203.791C92.9773 203.6 93.09 203.349 93.09 203.037C93.09 202.734 92.986 202.495 92.778 202.322C92.5787 202.14 92.2797 202.019 91.881 201.958L90.919 201.802C90.217 201.681 89.6927 201.464 89.346 201.152C89.008 200.831 88.839 200.368 88.839 199.761C88.839 199.12 89.0427 198.626 89.45 198.279C89.8573 197.924 90.4683 197.746 91.283 197.746H91.777C92.4617 197.746 93.012 197.906 93.428 198.227C93.844 198.548 94.0953 198.981 94.182 199.527H93.012C92.96 199.302 92.83 199.124 92.622 198.994C92.414 198.855 92.1323 198.786 91.777 198.786H91.283C90.841 198.786 90.516 198.868 90.308 199.033C90.1087 199.198 90.009 199.445 90.009 199.774C90.009 200.069 90.0957 200.285 90.269 200.424C90.4423 200.563 90.7153 200.662 91.088 200.723L92.05 200.879C92.8213 201 93.3803 201.226 93.727 201.555C94.0823 201.884 94.26 202.361 94.26 202.985C94.26 203.644 94.0477 204.164 93.623 204.545C93.207 204.918 92.5743 205.104 91.725 205.104H91.179ZM96.5299 205V195.497H102.12V196.563H97.6739V199.722H101.782V200.788H97.6999V205H96.5299ZM104.585 205V195.51H105.755V203.934H110.045V205H104.585ZM112.081 205V195.51H115.019C115.582 195.51 116.076 195.627 116.501 195.861C116.925 196.086 117.255 196.403 117.489 196.81C117.723 197.217 117.84 197.694 117.84 198.24C117.84 198.881 117.671 199.432 117.333 199.891C117.003 200.35 116.553 200.667 115.981 200.84L117.97 205H116.592L114.772 200.97H113.251V205H112.081ZM113.251 199.917H115.019C115.504 199.917 115.894 199.765 116.189 199.462C116.483 199.15 116.631 198.743 116.631 198.24C116.631 197.729 116.483 197.321 116.189 197.018C115.894 196.715 115.504 196.563 115.019 196.563H113.251V199.917Z" fill="white"/>
<rect x="247.5" y="71.5" width="161" height="49" stroke="#E6E6E6"/>
<path d="M263.088 92V83.959H267.818V84.861H264.056V87.534H267.532V88.436H264.078V92H263.088ZM271.444 92V84.861H269.244V83.959H274.634V84.861H272.434V92H271.444ZM278.578 92.11C278.05 92.11 277.596 92.022 277.214 91.846C276.84 91.67 276.551 91.417 276.345 91.087C276.14 90.757 276.034 90.3647 276.026 89.91H277.016C277.016 90.3133 277.152 90.6323 277.423 90.867C277.702 91.1017 278.087 91.219 278.578 91.219C279.04 91.219 279.4 91.1053 279.656 90.878C279.92 90.6507 280.052 90.3353 280.052 89.932C280.052 89.6093 279.964 89.327 279.788 89.085C279.62 88.843 279.374 88.6743 279.051 88.579L277.962 88.238C277.412 88.0693 276.987 87.787 276.686 87.391C276.393 86.995 276.246 86.5293 276.246 85.994C276.246 85.5613 276.342 85.1873 276.532 84.872C276.73 84.5493 277.005 84.3 277.357 84.124C277.709 83.9407 278.124 83.849 278.6 83.849C279.304 83.849 279.869 84.047 280.294 84.443C280.72 84.8317 280.936 85.3523 280.943 86.005H279.953C279.953 85.609 279.832 85.301 279.59 85.081C279.356 84.8537 279.022 84.74 278.589 84.74C278.164 84.74 277.83 84.8427 277.588 85.048C277.354 85.2533 277.236 85.5393 277.236 85.906C277.236 86.236 277.324 86.522 277.5 86.764C277.676 87.006 277.929 87.1783 278.259 87.281L279.359 87.633C279.895 87.8017 280.309 88.0877 280.602 88.491C280.896 88.8943 281.042 89.3673 281.042 89.91C281.042 90.35 280.94 90.735 280.734 91.065C280.529 91.395 280.239 91.6517 279.865 91.835C279.499 92.0183 279.07 92.11 278.578 92.11ZM285.13 92.11C284.646 92.11 284.228 92.0183 283.876 91.835C283.531 91.6517 283.264 91.3877 283.073 91.043C282.89 90.691 282.798 90.2767 282.798 89.8V86.17C282.798 85.686 282.89 85.2717 283.073 84.927C283.264 84.5823 283.531 84.3183 283.876 84.135C284.228 83.9517 284.646 83.86 285.13 83.86C285.614 83.86 286.028 83.9517 286.373 84.135C286.725 84.3183 286.993 84.5823 287.176 84.927C287.367 85.2717 287.462 85.6823 287.462 86.159V89.8C287.462 90.2767 287.367 90.691 287.176 91.043C286.993 91.3877 286.725 91.6517 286.373 91.835C286.028 92.0183 285.614 92.11 285.13 92.11ZM285.13 91.219C285.563 91.219 285.893 91.098 286.12 90.856C286.355 90.6067 286.472 90.2547 286.472 89.8V86.17C286.472 85.7153 286.355 85.367 286.12 85.125C285.893 84.8757 285.563 84.751 285.13 84.751C284.705 84.751 284.375 84.8757 284.14 85.125C283.905 85.367 283.788 85.7153 283.788 86.17V89.8C283.788 90.2547 283.905 90.6067 284.14 90.856C284.375 91.098 284.705 91.219 285.13 91.219ZM297.837 90.955V88.81H295.736V87.93H297.837V85.785H298.805V87.93H300.906V88.81H298.805V90.955H297.837ZM311.513 92.11C311.036 92.11 310.618 92.0147 310.259 91.824C309.907 91.6333 309.632 91.3657 309.434 91.021C309.243 90.669 309.148 90.262 309.148 89.8V88.15C309.148 87.6807 309.243 87.2737 309.434 86.929C309.632 86.5843 309.907 86.3167 310.259 86.126C310.618 85.9353 311.036 85.84 311.513 85.84C311.99 85.84 312.404 85.9353 312.756 86.126C313.115 86.3167 313.39 86.5843 313.581 86.929C313.779 87.2737 313.878 87.6807 313.878 88.15V89.217H310.116V89.8C310.116 90.2767 310.237 90.6433 310.479 90.9C310.721 91.1493 311.066 91.274 311.513 91.274C311.894 91.274 312.202 91.208 312.437 91.076C312.672 90.9367 312.815 90.7313 312.866 90.46H313.856C313.79 90.966 313.541 91.3693 313.108 91.67C312.683 91.9633 312.151 92.11 311.513 92.11ZM312.91 88.557V88.15C312.91 87.6733 312.789 87.3067 312.547 87.05C312.312 86.7933 311.968 86.665 311.513 86.665C311.066 86.665 310.721 86.7933 310.479 87.05C310.237 87.3067 310.116 87.6733 310.116 88.15V88.469H312.987L312.91 88.557ZM315.359 92L317.504 88.887L315.491 85.95H316.657L317.856 87.82C317.907 87.9007 317.955 87.9887 317.999 88.084C318.05 88.1793 318.09 88.2563 318.12 88.315C318.142 88.2563 318.175 88.1793 318.219 88.084C318.27 87.9887 318.321 87.9007 318.373 87.82L319.583 85.95H320.738L318.725 88.898L320.859 92H319.693L318.395 90.02C318.343 89.9393 318.292 89.8477 318.241 89.745C318.197 89.635 318.156 89.547 318.12 89.481C318.09 89.547 318.046 89.635 317.988 89.745C317.936 89.8477 317.881 89.9393 317.823 90.02L316.514 92H315.359ZM324.748 92.11C324.264 92.11 323.839 92.0183 323.472 91.835C323.113 91.6517 322.834 91.3877 322.636 91.043C322.438 90.691 322.339 90.2767 322.339 89.8V88.15C322.339 87.666 322.438 87.2517 322.636 86.907C322.834 86.5623 323.113 86.2983 323.472 86.115C323.839 85.9317 324.264 85.84 324.748 85.84C325.445 85.84 326.006 86.027 326.431 86.401C326.857 86.775 327.08 87.2847 327.102 87.93H326.112C326.09 87.5413 325.958 87.2443 325.716 87.039C325.482 86.8263 325.159 86.72 324.748 86.72C324.316 86.72 323.971 86.8447 323.714 87.094C323.458 87.336 323.329 87.6843 323.329 88.139V89.8C323.329 90.2547 323.458 90.6067 323.714 90.856C323.971 91.1053 324.316 91.23 324.748 91.23C325.159 91.23 325.482 91.1237 325.716 90.911C325.958 90.6983 326.09 90.4013 326.112 90.02H327.102C327.08 90.6653 326.857 91.175 326.431 91.549C326.006 91.923 325.445 92.11 324.748 92.11ZM329.012 92V83.97H330.002V85.95V87.105H330.211L330.002 87.336C330.002 86.8593 330.145 86.4927 330.431 86.236C330.717 85.972 331.113 85.84 331.619 85.84C332.228 85.84 332.712 86.027 333.071 86.401C333.43 86.775 333.61 87.2847 333.61 87.93V92H332.62V88.04C332.62 87.6073 332.503 87.2737 332.268 87.039C332.041 86.797 331.729 86.676 331.333 86.676C330.922 86.676 330.596 86.8043 330.354 87.061C330.119 87.3177 330.002 87.6807 330.002 88.15V92H329.012ZM337.368 92.11C336.73 92.11 336.227 91.9487 335.861 91.626C335.494 91.296 335.311 90.8523 335.311 90.295C335.311 89.7303 335.494 89.2867 335.861 88.964C336.227 88.6413 336.722 88.48 337.346 88.48H339.216V87.875C339.216 87.501 339.102 87.215 338.875 87.017C338.655 86.8117 338.339 86.709 337.929 86.709C337.569 86.709 337.269 86.786 337.027 86.94C336.785 87.0867 336.645 87.2883 336.609 87.545H335.619C335.685 87.0243 335.93 86.61 336.356 86.302C336.781 85.994 337.313 85.84 337.951 85.84C338.647 85.84 339.197 86.0197 339.601 86.379C340.004 86.7383 340.206 87.226 340.206 87.842V92H339.238V90.845H339.073L339.238 90.68C339.238 91.12 339.065 91.4683 338.721 91.725C338.383 91.9817 337.932 92.11 337.368 92.11ZM337.61 91.329C338.079 91.329 338.464 91.2117 338.765 90.977C339.065 90.7423 339.216 90.4417 339.216 90.075V89.217H337.368C337.038 89.217 336.777 89.3087 336.587 89.492C336.396 89.6753 336.301 89.9247 336.301 90.24C336.301 90.5773 336.414 90.845 336.642 91.043C336.876 91.2337 337.199 91.329 337.61 91.329ZM342.203 92V85.95H343.193V87.105H343.402L343.193 87.336C343.193 86.8593 343.336 86.4927 343.622 86.236C343.908 85.972 344.304 85.84 344.81 85.84C345.419 85.84 345.903 86.027 346.262 86.401C346.622 86.775 346.801 87.2847 346.801 87.93V92H345.811V88.04C345.811 87.6073 345.694 87.2773 345.459 87.05C345.232 86.8153 344.92 86.698 344.524 86.698C344.114 86.698 343.787 86.8227 343.545 87.072C343.311 87.3213 343.193 87.6807 343.193 88.15V92H342.203ZM349.558 93.98V93.078H351.483C351.791 93.078 352.015 93.0083 352.154 92.869C352.301 92.7297 352.374 92.5133 352.374 92.22V91.45L352.396 90.35H352.198L352.385 90.185C352.385 90.625 352.238 90.9733 351.945 91.23C351.652 91.4867 351.259 91.615 350.768 91.615C350.145 91.615 349.653 91.4133 349.294 91.01C348.935 90.5993 348.755 90.0493 348.755 89.36V88.084C348.755 87.3947 348.935 86.8483 349.294 86.445C349.653 86.0417 350.145 85.84 350.768 85.84C351.259 85.84 351.652 85.9683 351.945 86.225C352.238 86.4817 352.385 86.83 352.385 87.27L352.198 87.105H352.385V85.95H353.364V92.22C353.364 92.7627 353.195 93.1917 352.858 93.507C352.528 93.8223 352.066 93.98 351.472 93.98H349.558ZM351.065 90.757C351.476 90.757 351.798 90.6287 352.033 90.372C352.268 90.1153 352.385 89.7597 352.385 89.305V88.15C352.385 87.6953 352.268 87.3397 352.033 87.083C351.798 86.8263 351.476 86.698 351.065 86.698C350.647 86.698 350.321 86.8227 350.086 87.072C349.859 87.3213 349.745 87.6807 349.745 88.15V89.305C349.745 89.7743 349.859 90.1337 350.086 90.383C350.321 90.6323 350.647 90.757 351.065 90.757ZM357.683 92.11C357.206 92.11 356.788 92.0147 356.429 91.824C356.077 91.6333 355.802 91.3657 355.604 91.021C355.413 90.669 355.318 90.262 355.318 89.8V88.15C355.318 87.6807 355.413 87.2737 355.604 86.929C355.802 86.5843 356.077 86.3167 356.429 86.126C356.788 85.9353 357.206 85.84 357.683 85.84C358.159 85.84 358.574 85.9353 358.926 86.126C359.285 86.3167 359.56 86.5843 359.751 86.929C359.949 87.2737 360.048 87.6807 360.048 88.15V89.217H356.286V89.8C356.286 90.2767 356.407 90.6433 356.649 90.9C356.891 91.1493 357.235 91.274 357.683 91.274C358.064 91.274 358.372 91.208 358.607 91.076C358.841 90.9367 358.984 90.7313 359.036 90.46H360.026C359.96 90.966 359.71 91.3693 359.278 91.67C358.852 91.9633 358.321 92.11 357.683 92.11ZM359.08 88.557V88.15C359.08 87.6733 358.959 87.3067 358.717 87.05C358.482 86.7933 358.137 86.665 357.683 86.665C357.235 86.665 356.891 86.7933 356.649 87.05C356.407 87.3067 356.286 87.6733 356.286 88.15V88.469H359.157L359.08 88.557ZM368.795 92V85.95H369.763V87.105H369.994L369.675 87.82C369.675 87.1673 369.815 86.676 370.093 86.346C370.379 86.0087 370.801 85.84 371.358 85.84C371.996 85.84 372.502 86.0417 372.876 86.445C373.258 86.841 373.448 87.38 373.448 88.062V88.425H372.458V88.15C372.458 87.6733 372.341 87.3103 372.106 87.061C371.879 86.8043 371.553 86.676 371.127 86.676C370.709 86.676 370.379 86.8043 370.137 87.061C369.903 87.3177 369.785 87.6807 369.785 88.15V92H368.795ZM376.942 92.11C376.304 92.11 375.802 91.9487 375.435 91.626C375.068 91.296 374.885 90.8523 374.885 90.295C374.885 89.7303 375.068 89.2867 375.435 88.964C375.802 88.6413 376.297 88.48 376.92 88.48H378.79V87.875C378.79 87.501 378.676 87.215 378.449 87.017C378.229 86.8117 377.914 86.709 377.503 86.709C377.144 86.709 376.843 86.786 376.601 86.94C376.359 87.0867 376.22 87.2883 376.183 87.545H375.193C375.259 87.0243 375.505 86.61 375.93 86.302C376.355 85.994 376.887 85.84 377.525 85.84C378.222 85.84 378.772 86.0197 379.175 86.379C379.578 86.7383 379.78 87.226 379.78 87.842V92H378.812V90.845H378.647L378.812 90.68C378.812 91.12 378.64 91.4683 378.295 91.725C377.958 91.9817 377.507 92.11 376.942 92.11ZM377.184 91.329C377.653 91.329 378.038 91.2117 378.339 90.977C378.64 90.7423 378.79 90.4417 378.79 90.075V89.217H376.942C376.612 89.217 376.352 89.3087 376.161 89.492C375.97 89.6753 375.875 89.9247 375.875 90.24C375.875 90.5773 375.989 90.845 376.216 91.043C376.451 91.2337 376.773 91.329 377.184 91.329ZM384.726 92C384.205 92 383.798 91.8607 383.505 91.582C383.219 91.3033 383.076 90.911 383.076 90.405V86.852H381.371V85.95H383.076V84.245H384.066V85.95H386.486V86.852H384.066V90.405C384.066 90.867 384.286 91.098 384.726 91.098H386.376V92H384.726ZM390.661 92.11C390.185 92.11 389.767 92.0147 389.407 91.824C389.055 91.6333 388.78 91.3657 388.582 91.021C388.392 90.669 388.296 90.262 388.296 89.8V88.15C388.296 87.6807 388.392 87.2737 388.582 86.929C388.78 86.5843 389.055 86.3167 389.407 86.126C389.767 85.9353 390.185 85.84 390.661 85.84C391.138 85.84 391.552 85.9353 391.904 86.126C392.264 86.3167 392.539 86.5843 392.729 86.929C392.927 87.2737 393.026 87.6807 393.026 88.15V89.217H389.264V89.8C389.264 90.2767 389.385 90.6433 389.627 90.9C389.869 91.1493 390.214 91.274 390.661 91.274C391.043 91.274 391.351 91.208 391.585 91.076C391.82 90.9367 391.963 90.7313 392.014 90.46H393.004C392.938 90.966 392.689 91.3693 392.256 91.67C391.831 91.9633 391.299 92.11 390.661 92.11ZM392.058 88.557V88.15C392.058 87.6733 391.937 87.3067 391.695 87.05C391.461 86.7933 391.116 86.665 390.661 86.665C390.214 86.665 389.869 86.7933 389.627 87.05C389.385 87.3067 389.264 87.6733 389.264 88.15V88.469H392.135L392.058 88.557ZM281.645 107.088C281.235 107.088 280.875 107.026 280.567 106.901C280.267 106.769 280.025 106.586 279.841 106.351C279.665 106.116 279.559 105.838 279.522 105.515H280.512C280.556 105.728 280.674 105.896 280.864 106.021C281.062 106.146 281.323 106.208 281.645 106.208H282.107C282.496 106.208 282.786 106.131 282.976 105.977C283.167 105.816 283.262 105.603 283.262 105.339C283.262 105.082 283.174 104.881 282.998 104.734C282.83 104.58 282.577 104.477 282.239 104.426L281.425 104.294C280.831 104.191 280.388 104.008 280.094 103.744C279.808 103.473 279.665 103.08 279.665 102.567C279.665 102.024 279.838 101.606 280.182 101.313C280.527 101.012 281.044 100.862 281.733 100.862H282.151C282.731 100.862 283.196 100.998 283.548 101.269C283.9 101.54 284.113 101.907 284.186 102.369H283.196C283.152 102.178 283.042 102.028 282.866 101.918C282.69 101.801 282.452 101.742 282.151 101.742H281.733C281.359 101.742 281.084 101.812 280.908 101.951C280.74 102.09 280.655 102.299 280.655 102.578C280.655 102.827 280.729 103.011 280.875 103.128C281.022 103.245 281.253 103.33 281.568 103.381L282.382 103.513C283.035 103.616 283.508 103.806 283.801 104.085C284.102 104.364 284.252 104.767 284.252 105.295C284.252 105.852 284.073 106.292 283.713 106.615C283.361 106.93 282.826 107.088 282.107 107.088H281.645ZM286.173 107V98.959H290.903V99.861H287.141V102.534H290.617V103.436H287.163V107H286.173ZM292.989 107V98.97H293.979V106.098H297.609V107H292.989ZM299.331 107V98.97H301.817C302.294 98.97 302.712 99.069 303.071 99.267C303.431 99.4577 303.709 99.7253 303.907 100.07C304.105 100.415 304.204 100.818 304.204 101.28C304.204 101.823 304.061 102.288 303.775 102.677C303.497 103.066 303.115 103.333 302.631 103.48L304.314 107H303.148L301.608 103.59H300.321V107H299.331ZM300.321 102.699H301.817C302.228 102.699 302.558 102.571 302.807 102.314C303.057 102.05 303.181 101.705 303.181 101.28C303.181 100.847 303.057 100.503 302.807 100.246C302.558 99.9893 302.228 99.861 301.817 99.861H300.321V102.699ZM305.74 108.21L309.645 97.87H310.69L306.785 108.21H305.74ZM314.811 107.11C314.063 107.11 313.491 106.905 313.095 106.494C312.699 106.076 312.501 105.511 312.501 104.8V98.97H313.491V104.8C313.491 105.24 313.597 105.588 313.81 105.845C314.03 106.102 314.363 106.23 314.811 106.23C315.251 106.23 315.581 106.102 315.801 105.845C316.021 105.588 316.131 105.24 316.131 104.8V98.97H317.121V104.8C317.121 105.519 316.923 106.083 316.527 106.494C316.138 106.905 315.566 107.11 314.811 107.11ZM321.45 107.11C320.922 107.11 320.468 107.022 320.086 106.846C319.712 106.67 319.423 106.417 319.217 106.087C319.012 105.757 318.906 105.365 318.898 104.91H319.888C319.888 105.313 320.024 105.632 320.295 105.867C320.574 106.102 320.959 106.219 321.45 106.219C321.912 106.219 322.272 106.105 322.528 105.878C322.792 105.651 322.924 105.335 322.924 104.932C322.924 104.609 322.836 104.327 322.66 104.085C322.492 103.843 322.246 103.674 321.923 103.579L320.834 103.238C320.284 103.069 319.859 102.787 319.558 102.391C319.265 101.995 319.118 101.529 319.118 100.994C319.118 100.561 319.214 100.187 319.404 99.872C319.602 99.5493 319.877 99.3 320.229 99.124C320.581 98.9407 320.996 98.849 321.472 98.849C322.176 98.849 322.741 99.047 323.166 99.443C323.592 99.8317 323.808 100.352 323.815 101.005H322.825C322.825 100.609 322.704 100.301 322.462 100.081C322.228 99.8537 321.894 99.74 321.461 99.74C321.036 99.74 320.702 99.8427 320.46 100.048C320.226 100.253 320.108 100.539 320.108 100.906C320.108 101.236 320.196 101.522 320.372 101.764C320.548 102.006 320.801 102.178 321.131 102.281L322.231 102.633C322.767 102.802 323.181 103.088 323.474 103.491C323.768 103.894 323.914 104.367 323.914 104.91C323.914 105.35 323.812 105.735 323.606 106.065C323.401 106.395 323.111 106.652 322.737 106.835C322.371 107.018 321.942 107.11 321.45 107.11ZM325.714 107V98.97H327.793C328.314 98.97 328.761 99.069 329.135 99.267C329.516 99.465 329.81 99.7437 330.015 100.103C330.228 100.462 330.334 100.888 330.334 101.379V104.58C330.334 105.071 330.228 105.5 330.015 105.867C329.81 106.226 329.516 106.505 329.135 106.703C328.761 106.901 328.314 107 327.793 107H325.714ZM326.704 106.12H327.793C328.277 106.12 328.655 105.984 328.926 105.713C329.205 105.442 329.344 105.064 329.344 104.58V101.379C329.344 100.902 329.205 100.528 328.926 100.257C328.655 99.9857 328.277 99.85 327.793 99.85H326.704V106.12ZM338.829 102.49V101.61H343.559V102.49H338.829ZM338.829 105.13V104.25H343.559V105.13H338.829ZM354.385 107.11C353.894 107.11 353.465 107.015 353.098 106.824C352.739 106.626 352.46 106.351 352.262 105.999C352.064 105.64 351.965 105.222 351.965 104.745V101.225C351.965 100.741 352.064 100.323 352.262 99.971C352.46 99.619 352.739 99.3477 353.098 99.157C353.465 98.959 353.894 98.86 354.385 98.86C354.884 98.86 355.313 98.959 355.672 99.157C356.031 99.3477 356.31 99.619 356.508 99.971C356.706 100.323 356.805 100.741 356.805 101.225V104.745C356.805 105.222 356.706 105.64 356.508 105.999C356.31 106.351 356.028 106.626 355.661 106.824C355.302 107.015 354.876 107.11 354.385 107.11ZM354.385 106.263C354.825 106.263 355.177 106.124 355.441 105.845C355.712 105.559 355.848 105.192 355.848 104.745V101.225C355.848 100.778 355.712 100.415 355.441 100.136C355.177 99.85 354.825 99.707 354.385 99.707C353.945 99.707 353.589 99.85 353.318 100.136C353.054 100.415 352.922 100.778 352.922 101.225V104.745C352.922 105.192 353.054 105.559 353.318 105.845C353.589 106.124 353.945 106.263 354.385 106.263ZM354.385 103.634C354.187 103.634 354.026 103.572 353.901 103.447C353.784 103.322 353.725 103.157 353.725 102.952C353.725 102.754 353.784 102.596 353.901 102.479C354.026 102.354 354.187 102.292 354.385 102.292C354.583 102.292 354.741 102.354 354.858 102.479C354.983 102.596 355.045 102.754 355.045 102.952C355.045 103.157 354.983 103.322 354.858 103.447C354.741 103.572 354.583 103.634 354.385 103.634ZM360.981 107.11C360.702 107.11 360.478 107.029 360.31 106.868C360.148 106.707 360.068 106.49 360.068 106.219C360.068 105.933 360.148 105.706 360.31 105.537C360.478 105.368 360.702 105.284 360.981 105.284C361.259 105.284 361.479 105.368 361.641 105.537C361.809 105.706 361.894 105.933 361.894 106.219C361.894 106.49 361.809 106.707 361.641 106.868C361.479 107.029 361.259 107.11 360.981 107.11ZM367.576 107.11C367.085 107.11 366.656 107.015 366.289 106.824C365.93 106.626 365.651 106.351 365.453 105.999C365.255 105.64 365.156 105.222 365.156 104.745V101.225C365.156 100.741 365.255 100.323 365.453 99.971C365.651 99.619 365.93 99.3477 366.289 99.157C366.656 98.959 367.085 98.86 367.576 98.86C368.075 98.86 368.504 98.959 368.863 99.157C369.223 99.3477 369.501 99.619 369.699 99.971C369.897 100.323 369.996 100.741 369.996 101.225V104.745C369.996 105.222 369.897 105.64 369.699 105.999C369.501 106.351 369.219 106.626 368.852 106.824C368.493 107.015 368.068 107.11 367.576 107.11ZM367.576 106.263C368.016 106.263 368.368 106.124 368.632 105.845C368.904 105.559 369.039 105.192 369.039 104.745V101.225C369.039 100.778 368.904 100.415 368.632 100.136C368.368 99.85 368.016 99.707 367.576 99.707C367.136 99.707 366.781 99.85 366.509 100.136C366.245 100.415 366.113 100.778 366.113 101.225V104.745C366.113 105.192 366.245 105.559 366.509 105.845C366.781 106.124 367.136 106.263 367.576 106.263ZM367.576 103.634C367.378 103.634 367.217 103.572 367.092 103.447C366.975 103.322 366.916 103.157 366.916 102.952C366.916 102.754 366.975 102.596 367.092 102.479C367.217 102.354 367.378 102.292 367.576 102.292C367.774 102.292 367.932 102.354 368.049 102.479C368.174 102.596 368.236 102.754 368.236 102.952C368.236 103.157 368.174 103.322 368.049 103.447C367.932 103.572 367.774 103.634 367.576 103.634ZM374.051 107.11C373.567 107.11 373.142 107.015 372.775 106.824C372.416 106.626 372.137 106.355 371.939 106.01C371.741 105.665 371.642 105.262 371.642 104.8H372.632C372.632 105.247 372.757 105.599 373.006 105.856C373.263 106.105 373.615 106.23 374.062 106.23C374.517 106.23 374.869 106.098 375.118 105.834C375.367 105.57 375.492 105.225 375.492 104.8V104.228C375.492 103.773 375.367 103.421 375.118 103.172C374.869 102.923 374.517 102.798 374.062 102.798H373.237V101.808L375.228 99.872H371.972V98.97H376.229V99.96L374.084 102.039V101.918C374.817 101.918 375.4 102.127 375.833 102.545C376.266 102.963 376.482 103.524 376.482 104.228V104.8C376.482 105.262 376.379 105.665 376.174 106.01C375.976 106.355 375.694 106.626 375.327 106.824C374.96 107.015 374.535 107.11 374.051 107.11Z" fill="black"/>
<path d="M148.694 221.1C148.147 221.1 147.704 220.917 147.364 220.55C147.03 220.183 146.864 219.687 146.864 219.06V217.45C146.864 216.817 147.03 216.317 147.364 215.95C147.697 215.583 148.14 215.4 148.694 215.4C149.147 215.4 149.51 215.523 149.784 215.77C150.057 216.017 150.194 216.347 150.194 216.76L150.014 216.55H150.214L150.194 215.3V213.7H151.094V221H150.194V219.95H150.014L150.194 219.74C150.194 220.16 150.057 220.493 149.784 220.74C149.51 220.98 149.147 221.1 148.694 221.1ZM148.994 220.32C149.367 220.32 149.66 220.203 149.874 219.97C150.087 219.737 150.194 219.413 150.194 219V217.5C150.194 217.087 150.087 216.763 149.874 216.53C149.66 216.297 149.367 216.18 148.994 216.18C148.614 216.18 148.314 216.293 148.094 216.52C147.874 216.747 147.764 217.073 147.764 217.5V219C147.764 219.427 147.874 219.753 148.094 219.98C148.314 220.207 148.614 220.32 148.994 220.32ZM155.01 221.1C154.576 221.1 154.196 221.013 153.87 220.84C153.55 220.667 153.3 220.423 153.12 220.11C152.946 219.79 152.86 219.42 152.86 219V217.5C152.86 217.073 152.946 216.703 153.12 216.39C153.3 216.077 153.55 215.833 153.87 215.66C154.196 215.487 154.576 215.4 155.01 215.4C155.443 215.4 155.82 215.487 156.14 215.66C156.466 215.833 156.716 216.077 156.89 216.39C157.07 216.703 157.16 217.073 157.16 217.5V218.47H153.74V219C153.74 219.433 153.85 219.767 154.07 220C154.29 220.227 154.603 220.34 155.01 220.34C155.356 220.34 155.636 220.28 155.85 220.16C156.063 220.033 156.193 219.847 156.24 219.6H157.14C157.08 220.06 156.853 220.427 156.46 220.7C156.073 220.967 155.59 221.1 155.01 221.1ZM156.28 217.87V217.5C156.28 217.067 156.17 216.733 155.95 216.5C155.736 216.267 155.423 216.15 155.01 216.15C154.603 216.15 154.29 216.267 154.07 216.5C153.85 216.733 153.74 217.067 153.74 217.5V217.79H156.35L156.28 217.87ZM158.926 222.8V215.5H159.826V216.55H160.006L159.826 216.76C159.826 216.34 159.963 216.01 160.236 215.77C160.516 215.523 160.883 215.4 161.336 215.4C161.889 215.4 162.329 215.583 162.656 215.95C162.989 216.31 163.156 216.807 163.156 217.44V219.05C163.156 219.47 163.079 219.833 162.926 220.14C162.779 220.447 162.569 220.683 162.296 220.85C162.029 221.017 161.709 221.1 161.336 221.1C160.889 221.1 160.526 220.977 160.246 220.73C159.966 220.483 159.826 220.153 159.826 219.74L160.006 219.95H159.806L159.826 221.2V222.8H158.926ZM161.036 220.32C161.416 220.32 161.713 220.207 161.926 219.98C162.146 219.753 162.256 219.427 162.256 219V217.5C162.256 217.073 162.146 216.747 161.926 216.52C161.713 216.293 161.416 216.18 161.036 216.18C160.669 216.18 160.376 216.297 160.156 216.53C159.936 216.763 159.826 217.087 159.826 217.5V219C159.826 219.413 159.936 219.737 160.156 219.97C160.376 220.203 160.669 220.32 161.036 220.32ZM167.002 221.08C166.562 221.08 166.182 220.997 165.862 220.83C165.542 220.663 165.292 220.423 165.112 220.11C164.939 219.79 164.852 219.413 164.852 218.98V217.52C164.852 217.08 164.939 216.703 165.112 216.39C165.292 216.077 165.542 215.837 165.862 215.67C166.182 215.503 166.562 215.42 167.002 215.42C167.442 215.42 167.822 215.503 168.142 215.67C168.462 215.837 168.709 216.077 168.882 216.39C169.062 216.703 169.152 217.077 169.152 217.51V218.98C169.152 219.413 169.062 219.79 168.882 220.11C168.709 220.423 168.462 220.663 168.142 220.83C167.822 220.997 167.442 221.08 167.002 221.08ZM167.002 220.28C167.395 220.28 167.702 220.17 167.922 219.95C168.142 219.73 168.252 219.407 168.252 218.98V217.52C168.252 217.093 168.142 216.77 167.922 216.55C167.702 216.33 167.395 216.22 167.002 216.22C166.615 216.22 166.309 216.33 166.082 216.55C165.862 216.77 165.752 217.093 165.752 217.52V218.98C165.752 219.407 165.862 219.73 166.082 219.95C166.309 220.17 166.615 220.28 167.002 220.28ZM172.828 221.08C172.455 221.08 172.128 221.023 171.848 220.91C171.575 220.79 171.355 220.623 171.188 220.41C171.028 220.197 170.931 219.943 170.898 219.65H171.798C171.838 219.843 171.945 219.997 172.118 220.11C172.298 220.223 172.535 220.28 172.828 220.28H173.248C173.601 220.28 173.865 220.21 174.038 220.07C174.211 219.923 174.298 219.73 174.298 219.49C174.298 219.257 174.218 219.073 174.058 218.94C173.905 218.8 173.675 218.707 173.368 218.66L172.628 218.54C172.088 218.447 171.685 218.28 171.418 218.04C171.158 217.793 171.028 217.437 171.028 216.97C171.028 216.477 171.185 216.097 171.498 215.83C171.811 215.557 172.281 215.42 172.908 215.42H173.288C173.815 215.42 174.238 215.543 174.558 215.79C174.878 216.037 175.071 216.37 175.138 216.79H174.238C174.198 216.617 174.098 216.48 173.938 216.38C173.778 216.273 173.561 216.22 173.288 216.22H172.908C172.568 216.22 172.318 216.283 172.158 216.41C172.005 216.537 171.928 216.727 171.928 216.98C171.928 217.207 171.995 217.373 172.128 217.48C172.261 217.587 172.471 217.663 172.758 217.71L173.498 217.83C174.091 217.923 174.521 218.097 174.788 218.35C175.061 218.603 175.198 218.97 175.198 219.45C175.198 219.957 175.035 220.357 174.708 220.65C174.388 220.937 173.901 221.08 173.248 221.08H172.828ZM176.844 221V220.18H178.794V216.32H177.094V215.5H179.694V220.18H181.544V221H176.844ZM179.144 214.51C178.924 214.51 178.751 214.453 178.624 214.34C178.497 214.227 178.434 214.073 178.434 213.88C178.434 213.68 178.497 213.523 178.624 213.41C178.751 213.29 178.924 213.23 179.144 213.23C179.364 213.23 179.537 213.29 179.664 213.41C179.791 213.523 179.854 213.68 179.854 213.88C179.854 214.073 179.791 214.227 179.664 214.34C179.537 214.453 179.364 214.51 179.144 214.51ZM185.59 221C185.117 221 184.747 220.873 184.48 220.62C184.22 220.367 184.09 220.01 184.09 219.55V216.32H182.54V215.5H184.09V213.95H184.99V215.5H187.19V216.32H184.99V219.55C184.99 219.97 185.19 220.18 185.59 220.18H187.09V221H185.59Z" fill="black"/>
<path d="M442 190L494.586 153.5M442 216L495 249" stroke="black" stroke-dasharray="5 5"/>
<path d="M449.668 206V200.5H450.458V201.16H450.638L450.498 201.4C450.498 201.093 450.578 200.85 450.738 200.67C450.904 200.49 451.128 200.4 451.408 200.4C451.714 200.4 451.951 200.513 452.118 200.74C452.284 200.967 452.368 201.287 452.368 201.7L452.098 201.16H452.518L452.328 201.4C452.328 201.093 452.411 200.85 452.578 200.67C452.751 200.49 452.978 200.4 453.258 200.4C453.604 200.4 453.871 200.53 454.058 200.79C454.251 201.05 454.348 201.393 454.348 201.82V206H453.518V201.81C453.518 201.583 453.468 201.407 453.368 201.28C453.274 201.153 453.134 201.09 452.948 201.09C452.768 201.09 452.624 201.153 452.518 201.28C452.418 201.4 452.368 201.573 452.368 201.8V206H451.648V201.81C451.648 201.577 451.594 201.4 451.488 201.28C451.388 201.153 451.244 201.09 451.058 201.09C450.871 201.09 450.731 201.153 450.638 201.28C450.544 201.4 450.498 201.573 450.498 201.8V206H449.668ZM455.854 206V205.18H457.804V201.32H456.104V200.5H458.704V205.18H460.554V206H455.854ZM458.154 199.51C457.934 199.51 457.761 199.453 457.634 199.34C457.507 199.227 457.444 199.073 457.444 198.88C457.444 198.68 457.507 198.523 457.634 198.41C457.761 198.29 457.934 198.23 458.154 198.23C458.374 198.23 458.547 198.29 458.674 198.41C458.801 198.523 458.864 198.68 458.864 198.88C458.864 199.073 458.801 199.227 458.674 199.34C458.547 199.453 458.374 199.51 458.154 199.51ZM461.92 206V200.5H462.82V201.55H463.01L462.82 201.76C462.82 201.327 462.95 200.993 463.21 200.76C463.47 200.52 463.83 200.4 464.29 200.4C464.843 200.4 465.283 200.57 465.61 200.91C465.937 201.25 466.1 201.713 466.1 202.3V206H465.2V202.4C465.2 202.007 465.093 201.707 464.88 201.5C464.673 201.287 464.39 201.18 464.03 201.18C463.657 201.18 463.36 201.293 463.14 201.52C462.927 201.747 462.82 202.073 462.82 202.5V206H461.92ZM470.596 206C470.123 206 469.753 205.873 469.486 205.62C469.226 205.367 469.096 205.01 469.096 204.55V201.32H467.546V200.5H469.096V198.95H469.996V200.5H472.196V201.32H469.996V204.55C469.996 204.97 470.196 205.18 470.596 205.18H472.096V206H470.596Z" fill="black"/>
<path d="M328 121L328 144" stroke="black" stroke-dasharray="5 5"/>
<path d="M171.105 373V363.51H173.562C174.178 363.51 174.706 363.627 175.148 363.861C175.599 364.095 175.946 364.424 176.188 364.849C176.44 365.274 176.565 365.776 176.565 366.357V370.14C176.565 370.721 176.44 371.228 176.188 371.661C175.946 372.086 175.599 372.415 175.148 372.649C174.706 372.883 174.178 373 173.562 373H171.105ZM172.275 371.96H173.562C174.134 371.96 174.581 371.8 174.901 371.479C175.231 371.158 175.395 370.712 175.395 370.14V366.357C175.395 365.794 175.231 365.352 174.901 365.031C174.581 364.71 174.134 364.55 173.562 364.55H172.275V371.96ZM181.604 373.13C181.041 373.13 180.547 373.017 180.122 372.792C179.706 372.567 179.381 372.25 179.147 371.843C178.922 371.427 178.809 370.946 178.809 370.4V368.45C178.809 367.895 178.922 367.414 179.147 367.007C179.381 366.6 179.706 366.283 180.122 366.058C180.547 365.833 181.041 365.72 181.604 365.72C182.167 365.72 182.657 365.833 183.073 366.058C183.498 366.283 183.823 366.6 184.048 367.007C184.282 367.414 184.399 367.895 184.399 368.45V369.711H179.953V370.4C179.953 370.963 180.096 371.397 180.382 371.7C180.668 371.995 181.075 372.142 181.604 372.142C182.055 372.142 182.419 372.064 182.696 371.908C182.973 371.743 183.142 371.501 183.203 371.18H184.373C184.295 371.778 184 372.255 183.489 372.61C182.986 372.957 182.358 373.13 181.604 373.13ZM183.255 368.931V368.45C183.255 367.887 183.112 367.453 182.826 367.15C182.549 366.847 182.141 366.695 181.604 366.695C181.075 366.695 180.668 366.847 180.382 367.15C180.096 367.453 179.953 367.887 179.953 368.45V368.827H183.346L183.255 368.931ZM186.695 375.34V365.85H187.865V367.215H188.099L187.865 367.488C187.865 366.942 188.043 366.513 188.398 366.201C188.762 365.88 189.239 365.72 189.828 365.72C190.547 365.72 191.119 365.958 191.544 366.435C191.977 366.903 192.194 367.549 192.194 368.372V370.465C192.194 371.011 192.094 371.483 191.895 371.882C191.704 372.281 191.431 372.588 191.076 372.805C190.729 373.022 190.313 373.13 189.828 373.13C189.247 373.13 188.775 372.97 188.411 372.649C188.047 372.328 187.865 371.899 187.865 371.362L188.099 371.635H187.839L187.865 373.26V375.34H186.695ZM189.438 372.116C189.932 372.116 190.318 371.969 190.595 371.674C190.881 371.379 191.024 370.955 191.024 370.4V368.45C191.024 367.895 190.881 367.471 190.595 367.176C190.318 366.881 189.932 366.734 189.438 366.734C188.961 366.734 188.58 366.886 188.294 367.189C188.008 367.492 187.865 367.913 187.865 368.45V370.4C187.865 370.937 188.008 371.358 188.294 371.661C188.58 371.964 188.961 372.116 189.438 372.116ZM197.194 373.104C196.622 373.104 196.128 372.996 195.712 372.779C195.296 372.562 194.971 372.25 194.737 371.843C194.512 371.427 194.399 370.937 194.399 370.374V368.476C194.399 367.904 194.512 367.414 194.737 367.007C194.971 366.6 195.296 366.288 195.712 366.071C196.128 365.854 196.622 365.746 197.194 365.746C197.766 365.746 198.26 365.854 198.676 366.071C199.092 366.288 199.413 366.6 199.638 367.007C199.872 367.414 199.989 367.9 199.989 368.463V370.374C199.989 370.937 199.872 371.427 199.638 371.843C199.413 372.25 199.092 372.562 198.676 372.779C198.26 372.996 197.766 373.104 197.194 373.104ZM197.194 372.064C197.705 372.064 198.104 371.921 198.39 371.635C198.676 371.349 198.819 370.929 198.819 370.374V368.476C198.819 367.921 198.676 367.501 198.39 367.215C198.104 366.929 197.705 366.786 197.194 366.786C196.691 366.786 196.293 366.929 195.998 367.215C195.712 367.501 195.569 367.921 195.569 368.476V370.374C195.569 370.929 195.712 371.349 195.998 371.635C196.293 371.921 196.691 372.064 197.194 372.064ZM204.768 373.104C204.283 373.104 203.858 373.03 203.494 372.883C203.139 372.727 202.853 372.51 202.636 372.233C202.428 371.956 202.302 371.626 202.259 371.245H203.429C203.481 371.496 203.62 371.696 203.845 371.843C204.079 371.99 204.387 372.064 204.768 372.064H205.314C205.773 372.064 206.116 371.973 206.341 371.791C206.566 371.6 206.679 371.349 206.679 371.037C206.679 370.734 206.575 370.495 206.367 370.322C206.168 370.14 205.869 370.019 205.47 369.958L204.508 369.802C203.806 369.681 203.282 369.464 202.935 369.152C202.597 368.831 202.428 368.368 202.428 367.761C202.428 367.12 202.632 366.626 203.039 366.279C203.446 365.924 204.057 365.746 204.872 365.746H205.366C206.051 365.746 206.601 365.906 207.017 366.227C207.433 366.548 207.684 366.981 207.771 367.527H206.601C206.549 367.302 206.419 367.124 206.211 366.994C206.003 366.855 205.721 366.786 205.366 366.786H204.872C204.43 366.786 204.105 366.868 203.897 367.033C203.698 367.198 203.598 367.445 203.598 367.774C203.598 368.069 203.685 368.285 203.858 368.424C204.031 368.563 204.304 368.662 204.677 368.723L205.639 368.879C206.41 369 206.969 369.226 207.316 369.555C207.671 369.884 207.849 370.361 207.849 370.985C207.849 371.644 207.637 372.164 207.212 372.545C206.796 372.918 206.163 373.104 205.314 373.104H204.768ZM209.989 373V371.934H212.524V366.916H210.314V365.85H213.694V371.934H216.099V373H209.989ZM212.979 364.563C212.693 364.563 212.467 364.489 212.303 364.342C212.138 364.195 212.056 363.995 212.056 363.744C212.056 363.484 212.138 363.28 212.303 363.133C212.467 362.977 212.693 362.899 212.979 362.899C213.265 362.899 213.49 362.977 213.655 363.133C213.819 363.28 213.902 363.484 213.902 363.744C213.902 363.995 213.819 364.195 213.655 364.342C213.49 364.489 213.265 364.563 212.979 364.563ZM221.359 373C220.743 373 220.262 372.835 219.916 372.506C219.578 372.177 219.409 371.713 219.409 371.115V366.916H217.394V365.85H219.409V363.835H220.579V365.85H223.439V366.916H220.579V371.115C220.579 371.661 220.839 371.934 221.359 371.934H223.309V373H221.359ZM225.579 373V371.934H228.114V366.916H225.904V365.85H229.284V371.934H231.689V373H225.579ZM228.569 364.563C228.283 364.563 228.057 364.489 227.893 364.342C227.728 364.195 227.646 363.995 227.646 363.744C227.646 363.484 227.728 363.28 227.893 363.133C228.057 362.977 228.283 362.899 228.569 362.899C228.855 362.899 229.08 362.977 229.245 363.133C229.409 363.28 229.492 363.484 229.492 363.744C229.492 363.995 229.409 364.195 229.245 364.342C229.08 364.489 228.855 364.563 228.569 364.563ZM233.465 373V365.85H234.635V367.215H234.882L234.635 367.488C234.635 366.925 234.804 366.491 235.142 366.188C235.48 365.876 235.948 365.72 236.546 365.72C237.265 365.72 237.837 365.941 238.262 366.383C238.686 366.825 238.899 367.427 238.899 368.19V373H237.729V368.32C237.729 367.809 237.59 367.419 237.313 367.15C237.044 366.873 236.676 366.734 236.208 366.734C235.722 366.734 235.337 366.881 235.051 367.176C234.773 367.471 234.635 367.895 234.635 368.45V373H233.465ZM242.156 375.34V374.274H244.431C244.795 374.274 245.06 374.192 245.224 374.027C245.398 373.862 245.484 373.607 245.484 373.26V372.35L245.51 371.05H245.276L245.497 370.855C245.497 371.375 245.324 371.787 244.977 372.09C244.631 372.393 244.167 372.545 243.586 372.545C242.85 372.545 242.269 372.307 241.844 371.83C241.42 371.345 241.207 370.695 241.207 369.88V368.372C241.207 367.557 241.42 366.912 241.844 366.435C242.269 365.958 242.85 365.72 243.586 365.72C244.167 365.72 244.631 365.872 244.977 366.175C245.324 366.478 245.497 366.89 245.497 367.41L245.276 367.215H245.497V365.85H246.654V373.26C246.654 373.901 246.455 374.408 246.056 374.781C245.666 375.154 245.12 375.34 244.418 375.34H242.156ZM243.937 371.531C244.423 371.531 244.804 371.379 245.081 371.076C245.359 370.773 245.497 370.352 245.497 369.815V368.45C245.497 367.913 245.359 367.492 245.081 367.189C244.804 366.886 244.423 366.734 243.937 366.734C243.443 366.734 243.058 366.881 242.78 367.176C242.512 367.471 242.377 367.895 242.377 368.45V369.815C242.377 370.37 242.512 370.794 242.78 371.089C243.058 371.384 243.443 371.531 243.937 371.531ZM259.332 373.104C258.847 373.104 258.422 373.03 258.058 372.883C257.703 372.727 257.417 372.51 257.2 372.233C256.992 371.956 256.867 371.626 256.823 371.245H257.993C258.045 371.496 258.184 371.696 258.409 371.843C258.643 371.99 258.951 372.064 259.332 372.064H259.878C260.338 372.064 260.68 371.973 260.905 371.791C261.131 371.6 261.243 371.349 261.243 371.037C261.243 370.734 261.139 370.495 260.931 370.322C260.732 370.14 260.433 370.019 260.034 369.958L259.072 369.802C258.37 369.681 257.846 369.464 257.499 369.152C257.161 368.831 256.992 368.368 256.992 367.761C256.992 367.12 257.196 366.626 257.603 366.279C258.011 365.924 258.622 365.746 259.436 365.746H259.93C260.615 365.746 261.165 365.906 261.581 366.227C261.997 366.548 262.249 366.981 262.335 367.527H261.165C261.113 367.302 260.983 367.124 260.775 366.994C260.567 366.855 260.286 366.786 259.93 366.786H259.436C258.994 366.786 258.669 366.868 258.461 367.033C258.262 367.198 258.162 367.445 258.162 367.774C258.162 368.069 258.249 368.285 258.422 368.424C258.596 368.563 258.869 368.662 259.241 368.723L260.203 368.879C260.975 369 261.534 369.226 261.88 369.555C262.236 369.884 262.413 370.361 262.413 370.985C262.413 371.644 262.201 372.164 261.776 372.545C261.36 372.918 260.728 373.104 259.878 373.104H259.332ZM264.683 373V363.497H270.273V364.563H265.827V367.722H269.935V368.788H265.853V373H264.683ZM272.738 373V363.51H273.908V371.934H278.198V373H272.738ZM280.234 373V363.51H283.172C283.735 363.51 284.229 363.627 284.654 363.861C285.079 364.086 285.408 364.403 285.642 364.81C285.876 365.217 285.993 365.694 285.993 366.24C285.993 366.881 285.824 367.432 285.486 367.891C285.157 368.35 284.706 368.667 284.134 368.84L286.123 373H284.745L282.925 368.97H281.404V373H280.234ZM281.404 367.917H283.172C283.657 367.917 284.047 367.765 284.342 367.462C284.637 367.15 284.784 366.743 284.784 366.24C284.784 365.729 284.637 365.321 284.342 365.018C284.047 364.715 283.657 364.563 283.172 364.563H281.404V367.917ZM299.308 373C298.693 373 298.212 372.835 297.865 372.506C297.527 372.177 297.358 371.713 297.358 371.115V366.916H295.343V365.85H297.358V363.835H298.528V365.85H301.388V366.916H298.528V371.115C298.528 371.661 298.788 371.934 299.308 371.934H301.258V373H299.308ZM306.323 373.104C305.751 373.104 305.257 372.996 304.841 372.779C304.425 372.562 304.1 372.25 303.866 371.843C303.641 371.427 303.528 370.937 303.528 370.374V368.476C303.528 367.904 303.641 367.414 303.866 367.007C304.1 366.6 304.425 366.288 304.841 366.071C305.257 365.854 305.751 365.746 306.323 365.746C306.895 365.746 307.389 365.854 307.805 366.071C308.221 366.288 308.542 366.6 308.767 367.007C309.001 367.414 309.118 367.9 309.118 368.463V370.374C309.118 370.937 309.001 371.427 308.767 371.843C308.542 372.25 308.221 372.562 307.805 372.779C307.389 372.996 306.895 373.104 306.323 373.104ZM306.323 372.064C306.834 372.064 307.233 371.921 307.519 371.635C307.805 371.349 307.948 370.929 307.948 370.374V368.476C307.948 367.921 307.805 367.501 307.519 367.215C307.233 366.929 306.834 366.786 306.323 366.786C305.82 366.786 305.422 366.929 305.127 367.215C304.841 367.501 304.698 367.921 304.698 368.476V370.374C304.698 370.929 304.841 371.349 305.127 371.635C305.422 371.921 305.82 372.064 306.323 372.064ZM318.871 373V365.85H319.898V366.708H320.132L319.95 367.02C319.95 366.621 320.054 366.305 320.262 366.071C320.478 365.837 320.769 365.72 321.133 365.72C321.531 365.72 321.839 365.867 322.056 366.162C322.272 366.457 322.381 366.873 322.381 367.41L322.03 366.708H322.576L322.329 367.02C322.329 366.621 322.437 366.305 322.654 366.071C322.879 365.837 323.174 365.72 323.538 365.72C323.988 365.72 324.335 365.889 324.578 366.227C324.829 366.565 324.955 367.011 324.955 367.566V373H323.876V367.553C323.876 367.258 323.811 367.029 323.681 366.864C323.559 366.699 323.377 366.617 323.135 366.617C322.901 366.617 322.714 366.699 322.576 366.864C322.446 367.02 322.381 367.245 322.381 367.54V373H321.445V367.553C321.445 367.25 321.375 367.02 321.237 366.864C321.107 366.699 320.92 366.617 320.678 366.617C320.435 366.617 320.253 366.699 320.132 366.864C320.01 367.02 319.95 367.245 319.95 367.54V373H318.871ZM326.913 373V371.934H329.448V366.916H327.238V365.85H330.618V371.934H333.023V373H326.913ZM329.903 364.563C329.617 364.563 329.391 364.489 329.227 364.342C329.062 364.195 328.98 363.995 328.98 363.744C328.98 363.484 329.062 363.28 329.227 363.133C329.391 362.977 329.617 362.899 329.903 362.899C330.189 362.899 330.414 362.977 330.579 363.133C330.743 363.28 330.826 363.484 330.826 363.744C330.826 363.995 330.743 364.195 330.579 364.342C330.414 364.489 330.189 364.563 329.903 364.563ZM334.799 373V365.85H335.969V367.215H336.216L335.969 367.488C335.969 366.925 336.138 366.491 336.476 366.188C336.814 365.876 337.282 365.72 337.88 365.72C338.599 365.72 339.171 365.941 339.596 366.383C340.02 366.825 340.233 367.427 340.233 368.19V373H339.063V368.32C339.063 367.809 338.924 367.419 338.647 367.15C338.378 366.873 338.01 366.734 337.542 366.734C337.056 366.734 336.671 366.881 336.385 367.176C336.107 367.471 335.969 367.895 335.969 368.45V373H334.799ZM346.077 373C345.462 373 344.981 372.835 344.634 372.506C344.296 372.177 344.127 371.713 344.127 371.115V366.916H342.112V365.85H344.127V363.835H345.297V365.85H348.157V366.916H345.297V371.115C345.297 371.661 345.557 371.934 346.077 371.934H348.027V373H346.077ZM360.939 373.13C360.367 373.13 359.865 373.022 359.431 372.805C359.007 372.588 358.677 372.276 358.443 371.869C358.209 371.453 358.092 370.963 358.092 370.4V368.45C358.092 367.878 358.209 367.388 358.443 366.981C358.677 366.574 359.007 366.262 359.431 366.045C359.865 365.828 360.367 365.72 360.939 365.72C361.763 365.72 362.426 365.941 362.928 366.383C363.431 366.825 363.695 367.427 363.721 368.19H362.551C362.525 367.731 362.369 367.38 362.083 367.137C361.806 366.886 361.425 366.76 360.939 366.76C360.428 366.76 360.021 366.907 359.717 367.202C359.414 367.488 359.262 367.9 359.262 368.437V370.4C359.262 370.937 359.414 371.353 359.717 371.648C360.021 371.943 360.428 372.09 360.939 372.09C361.425 372.09 361.806 371.964 362.083 371.713C362.369 371.462 362.525 371.111 362.551 370.66H363.721C363.695 371.423 363.431 372.025 362.928 372.467C362.426 372.909 361.763 373.13 360.939 373.13ZM367.096 375.34L368.149 372.558L365.497 365.85H366.797L368.461 370.27C368.522 370.417 368.578 370.595 368.63 370.803C368.682 371.002 368.726 371.171 368.76 371.31C368.795 371.171 368.838 371.002 368.89 370.803C368.942 370.595 368.994 370.417 369.046 370.27L370.606 365.85H371.867L368.344 375.34H367.096ZM376.256 373.104C375.771 373.104 375.346 373.03 374.982 372.883C374.627 372.727 374.341 372.51 374.124 372.233C373.916 371.956 373.79 371.626 373.747 371.245H374.917C374.969 371.496 375.108 371.696 375.333 371.843C375.567 371.99 375.875 372.064 376.256 372.064H376.802C377.261 372.064 377.604 371.973 377.829 371.791C378.054 371.6 378.167 371.349 378.167 371.037C378.167 370.734 378.063 370.495 377.855 370.322C377.656 370.14 377.357 370.019 376.958 369.958L375.996 369.802C375.294 369.681 374.77 369.464 374.423 369.152C374.085 368.831 373.916 368.368 373.916 367.761C373.916 367.12 374.12 366.626 374.527 366.279C374.934 365.924 375.545 365.746 376.36 365.746H376.854C377.539 365.746 378.089 365.906 378.505 366.227C378.921 366.548 379.172 366.981 379.259 367.527H378.089C378.037 367.302 377.907 367.124 377.699 366.994C377.491 366.855 377.209 366.786 376.854 366.786H376.36C375.918 366.786 375.593 366.868 375.385 367.033C375.186 367.198 375.086 367.445 375.086 367.774C375.086 368.069 375.173 368.285 375.346 368.424C375.519 368.563 375.792 368.662 376.165 368.723L377.127 368.879C377.898 369 378.457 369.226 378.804 369.555C379.159 369.884 379.337 370.361 379.337 370.985C379.337 371.644 379.125 372.164 378.7 372.545C378.284 372.918 377.651 373.104 376.802 373.104H376.256ZM381.607 373V363.497H387.197V364.563H382.751V367.722H386.859V368.788H382.777V373H381.607ZM389.662 373V363.51H390.832V371.934H395.122V373H389.662ZM397.158 373V363.51H400.096C400.659 363.51 401.153 363.627 401.578 363.861C402.003 364.086 402.332 364.403 402.566 364.81C402.8 365.217 402.917 365.694 402.917 366.24C402.917 366.881 402.748 367.432 402.41 367.891C402.081 368.35 401.63 368.667 401.058 368.84L403.047 373H401.669L399.849 368.97H398.328V373H397.158ZM398.328 367.917H400.096C400.581 367.917 400.971 367.765 401.266 367.462C401.561 367.15 401.708 366.743 401.708 366.24C401.708 365.729 401.561 365.321 401.266 365.018C400.971 364.715 400.581 364.563 400.096 364.563H398.328V367.917ZM414.828 373.13C414.074 373.13 413.48 372.939 413.047 372.558C412.613 372.168 412.397 371.644 412.397 370.985C412.397 370.318 412.613 369.793 413.047 369.412C413.48 369.031 414.065 368.84 414.802 368.84H417.012V368.125C417.012 367.683 416.877 367.345 416.609 367.111C416.349 366.868 415.976 366.747 415.491 366.747C415.066 366.747 414.711 366.838 414.425 367.02C414.139 367.193 413.974 367.432 413.931 367.735H412.761C412.839 367.12 413.129 366.63 413.632 366.266C414.134 365.902 414.763 365.72 415.517 365.72C416.34 365.72 416.99 365.932 417.467 366.357C417.943 366.782 418.182 367.358 418.182 368.086V373H417.038V371.635H416.843L417.038 371.44C417.038 371.96 416.834 372.372 416.427 372.675C416.028 372.978 415.495 373.13 414.828 373.13ZM415.114 372.207C415.668 372.207 416.123 372.068 416.479 371.791C416.834 371.514 417.012 371.158 417.012 370.725V369.711H414.828C414.438 369.711 414.13 369.819 413.905 370.036C413.679 370.253 413.567 370.547 413.567 370.92C413.567 371.319 413.701 371.635 413.97 371.869C414.247 372.094 414.628 372.207 415.114 372.207ZM420.543 373V365.85H421.713V367.215H421.96L421.713 367.488C421.713 366.925 421.882 366.491 422.22 366.188C422.558 365.876 423.026 365.72 423.624 365.72C424.343 365.72 424.915 365.941 425.34 366.383C425.764 366.825 425.977 367.427 425.977 368.19V373H424.807V368.32C424.807 367.809 424.668 367.419 424.391 367.15C424.122 366.873 423.754 366.734 423.286 366.734C422.8 366.734 422.415 366.881 422.129 367.176C421.851 367.471 421.713 367.895 421.713 368.45V373H420.543ZM430.626 373.13C429.915 373.13 429.339 372.892 428.897 372.415C428.463 371.938 428.247 371.293 428.247 370.478V368.385C428.247 367.562 428.463 366.912 428.897 366.435C429.33 365.958 429.906 365.72 430.626 365.72C431.215 365.72 431.687 365.88 432.043 366.201C432.398 366.522 432.576 366.951 432.576 367.488L432.342 367.215H432.602L432.576 365.59V363.51H433.746V373H432.576V371.635H432.342L432.576 371.362C432.576 371.908 432.398 372.341 432.043 372.662C431.687 372.974 431.215 373.13 430.626 373.13ZM431.016 372.116C431.501 372.116 431.882 371.964 432.16 371.661C432.437 371.358 432.576 370.937 432.576 370.4V368.45C432.576 367.913 432.437 367.492 432.16 367.189C431.882 366.886 431.501 366.734 431.016 366.734C430.522 366.734 430.132 366.881 429.846 367.176C429.56 367.471 429.417 367.895 429.417 368.45V370.4C429.417 370.955 429.56 371.379 429.846 371.674C430.132 371.969 430.522 372.116 431.016 372.116ZM443.927 373V363.51H446.865C447.429 363.51 447.923 363.627 448.347 363.861C448.772 364.086 449.101 364.403 449.335 364.81C449.569 365.217 449.686 365.694 449.686 366.24C449.686 366.881 449.517 367.432 449.179 367.891C448.85 368.35 448.399 368.667 447.827 368.84L449.816 373H448.438L446.618 368.97H445.097V373H443.927ZM445.097 367.917H446.865C447.351 367.917 447.741 367.765 448.035 367.462C448.33 367.15 448.477 366.743 448.477 366.24C448.477 365.729 448.33 365.321 448.035 365.018C447.741 364.715 447.351 364.563 446.865 364.563H445.097V367.917ZM454.426 373.13C453.863 373.13 453.369 373.017 452.944 372.792C452.528 372.567 452.203 372.25 451.969 371.843C451.744 371.427 451.631 370.946 451.631 370.4V368.45C451.631 367.895 451.744 367.414 451.969 367.007C452.203 366.6 452.528 366.283 452.944 366.058C453.369 365.833 453.863 365.72 454.426 365.72C454.99 365.72 455.479 365.833 455.895 366.058C456.32 366.283 456.645 366.6 456.87 367.007C457.104 367.414 457.221 367.895 457.221 368.45V369.711H452.775V370.4C452.775 370.963 452.918 371.397 453.204 371.7C453.49 371.995 453.898 372.142 454.426 372.142C454.877 372.142 455.241 372.064 455.518 371.908C455.796 371.743 455.965 371.501 456.025 371.18H457.195C457.117 371.778 456.823 372.255 456.311 372.61C455.809 372.957 455.18 373.13 454.426 373.13ZM456.077 368.931V368.45C456.077 367.887 455.934 367.453 455.648 367.15C455.371 366.847 454.964 366.695 454.426 366.695C453.898 366.695 453.49 366.847 453.204 367.15C452.918 367.453 452.775 367.887 452.775 368.45V368.827H456.168L456.077 368.931ZM462.273 373.13C461.701 373.13 461.199 373.022 460.765 372.805C460.341 372.588 460.011 372.276 459.777 371.869C459.543 371.453 459.426 370.963 459.426 370.4V368.45C459.426 367.878 459.543 367.388 459.777 366.981C460.011 366.574 460.341 366.262 460.765 366.045C461.199 365.828 461.701 365.72 462.273 365.72C463.097 365.72 463.76 365.941 464.262 366.383C464.765 366.825 465.029 367.427 465.055 368.19H463.885C463.859 367.731 463.703 367.38 463.417 367.137C463.14 366.886 462.759 366.76 462.273 366.76C461.762 366.76 461.355 366.907 461.051 367.202C460.748 367.488 460.596 367.9 460.596 368.437V370.4C460.596 370.937 460.748 371.353 461.051 371.648C461.355 371.943 461.762 372.09 462.273 372.09C462.759 372.09 463.14 371.964 463.417 371.713C463.703 371.462 463.859 371.111 463.885 370.66H465.055C465.029 371.423 464.765 372.025 464.262 372.467C463.76 372.909 463.097 373.13 462.273 373.13ZM470.016 373.13C469.453 373.13 468.959 373.017 468.534 372.792C468.118 372.567 467.793 372.25 467.559 371.843C467.334 371.427 467.221 370.946 467.221 370.4V368.45C467.221 367.895 467.334 367.414 467.559 367.007C467.793 366.6 468.118 366.283 468.534 366.058C468.959 365.833 469.453 365.72 470.016 365.72C470.58 365.72 471.069 365.833 471.485 366.058C471.91 366.283 472.235 366.6 472.46 367.007C472.694 367.414 472.811 367.895 472.811 368.45V369.711H468.365V370.4C468.365 370.963 468.508 371.397 468.794 371.7C469.08 371.995 469.488 372.142 470.016 372.142C470.467 372.142 470.831 372.064 471.108 371.908C471.386 371.743 471.555 371.501 471.615 371.18H472.785C472.707 371.778 472.413 372.255 471.901 372.61C471.399 372.957 470.77 373.13 470.016 373.13ZM471.667 368.931V368.45C471.667 367.887 471.524 367.453 471.238 367.15C470.961 366.847 470.554 366.695 470.016 366.695C469.488 366.695 469.08 366.847 468.794 367.15C468.508 367.453 468.365 367.887 468.365 368.45V368.827H471.758L471.667 368.931ZM475.016 373V371.934H477.551V366.916H475.341V365.85H478.721V371.934H481.126V373H475.016ZM478.006 364.563C477.72 364.563 477.495 364.489 477.33 364.342C477.165 364.195 477.083 363.995 477.083 363.744C477.083 363.484 477.165 363.28 477.33 363.133C477.495 362.977 477.72 362.899 478.006 362.899C478.292 362.899 478.517 362.977 478.682 363.133C478.847 363.28 478.929 363.484 478.929 363.744C478.929 363.995 478.847 364.195 478.682 364.342C478.517 364.489 478.292 364.563 478.006 364.563ZM482.902 375.34V365.85H484.072V367.215H484.306L484.072 367.488C484.072 366.942 484.25 366.513 484.605 366.201C484.969 365.88 485.446 365.72 486.035 365.72C486.754 365.72 487.326 365.958 487.751 366.435C488.184 366.903 488.401 367.549 488.401 368.372V370.465C488.401 371.011 488.301 371.483 488.102 371.882C487.911 372.281 487.638 372.588 487.283 372.805C486.936 373.022 486.52 373.13 486.035 373.13C485.454 373.13 484.982 372.97 484.618 372.649C484.254 372.328 484.072 371.899 484.072 371.362L484.306 371.635H484.046L484.072 373.26V375.34H482.902ZM485.645 372.116C486.139 372.116 486.525 371.969 486.802 371.674C487.088 371.379 487.231 370.955 487.231 370.4V368.45C487.231 367.895 487.088 367.471 486.802 367.176C486.525 366.881 486.139 366.734 485.645 366.734C485.168 366.734 484.787 366.886 484.501 367.189C484.215 367.492 484.072 367.913 484.072 368.45V370.4C484.072 370.937 484.215 371.358 484.501 371.661C484.787 371.964 485.168 372.116 485.645 372.116ZM494.181 373C493.566 373 493.085 372.835 492.738 372.506C492.4 372.177 492.231 371.713 492.231 371.115V366.916H490.216V365.85H492.231V363.835H493.401V365.85H496.261V366.916H493.401V371.115C493.401 371.661 493.661 371.934 494.181 371.934H496.131V373H494.181ZM500.975 373.104C500.49 373.104 500.065 373.03 499.701 372.883C499.346 372.727 499.06 372.51 498.843 372.233C498.635 371.956 498.509 371.626 498.466 371.245H499.636C499.688 371.496 499.827 371.696 500.052 371.843C500.286 371.99 500.594 372.064 500.975 372.064H501.521C501.98 372.064 502.323 371.973 502.548 371.791C502.773 371.6 502.886 371.349 502.886 371.037C502.886 370.734 502.782 370.495 502.574 370.322C502.375 370.14 502.076 370.019 501.677 369.958L500.715 369.802C500.013 369.681 499.489 369.464 499.142 369.152C498.804 368.831 498.635 368.368 498.635 367.761C498.635 367.12 498.839 366.626 499.246 366.279C499.653 365.924 500.264 365.746 501.079 365.746H501.573C502.258 365.746 502.808 365.906 503.224 366.227C503.64 366.548 503.891 366.981 503.978 367.527H502.808C502.756 367.302 502.626 367.124 502.418 366.994C502.21 366.855 501.928 366.786 501.573 366.786H501.079C500.637 366.786 500.312 366.868 500.104 367.033C499.905 367.198 499.805 367.445 499.805 367.774C499.805 368.069 499.892 368.285 500.065 368.424C500.238 368.563 500.511 368.662 500.884 368.723L501.846 368.879C502.617 369 503.176 369.226 503.523 369.555C503.878 369.884 504.056 370.361 504.056 370.985C504.056 371.644 503.844 372.164 503.419 372.545C503.003 372.918 502.37 373.104 501.521 373.104H500.975Z" fill="black"/>
<rect x="213" y="144" width="229" height="116" fill="#E6E6E6"/>
<path d="M231.298 216V206.497H236.888V207.563H232.442V210.722H236.55V211.788H232.468V216H231.298ZM239.353 216V206.51H240.523V214.934H244.813V216H239.353ZM246.849 216V206.51H249.787C250.351 206.51 250.845 206.627 251.269 206.861C251.694 207.086 252.023 207.403 252.257 207.81C252.491 208.217 252.608 208.694 252.608 209.24C252.608 209.881 252.439 210.432 252.101 210.891C251.772 211.35 251.321 211.667 250.749 211.84L252.738 216H251.36L249.54 211.97H248.019V216H246.849ZM248.019 210.917H249.787C250.273 210.917 250.663 210.765 250.957 210.462C251.252 210.15 251.399 209.743 251.399 209.24C251.399 208.729 251.252 208.321 250.957 208.018C250.663 207.715 250.273 207.563 249.787 207.563H248.019V210.917ZM261.893 216L264.428 212.321L262.049 208.85H263.427L264.844 211.06C264.905 211.155 264.961 211.259 265.013 211.372C265.074 211.485 265.121 211.576 265.156 211.645C265.182 211.576 265.221 211.485 265.273 211.372C265.334 211.259 265.394 211.155 265.455 211.06L266.885 208.85H268.25L265.871 212.334L268.393 216H267.015L265.481 213.66C265.42 213.565 265.36 213.456 265.299 213.335C265.247 213.205 265.199 213.101 265.156 213.023C265.121 213.101 265.069 213.205 265 213.335C264.939 213.456 264.874 213.565 264.805 213.66L263.258 216H261.893ZM280.512 216.104C280.027 216.104 279.602 216.03 279.238 215.883C278.883 215.727 278.597 215.51 278.38 215.233C278.172 214.956 278.046 214.626 278.003 214.245H279.173C279.225 214.496 279.364 214.696 279.589 214.843C279.823 214.99 280.131 215.064 280.512 215.064H281.058C281.517 215.064 281.86 214.973 282.085 214.791C282.31 214.6 282.423 214.349 282.423 214.037C282.423 213.734 282.319 213.495 282.111 213.322C281.912 213.14 281.613 213.019 281.214 212.958L280.252 212.802C279.55 212.681 279.026 212.464 278.679 212.152C278.341 211.831 278.172 211.368 278.172 210.761C278.172 210.12 278.376 209.626 278.783 209.279C279.19 208.924 279.801 208.746 280.616 208.746H281.11C281.795 208.746 282.345 208.906 282.761 209.227C283.177 209.548 283.428 209.981 283.515 210.527H282.345C282.293 210.302 282.163 210.124 281.955 209.994C281.747 209.855 281.465 209.786 281.11 209.786H280.616C280.174 209.786 279.849 209.868 279.641 210.033C279.442 210.198 279.342 210.445 279.342 210.774C279.342 211.069 279.429 211.285 279.602 211.424C279.775 211.563 280.048 211.662 280.421 211.723L281.383 211.879C282.154 212 282.713 212.226 283.06 212.555C283.415 212.884 283.593 213.361 283.593 213.985C283.593 214.644 283.381 215.164 282.956 215.545C282.54 215.918 281.907 216.104 281.058 216.104H280.512ZM285.863 216V206.497H291.453V207.563H287.007V210.722H291.115V211.788H287.033V216H285.863ZM293.918 216V206.51H295.088V214.934H299.378V216H293.918ZM301.414 216V206.51H304.352C304.915 206.51 305.409 206.627 305.834 206.861C306.258 207.086 306.588 207.403 306.822 207.81C307.056 208.217 307.173 208.694 307.173 209.24C307.173 209.881 307.004 210.432 306.666 210.891C306.336 211.35 305.886 211.667 305.314 211.84L307.303 216H305.925L304.105 211.97H302.584V216H301.414ZM302.584 210.917H304.352C304.837 210.917 305.227 210.765 305.522 210.462C305.816 210.15 305.964 209.743 305.964 209.24C305.964 208.729 305.816 208.321 305.522 208.018C305.227 207.715 304.837 207.563 304.352 207.563H302.584V210.917ZM317.004 218.34V208.85H318.174V210.215H318.408L318.174 210.488C318.174 209.942 318.351 209.513 318.707 209.201C319.071 208.88 319.547 208.72 320.137 208.72C320.856 208.72 321.428 208.958 321.853 209.435C322.286 209.903 322.503 210.549 322.503 211.372V213.465C322.503 214.011 322.403 214.483 322.204 214.882C322.013 215.281 321.74 215.588 321.385 215.805C321.038 216.022 320.622 216.13 320.137 216.13C319.556 216.13 319.084 215.97 318.72 215.649C318.356 215.328 318.174 214.899 318.174 214.362L318.408 214.635H318.148L318.174 216.26V218.34H317.004ZM319.747 215.116C320.241 215.116 320.626 214.969 320.904 214.674C321.19 214.379 321.333 213.955 321.333 213.4V211.45C321.333 210.895 321.19 210.471 320.904 210.176C320.626 209.881 320.241 209.734 319.747 209.734C319.27 209.734 318.889 209.886 318.603 210.189C318.317 210.492 318.174 210.913 318.174 211.45V213.4C318.174 213.937 318.317 214.358 318.603 214.661C318.889 214.964 319.27 215.116 319.747 215.116ZM325.046 216V208.85H326.19V210.215H326.463L326.086 211.06C326.086 210.289 326.25 209.708 326.58 209.318C326.918 208.919 327.416 208.72 328.075 208.72C328.829 208.72 329.427 208.958 329.869 209.435C330.319 209.903 330.545 210.54 330.545 211.346V211.775H329.375V211.45C329.375 210.887 329.236 210.458 328.959 210.163C328.69 209.86 328.304 209.708 327.802 209.708C327.308 209.708 326.918 209.86 326.632 210.163C326.354 210.466 326.216 210.895 326.216 211.45V216H325.046ZM332.502 216V214.934H335.037V209.916H332.827V208.85H336.207V214.934H338.612V216H332.502ZM335.492 207.563C335.206 207.563 334.981 207.489 334.816 207.342C334.652 207.195 334.569 206.995 334.569 206.744C334.569 206.484 334.652 206.28 334.816 206.133C334.981 205.977 335.206 205.899 335.492 205.899C335.778 205.899 336.004 205.977 336.168 206.133C336.333 206.28 336.415 206.484 336.415 206.744C336.415 206.995 336.333 207.195 336.168 207.342C336.004 207.489 335.778 207.563 335.492 207.563ZM343.144 216.13C342.572 216.13 342.07 216.022 341.636 215.805C341.212 215.588 340.882 215.276 340.648 214.869C340.414 214.453 340.297 213.963 340.297 213.4V211.45C340.297 210.878 340.414 210.388 340.648 209.981C340.882 209.574 341.212 209.262 341.636 209.045C342.07 208.828 342.572 208.72 343.144 208.72C343.968 208.72 344.631 208.941 345.133 209.383C345.636 209.825 345.9 210.427 345.926 211.19H344.756C344.73 210.731 344.574 210.38 344.288 210.137C344.011 209.886 343.63 209.76 343.144 209.76C342.633 209.76 342.226 209.907 341.922 210.202C341.619 210.488 341.467 210.9 341.467 211.437V213.4C341.467 213.937 341.619 214.353 341.922 214.648C342.226 214.943 342.633 215.09 343.144 215.09C343.63 215.09 344.011 214.964 344.288 214.713C344.574 214.462 344.73 214.111 344.756 213.66H345.926C345.9 214.423 345.636 215.025 345.133 215.467C344.631 215.909 343.968 216.13 343.144 216.13ZM350.887 216.13C350.324 216.13 349.83 216.017 349.405 215.792C348.989 215.567 348.664 215.25 348.43 214.843C348.205 214.427 348.092 213.946 348.092 213.4V211.45C348.092 210.895 348.205 210.414 348.43 210.007C348.664 209.6 348.989 209.283 349.405 209.058C349.83 208.833 350.324 208.72 350.887 208.72C351.451 208.72 351.94 208.833 352.356 209.058C352.781 209.283 353.106 209.6 353.331 210.007C353.565 210.414 353.682 210.895 353.682 211.45V212.711H349.236V213.4C349.236 213.963 349.379 214.397 349.665 214.7C349.951 214.995 350.359 215.142 350.887 215.142C351.338 215.142 351.702 215.064 351.979 214.908C352.257 214.743 352.426 214.501 352.486 214.18H353.656C353.578 214.778 353.284 215.255 352.772 215.61C352.27 215.957 351.641 216.13 350.887 216.13ZM352.538 211.931V211.45C352.538 210.887 352.395 210.453 352.109 210.15C351.832 209.847 351.425 209.695 350.887 209.695C350.359 209.695 349.951 209.847 349.665 210.15C349.379 210.453 349.236 210.887 349.236 211.45V211.827H352.629L352.538 211.931ZM363.682 210.67V209.63H369.272V210.67H363.682ZM363.682 213.79V212.75H369.272V213.79H363.682ZM382.119 216.13C381.547 216.13 381.044 216.022 380.611 215.805C380.186 215.588 379.857 215.276 379.623 214.869C379.389 214.453 379.272 213.963 379.272 213.4V211.45C379.272 210.878 379.389 210.388 379.623 209.981C379.857 209.574 380.186 209.262 380.611 209.045C381.044 208.828 381.547 208.72 382.119 208.72C382.942 208.72 383.605 208.941 384.108 209.383C384.611 209.825 384.875 210.427 384.901 211.19H383.731C383.705 210.731 383.549 210.38 383.263 210.137C382.986 209.886 382.604 209.76 382.119 209.76C381.608 209.76 381.2 209.907 380.897 210.202C380.594 210.488 380.442 210.9 380.442 211.437V213.4C380.442 213.937 380.594 214.353 380.897 214.648C381.2 214.943 381.608 215.09 382.119 215.09C382.604 215.09 382.986 214.964 383.263 214.713C383.549 214.462 383.705 214.111 383.731 213.66H384.901C384.875 214.423 384.611 215.025 384.108 215.467C383.605 215.909 382.942 216.13 382.119 216.13ZM388.276 218.34L389.329 215.558L386.677 208.85H387.977L389.641 213.27C389.702 213.417 389.758 213.595 389.81 213.803C389.862 214.002 389.905 214.171 389.94 214.31C389.975 214.171 390.018 214.002 390.07 213.803C390.122 213.595 390.174 213.417 390.226 213.27L391.786 208.85H393.047L389.524 218.34H388.276ZM397.436 216.104C396.951 216.104 396.526 216.03 396.162 215.883C395.807 215.727 395.521 215.51 395.304 215.233C395.096 214.956 394.97 214.626 394.927 214.245H396.097C396.149 214.496 396.288 214.696 396.513 214.843C396.747 214.99 397.055 215.064 397.436 215.064H397.982C398.441 215.064 398.784 214.973 399.009 214.791C399.234 214.6 399.347 214.349 399.347 214.037C399.347 213.734 399.243 213.495 399.035 213.322C398.836 213.14 398.537 213.019 398.138 212.958L397.176 212.802C396.474 212.681 395.95 212.464 395.603 212.152C395.265 211.831 395.096 211.368 395.096 210.761C395.096 210.12 395.3 209.626 395.707 209.279C396.114 208.924 396.725 208.746 397.54 208.746H398.034C398.719 208.746 399.269 208.906 399.685 209.227C400.101 209.548 400.352 209.981 400.439 210.527H399.269C399.217 210.302 399.087 210.124 398.879 209.994C398.671 209.855 398.389 209.786 398.034 209.786H397.54C397.098 209.786 396.773 209.868 396.565 210.033C396.366 210.198 396.266 210.445 396.266 210.774C396.266 211.069 396.353 211.285 396.526 211.424C396.699 211.563 396.972 211.662 397.345 211.723L398.307 211.879C399.078 212 399.637 212.226 399.984 212.555C400.339 212.884 400.517 213.361 400.517 213.985C400.517 214.644 400.305 215.164 399.88 215.545C399.464 215.918 398.831 216.104 397.982 216.104H397.436ZM402.787 216V206.497H408.377V207.563H403.931V210.722H408.039V211.788H403.957V216H402.787ZM410.842 216V206.51H412.012V214.934H416.302V216H410.842ZM418.338 216V206.51H421.276C421.839 206.51 422.333 206.627 422.758 206.861C423.182 207.086 423.512 207.403 423.746 207.81C423.98 208.217 424.097 208.694 424.097 209.24C424.097 209.881 423.928 210.432 423.59 210.891C423.26 211.35 422.81 211.667 422.238 211.84L424.227 216H422.849L421.029 211.97H419.508V216H418.338ZM419.508 210.917H421.276C421.761 210.917 422.151 210.765 422.446 210.462C422.74 210.15 422.888 209.743 422.888 209.24C422.888 208.729 422.74 208.321 422.446 208.018C422.151 207.715 421.761 207.563 421.276 207.563H419.508V210.917ZM246.823 238V236.934H249.397V229.485L246.823 231.409V230.109L248.968 228.51H250.567V236.934H252.673V238H246.823ZM257.348 238.13C256.768 238.13 256.261 238.017 255.827 237.792C255.403 237.558 255.073 237.233 254.839 236.817C254.605 236.392 254.488 235.898 254.488 235.335V231.175C254.488 230.603 254.605 230.109 254.839 229.693C255.073 229.277 255.403 228.956 255.827 228.731C256.261 228.497 256.768 228.38 257.348 228.38C257.938 228.38 258.445 228.497 258.869 228.731C259.294 228.956 259.623 229.277 259.857 229.693C260.091 230.109 260.208 230.603 260.208 231.175V235.335C260.208 235.898 260.091 236.392 259.857 236.817C259.623 237.233 259.29 237.558 258.856 237.792C258.432 238.017 257.929 238.13 257.348 238.13ZM257.348 237.129C257.868 237.129 258.284 236.964 258.596 236.635C258.917 236.297 259.077 235.864 259.077 235.335V231.175C259.077 230.646 258.917 230.217 258.596 229.888C258.284 229.55 257.868 229.381 257.348 229.381C256.828 229.381 256.408 229.55 256.087 229.888C255.775 230.217 255.619 230.646 255.619 231.175V235.335C255.619 235.864 255.775 236.297 256.087 236.635C256.408 236.964 256.828 237.129 257.348 237.129ZM257.348 234.022C257.114 234.022 256.924 233.948 256.776 233.801C256.638 233.654 256.568 233.459 256.568 233.216C256.568 232.982 256.638 232.796 256.776 232.657C256.924 232.51 257.114 232.436 257.348 232.436C257.582 232.436 257.769 232.51 257.907 232.657C258.055 232.796 258.128 232.982 258.128 233.216C258.128 233.459 258.055 233.654 257.907 233.801C257.769 233.948 257.582 234.022 257.348 234.022ZM265.143 238.13C264.562 238.13 264.055 238.017 263.622 237.792C263.197 237.558 262.868 237.233 262.634 236.817C262.4 236.392 262.283 235.898 262.283 235.335V231.175C262.283 230.603 262.4 230.109 262.634 229.693C262.868 229.277 263.197 228.956 263.622 228.731C264.055 228.497 264.562 228.38 265.143 228.38C265.732 228.38 266.239 228.497 266.664 228.731C267.089 228.956 267.418 229.277 267.652 229.693C267.886 230.109 268.003 230.603 268.003 231.175V235.335C268.003 235.898 267.886 236.392 267.652 236.817C267.418 237.233 267.084 237.558 266.651 237.792C266.226 238.017 265.724 238.13 265.143 238.13ZM265.143 237.129C265.663 237.129 266.079 236.964 266.391 236.635C266.712 236.297 266.872 235.864 266.872 235.335V231.175C266.872 230.646 266.712 230.217 266.391 229.888C266.079 229.55 265.663 229.381 265.143 229.381C264.623 229.381 264.203 229.55 263.882 229.888C263.57 230.217 263.414 230.646 263.414 231.175V235.335C263.414 235.864 263.57 236.297 263.882 236.635C264.203 236.964 264.623 237.129 265.143 237.129ZM265.143 234.022C264.909 234.022 264.718 233.948 264.571 233.801C264.432 233.654 264.363 233.459 264.363 233.216C264.363 232.982 264.432 232.796 264.571 232.657C264.718 232.51 264.909 232.436 265.143 232.436C265.377 232.436 265.563 232.51 265.702 232.657C265.849 232.796 265.923 232.982 265.923 233.216C265.923 233.459 265.849 233.654 265.702 233.801C265.563 233.948 265.377 234.022 265.143 234.022ZM277.483 238L280.018 234.321L277.639 230.85H279.017L280.434 233.06C280.495 233.155 280.551 233.259 280.603 233.372C280.664 233.485 280.711 233.576 280.746 233.645C280.772 233.576 280.811 233.485 280.863 233.372C280.924 233.259 280.984 233.155 281.045 233.06L282.475 230.85H283.84L281.461 234.334L283.983 238H282.605L281.071 235.66C281.01 235.565 280.95 235.456 280.889 235.335C280.837 235.205 280.789 235.101 280.746 235.023C280.711 235.101 280.659 235.205 280.59 235.335C280.529 235.456 280.464 235.565 280.395 235.66L278.848 238H277.483ZM296.323 238.13C295.742 238.13 295.235 238.017 294.802 237.792C294.377 237.558 294.048 237.233 293.814 236.817C293.58 236.392 293.463 235.898 293.463 235.335V231.175C293.463 230.603 293.58 230.109 293.814 229.693C294.048 229.277 294.377 228.956 294.802 228.731C295.235 228.497 295.742 228.38 296.323 228.38C296.912 228.38 297.419 228.497 297.844 228.731C298.269 228.956 298.598 229.277 298.832 229.693C299.066 230.109 299.183 230.603 299.183 231.175V235.335C299.183 235.898 299.066 236.392 298.832 236.817C298.598 237.233 298.264 237.558 297.831 237.792C297.406 238.017 296.904 238.13 296.323 238.13ZM296.323 237.129C296.843 237.129 297.259 236.964 297.571 236.635C297.892 236.297 298.052 235.864 298.052 235.335V231.175C298.052 230.646 297.892 230.217 297.571 229.888C297.259 229.55 296.843 229.381 296.323 229.381C295.803 229.381 295.383 229.55 295.062 229.888C294.75 230.217 294.594 230.646 294.594 231.175V235.335C294.594 235.864 294.75 236.297 295.062 236.635C295.383 236.964 295.803 237.129 296.323 237.129ZM296.323 234.022C296.089 234.022 295.898 233.948 295.751 233.801C295.612 233.654 295.543 233.459 295.543 233.216C295.543 232.982 295.612 232.796 295.751 232.657C295.898 232.51 296.089 232.436 296.323 232.436C296.557 232.436 296.743 232.51 296.882 232.657C297.029 232.796 297.103 232.982 297.103 233.216C297.103 233.459 297.029 233.654 296.882 233.801C296.743 233.948 296.557 234.022 296.323 234.022ZM304.118 238.13C303.788 238.13 303.524 238.035 303.325 237.844C303.134 237.653 303.039 237.398 303.039 237.077C303.039 236.739 303.134 236.47 303.325 236.271C303.524 236.072 303.788 235.972 304.118 235.972C304.447 235.972 304.707 236.072 304.898 236.271C305.097 236.47 305.197 236.739 305.197 237.077C305.197 237.398 305.097 237.653 304.898 237.844C304.707 238.035 304.447 238.13 304.118 238.13ZM311.913 238.13C311.332 238.13 310.825 238.017 310.392 237.792C309.967 237.558 309.638 237.233 309.404 236.817C309.17 236.392 309.053 235.898 309.053 235.335V231.175C309.053 230.603 309.17 230.109 309.404 229.693C309.638 229.277 309.967 228.956 310.392 228.731C310.825 228.497 311.332 228.38 311.913 228.38C312.502 228.38 313.009 228.497 313.434 228.731C313.858 228.956 314.188 229.277 314.422 229.693C314.656 230.109 314.773 230.603 314.773 231.175V235.335C314.773 235.898 314.656 236.392 314.422 236.817C314.188 237.233 313.854 237.558 313.421 237.792C312.996 238.017 312.493 238.13 311.913 238.13ZM311.913 237.129C312.433 237.129 312.849 236.964 313.161 236.635C313.481 236.297 313.642 235.864 313.642 235.335V231.175C313.642 230.646 313.481 230.217 313.161 229.888C312.849 229.55 312.433 229.381 311.913 229.381C311.393 229.381 310.972 229.55 310.652 229.888C310.34 230.217 310.184 230.646 310.184 231.175V235.335C310.184 235.864 310.34 236.297 310.652 236.635C310.972 236.964 311.393 237.129 311.913 237.129ZM311.913 234.022C311.679 234.022 311.488 233.948 311.341 233.801C311.202 233.654 311.133 233.459 311.133 233.216C311.133 232.982 311.202 232.796 311.341 232.657C311.488 232.51 311.679 232.436 311.913 232.436C312.147 232.436 312.333 232.51 312.472 232.657C312.619 232.796 312.693 232.982 312.693 233.216C312.693 233.459 312.619 233.654 312.472 233.801C312.333 233.948 312.147 234.022 311.913 234.022ZM319.565 238.13C318.993 238.13 318.49 238.017 318.057 237.792C317.632 237.558 317.303 237.237 317.069 236.83C316.835 236.423 316.718 235.946 316.718 235.4H317.888C317.888 235.929 318.035 236.345 318.33 236.648C318.633 236.943 319.049 237.09 319.578 237.09C320.115 237.09 320.531 236.934 320.826 236.622C321.12 236.31 321.268 235.903 321.268 235.4V234.724C321.268 234.187 321.12 233.771 320.826 233.476C320.531 233.181 320.115 233.034 319.578 233.034H318.603V231.864L320.956 229.576H317.108V228.51H322.139V229.68L319.604 232.137V231.994C320.47 231.994 321.159 232.241 321.671 232.735C322.182 233.229 322.438 233.892 322.438 234.724V235.4C322.438 235.946 322.316 236.423 322.074 236.83C321.84 237.237 321.506 237.558 321.073 237.792C320.639 238.017 320.137 238.13 319.565 238.13ZM332.502 232.67V231.63H338.092V232.67H332.502ZM332.502 235.79V234.75H338.092V235.79H332.502ZM350.77 238.13C350.172 238.13 349.652 238.017 349.21 237.792C348.768 237.567 348.426 237.25 348.183 236.843C347.949 236.427 347.832 235.946 347.832 235.4H349.236C349.236 235.877 349.371 236.249 349.639 236.518C349.917 236.787 350.298 236.921 350.783 236.921C351.277 236.921 351.659 236.782 351.927 236.505C352.196 236.228 352.33 235.859 352.33 235.4V234.698C352.33 234.213 352.196 233.84 351.927 233.58C351.659 233.311 351.277 233.177 350.783 233.177H349.769V231.851L351.979 229.745H348.235V228.51H353.409V229.836L350.796 232.293V231.955C351.698 231.955 352.413 232.202 352.941 232.696C353.47 233.19 353.734 233.853 353.734 234.685V235.4C353.734 235.946 353.613 236.427 353.37 236.843C353.128 237.25 352.781 237.567 352.33 237.792C351.888 238.017 351.368 238.13 350.77 238.13ZM366.529 238.13C365.94 238.13 365.42 238.022 364.969 237.805C364.527 237.58 364.185 237.259 363.942 236.843C363.708 236.418 363.591 235.924 363.591 235.361V233.489C363.591 232.917 363.708 232.423 363.942 232.007C364.185 231.591 364.527 231.275 364.969 231.058C365.42 230.833 365.94 230.72 366.529 230.72C367.387 230.72 368.076 230.945 368.596 231.396C369.116 231.847 369.389 232.462 369.415 233.242H368.011C367.985 232.835 367.842 232.518 367.582 232.293C367.322 232.068 366.971 231.955 366.529 231.955C366.052 231.955 365.675 232.089 365.398 232.358C365.121 232.618 364.982 232.991 364.982 233.476V235.361C364.982 235.846 365.121 236.223 365.398 236.492C365.675 236.761 366.052 236.895 366.529 236.895C366.971 236.895 367.322 236.782 367.582 236.557C367.842 236.332 367.985 236.015 368.011 235.608H369.415C369.389 236.388 369.116 237.003 368.596 237.454C368.076 237.905 367.387 238.13 366.529 238.13ZM372.608 240.34L373.635 237.584L370.97 230.85H372.517L374.012 234.88C374.073 235.053 374.133 235.261 374.194 235.504C374.255 235.747 374.307 235.946 374.35 236.102C374.385 235.946 374.432 235.747 374.493 235.504C374.554 235.261 374.614 235.053 374.675 234.88L376.079 230.85H377.574L374.09 240.34H372.608ZM381.82 238.117C381.309 238.117 380.858 238.035 380.468 237.87C380.087 237.705 379.783 237.48 379.558 237.194C379.341 236.899 379.216 236.553 379.181 236.154H380.585C380.62 236.388 380.745 236.579 380.962 236.726C381.179 236.865 381.465 236.934 381.82 236.934H382.379C382.804 236.934 383.124 236.847 383.341 236.674C383.558 236.501 383.666 236.271 383.666 235.985C383.666 235.708 383.566 235.491 383.367 235.335C383.176 235.17 382.89 235.062 382.509 235.01L381.586 234.867C380.823 234.746 380.26 234.529 379.896 234.217C379.541 233.896 379.363 233.424 379.363 232.8C379.363 232.141 379.575 231.634 380 231.279C380.433 230.915 381.07 230.733 381.911 230.733H382.405C383.15 230.733 383.744 230.906 384.186 231.253C384.637 231.591 384.892 232.046 384.953 232.618H383.549C383.514 232.41 383.397 232.241 383.198 232.111C383.007 231.981 382.743 231.916 382.405 231.916H381.911C381.504 231.916 381.205 231.994 381.014 232.15C380.832 232.297 380.741 232.518 380.741 232.813C380.741 233.073 380.823 233.268 380.988 233.398C381.153 233.528 381.408 233.619 381.755 233.671L382.704 233.827C383.51 233.94 384.099 234.165 384.472 234.503C384.853 234.832 385.044 235.313 385.044 235.946C385.044 236.631 384.819 237.164 384.368 237.545C383.926 237.926 383.263 238.117 382.379 238.117H381.82ZM387.106 238V228.497H392.839V229.797H388.471V232.631H392.501V233.931H388.497V238H387.106ZM395.174 238V228.51H396.578V236.713H400.725V238H395.174ZM402.644 238V228.51H405.621C406.219 228.51 406.739 228.627 407.181 228.861C407.623 229.086 407.965 229.407 408.208 229.823C408.459 230.239 408.585 230.729 408.585 231.292C408.585 231.925 408.42 232.475 408.091 232.943C407.77 233.402 407.332 233.727 406.778 233.918L408.715 238H407.116L405.387 234.1H404.048V238H402.644ZM404.048 232.865H405.621C406.089 232.865 406.461 232.726 406.739 232.449C407.016 232.163 407.155 231.786 407.155 231.318C407.155 230.833 407.016 230.451 406.739 230.174C406.461 229.897 406.089 229.758 405.621 229.758H404.048V232.865Z" fill="black"/>
<rect width="118" height="37" transform="translate(494 134)" fill="#1E26E8"/>
<path d="M525.577 157.13C525.005 157.13 524.503 157.017 524.069 156.792C523.645 156.558 523.315 156.237 523.081 155.83C522.847 155.423 522.73 154.946 522.73 154.4H523.9C523.9 154.929 524.048 155.345 524.342 155.648C524.646 155.943 525.062 156.09 525.59 156.09C526.128 156.09 526.544 155.934 526.838 155.622C527.133 155.31 527.28 154.903 527.28 154.4V153.724C527.28 153.187 527.133 152.771 526.838 152.476C526.544 152.181 526.128 152.034 525.59 152.034H524.615V150.864L526.968 148.576H523.12V147.51H528.151V148.68L525.616 151.137V150.994C526.483 150.994 527.172 151.241 527.683 151.735C528.195 152.229 528.45 152.892 528.45 153.724V154.4C528.45 154.946 528.329 155.423 528.086 155.83C527.852 156.237 527.519 156.558 527.085 156.792C526.652 157.017 526.149 157.13 525.577 157.13ZM541.362 157.13C540.79 157.13 540.287 157.022 539.854 156.805C539.429 156.588 539.1 156.276 538.866 155.869C538.632 155.453 538.515 154.963 538.515 154.4V152.45C538.515 151.878 538.632 151.388 538.866 150.981C539.1 150.574 539.429 150.262 539.854 150.045C540.287 149.828 540.79 149.72 541.362 149.72C542.185 149.72 542.848 149.941 543.351 150.383C543.854 150.825 544.118 151.427 544.144 152.19H542.974C542.948 151.731 542.792 151.38 542.506 151.137C542.229 150.886 541.847 150.76 541.362 150.76C540.851 150.76 540.443 150.907 540.14 151.202C539.837 151.488 539.685 151.9 539.685 152.437V154.4C539.685 154.937 539.837 155.353 540.14 155.648C540.443 155.943 540.851 156.09 541.362 156.09C541.847 156.09 542.229 155.964 542.506 155.713C542.792 155.462 542.948 155.111 542.974 154.66H544.144C544.118 155.423 543.854 156.025 543.351 156.467C542.848 156.909 542.185 157.13 541.362 157.13ZM547.519 159.34L548.572 156.558L545.92 149.85H547.22L548.884 154.27C548.945 154.417 549.001 154.595 549.053 154.803C549.105 155.002 549.148 155.171 549.183 155.31C549.218 155.171 549.261 155.002 549.313 154.803C549.365 154.595 549.417 154.417 549.469 154.27L551.029 149.85H552.29L548.767 159.34H547.519ZM556.679 157.104C556.194 157.104 555.769 157.03 555.405 156.883C555.05 156.727 554.764 156.51 554.547 156.233C554.339 155.956 554.213 155.626 554.17 155.245H555.34C555.392 155.496 555.531 155.696 555.756 155.843C555.99 155.99 556.298 156.064 556.679 156.064H557.225C557.684 156.064 558.027 155.973 558.252 155.791C558.477 155.6 558.59 155.349 558.59 155.037C558.59 154.734 558.486 154.495 558.278 154.322C558.079 154.14 557.78 154.019 557.381 153.958L556.419 153.802C555.717 153.681 555.193 153.464 554.846 153.152C554.508 152.831 554.339 152.368 554.339 151.761C554.339 151.12 554.543 150.626 554.95 150.279C555.357 149.924 555.968 149.746 556.783 149.746H557.277C557.962 149.746 558.512 149.906 558.928 150.227C559.344 150.548 559.595 150.981 559.682 151.527H558.512C558.46 151.302 558.33 151.124 558.122 150.994C557.914 150.855 557.632 150.786 557.277 150.786H556.783C556.341 150.786 556.016 150.868 555.808 151.033C555.609 151.198 555.509 151.445 555.509 151.774C555.509 152.069 555.596 152.285 555.769 152.424C555.942 152.563 556.215 152.662 556.588 152.723L557.55 152.879C558.321 153 558.88 153.226 559.227 153.555C559.582 153.884 559.76 154.361 559.76 154.985C559.76 155.644 559.548 156.164 559.123 156.545C558.707 156.918 558.074 157.104 557.225 157.104H556.679ZM562.03 157V147.497H567.62V148.563H563.174V151.722H567.282V152.788H563.2V157H562.03ZM570.085 157V147.51H571.255V155.934H575.545V157H570.085ZM577.581 157V147.51H580.519C581.082 147.51 581.576 147.627 582.001 147.861C582.425 148.086 582.755 148.403 582.989 148.81C583.223 149.217 583.34 149.694 583.34 150.24C583.34 150.881 583.171 151.432 582.833 151.891C582.503 152.35 582.053 152.667 581.481 152.84L583.47 157H582.092L580.272 152.97H578.751V157H577.581ZM578.751 151.917H580.519C581.004 151.917 581.394 151.765 581.689 151.462C581.983 151.15 582.131 150.743 582.131 150.24C582.131 149.729 581.983 149.321 581.689 149.018C581.394 148.715 581.004 148.563 580.519 148.563H578.751V151.917Z" fill="white"/>
<rect width="118" height="55" transform="translate(494 214)" fill="#1E26E8"/>
<path d="M517.782 237.63C517.21 237.63 516.708 237.517 516.274 237.292C515.85 237.058 515.52 236.737 515.286 236.33C515.052 235.923 514.935 235.446 514.935 234.9H516.105C516.105 235.429 516.253 235.845 516.547 236.148C516.851 236.443 517.267 236.59 517.795 236.59C518.333 236.59 518.749 236.434 519.043 236.122C519.338 235.81 519.485 235.403 519.485 234.9V234.224C519.485 233.687 519.338 233.271 519.043 232.976C518.749 232.681 518.333 232.534 517.795 232.534H516.82V231.364L519.173 229.076H515.325V228.01H520.356V229.18L517.821 231.637V231.494C518.688 231.494 519.377 231.741 519.888 232.235C520.4 232.729 520.655 233.392 520.655 234.224V234.9C520.655 235.446 520.534 235.923 520.291 236.33C520.057 236.737 519.724 237.058 519.29 237.292C518.857 237.517 518.354 237.63 517.782 237.63ZM530.811 237.5V228.01H533.749C534.313 228.01 534.807 228.127 535.231 228.361C535.656 228.586 535.985 228.903 536.219 229.31C536.453 229.717 536.57 230.194 536.57 230.74C536.57 231.381 536.401 231.932 536.063 232.391C535.734 232.85 535.283 233.167 534.711 233.34L536.7 237.5H535.322L533.502 233.47H531.981V237.5H530.811ZM531.981 232.417H533.749C534.235 232.417 534.625 232.265 534.919 231.962C535.214 231.65 535.361 231.243 535.361 230.74C535.361 230.229 535.214 229.821 534.919 229.518C534.625 229.215 534.235 229.063 533.749 229.063H531.981V232.417ZM541.31 237.63C540.747 237.63 540.253 237.517 539.828 237.292C539.412 237.067 539.087 236.75 538.853 236.343C538.628 235.927 538.515 235.446 538.515 234.9V232.95C538.515 232.395 538.628 231.914 538.853 231.507C539.087 231.1 539.412 230.783 539.828 230.558C540.253 230.333 540.747 230.22 541.31 230.22C541.873 230.22 542.363 230.333 542.779 230.558C543.204 230.783 543.529 231.1 543.754 231.507C543.988 231.914 544.105 232.395 544.105 232.95V234.211H539.659V234.9C539.659 235.463 539.802 235.897 540.088 236.2C540.374 236.495 540.781 236.642 541.31 236.642C541.761 236.642 542.125 236.564 542.402 236.408C542.679 236.243 542.848 236.001 542.909 235.68H544.079C544.001 236.278 543.706 236.755 543.195 237.11C542.692 237.457 542.064 237.63 541.31 237.63ZM542.961 233.431V232.95C542.961 232.387 542.818 231.953 542.532 231.65C542.255 231.347 541.847 231.195 541.31 231.195C540.781 231.195 540.374 231.347 540.088 231.65C539.802 231.953 539.659 232.387 539.659 232.95V233.327H543.052L542.961 233.431ZM549.157 237.63C548.585 237.63 548.082 237.522 547.649 237.305C547.224 237.088 546.895 236.776 546.661 236.369C546.427 235.953 546.31 235.463 546.31 234.9V232.95C546.31 232.378 546.427 231.888 546.661 231.481C546.895 231.074 547.224 230.762 547.649 230.545C548.082 230.328 548.585 230.22 549.157 230.22C549.98 230.22 550.643 230.441 551.146 230.883C551.649 231.325 551.913 231.927 551.939 232.69H550.769C550.743 232.231 550.587 231.88 550.301 231.637C550.024 231.386 549.642 231.26 549.157 231.26C548.646 231.26 548.238 231.407 547.935 231.702C547.632 231.988 547.48 232.4 547.48 232.937V234.9C547.48 235.437 547.632 235.853 547.935 236.148C548.238 236.443 548.646 236.59 549.157 236.59C549.642 236.59 550.024 236.464 550.301 236.213C550.587 235.962 550.743 235.611 550.769 235.16H551.939C551.913 235.923 551.649 236.525 551.146 236.967C550.643 237.409 549.98 237.63 549.157 237.63ZM556.9 237.63C556.337 237.63 555.843 237.517 555.418 237.292C555.002 237.067 554.677 236.75 554.443 236.343C554.218 235.927 554.105 235.446 554.105 234.9V232.95C554.105 232.395 554.218 231.914 554.443 231.507C554.677 231.1 555.002 230.783 555.418 230.558C555.843 230.333 556.337 230.22 556.9 230.22C557.463 230.22 557.953 230.333 558.369 230.558C558.794 230.783 559.119 231.1 559.344 231.507C559.578 231.914 559.695 232.395 559.695 232.95V234.211H555.249V234.9C555.249 235.463 555.392 235.897 555.678 236.2C555.964 236.495 556.371 236.642 556.9 236.642C557.351 236.642 557.715 236.564 557.992 236.408C558.269 236.243 558.438 236.001 558.499 235.68H559.669C559.591 236.278 559.296 236.755 558.785 237.11C558.282 237.457 557.654 237.63 556.9 237.63ZM558.551 233.431V232.95C558.551 232.387 558.408 231.953 558.122 231.65C557.845 231.347 557.437 231.195 556.9 231.195C556.371 231.195 555.964 231.347 555.678 231.65C555.392 231.953 555.249 232.387 555.249 232.95V233.327H558.642L558.551 233.431ZM561.9 237.5V236.434H564.435V231.416H562.225V230.35H565.605V236.434H568.01V237.5H561.9ZM564.89 229.063C564.604 229.063 564.379 228.989 564.214 228.842C564.049 228.695 563.967 228.495 563.967 228.244C563.967 227.984 564.049 227.78 564.214 227.633C564.379 227.477 564.604 227.399 564.89 227.399C565.176 227.399 565.401 227.477 565.566 227.633C565.731 227.78 565.813 227.984 565.813 228.244C565.813 228.495 565.731 228.695 565.566 228.842C565.401 228.989 565.176 229.063 564.89 229.063ZM569.786 239.84V230.35H570.956V231.715H571.19L570.956 231.988C570.956 231.442 571.134 231.013 571.489 230.701C571.853 230.38 572.33 230.22 572.919 230.22C573.638 230.22 574.21 230.458 574.635 230.935C575.068 231.403 575.285 232.049 575.285 232.872V234.965C575.285 235.511 575.185 235.983 574.986 236.382C574.795 236.781 574.522 237.088 574.167 237.305C573.82 237.522 573.404 237.63 572.919 237.63C572.338 237.63 571.866 237.47 571.502 237.149C571.138 236.828 570.956 236.399 570.956 235.862L571.19 236.135H570.93L570.956 237.76V239.84H569.786ZM572.529 236.616C573.023 236.616 573.409 236.469 573.686 236.174C573.972 235.879 574.115 235.455 574.115 234.9V232.95C574.115 232.395 573.972 231.971 573.686 231.676C573.409 231.381 573.023 231.234 572.529 231.234C572.052 231.234 571.671 231.386 571.385 231.689C571.099 231.992 570.956 232.413 570.956 232.95V234.9C570.956 235.437 571.099 235.858 571.385 236.161C571.671 236.464 572.052 236.616 572.529 236.616ZM581.065 237.5C580.449 237.5 579.968 237.335 579.622 237.006C579.284 236.677 579.115 236.213 579.115 235.615V231.416H577.1V230.35H579.115V228.335H580.285V230.35H583.145V231.416H580.285V235.615C580.285 236.161 580.545 236.434 581.065 236.434H583.015V237.5H581.065ZM587.859 237.604C587.373 237.604 586.949 237.53 586.585 237.383C586.229 237.227 585.943 237.01 585.727 236.733C585.519 236.456 585.393 236.126 585.35 235.745H586.52C586.572 235.996 586.71 236.196 586.936 236.343C587.17 236.49 587.477 236.564 587.859 236.564H588.405C588.864 236.564 589.206 236.473 589.432 236.291C589.657 236.1 589.77 235.849 589.77 235.537C589.77 235.234 589.666 234.995 589.458 234.822C589.258 234.64 588.959 234.519 588.561 234.458L587.599 234.302C586.897 234.181 586.372 233.964 586.026 233.652C585.688 233.331 585.519 232.868 585.519 232.261C585.519 231.62 585.722 231.126 586.13 230.779C586.537 230.424 587.148 230.246 587.963 230.246H588.457C589.141 230.246 589.692 230.406 590.108 230.727C590.524 231.048 590.775 231.481 590.862 232.027H589.692C589.64 231.802 589.51 231.624 589.302 231.494C589.094 231.355 588.812 231.286 588.457 231.286H587.963C587.521 231.286 587.196 231.368 586.988 231.533C586.788 231.698 586.689 231.945 586.689 232.274C586.689 232.569 586.775 232.785 586.949 232.924C587.122 233.063 587.395 233.162 587.768 233.223L588.73 233.379C589.501 233.5 590.06 233.726 590.407 234.055C590.762 234.384 590.94 234.861 590.94 235.485C590.94 236.144 590.727 236.664 590.303 237.045C589.887 237.418 589.254 237.604 588.405 237.604H587.859ZM529.943 256.84C529.206 256.84 528.565 256.684 528.019 256.372C527.473 256.069 527.048 255.631 526.745 255.059C526.45 254.496 526.303 253.833 526.303 253.07V248.65C526.303 247.87 526.441 247.198 526.719 246.635C527.005 246.072 527.408 245.638 527.928 245.335C528.456 245.032 529.085 244.88 529.813 244.88C530.471 244.88 531.039 245.01 531.516 245.27C531.992 245.521 532.356 245.885 532.608 246.362C532.868 246.839 532.998 247.406 532.998 248.065V253.655H532.075V252.94H531.711L531.958 252.68C531.958 253.009 531.832 253.278 531.581 253.486C531.329 253.685 530.996 253.785 530.58 253.785C530.016 253.785 529.583 253.616 529.28 253.278C528.985 252.931 528.838 252.429 528.838 251.77V250.21C528.838 249.551 528.985 249.053 529.28 248.715C529.583 248.368 530.016 248.195 530.58 248.195C530.996 248.195 531.329 248.299 531.581 248.507C531.832 248.706 531.958 248.975 531.958 249.313L531.776 249.04H532.088L531.958 248.13V248.065C531.958 247.571 531.875 247.155 531.711 246.817C531.546 246.479 531.303 246.223 530.983 246.05C530.671 245.877 530.281 245.79 529.813 245.79C529.033 245.79 528.426 246.041 527.993 246.544C527.559 247.047 527.343 247.749 527.343 248.65V253.07C527.343 253.937 527.572 254.617 528.032 255.111C528.5 255.614 529.137 255.865 529.943 255.865H530.853V256.84H529.943ZM530.918 252.966C531.273 252.966 531.533 252.858 531.698 252.641C531.871 252.424 531.958 252.091 531.958 251.64V250.197C531.958 249.79 531.871 249.491 531.698 249.3C531.533 249.109 531.273 249.014 530.918 249.014C530.571 249.014 530.311 249.114 530.138 249.313C529.964 249.504 529.878 249.803 529.878 250.21V251.77C529.878 252.177 529.964 252.481 530.138 252.68C530.311 252.871 530.571 252.966 530.918 252.966ZM544.883 256.32V254.617C544.068 254.548 543.427 254.288 542.959 253.837C542.499 253.378 542.261 252.775 542.244 252.03H543.414C543.414 252.455 543.539 252.801 543.791 253.07C544.051 253.339 544.415 253.503 544.883 253.564V250.158L544.532 250.054C543.882 249.855 543.379 249.521 543.024 249.053C542.677 248.585 542.504 248.035 542.504 247.402C542.504 246.709 542.716 246.137 543.141 245.686C543.574 245.235 544.155 244.975 544.883 244.906V243.19H545.663V244.893C546.382 244.962 546.958 245.222 547.392 245.673C547.825 246.124 548.046 246.704 548.055 247.415H546.885C546.885 247.008 546.776 246.678 546.56 246.427C546.352 246.167 546.053 246.007 545.663 245.946V249.17L546.183 249.339C546.815 249.538 547.305 249.876 547.652 250.353C547.998 250.83 548.172 251.389 548.172 252.03C548.172 252.741 547.942 253.33 547.483 253.798C547.032 254.266 546.425 254.539 545.663 254.617V256.32H544.883ZM545.663 253.564C546.087 253.495 546.417 253.33 546.651 253.07C546.885 252.81 547.002 252.472 547.002 252.056C547.002 251.675 546.898 251.341 546.69 251.055C546.49 250.769 546.2 250.57 545.819 250.457L545.663 250.405V253.564ZM544.883 249.443V245.946C544.501 246.007 544.202 246.154 543.986 246.388C543.778 246.622 543.674 246.925 543.674 247.298C543.674 247.749 543.812 248.13 544.09 248.442C544.367 248.745 544.766 248.936 545.286 249.014L544.883 249.443ZM553.003 254.63C552.422 254.63 551.915 254.517 551.482 254.292C551.057 254.058 550.728 253.733 550.494 253.317C550.26 252.892 550.143 252.398 550.143 251.835V247.675C550.143 247.103 550.26 246.609 550.494 246.193C550.728 245.777 551.057 245.456 551.482 245.231C551.915 244.997 552.422 244.88 553.003 244.88C553.592 244.88 554.099 244.997 554.524 245.231C554.948 245.456 555.278 245.777 555.512 246.193C555.746 246.609 555.863 247.103 555.863 247.675V251.835C555.863 252.398 555.746 252.892 555.512 253.317C555.278 253.733 554.944 254.058 554.511 254.292C554.086 254.517 553.583 254.63 553.003 254.63ZM553.003 253.629C553.523 253.629 553.939 253.464 554.251 253.135C554.571 252.797 554.732 252.364 554.732 251.835V247.675C554.732 247.146 554.571 246.717 554.251 246.388C553.939 246.05 553.523 245.881 553.003 245.881C552.483 245.881 552.062 246.05 551.742 246.388C551.43 246.717 551.274 247.146 551.274 247.675V251.835C551.274 252.364 551.43 252.797 551.742 253.135C552.062 253.464 552.483 253.629 553.003 253.629ZM553.003 250.522C552.769 250.522 552.578 250.448 552.431 250.301C552.292 250.154 552.223 249.959 552.223 249.716C552.223 249.482 552.292 249.296 552.431 249.157C552.578 249.01 552.769 248.936 553.003 248.936C553.237 248.936 553.423 249.01 553.562 249.157C553.709 249.296 553.783 249.482 553.783 249.716C553.783 249.959 553.709 250.154 553.562 250.301C553.423 250.448 553.237 250.522 553.003 250.522ZM560.797 254.63C560.468 254.63 560.204 254.535 560.004 254.344C559.814 254.153 559.718 253.898 559.718 253.577C559.718 253.239 559.814 252.97 560.004 252.771C560.204 252.572 560.468 252.472 560.797 252.472C561.127 252.472 561.387 252.572 561.577 252.771C561.777 252.97 561.876 253.239 561.876 253.577C561.876 253.898 561.777 254.153 561.577 254.344C561.387 254.535 561.127 254.63 560.797 254.63ZM568.592 254.63C568.012 254.63 567.505 254.517 567.071 254.292C566.647 254.058 566.317 253.733 566.083 253.317C565.849 252.892 565.732 252.398 565.732 251.835V247.675C565.732 247.103 565.849 246.609 566.083 246.193C566.317 245.777 566.647 245.456 567.071 245.231C567.505 244.997 568.012 244.88 568.592 244.88C569.182 244.88 569.689 244.997 570.113 245.231C570.538 245.456 570.867 245.777 571.101 246.193C571.335 246.609 571.452 247.103 571.452 247.675V251.835C571.452 252.398 571.335 252.892 571.101 253.317C570.867 253.733 570.534 254.058 570.1 254.292C569.676 254.517 569.173 254.63 568.592 254.63ZM568.592 253.629C569.112 253.629 569.528 253.464 569.84 253.135C570.161 252.797 570.321 252.364 570.321 251.835V247.675C570.321 247.146 570.161 246.717 569.84 246.388C569.528 246.05 569.112 245.881 568.592 245.881C568.072 245.881 567.652 246.05 567.331 246.388C567.019 246.717 566.863 247.146 566.863 247.675V251.835C566.863 252.364 567.019 252.797 567.331 253.135C567.652 253.464 568.072 253.629 568.592 253.629ZM568.592 250.522C568.358 250.522 568.168 250.448 568.02 250.301C567.882 250.154 567.812 249.959 567.812 249.716C567.812 249.482 567.882 249.296 568.02 249.157C568.168 249.01 568.358 248.936 568.592 248.936C568.826 248.936 569.013 249.01 569.151 249.157C569.299 249.296 569.372 249.482 569.372 249.716C569.372 249.959 569.299 250.154 569.151 250.301C569.013 250.448 568.826 250.522 568.592 250.522ZM576.244 254.63C575.672 254.63 575.17 254.517 574.736 254.292C574.312 254.058 573.982 253.737 573.748 253.33C573.514 252.923 573.397 252.446 573.397 251.9H574.567C574.567 252.429 574.715 252.845 575.009 253.148C575.313 253.443 575.729 253.59 576.257 253.59C576.795 253.59 577.211 253.434 577.505 253.122C577.8 252.81 577.947 252.403 577.947 251.9V251.224C577.947 250.687 577.8 250.271 577.505 249.976C577.211 249.681 576.795 249.534 576.257 249.534H575.282V248.364L577.635 246.076H573.787V245.01H578.818V246.18L576.283 248.637V248.494C577.15 248.494 577.839 248.741 578.35 249.235C578.862 249.729 579.117 250.392 579.117 251.224V251.9C579.117 252.446 578.996 252.923 578.753 253.33C578.519 253.737 578.186 254.058 577.752 254.292C577.319 254.517 576.816 254.63 576.244 254.63Z" fill="white"/>
<path d="M321.1 167.1L326.5 167.1L326.5 175.5L329.5 175.5L329.5 164.1L318.1 164.1L318.1 183.6L337.6 183.6L337.6 159L343 159L343 189L313 189L313 159L334.6 159L334.6 180.6L321.1 180.6L321.1 167.1Z" fill="black"/>
</svg>
