<svg width="227" height="58" viewBox="0 0 227 58" fill="none" xmlns="http://www.w3.org/2000/svg">
<path d="M111.871 58V50H119.843V58H111.871ZM111.871 53V45H119.843V53H111.871ZM111.871 48V40H119.843V48H111.871ZM111.871 43V35H119.843V43H111.871ZM109.38 38V30H117.352V38H109.38ZM114.363 38V30H122.334V38H114.363ZM106.889 33V25H114.861V33H106.889ZM116.854 33V25H124.826V33H116.854ZM104.398 28V20H112.37V28H104.398ZM119.345 28V20H127.317V28H119.345ZM101.906 23V15H109.878V23H101.906ZM121.836 23V15H129.808V23H121.836ZM99.4152 18V10H107.387V18H99.4152ZM124.327 18V10H132.299V18H124.327ZM99.4152 13V5H107.387V13H99.4152ZM124.327 13V5H132.299V13H124.327ZM99.4152 8V0H107.387V8H99.4152ZM124.327 8V0H132.299V8H124.327Z" fill="#1E26E8"/>
<path d="M141.795 58V50H149.767V58H141.795ZM146.778 58V50H154.75V58H146.778ZM151.76 58V50H159.732V58H151.76ZM136.813 53V45H144.785V53H136.813ZM156.743 53V45H164.715V53H156.743ZM136.813 48V40H144.785V48H136.813ZM156.743 48V40H164.715V48H156.743ZM136.813 43V35H144.785V43H136.813ZM136.813 38V30H144.785V38H136.813ZM136.813 33V25H144.785V33H136.813ZM136.813 28V20H144.785V28H136.813ZM136.813 23V15H144.785V23H136.813ZM136.813 18V10H144.785V18H136.813ZM156.743 18V10H164.715V18H156.743ZM136.813 13V5H144.785V13H136.813ZM156.743 13V5H164.715V13H156.743ZM141.795 8V0H149.767V8H141.795ZM146.778 8V0H154.75V8H146.778ZM151.76 8V0H159.732V8H151.76Z" fill="#1E26E8"/>
<path d="M171.719 58V50H179.691V58H171.719ZM176.702 58V50H184.674V58H176.702ZM181.684 58V50H189.656V58H181.684ZM186.666 58V50H194.638V58H186.666ZM171.719 53V45H179.691V53H171.719ZM171.719 48V40H179.691V48H171.719ZM171.719 43V35H179.691V43H171.719ZM171.719 38V30H179.691V38H171.719ZM171.719 33V25H179.691V33H171.719ZM171.719 28V20H179.691V28H171.719ZM171.719 23V15H179.691V23H171.719ZM171.719 18V10H179.691V18H171.719ZM171.719 13V5H179.691V13H171.719ZM171.719 8V0H179.691V8H171.719Z" fill="#1E26E8"/>
<path d="M204.081 58V50H212.053V58H204.081ZM209.063 58V50H217.035V58H209.063ZM214.046 58V50H222.018V58H214.046ZM199.098 53V45H207.07V53H199.098ZM219.028 53V45H227V53H219.028ZM199.098 48V40H207.07V48H199.098ZM219.028 48V40H227V48H219.028ZM199.098 43V35H207.07V43H199.098ZM219.028 43V35H227V43H219.028ZM199.098 38V30H207.07V38H199.098ZM219.028 38V30H227V38H219.028ZM199.098 33V25H207.07V33H199.098ZM219.028 33V25H227V33H219.028ZM199.098 28V20H207.07V28H199.098ZM219.028 28V20H227V28H219.028ZM199.098 23V15H207.07V23H199.098ZM219.028 23V15H227V23H219.028ZM199.098 18V10H207.07V18H199.098ZM219.028 18V10H227V18H219.028ZM199.098 13V5H207.07V13H199.098ZM219.028 13V5H227V13H219.028ZM204.081 8V0H212.053V8H204.081ZM209.063 8V0H217.035V8H209.063ZM214.046 8V0H222.018V8H214.046Z" fill="#1E26E8"/>
<path d="M72 58V50H80V58H72ZM77 58V50H85V58H77ZM82 58V50H90V58H82ZM67 53V45H75V53H67ZM87 53V45H95V53H87ZM67 48V40H75V48H67ZM87 48V40H95V48H87ZM67 43V35H75V43H67ZM67 38V30H75V38H67ZM67 33V25H75V33H67ZM67 28V20H75V28H67ZM67 23V15H75V23H67ZM67 18V10H75V18H67ZM87 18V10H95V18H87ZM67 13V5H75V13H67ZM87 13V5H95V13H87ZM72 8V0H80V8H72ZM77 8V0H85V8H77ZM82 8V0H90V8H82Z" fill="#1E26E8"/>
<path d="M15.66 15.66L26.1 15.66L26.1 31.9L31.9 31.9L31.9 9.86L9.86 9.86L9.86 47.56L47.56 47.56L47.56 -6.7167e-06L58 -7.62939e-06L58 58L0 58L-5.07052e-06 -2.55887e-06L41.76 -6.20965e-06L41.76 41.76L15.66 41.76L15.66 15.66Z" fill="#1E26E8"/>
</svg>
