<svg width="62" height="160" viewBox="0 0 62 160" fill="none" xmlns="http://www.w3.org/2000/svg">
<path d="M31 1C35 6.88889 35 9.83333 31 9.83333C27 9.83333 27 12.7778 31 18.6667C35 24.5556 35 27.5 31 27.5C27 27.5 27 30.4444 31 36.3333" stroke="white" stroke-width="2" stroke-linecap="round"/>
<path d="M19.96 48.96L28.6 48.96L28.6 62.4L33.4 62.4L33.4 44.16L15.16 44.16L15.16 75.36L46.36 75.36L46.36 36L55 36L55 84L7 84L7 36L41.56 36L41.56 70.56L19.96 70.56L19.96 48.96Z" fill="white"/>
<ellipse cx="31" cy="147.5" rx="31" ry="12.5" fill="white"/>
<path d="M19.0346 152V143.97H20.4976L21.3006 146.544C21.3813 146.786 21.4509 147.021 21.5096 147.248C21.5683 147.468 21.6086 147.633 21.6306 147.743C21.6599 147.633 21.7003 147.468 21.7516 147.248C21.8103 147.021 21.8763 146.786 21.9496 146.544L22.7196 143.97H24.1826V152H23.0606V149.294C23.0606 148.949 23.0679 148.568 23.0826 148.15C23.1046 147.725 23.1339 147.299 23.1706 146.874C23.2073 146.441 23.2439 146.031 23.2806 145.642C23.3173 145.246 23.3503 144.901 23.3796 144.608L22.1916 148.513H21.0476L19.8376 144.608C19.8743 144.894 19.9109 145.228 19.9476 145.609C19.9843 145.983 20.0173 146.383 20.0466 146.808C20.0759 147.233 20.1016 147.662 20.1236 148.095C20.1456 148.52 20.1566 148.92 20.1566 149.294V152H19.0346ZM25.9823 152V150.944H27.5993V145.026H25.9823V143.97H30.4263V145.026H28.8093V150.944H30.4263V152H25.9823ZM32.391 152V143.97H33.887L36.23 150.647C36.2153 150.434 36.197 150.181 36.175 149.888C36.153 149.595 36.1347 149.29 36.12 148.975C36.1127 148.66 36.109 148.374 36.109 148.117V143.97H37.209V152H35.713L33.381 145.323C33.3957 145.514 33.4103 145.752 33.425 146.038C33.447 146.324 33.4617 146.621 33.469 146.929C33.4837 147.237 33.491 147.523 33.491 147.787V152H32.391ZM40.8017 152V145.059H38.6567V143.959H44.1347V145.059H41.9897V152H40.8017Z" fill="#1E26E8"/>
<path d="M31 82C35 87.8889 35 90.8333 31 90.8333C27 90.8333 27 93.7778 31 99.6667C35 105.556 35 108.5 31 108.5C27 108.5 27 111.444 31 117.333C35 123.222 35 126.167 31 126.167C27 126.167 27 129.111 31 135" stroke="white" stroke-width="2" stroke-linecap="round"/>
</svg>
