<svg width="193" height="160" viewBox="0 0 193 160" fill="none" xmlns="http://www.w3.org/2000/svg">
<path d="M96 1C100 6.88889 100 9.83333 96 9.83333C92 9.83333 92 12.7778 96 18.6667C100 24.5556 100 27.5 96 27.5C92 27.5 92 30.4444 96 36.3333" stroke="white" stroke-width="2" stroke-linecap="round"/>
<path d="M84.96 48.96L93.6 48.96L93.6 62.4L98.4 62.4L98.4 44.16L80.16 44.16L80.16 75.36L111.36 75.36L111.36 36L120 36L120 84L72 84L72 36L106.56 36L106.56 70.56L84.96 70.56L84.96 48.96Z" fill="white"/>
<line x1="73" y1="59.5" x2="-4.37114e-08" y2="59.5" stroke="white" stroke-dasharray="2 2"/>
<ellipse cx="96" cy="147.5" rx="31" ry="12.5" fill="white"/>
<path d="M84.0346 152V143.97H85.4976L86.3006 146.544C86.3813 146.786 86.4509 147.021 86.5096 147.248C86.5683 147.468 86.6086 147.633 86.6306 147.743C86.6599 147.633 86.7003 147.468 86.7516 147.248C86.8103 147.021 86.8763 146.786 86.9496 146.544L87.7196 143.97H89.1826V152H88.0606V149.294C88.0606 148.949 88.0679 148.568 88.0826 148.15C88.1046 147.725 88.1339 147.299 88.1706 146.874C88.2073 146.441 88.2439 146.031 88.2806 145.642C88.3173 145.246 88.3503 144.901 88.3796 144.608L87.1916 148.513H86.0476L84.8376 144.608C84.8743 144.894 84.9109 145.228 84.9476 145.609C84.9843 145.983 85.0173 146.383 85.0466 146.808C85.0759 147.233 85.1016 147.662 85.1236 148.095C85.1456 148.52 85.1566 148.92 85.1566 149.294V152H84.0346ZM90.9823 152V150.944H92.5993V145.026H90.9823V143.97H95.4263V145.026H93.8093V150.944H95.4263V152H90.9823ZM97.391 152V143.97H98.887L101.23 150.647C101.215 150.434 101.197 150.181 101.175 149.888C101.153 149.595 101.135 149.29 101.12 148.975C101.113 148.66 101.109 148.374 101.109 148.117V143.97H102.209V152H100.713L98.381 145.323C98.3957 145.514 98.4103 145.752 98.425 146.038C98.447 146.324 98.4617 146.621 98.469 146.929C98.4837 147.237 98.491 147.523 98.491 147.787V152H97.391ZM105.802 152V145.059H103.657V143.959H109.135V145.059H106.99V152H105.802Z" fill="#1E26E8"/>
<path d="M96 82C100 87.8889 100 90.8333 96 90.8333C92 90.8333 92 93.7778 96 99.6667C100 105.556 100 108.5 96 108.5C92 108.5 92 111.444 96 117.333C100 123.222 100 126.167 96 126.167C92 126.167 92 129.111 96 135" stroke="white" stroke-width="2" stroke-linecap="round"/>
</svg>
