<svg width="62" height="196" viewBox="0 0 62 196" fill="none" xmlns="http://www.w3.org/2000/svg">
<path d="M31 76C35 81.8889 35 84.8333 31 84.8333C27 84.8333 27 87.7778 31 93.6667C35 99.5556 35 102.5 31 102.5C27 102.5 27 105.444 31 111.333" stroke="white" stroke-width="2" stroke-linecap="round"/>
<path d="M31 159C35 164.889 35 167.833 31 167.833C27 167.833 27 170.778 31 176.667C35 182.556 35 185.5 31 185.5C27 185.5 27 188.444 31 194.333" stroke="white" stroke-width="2" stroke-linecap="round"/>
<path d="M19.96 123.96L28.6 123.96L28.6 137.4L33.4 137.4L33.4 119.16L15.16 119.16L15.16 150.36L46.36 150.36L46.36 111L55 111L55 159L7 159L7 111L41.56 111L41.56 145.56L19.96 145.56L19.96 123.96Z" fill="white"/>
<ellipse cx="31" cy="63.5" rx="31" ry="12.5" fill="white"/>
<path d="M19.2436 67V58.97H21.6086C22.3713 58.97 22.9689 59.1533 23.4016 59.52C23.8343 59.8867 24.0506 60.3927 24.0506 61.038C24.0506 61.4047 23.9699 61.7237 23.8086 61.995C23.6546 62.259 23.4383 62.4643 23.1596 62.611C22.8809 62.7577 22.5546 62.831 22.1806 62.831V62.721C22.5839 62.7137 22.9396 62.7907 23.2476 62.952C23.5556 63.106 23.7976 63.337 23.9736 63.645C24.1496 63.953 24.2376 64.3197 24.2376 64.745C24.2376 65.1997 24.1349 65.5993 23.9296 65.944C23.7316 66.2813 23.4456 66.5417 23.0716 66.725C22.7049 66.9083 22.2686 67 21.7626 67H19.2436ZM20.3986 65.977H21.6636C22.0889 65.977 22.4263 65.8633 22.6756 65.636C22.9249 65.4087 23.0496 65.0933 23.0496 64.69C23.0496 64.2793 22.9249 63.9493 22.6756 63.7C22.4263 63.4507 22.0889 63.326 21.6636 63.326H20.3986V65.977ZM20.3986 62.336H21.5976C21.9936 62.336 22.3053 62.2297 22.5326 62.017C22.7599 61.8043 22.8736 61.5183 22.8736 61.159C22.8736 60.7997 22.7599 60.5173 22.5326 60.312C22.3053 60.0993 21.9973 59.993 21.6086 59.993H20.3986V62.336ZM28.2043 67.11C27.4343 67.11 26.8403 66.901 26.4223 66.483C26.0043 66.0577 25.7953 65.482 25.7953 64.756V58.97H26.9833V64.756C26.9833 65.1593 27.0823 65.4783 27.2803 65.713C27.4856 65.9477 27.7936 66.065 28.2043 66.065C28.6076 66.065 28.912 65.9477 29.1173 65.713C29.3226 65.4783 29.4253 65.1593 29.4253 64.756V58.97H30.6133V64.756C30.6133 65.482 30.4043 66.0577 29.9863 66.483C29.5683 66.901 28.9743 67.11 28.2043 67.11ZM32.424 67V58.97H34.943C35.449 58.97 35.889 59.069 36.263 59.267C36.637 59.4577 36.9267 59.729 37.132 60.081C37.3447 60.433 37.451 60.8473 37.451 61.324C37.451 61.8593 37.3117 62.325 37.033 62.721C36.7617 63.1097 36.3913 63.3847 35.922 63.546L37.561 67H36.208L34.745 63.7H33.612V67H32.424ZM33.612 62.655H34.943C35.339 62.655 35.6543 62.5377 35.889 62.303C36.1237 62.061 36.241 61.742 36.241 61.346C36.241 60.9353 36.1237 60.6127 35.889 60.378C35.6543 60.1433 35.339 60.026 34.943 60.026H33.612V62.655ZM38.9867 67V58.97H40.4827L42.8257 65.647C42.811 65.4343 42.7927 65.1813 42.7707 64.888C42.7487 64.5947 42.7304 64.2903 42.7157 63.975C42.7084 63.6597 42.7047 63.3737 42.7047 63.117V58.97H43.8047V67H42.3087L39.9767 60.323C39.9914 60.5137 40.006 60.752 40.0207 61.038C40.0427 61.324 40.0574 61.621 40.0647 61.929C40.0794 62.237 40.0867 62.523 40.0867 62.787V67H38.9867Z" fill="#1E26E8"/>
<path d="M31 0L31 51" stroke="white" stroke-width="2"/>
</svg>
