<svg width="655" height="403" viewBox="0 0 655 403" fill="none" xmlns="http://www.w3.org/2000/svg">
<rect x="0.5" y="0.5" width="654" height="402" fill="white"/>
<rect x="0.5" y="0.5" width="654" height="402" stroke="black"/>
<path d="M227.986 201C228.263 201.007 228.492 200.79 228.5 200.514L228.621 196.015C228.629 195.739 228.411 195.509 228.135 195.502C227.859 195.494 227.629 195.712 227.622 195.988L227.514 199.987L223.515 199.879C223.239 199.871 223.009 200.089 223.002 200.365C222.994 200.641 223.212 200.871 223.488 200.878L227.986 201ZM228.363 200.156L226.613 198.309L225.887 198.997L227.637 200.844L228.363 200.156ZM223.113 194.614L219.613 190.92L218.887 191.608L222.387 195.302L223.113 194.614ZM216.113 187.226L212.613 183.531L211.887 184.219L215.387 187.913L216.113 187.226ZM209.113 179.837L205.613 176.142L204.887 176.83L208.387 180.524L209.113 179.837ZM202.113 172.448L198.613 168.753L197.887 169.441L201.387 173.136L202.113 172.448ZM195.113 165.059L191.613 161.364L190.887 162.052L194.387 165.747L195.113 165.059ZM188.113 157.67L184.613 153.976L183.887 154.663L187.387 158.358L188.113 157.67ZM181.113 150.281L177.613 146.587L176.887 147.274L180.387 150.969L181.113 150.281ZM174.113 142.892L170.613 139.198L169.887 139.885L173.387 143.58L174.113 142.892ZM167.113 135.503L165.363 133.656L164.637 134.344L166.387 136.191L167.113 135.503ZM227.986 201C228.263 201.007 228.492 200.79 228.5 200.514L228.621 196.015C228.629 195.739 228.411 195.509 228.135 195.502C227.859 195.494 227.629 195.712 227.622 195.988L227.514 199.987L223.515 199.879C223.239 199.871 223.009 200.089 223.002 200.365C222.994 200.641 223.212 200.871 223.488 200.878L227.986 201ZM228.363 200.156L226.613 198.309L225.887 198.997L227.637 200.844L228.363 200.156ZM223.113 194.614L219.613 190.92L218.887 191.608L222.387 195.302L223.113 194.614ZM216.113 187.226L212.613 183.531L211.887 184.219L215.387 187.913L216.113 187.226ZM209.113 179.837L205.613 176.142L204.887 176.83L208.387 180.524L209.113 179.837ZM202.113 172.448L198.613 168.753L197.887 169.441L201.387 173.136L202.113 172.448ZM195.113 165.059L191.613 161.364L190.887 162.052L194.387 165.747L195.113 165.059ZM188.113 157.67L184.613 153.976L183.887 154.663L187.387 158.358L188.113 157.67ZM181.113 150.281L177.613 146.587L176.887 147.274L180.387 150.969L181.113 150.281ZM174.113 142.892L170.613 139.198L169.887 139.885L173.387 143.58L174.113 142.892ZM167.113 135.503L165.363 133.656L164.637 134.344L166.387 136.191L167.113 135.503Z" fill="black"/>
<path d="M228 201.5C228 201.224 227.776 201 227.5 201L223 201C222.724 201 222.5 201.224 222.5 201.5C222.5 201.776 222.724 202 223 202L227 202L227 206C227 206.276 227.224 206.5 227.5 206.5C227.776 206.5 228 206.276 228 206L228 201.5ZM227.146 201.146L225.41 202.883L226.117 203.59L227.854 201.854L227.146 201.146ZM221.938 206.355L218.466 209.827L219.173 210.534L222.645 207.062L221.938 206.355ZM214.994 213.299L211.521 216.771L212.229 217.479L215.701 214.006L214.994 213.299ZM208.049 220.244L204.577 223.716L205.284 224.423L208.756 220.951L208.049 220.244ZM201.105 227.188L197.633 230.66L198.34 231.367L201.812 227.895L201.105 227.188ZM194.16 234.133L190.688 237.605L191.395 238.312L194.867 234.84L194.16 234.133ZM187.216 241.077L183.744 244.549L184.451 245.256L187.923 241.784L187.216 241.077ZM180.271 248.021L176.799 251.494L177.506 252.201L180.979 248.729L180.271 248.021ZM173.327 254.966L169.855 258.438L170.562 259.145L174.034 255.673L173.327 254.966ZM166.383 261.91L164.646 263.646L165.354 264.354L167.09 262.617L166.383 261.91ZM228 201.5C228 201.224 227.776 201 227.5 201L223 201C222.724 201 222.5 201.224 222.5 201.5C222.5 201.776 222.724 202 223 202L227 202L227 206C227 206.276 227.224 206.5 227.5 206.5C227.776 206.5 228 206.276 228 206L228 201.5ZM227.146 201.146L225.41 202.883L226.117 203.59L227.854 201.854L227.146 201.146ZM221.938 206.355L218.466 209.827L219.173 210.534L222.645 207.062L221.938 206.355ZM214.994 213.299L211.521 216.771L212.229 217.479L215.701 214.006L214.994 213.299ZM208.049 220.244L204.577 223.716L205.284 224.423L208.756 220.951L208.049 220.244ZM201.105 227.188L197.633 230.66L198.34 231.367L201.812 227.895L201.105 227.188ZM194.16 234.133L190.688 237.605L191.395 238.312L194.867 234.84L194.16 234.133ZM187.216 241.077L183.744 244.549L184.451 245.256L187.923 241.784L187.216 241.077ZM180.271 248.021L176.799 251.494L177.506 252.201L180.979 248.729L180.271 248.021ZM173.327 254.966L169.855 258.438L170.562 259.145L174.034 255.673L173.327 254.966ZM166.383 261.91L164.646 263.646L165.354 264.354L167.09 262.617L166.383 261.91Z" fill="black"/>
<rect x="213" y="144" width="229" height="116" fill="#E6E6E6"/>
<path d="M173.311 373V363.51H176.002C176.868 363.51 177.544 363.727 178.03 364.16C178.524 364.593 178.771 365.196 178.771 365.967C178.771 366.4 178.68 366.777 178.498 367.098C178.316 367.419 178.056 367.666 177.718 367.839C177.388 368.012 176.99 368.095 176.522 368.086V367.891C177.024 367.882 177.458 367.978 177.822 368.177C178.194 368.376 178.48 368.662 178.68 369.035C178.888 369.408 178.992 369.85 178.992 370.361C178.992 370.898 178.879 371.366 178.654 371.765C178.428 372.164 178.108 372.471 177.692 372.688C177.276 372.896 176.777 373 176.197 373H173.311ZM174.455 371.947H176.067C176.613 371.947 177.042 371.804 177.354 371.518C177.674 371.223 177.835 370.825 177.835 370.322C177.835 369.802 177.674 369.382 177.354 369.061C177.042 368.732 176.613 368.567 176.067 368.567H174.455V371.947ZM174.455 367.553H175.989C176.491 367.553 176.886 367.419 177.172 367.15C177.466 366.881 177.614 366.517 177.614 366.058C177.614 365.599 177.471 365.235 177.185 364.966C176.899 364.697 176.504 364.563 176.002 364.563H174.455V367.553ZM183.783 373.13C182.96 373.13 182.301 372.887 181.807 372.402C181.313 371.908 181.066 371.241 181.066 370.4V365.85H182.236V370.4C182.236 370.937 182.375 371.358 182.652 371.661C182.93 371.956 183.307 372.103 183.783 372.103C184.269 372.103 184.65 371.956 184.927 371.661C185.213 371.358 185.356 370.937 185.356 370.4V365.85H186.526V370.4C186.526 371.241 186.275 371.908 185.772 372.402C185.27 372.887 184.607 373.13 183.783 373.13ZM189.134 373V365.85H190.278V367.215H190.551L190.174 368.06C190.174 367.289 190.339 366.708 190.668 366.318C191.006 365.919 191.505 365.72 192.163 365.72C192.917 365.72 193.515 365.958 193.957 366.435C194.408 366.903 194.633 367.54 194.633 368.346V368.775H193.463V368.45C193.463 367.887 193.325 367.458 193.047 367.163C192.779 366.86 192.393 366.708 191.89 366.708C191.396 366.708 191.006 366.86 190.72 367.163C190.443 367.466 190.304 367.895 190.304 368.45V373H189.134ZM196.682 373V365.85H197.852V367.215H198.099L197.852 367.488C197.852 366.925 198.021 366.491 198.359 366.188C198.697 365.876 199.165 365.72 199.763 365.72C200.483 365.72 201.055 365.941 201.479 366.383C201.904 366.825 202.116 367.427 202.116 368.19V373H200.946V368.32C200.946 367.809 200.808 367.419 200.53 367.15C200.262 366.873 199.893 366.734 199.425 366.734C198.94 366.734 198.554 366.881 198.268 367.176C197.991 367.471 197.852 367.895 197.852 368.45V373H196.682ZM204.386 373V371.934H206.921V366.916H204.711V365.85H208.091V371.934H210.496V373H204.386ZM207.376 364.563C207.09 364.563 206.865 364.489 206.7 364.342C206.536 364.195 206.453 363.995 206.453 363.744C206.453 363.484 206.536 363.28 206.7 363.133C206.865 362.977 207.09 362.899 207.376 362.899C207.662 362.899 207.888 362.977 208.052 363.133C208.217 363.28 208.299 363.484 208.299 363.744C208.299 363.995 208.217 364.195 208.052 364.342C207.888 364.489 207.662 364.563 207.376 364.563ZM212.272 373V365.85H213.442V367.215H213.689L213.442 367.488C213.442 366.925 213.611 366.491 213.949 366.188C214.287 365.876 214.755 365.72 215.353 365.72C216.073 365.72 216.645 365.941 217.069 366.383C217.494 366.825 217.706 367.427 217.706 368.19V373H216.536V368.32C216.536 367.809 216.398 367.419 216.12 367.15C215.852 366.873 215.483 366.734 215.015 366.734C214.53 366.734 214.144 366.881 213.858 367.176C213.581 367.471 213.442 367.895 213.442 368.45V373H212.272ZM220.964 375.34V374.274H223.239C223.603 374.274 223.867 374.192 224.032 374.027C224.205 373.862 224.292 373.607 224.292 373.26V372.35L224.318 371.05H224.084L224.305 370.855C224.305 371.375 224.132 371.787 223.785 372.09C223.438 372.393 222.975 372.545 222.394 372.545C221.657 372.545 221.077 372.307 220.652 371.83C220.227 371.345 220.015 370.695 220.015 369.88V368.372C220.015 367.557 220.227 366.912 220.652 366.435C221.077 365.958 221.657 365.72 222.394 365.72C222.975 365.72 223.438 365.872 223.785 366.175C224.132 366.478 224.305 366.89 224.305 367.41L224.084 367.215H224.305V365.85H225.462V373.26C225.462 373.901 225.263 374.408 224.864 374.781C224.474 375.154 223.928 375.34 223.226 375.34H220.964ZM222.745 371.531C223.23 371.531 223.612 371.379 223.889 371.076C224.166 370.773 224.305 370.352 224.305 369.815V368.45C224.305 367.913 224.166 367.492 223.889 367.189C223.612 366.886 223.23 366.734 222.745 366.734C222.251 366.734 221.865 366.881 221.588 367.176C221.319 367.471 221.185 367.895 221.185 368.45V369.815C221.185 370.37 221.319 370.794 221.588 371.089C221.865 371.384 222.251 371.531 222.745 371.531ZM238.413 373.13C237.841 373.13 237.338 373.022 236.905 372.805C236.48 372.588 236.151 372.276 235.917 371.869C235.683 371.453 235.566 370.963 235.566 370.4V368.45C235.566 367.878 235.683 367.388 235.917 366.981C236.151 366.574 236.48 366.262 236.905 366.045C237.338 365.828 237.841 365.72 238.413 365.72C239.236 365.72 239.899 365.941 240.402 366.383C240.905 366.825 241.169 367.427 241.195 368.19H240.025C239.999 367.731 239.843 367.38 239.557 367.137C239.28 366.886 238.898 366.76 238.413 366.76C237.902 366.76 237.494 366.907 237.191 367.202C236.888 367.488 236.736 367.9 236.736 368.437V370.4C236.736 370.937 236.888 371.353 237.191 371.648C237.494 371.943 237.902 372.09 238.413 372.09C238.898 372.09 239.28 371.964 239.557 371.713C239.843 371.462 239.999 371.111 240.025 370.66H241.195C241.169 371.423 240.905 372.025 240.402 372.467C239.899 372.909 239.236 373.13 238.413 373.13ZM244.57 375.34L245.623 372.558L242.971 365.85H244.271L245.935 370.27C245.996 370.417 246.052 370.595 246.104 370.803C246.156 371.002 246.199 371.171 246.234 371.31C246.269 371.171 246.312 371.002 246.364 370.803C246.416 370.595 246.468 370.417 246.52 370.27L248.08 365.85H249.341L245.818 375.34H244.57ZM251.286 373V363.497H256.876V364.563H252.43V367.722H256.538V368.788H252.456V373H251.286ZM259.341 373V363.51H260.511V371.934H264.801V373H259.341ZM266.837 373V363.51H269.775C270.338 363.51 270.832 363.627 271.257 363.861C271.681 364.086 272.011 364.403 272.245 364.81C272.479 365.217 272.596 365.694 272.596 366.24C272.596 366.881 272.427 367.432 272.089 367.891C271.759 368.35 271.309 368.667 270.737 368.84L272.726 373H271.348L269.528 368.97H268.007V373H266.837ZM268.007 367.917H269.775C270.26 367.917 270.65 367.765 270.945 367.462C271.239 367.15 271.387 366.743 271.387 366.24C271.387 365.729 271.239 365.321 270.945 365.018C270.65 364.715 270.26 364.563 269.775 364.563H268.007V367.917ZM284.506 373.13C283.752 373.13 283.159 372.939 282.725 372.558C282.292 372.168 282.075 371.644 282.075 370.985C282.075 370.318 282.292 369.793 282.725 369.412C283.159 369.031 283.744 368.84 284.48 368.84H286.69V368.125C286.69 367.683 286.556 367.345 286.287 367.111C286.027 366.868 285.655 366.747 285.169 366.747C284.745 366.747 284.389 366.838 284.103 367.02C283.817 367.193 283.653 367.432 283.609 367.735H282.439C282.517 367.12 282.808 366.63 283.31 366.266C283.813 365.902 284.441 365.72 285.195 365.72C286.019 365.72 286.669 365.932 287.145 366.357C287.622 366.782 287.86 367.358 287.86 368.086V373H286.716V371.635H286.521L286.716 371.44C286.716 371.96 286.513 372.372 286.105 372.675C285.707 372.978 285.174 373.13 284.506 373.13ZM284.792 372.207C285.347 372.207 285.802 372.068 286.157 371.791C286.513 371.514 286.69 371.158 286.69 370.725V369.711H284.506C284.116 369.711 283.809 369.819 283.583 370.036C283.358 370.253 283.245 370.547 283.245 370.92C283.245 371.319 283.38 371.635 283.648 371.869C283.926 372.094 284.307 372.207 284.792 372.207ZM290.221 373V365.85H291.391V367.215H291.638L291.391 367.488C291.391 366.925 291.56 366.491 291.898 366.188C292.236 365.876 292.704 365.72 293.302 365.72C294.022 365.72 294.594 365.941 295.018 366.383C295.443 366.825 295.655 367.427 295.655 368.19V373H294.485V368.32C294.485 367.809 294.347 367.419 294.069 367.15C293.801 366.873 293.432 366.734 292.964 366.734C292.479 366.734 292.093 366.881 291.807 367.176C291.53 367.471 291.391 367.895 291.391 368.45V373H290.221ZM300.304 373.13C299.594 373.13 299.017 372.892 298.575 372.415C298.142 371.938 297.925 371.293 297.925 370.478V368.385C297.925 367.562 298.142 366.912 298.575 366.435C299.009 365.958 299.585 365.72 300.304 365.72C300.894 365.72 301.366 365.88 301.721 366.201C302.077 366.522 302.254 366.951 302.254 367.488L302.02 367.215H302.28L302.254 365.59V363.51H303.424V373H302.254V371.635H302.02L302.254 371.362C302.254 371.908 302.077 372.341 301.721 372.662C301.366 372.974 300.894 373.13 300.304 373.13ZM300.694 372.116C301.18 372.116 301.561 371.964 301.838 371.661C302.116 371.358 302.254 370.937 302.254 370.4V368.45C302.254 367.913 302.116 367.492 301.838 367.189C301.561 366.886 301.18 366.734 300.694 366.734C300.2 366.734 299.81 366.881 299.524 367.176C299.238 367.471 299.095 367.895 299.095 368.45V370.4C299.095 370.955 299.238 371.379 299.524 371.674C299.81 371.969 300.2 372.116 300.694 372.116ZM313.606 373V363.51H316.544C317.107 363.51 317.601 363.627 318.026 363.861C318.451 364.086 318.78 364.403 319.014 364.81C319.248 365.217 319.365 365.694 319.365 366.24C319.365 366.881 319.196 367.432 318.858 367.891C318.529 368.35 318.078 368.667 317.506 368.84L319.495 373H318.117L316.297 368.97H314.776V373H313.606ZM314.776 367.917H316.544C317.029 367.917 317.419 367.765 317.714 367.462C318.009 367.15 318.156 366.743 318.156 366.24C318.156 365.729 318.009 365.321 317.714 365.018C317.419 364.715 317.029 364.563 316.544 364.563H314.776V367.917ZM324.105 373.13C323.542 373.13 323.048 373.017 322.623 372.792C322.207 372.567 321.882 372.25 321.648 371.843C321.423 371.427 321.31 370.946 321.31 370.4V368.45C321.31 367.895 321.423 367.414 321.648 367.007C321.882 366.6 322.207 366.283 322.623 366.058C323.048 365.833 323.542 365.72 324.105 365.72C324.668 365.72 325.158 365.833 325.574 366.058C325.999 366.283 326.324 366.6 326.549 367.007C326.783 367.414 326.9 367.895 326.9 368.45V369.711H322.454V370.4C322.454 370.963 322.597 371.397 322.883 371.7C323.169 371.995 323.576 372.142 324.105 372.142C324.556 372.142 324.92 372.064 325.197 371.908C325.474 371.743 325.643 371.501 325.704 371.18H326.874C326.796 371.778 326.501 372.255 325.99 372.61C325.487 372.957 324.859 373.13 324.105 373.13ZM325.756 368.931V368.45C325.756 367.887 325.613 367.453 325.327 367.15C325.05 366.847 324.642 366.695 324.105 366.695C323.576 366.695 323.169 366.847 322.883 367.15C322.597 367.453 322.454 367.887 322.454 368.45V368.827H325.847L325.756 368.931ZM331.952 373.13C331.38 373.13 330.877 373.022 330.444 372.805C330.019 372.588 329.69 372.276 329.456 371.869C329.222 371.453 329.105 370.963 329.105 370.4V368.45C329.105 367.878 329.222 367.388 329.456 366.981C329.69 366.574 330.019 366.262 330.444 366.045C330.877 365.828 331.38 365.72 331.952 365.72C332.775 365.72 333.438 365.941 333.941 366.383C334.444 366.825 334.708 367.427 334.734 368.19H333.564C333.538 367.731 333.382 367.38 333.096 367.137C332.819 366.886 332.437 366.76 331.952 366.76C331.441 366.76 331.033 366.907 330.73 367.202C330.427 367.488 330.275 367.9 330.275 368.437V370.4C330.275 370.937 330.427 371.353 330.73 371.648C331.033 371.943 331.441 372.09 331.952 372.09C332.437 372.09 332.819 371.964 333.096 371.713C333.382 371.462 333.538 371.111 333.564 370.66H334.734C334.708 371.423 334.444 372.025 333.941 372.467C333.438 372.909 332.775 373.13 331.952 373.13ZM339.695 373.13C339.132 373.13 338.638 373.017 338.213 372.792C337.797 372.567 337.472 372.25 337.238 371.843C337.013 371.427 336.9 370.946 336.9 370.4V368.45C336.9 367.895 337.013 367.414 337.238 367.007C337.472 366.6 337.797 366.283 338.213 366.058C338.638 365.833 339.132 365.72 339.695 365.72C340.258 365.72 340.748 365.833 341.164 366.058C341.589 366.283 341.914 366.6 342.139 367.007C342.373 367.414 342.49 367.895 342.49 368.45V369.711H338.044V370.4C338.044 370.963 338.187 371.397 338.473 371.7C338.759 371.995 339.166 372.142 339.695 372.142C340.146 372.142 340.51 372.064 340.787 371.908C341.064 371.743 341.233 371.501 341.294 371.18H342.464C342.386 371.778 342.091 372.255 341.58 372.61C341.077 372.957 340.449 373.13 339.695 373.13ZM341.346 368.931V368.45C341.346 367.887 341.203 367.453 340.917 367.15C340.64 366.847 340.232 366.695 339.695 366.695C339.166 366.695 338.759 366.847 338.473 367.15C338.187 367.453 338.044 367.887 338.044 368.45V368.827H341.437L341.346 368.931ZM344.695 373V371.934H347.23V366.916H345.02V365.85H348.4V371.934H350.805V373H344.695ZM347.685 364.563C347.399 364.563 347.174 364.489 347.009 364.342C346.844 364.195 346.762 363.995 346.762 363.744C346.762 363.484 346.844 363.28 347.009 363.133C347.174 362.977 347.399 362.899 347.685 362.899C347.971 362.899 348.196 362.977 348.361 363.133C348.526 363.28 348.608 363.484 348.608 363.744C348.608 363.995 348.526 364.195 348.361 364.342C348.196 364.489 347.971 364.563 347.685 364.563ZM352.581 375.34V365.85H353.751V367.215H353.985L353.751 367.488C353.751 366.942 353.928 366.513 354.284 366.201C354.648 365.88 355.124 365.72 355.714 365.72C356.433 365.72 357.005 365.958 357.43 366.435C357.863 366.903 358.08 367.549 358.08 368.372V370.465C358.08 371.011 357.98 371.483 357.781 371.882C357.59 372.281 357.317 372.588 356.962 372.805C356.615 373.022 356.199 373.13 355.714 373.13C355.133 373.13 354.661 372.97 354.297 372.649C353.933 372.328 353.751 371.899 353.751 371.362L353.985 371.635H353.725L353.751 373.26V375.34H352.581ZM355.324 372.116C355.818 372.116 356.203 371.969 356.481 371.674C356.767 371.379 356.91 370.955 356.91 370.4V368.45C356.91 367.895 356.767 367.471 356.481 367.176C356.203 366.881 355.818 366.734 355.324 366.734C354.847 366.734 354.466 366.886 354.18 367.189C353.894 367.492 353.751 367.913 353.751 368.45V370.4C353.751 370.937 353.894 371.358 354.18 371.661C354.466 371.964 354.847 372.116 355.324 372.116ZM363.86 373C363.244 373 362.763 372.835 362.417 372.506C362.079 372.177 361.91 371.713 361.91 371.115V366.916H359.895V365.85H361.91V363.835H363.08V365.85H365.94V366.916H363.08V371.115C363.08 371.661 363.34 371.934 363.86 371.934H365.81V373H363.86ZM370.654 373.104C370.168 373.104 369.744 373.03 369.38 372.883C369.024 372.727 368.738 372.51 368.522 372.233C368.314 371.956 368.188 371.626 368.145 371.245H369.315C369.367 371.496 369.505 371.696 369.731 371.843C369.965 371.99 370.272 372.064 370.654 372.064H371.2C371.659 372.064 372.001 371.973 372.227 371.791C372.452 371.6 372.565 371.349 372.565 371.037C372.565 370.734 372.461 370.495 372.253 370.322C372.053 370.14 371.754 370.019 371.356 369.958L370.394 369.802C369.692 369.681 369.167 369.464 368.821 369.152C368.483 368.831 368.314 368.368 368.314 367.761C368.314 367.12 368.517 366.626 368.925 366.279C369.332 365.924 369.943 365.746 370.758 365.746H371.252C371.936 365.746 372.487 365.906 372.903 366.227C373.319 366.548 373.57 366.981 373.657 367.527H372.487C372.435 367.302 372.305 367.124 372.097 366.994C371.889 366.855 371.607 366.786 371.252 366.786H370.758C370.316 366.786 369.991 366.868 369.783 367.033C369.583 367.198 369.484 367.445 369.484 367.774C369.484 368.069 369.57 368.285 369.744 368.424C369.917 368.563 370.19 368.662 370.563 368.723L371.525 368.879C372.296 369 372.855 369.226 373.202 369.555C373.557 369.884 373.735 370.361 373.735 370.985C373.735 371.644 373.522 372.164 373.098 372.545C372.682 372.918 372.049 373.104 371.2 373.104H370.654ZM387.244 373C386.629 373 386.148 372.835 385.801 372.506C385.463 372.177 385.294 371.713 385.294 371.115V366.916H383.279V365.85H385.294V363.835H386.464V365.85H389.324V366.916H386.464V371.115C386.464 371.661 386.724 371.934 387.244 371.934H389.194V373H387.244ZM394.259 373.104C393.687 373.104 393.193 372.996 392.777 372.779C392.361 372.562 392.036 372.25 391.802 371.843C391.577 371.427 391.464 370.937 391.464 370.374V368.476C391.464 367.904 391.577 367.414 391.802 367.007C392.036 366.6 392.361 366.288 392.777 366.071C393.193 365.854 393.687 365.746 394.259 365.746C394.831 365.746 395.325 365.854 395.741 366.071C396.157 366.288 396.478 366.6 396.703 367.007C396.937 367.414 397.054 367.9 397.054 368.463V370.374C397.054 370.937 396.937 371.427 396.703 371.843C396.478 372.25 396.157 372.562 395.741 372.779C395.325 372.996 394.831 373.104 394.259 373.104ZM394.259 372.064C394.771 372.064 395.169 371.921 395.455 371.635C395.741 371.349 395.884 370.929 395.884 370.374V368.476C395.884 367.921 395.741 367.501 395.455 367.215C395.169 366.929 394.771 366.786 394.259 366.786C393.757 366.786 393.358 366.929 393.063 367.215C392.777 367.501 392.634 367.921 392.634 368.476V370.374C392.634 370.929 392.777 371.349 393.063 371.635C393.358 371.921 393.757 372.064 394.259 372.064ZM409.836 373.13C409.013 373.13 408.354 372.887 407.86 372.402C407.366 371.908 407.119 371.241 407.119 370.4V365.85H408.289V370.4C408.289 370.937 408.428 371.358 408.705 371.661C408.983 371.956 409.36 372.103 409.836 372.103C410.322 372.103 410.703 371.956 410.98 371.661C411.266 371.358 411.409 370.937 411.409 370.4V365.85H412.579V370.4C412.579 371.241 412.328 371.908 411.825 372.402C411.323 372.887 410.66 373.13 409.836 373.13ZM414.94 373V365.85H416.11V367.215H416.357L416.11 367.488C416.11 366.925 416.279 366.491 416.617 366.188C416.955 365.876 417.423 365.72 418.021 365.72C418.74 365.72 419.312 365.941 419.737 366.383C420.162 366.825 420.374 367.427 420.374 368.19V373H419.204V368.32C419.204 367.809 419.065 367.419 418.788 367.15C418.519 366.873 418.151 366.734 417.683 366.734C417.198 366.734 416.812 366.881 416.526 367.176C416.249 367.471 416.11 367.895 416.11 368.45V373H414.94ZM426.414 373C425.998 373 425.634 372.918 425.322 372.753C425.01 372.588 424.767 372.354 424.594 372.051C424.421 371.748 424.334 371.392 424.334 370.985V364.576H421.929V363.51H425.504V370.985C425.504 371.28 425.586 371.514 425.751 371.687C425.916 371.852 426.137 371.934 426.414 371.934H428.689V373H426.414ZM433.234 373.104C432.662 373.104 432.168 372.996 431.752 372.779C431.336 372.562 431.011 372.25 430.777 371.843C430.552 371.427 430.439 370.937 430.439 370.374V368.476C430.439 367.904 430.552 367.414 430.777 367.007C431.011 366.6 431.336 366.288 431.752 366.071C432.168 365.854 432.662 365.746 433.234 365.746C433.806 365.746 434.3 365.854 434.716 366.071C435.132 366.288 435.453 366.6 435.678 367.007C435.912 367.414 436.029 367.9 436.029 368.463V370.374C436.029 370.937 435.912 371.427 435.678 371.843C435.453 372.25 435.132 372.562 434.716 372.779C434.3 372.996 433.806 373.104 433.234 373.104ZM433.234 372.064C433.745 372.064 434.144 371.921 434.43 371.635C434.716 371.349 434.859 370.929 434.859 370.374V368.476C434.859 367.921 434.716 367.501 434.43 367.215C434.144 366.929 433.745 366.786 433.234 366.786C432.731 366.786 432.333 366.929 432.038 367.215C431.752 367.501 431.609 367.921 431.609 368.476V370.374C431.609 370.929 431.752 371.349 432.038 371.635C432.333 371.921 432.731 372.064 433.234 372.064ZM441.081 373.13C440.509 373.13 440.006 373.022 439.573 372.805C439.148 372.588 438.819 372.276 438.585 371.869C438.351 371.453 438.234 370.963 438.234 370.4V368.45C438.234 367.878 438.351 367.388 438.585 366.981C438.819 366.574 439.148 366.262 439.573 366.045C440.006 365.828 440.509 365.72 441.081 365.72C441.904 365.72 442.567 365.941 443.07 366.383C443.573 366.825 443.837 367.427 443.863 368.19H442.693C442.667 367.731 442.511 367.38 442.225 367.137C441.948 366.886 441.566 366.76 441.081 366.76C440.57 366.76 440.162 366.907 439.859 367.202C439.556 367.488 439.404 367.9 439.404 368.437V370.4C439.404 370.937 439.556 371.353 439.859 371.648C440.162 371.943 440.57 372.09 441.081 372.09C441.566 372.09 441.948 371.964 442.225 371.713C442.511 371.462 442.667 371.111 442.693 370.66H443.863C443.837 371.423 443.573 372.025 443.07 372.467C442.567 372.909 441.904 373.13 441.081 373.13ZM446.159 373V363.51H447.329V368.801H448.707L450.787 365.85H452.126L449.721 369.256L452.165 373H450.8L448.72 369.815H447.329V373H446.159ZM461.749 373V363.497H467.339V364.563H462.893V367.722H467.001V368.788H462.919V373H461.749ZM469.804 373V363.51H470.974V371.934H475.264V373H469.804ZM477.3 373V363.51H480.238C480.801 363.51 481.295 363.627 481.72 363.861C482.144 364.086 482.474 364.403 482.708 364.81C482.942 365.217 483.059 365.694 483.059 366.24C483.059 366.881 482.89 367.432 482.552 367.891C482.222 368.35 481.772 368.667 481.2 368.84L483.189 373H481.811L479.991 368.97H478.47V373H477.3ZM478.47 367.917H480.238C480.723 367.917 481.113 367.765 481.408 367.462C481.702 367.15 481.85 366.743 481.85 366.24C481.85 365.729 481.702 365.321 481.408 365.018C481.113 364.715 480.723 364.563 480.238 364.563H478.47V367.917Z" fill="black"/>
<path d="M226.221 221.13C225.649 221.13 225.146 221.022 224.713 220.805C224.288 220.588 223.959 220.276 223.725 219.869C223.491 219.453 223.374 218.963 223.374 218.4V216.45C223.374 215.878 223.491 215.388 223.725 214.981C223.959 214.574 224.288 214.262 224.713 214.045C225.146 213.828 225.649 213.72 226.221 213.72C227.044 213.72 227.707 213.941 228.21 214.383C228.712 214.825 228.977 215.427 229.003 216.19H227.833C227.807 215.731 227.651 215.38 227.365 215.137C227.087 214.886 226.706 214.76 226.221 214.76C225.709 214.76 225.302 214.907 224.999 215.202C224.695 215.488 224.544 215.9 224.544 216.437V218.4C224.544 218.937 224.695 219.353 224.999 219.648C225.302 219.943 225.709 220.09 226.221 220.09C226.706 220.09 227.087 219.964 227.365 219.713C227.651 219.462 227.807 219.111 227.833 218.66H229.003C228.977 219.423 228.712 220.025 228.21 220.467C227.707 220.909 227.044 221.13 226.221 221.13ZM232.377 223.34L233.43 220.558L230.778 213.85H232.078L233.742 218.27C233.803 218.417 233.859 218.595 233.911 218.803C233.963 219.002 234.007 219.171 234.041 219.31C234.076 219.171 234.119 219.002 234.171 218.803C234.223 218.595 234.275 218.417 234.327 218.27L235.887 213.85H237.148L233.625 223.34H232.377ZM239.093 221V211.497H244.683V212.563H240.237V215.722H244.345V216.788H240.263V221H239.093ZM247.148 221V211.51H248.318V219.934H252.608V221H247.148ZM254.644 221V211.51H257.582C258.146 211.51 258.64 211.627 259.064 211.861C259.489 212.086 259.818 212.403 260.052 212.81C260.286 213.217 260.403 213.694 260.403 214.24C260.403 214.881 260.234 215.432 259.896 215.891C259.567 216.35 259.116 216.667 258.544 216.84L260.533 221H259.155L257.335 216.97H255.814V221H254.644ZM255.814 215.917H257.582C258.068 215.917 258.458 215.765 258.752 215.462C259.047 215.15 259.194 214.743 259.194 214.24C259.194 213.729 259.047 213.321 258.752 213.018C258.458 212.715 258.068 212.563 257.582 212.563H255.814V215.917ZM270.013 222.43L274.628 210.21H275.863L271.248 222.43H270.013ZM285.824 221V211.51H288.762C289.325 211.51 289.819 211.627 290.244 211.861C290.669 212.086 290.998 212.403 291.232 212.81C291.466 213.217 291.583 213.694 291.583 214.24C291.583 214.881 291.414 215.432 291.076 215.891C290.747 216.35 290.296 216.667 289.724 216.84L291.713 221H290.335L288.515 216.97H286.994V221H285.824ZM286.994 215.917H288.762C289.247 215.917 289.637 215.765 289.932 215.462C290.227 215.15 290.374 214.743 290.374 214.24C290.374 213.729 290.227 213.321 289.932 213.018C289.637 212.715 289.247 212.563 288.762 212.563H286.994V215.917ZM296.323 221.13C295.76 221.13 295.266 221.017 294.841 220.792C294.425 220.567 294.1 220.25 293.866 219.843C293.641 219.427 293.528 218.946 293.528 218.4V216.45C293.528 215.895 293.641 215.414 293.866 215.007C294.1 214.6 294.425 214.283 294.841 214.058C295.266 213.833 295.76 213.72 296.323 213.72C296.886 213.72 297.376 213.833 297.792 214.058C298.217 214.283 298.542 214.6 298.767 215.007C299.001 215.414 299.118 215.895 299.118 216.45V217.711H294.672V218.4C294.672 218.963 294.815 219.397 295.101 219.7C295.387 219.995 295.794 220.142 296.323 220.142C296.774 220.142 297.138 220.064 297.415 219.908C297.692 219.743 297.861 219.501 297.922 219.18H299.092C299.014 219.778 298.719 220.255 298.208 220.61C297.705 220.957 297.077 221.13 296.323 221.13ZM297.974 216.931V216.45C297.974 215.887 297.831 215.453 297.545 215.15C297.268 214.847 296.86 214.695 296.323 214.695C295.794 214.695 295.387 214.847 295.101 215.15C294.815 215.453 294.672 215.887 294.672 216.45V216.827H298.065L297.974 216.931ZM304.17 221.13C303.598 221.13 303.095 221.022 302.662 220.805C302.237 220.588 301.908 220.276 301.674 219.869C301.44 219.453 301.323 218.963 301.323 218.4V216.45C301.323 215.878 301.44 215.388 301.674 214.981C301.908 214.574 302.237 214.262 302.662 214.045C303.095 213.828 303.598 213.72 304.17 213.72C304.993 213.72 305.656 213.941 306.159 214.383C306.661 214.825 306.926 215.427 306.952 216.19H305.782C305.756 215.731 305.6 215.38 305.314 215.137C305.036 214.886 304.655 214.76 304.17 214.76C303.658 214.76 303.251 214.907 302.948 215.202C302.644 215.488 302.493 215.9 302.493 216.437V218.4C302.493 218.937 302.644 219.353 302.948 219.648C303.251 219.943 303.658 220.09 304.17 220.09C304.655 220.09 305.036 219.964 305.314 219.713C305.6 219.462 305.756 219.111 305.782 218.66H306.952C306.926 219.423 306.661 220.025 306.159 220.467C305.656 220.909 304.993 221.13 304.17 221.13ZM311.913 221.13C311.349 221.13 310.855 221.017 310.431 220.792C310.015 220.567 309.69 220.25 309.456 219.843C309.23 219.427 309.118 218.946 309.118 218.4V216.45C309.118 215.895 309.23 215.414 309.456 215.007C309.69 214.6 310.015 214.283 310.431 214.058C310.855 213.833 311.349 213.72 311.913 213.72C312.476 213.72 312.966 213.833 313.382 214.058C313.806 214.283 314.131 214.6 314.357 215.007C314.591 215.414 314.708 215.895 314.708 216.45V217.711H310.262V218.4C310.262 218.963 310.405 219.397 310.691 219.7C310.977 219.995 311.384 220.142 311.913 220.142C312.363 220.142 312.727 220.064 313.005 219.908C313.282 219.743 313.451 219.501 313.512 219.18H314.682C314.604 219.778 314.309 220.255 313.798 220.61C313.295 220.957 312.667 221.13 311.913 221.13ZM313.564 216.931V216.45C313.564 215.887 313.421 215.453 313.135 215.15C312.857 214.847 312.45 214.695 311.913 214.695C311.384 214.695 310.977 214.847 310.691 215.15C310.405 215.453 310.262 215.887 310.262 216.45V216.827H313.655L313.564 216.931ZM316.913 221V219.934H319.448V214.916H317.238V213.85H320.618V219.934H323.023V221H316.913ZM319.903 212.563C319.617 212.563 319.391 212.489 319.227 212.342C319.062 212.195 318.98 211.995 318.98 211.744C318.98 211.484 319.062 211.28 319.227 211.133C319.391 210.977 319.617 210.899 319.903 210.899C320.189 210.899 320.414 210.977 320.579 211.133C320.743 211.28 320.826 211.484 320.826 211.744C320.826 211.995 320.743 212.195 320.579 212.342C320.414 212.489 320.189 212.563 319.903 212.563ZM324.799 223.34V213.85H325.969V215.215H326.203L325.969 215.488C325.969 214.942 326.146 214.513 326.502 214.201C326.866 213.88 327.342 213.72 327.932 213.72C328.651 213.72 329.223 213.958 329.648 214.435C330.081 214.903 330.298 215.549 330.298 216.372V218.465C330.298 219.011 330.198 219.483 329.999 219.882C329.808 220.281 329.535 220.588 329.18 220.805C328.833 221.022 328.417 221.13 327.932 221.13C327.351 221.13 326.879 220.97 326.515 220.649C326.151 220.328 325.969 219.899 325.969 219.362L326.203 219.635H325.943L325.969 221.26V223.34H324.799ZM327.542 220.116C328.036 220.116 328.421 219.969 328.699 219.674C328.985 219.379 329.128 218.955 329.128 218.4V216.45C329.128 215.895 328.985 215.471 328.699 215.176C328.421 214.881 328.036 214.734 327.542 214.734C327.065 214.734 326.684 214.886 326.398 215.189C326.112 215.492 325.969 215.913 325.969 216.45V218.4C325.969 218.937 326.112 219.358 326.398 219.661C326.684 219.964 327.065 220.116 327.542 220.116ZM336.077 221C335.462 221 334.981 220.835 334.634 220.506C334.296 220.177 334.127 219.713 334.127 219.115V214.916H332.112V213.85H334.127V211.835H335.297V213.85H338.157V214.916H335.297V219.115C335.297 219.661 335.557 219.934 336.077 219.934H338.027V221H336.077ZM348.183 223.34V213.85H349.353V215.215H349.587L349.353 215.488C349.353 214.942 349.531 214.513 349.886 214.201C350.25 213.88 350.727 213.72 351.316 213.72C352.036 213.72 352.608 213.958 353.032 214.435C353.466 214.903 353.682 215.549 353.682 216.372V218.465C353.682 219.011 353.583 219.483 353.383 219.882C353.193 220.281 352.92 220.588 352.564 220.805C352.218 221.022 351.802 221.13 351.316 221.13C350.736 221.13 350.263 220.97 349.899 220.649C349.535 220.328 349.353 219.899 349.353 219.362L349.587 219.635H349.327L349.353 221.26V223.34H348.183ZM350.926 220.116C351.42 220.116 351.806 219.969 352.083 219.674C352.369 219.379 352.512 218.955 352.512 218.4V216.45C352.512 215.895 352.369 215.471 352.083 215.176C351.806 214.881 351.42 214.734 350.926 214.734C350.45 214.734 350.068 214.886 349.782 215.189C349.496 215.492 349.353 215.913 349.353 216.45V218.4C349.353 218.937 349.496 219.358 349.782 219.661C350.068 219.964 350.45 220.116 350.926 220.116ZM356.225 221V213.85H357.369V215.215H357.642L357.265 216.06C357.265 215.289 357.43 214.708 357.759 214.318C358.097 213.919 358.596 213.72 359.254 213.72C360.008 213.72 360.606 213.958 361.048 214.435C361.499 214.903 361.724 215.54 361.724 216.346V216.775H360.554V216.45C360.554 215.887 360.416 215.458 360.138 215.163C359.87 214.86 359.484 214.708 358.981 214.708C358.487 214.708 358.097 214.86 357.811 215.163C357.534 215.466 357.395 215.895 357.395 216.45V221H356.225ZM363.682 221V219.934H366.217V214.916H364.007V213.85H367.387V219.934H369.792V221H363.682ZM366.672 212.563C366.386 212.563 366.161 212.489 365.996 212.342C365.831 212.195 365.749 211.995 365.749 211.744C365.749 211.484 365.831 211.28 365.996 211.133C366.161 210.977 366.386 210.899 366.672 210.899C366.958 210.899 367.183 210.977 367.348 211.133C367.513 211.28 367.595 211.484 367.595 211.744C367.595 211.995 367.513 212.195 367.348 212.342C367.183 212.489 366.958 212.563 366.672 212.563ZM374.324 221.13C373.752 221.13 373.249 221.022 372.816 220.805C372.391 220.588 372.062 220.276 371.828 219.869C371.594 219.453 371.477 218.963 371.477 218.4V216.45C371.477 215.878 371.594 215.388 371.828 214.981C372.062 214.574 372.391 214.262 372.816 214.045C373.249 213.828 373.752 213.72 374.324 213.72C375.147 213.72 375.81 213.941 376.313 214.383C376.816 214.825 377.08 215.427 377.106 216.19H375.936C375.91 215.731 375.754 215.38 375.468 215.137C375.191 214.886 374.809 214.76 374.324 214.76C373.813 214.76 373.405 214.907 373.102 215.202C372.799 215.488 372.647 215.9 372.647 216.437V218.4C372.647 218.937 372.799 219.353 373.102 219.648C373.405 219.943 373.813 220.09 374.324 220.09C374.809 220.09 375.191 219.964 375.468 219.713C375.754 219.462 375.91 219.111 375.936 218.66H377.106C377.08 219.423 376.816 220.025 376.313 220.467C375.81 220.909 375.147 221.13 374.324 221.13ZM382.067 221.13C381.504 221.13 381.01 221.017 380.585 220.792C380.169 220.567 379.844 220.25 379.61 219.843C379.385 219.427 379.272 218.946 379.272 218.4V216.45C379.272 215.895 379.385 215.414 379.61 215.007C379.844 214.6 380.169 214.283 380.585 214.058C381.01 213.833 381.504 213.72 382.067 213.72C382.63 213.72 383.12 213.833 383.536 214.058C383.961 214.283 384.286 214.6 384.511 215.007C384.745 215.414 384.862 215.895 384.862 216.45V217.711H380.416V218.4C380.416 218.963 380.559 219.397 380.845 219.7C381.131 219.995 381.538 220.142 382.067 220.142C382.518 220.142 382.882 220.064 383.159 219.908C383.436 219.743 383.605 219.501 383.666 219.18H384.836C384.758 219.778 384.463 220.255 383.952 220.61C383.449 220.957 382.821 221.13 382.067 221.13ZM383.718 216.931V216.45C383.718 215.887 383.575 215.453 383.289 215.15C383.012 214.847 382.604 214.695 382.067 214.695C381.538 214.695 381.131 214.847 380.845 215.15C380.559 215.453 380.416 215.887 380.416 216.45V216.827H383.809L383.718 216.931ZM394.862 215.67V214.63H400.452V215.67H394.862ZM394.862 218.79V217.75H400.452V218.79H394.862ZM410.582 221V211.497H416.172V212.563H411.726V215.722H415.834V216.788H411.752V221H410.582ZM418.637 221V211.51H419.807V219.934H424.097V221H418.637ZM426.133 221V211.51H429.071C429.634 211.51 430.128 211.627 430.553 211.861C430.977 212.086 431.307 212.403 431.541 212.81C431.775 213.217 431.892 213.694 431.892 214.24C431.892 214.881 431.723 215.432 431.385 215.891C431.055 216.35 430.605 216.667 430.033 216.84L432.022 221H430.644L428.824 216.97H427.303V221H426.133ZM427.303 215.917H429.071C429.556 215.917 429.946 215.765 430.241 215.462C430.535 215.15 430.683 214.743 430.683 214.24C430.683 213.729 430.535 213.321 430.241 213.018C429.946 212.715 429.556 212.563 429.071 212.563H427.303V215.917ZM254.618 243V241.934H257.192V234.485L254.618 236.409V235.109L256.763 233.51H258.362V241.934H260.468V243H254.618ZM265.143 243.13C264.562 243.13 264.055 243.017 263.622 242.792C263.197 242.558 262.868 242.233 262.634 241.817C262.4 241.392 262.283 240.898 262.283 240.335V236.175C262.283 235.603 262.4 235.109 262.634 234.693C262.868 234.277 263.197 233.956 263.622 233.731C264.055 233.497 264.562 233.38 265.143 233.38C265.732 233.38 266.239 233.497 266.664 233.731C267.089 233.956 267.418 234.277 267.652 234.693C267.886 235.109 268.003 235.603 268.003 236.175V240.335C268.003 240.898 267.886 241.392 267.652 241.817C267.418 242.233 267.084 242.558 266.651 242.792C266.226 243.017 265.724 243.13 265.143 243.13ZM265.143 242.129C265.663 242.129 266.079 241.964 266.391 241.635C266.712 241.297 266.872 240.864 266.872 240.335V236.175C266.872 235.646 266.712 235.217 266.391 234.888C266.079 234.55 265.663 234.381 265.143 234.381C264.623 234.381 264.203 234.55 263.882 234.888C263.57 235.217 263.414 235.646 263.414 236.175V240.335C263.414 240.864 263.57 241.297 263.882 241.635C264.203 241.964 264.623 242.129 265.143 242.129ZM265.143 239.022C264.909 239.022 264.718 238.948 264.571 238.801C264.432 238.654 264.363 238.459 264.363 238.216C264.363 237.982 264.432 237.796 264.571 237.657C264.718 237.51 264.909 237.436 265.143 237.436C265.377 237.436 265.563 237.51 265.702 237.657C265.849 237.796 265.923 237.982 265.923 238.216C265.923 238.459 265.849 238.654 265.702 238.801C265.563 238.948 265.377 239.022 265.143 239.022ZM277.808 244.43L282.423 232.21H283.658L279.043 244.43H277.808ZM296.323 243.13C295.742 243.13 295.235 243.017 294.802 242.792C294.377 242.558 294.048 242.233 293.814 241.817C293.58 241.392 293.463 240.898 293.463 240.335V236.175C293.463 235.603 293.58 235.109 293.814 234.693C294.048 234.277 294.377 233.956 294.802 233.731C295.235 233.497 295.742 233.38 296.323 233.38C296.912 233.38 297.419 233.497 297.844 233.731C298.269 233.956 298.598 234.277 298.832 234.693C299.066 235.109 299.183 235.603 299.183 236.175V240.335C299.183 240.898 299.066 241.392 298.832 241.817C298.598 242.233 298.264 242.558 297.831 242.792C297.406 243.017 296.904 243.13 296.323 243.13ZM296.323 242.129C296.843 242.129 297.259 241.964 297.571 241.635C297.892 241.297 298.052 240.864 298.052 240.335V236.175C298.052 235.646 297.892 235.217 297.571 234.888C297.259 234.55 296.843 234.381 296.323 234.381C295.803 234.381 295.383 234.55 295.062 234.888C294.75 235.217 294.594 235.646 294.594 236.175V240.335C294.594 240.864 294.75 241.297 295.062 241.635C295.383 241.964 295.803 242.129 296.323 242.129ZM296.323 239.022C296.089 239.022 295.898 238.948 295.751 238.801C295.612 238.654 295.543 238.459 295.543 238.216C295.543 237.982 295.612 237.796 295.751 237.657C295.898 237.51 296.089 237.436 296.323 237.436C296.557 237.436 296.743 237.51 296.882 237.657C297.029 237.796 297.103 237.982 297.103 238.216C297.103 238.459 297.029 238.654 296.882 238.801C296.743 238.948 296.557 239.022 296.323 239.022ZM304.118 243.13C303.788 243.13 303.524 243.035 303.325 242.844C303.134 242.653 303.039 242.398 303.039 242.077C303.039 241.739 303.134 241.47 303.325 241.271C303.524 241.072 303.788 240.972 304.118 240.972C304.447 240.972 304.707 241.072 304.898 241.271C305.097 241.47 305.197 241.739 305.197 242.077C305.197 242.398 305.097 242.653 304.898 242.844C304.707 243.035 304.447 243.13 304.118 243.13ZM311.913 243.13C311.332 243.13 310.825 243.017 310.392 242.792C309.967 242.558 309.638 242.233 309.404 241.817C309.17 241.392 309.053 240.898 309.053 240.335V236.175C309.053 235.603 309.17 235.109 309.404 234.693C309.638 234.277 309.967 233.956 310.392 233.731C310.825 233.497 311.332 233.38 311.913 233.38C312.502 233.38 313.009 233.497 313.434 233.731C313.858 233.956 314.188 234.277 314.422 234.693C314.656 235.109 314.773 235.603 314.773 236.175V240.335C314.773 240.898 314.656 241.392 314.422 241.817C314.188 242.233 313.854 242.558 313.421 242.792C312.996 243.017 312.493 243.13 311.913 243.13ZM311.913 242.129C312.433 242.129 312.849 241.964 313.161 241.635C313.481 241.297 313.642 240.864 313.642 240.335V236.175C313.642 235.646 313.481 235.217 313.161 234.888C312.849 234.55 312.433 234.381 311.913 234.381C311.393 234.381 310.972 234.55 310.652 234.888C310.34 235.217 310.184 235.646 310.184 236.175V240.335C310.184 240.864 310.34 241.297 310.652 241.635C310.972 241.964 311.393 242.129 311.913 242.129ZM311.913 239.022C311.679 239.022 311.488 238.948 311.341 238.801C311.202 238.654 311.133 238.459 311.133 238.216C311.133 237.982 311.202 237.796 311.341 237.657C311.488 237.51 311.679 237.436 311.913 237.436C312.147 237.436 312.333 237.51 312.472 237.657C312.619 237.796 312.693 237.982 312.693 238.216C312.693 238.459 312.619 238.654 312.472 238.801C312.333 238.948 312.147 239.022 311.913 239.022ZM317.004 243V241.804L319.903 238.723C320.397 238.194 320.756 237.726 320.982 237.319C321.207 236.903 321.32 236.504 321.32 236.123C321.32 235.594 321.172 235.178 320.878 234.875C320.592 234.572 320.197 234.42 319.695 234.42C319.14 234.42 318.702 234.576 318.382 234.888C318.07 235.2 317.914 235.629 317.914 236.175H316.744C316.761 235.603 316.891 235.109 317.134 234.693C317.385 234.268 317.727 233.943 318.161 233.718C318.603 233.493 319.114 233.38 319.695 233.38C320.267 233.38 320.761 233.493 321.177 233.718C321.601 233.935 321.926 234.247 322.152 234.654C322.377 235.061 322.49 235.547 322.49 236.11C322.49 236.647 322.347 237.18 322.061 237.709C321.775 238.238 321.307 238.84 320.657 239.516L318.317 241.934H322.646V243H317.004ZM332.502 237.67V236.63H338.092V237.67H332.502ZM332.502 240.79V239.75H338.092V240.79H332.502ZM350.874 243.13C349.999 243.13 349.297 242.913 348.768 242.48C348.24 242.038 347.949 241.44 347.897 240.686H349.522C349.557 241.015 349.687 241.271 349.912 241.453C350.146 241.626 350.467 241.713 350.874 241.713C351.325 241.713 351.667 241.596 351.901 241.362C352.135 241.119 352.252 240.786 352.252 240.361V239.438C352.252 239.005 352.135 238.675 351.901 238.45C351.667 238.216 351.325 238.099 350.874 238.099C350.597 238.099 350.359 238.155 350.159 238.268C349.96 238.381 349.808 238.537 349.704 238.736H348.118L348.183 233.51H353.526V234.979H349.717L349.691 237.735H350.068L349.678 238.06C349.678 237.661 349.834 237.349 350.146 237.124C350.467 236.89 350.896 236.773 351.433 236.773C352.205 236.764 352.803 236.998 353.227 237.475C353.661 237.943 353.877 238.597 353.877 239.438V240.361C353.877 241.219 353.609 241.895 353.071 242.389C352.543 242.883 351.81 243.13 350.874 243.13ZM358.682 243.13C358.067 243.13 357.534 243.013 357.083 242.779C356.633 242.545 356.282 242.216 356.03 241.791C355.788 241.366 355.666 240.868 355.666 240.296V236.214C355.666 235.642 355.788 235.144 356.03 234.719C356.282 234.294 356.633 233.965 357.083 233.731C357.534 233.497 358.067 233.38 358.682 233.38C359.306 233.38 359.839 233.497 360.281 233.731C360.732 233.965 361.079 234.294 361.321 234.719C361.573 235.144 361.698 235.642 361.698 236.214V240.296C361.698 240.868 361.573 241.366 361.321 241.791C361.079 242.216 360.732 242.545 360.281 242.779C359.831 243.013 359.298 243.13 358.682 243.13ZM358.682 241.726C359.133 241.726 359.493 241.596 359.761 241.336C360.03 241.076 360.164 240.729 360.164 240.296V236.214C360.164 235.781 360.03 235.434 359.761 235.174C359.493 234.914 359.133 234.784 358.682 234.784C358.232 234.784 357.872 234.914 357.603 235.174C357.335 235.434 357.2 235.781 357.2 236.214V240.296C357.2 240.729 357.335 241.076 357.603 241.336C357.872 241.596 358.232 241.726 358.682 241.726ZM358.682 239.1C358.431 239.1 358.223 239.018 358.058 238.853C357.902 238.688 357.824 238.476 357.824 238.216C357.824 237.956 357.902 237.748 358.058 237.592C358.214 237.436 358.422 237.358 358.682 237.358C358.942 237.358 359.15 237.436 359.306 237.592C359.462 237.748 359.54 237.956 359.54 238.216C359.54 238.476 359.462 238.688 359.306 238.853C359.15 239.018 358.942 239.1 358.682 239.1ZM366.477 243.13C365.862 243.13 365.329 243.013 364.878 242.779C364.427 242.545 364.076 242.216 363.825 241.791C363.582 241.366 363.461 240.868 363.461 240.296V236.214C363.461 235.642 363.582 235.144 363.825 234.719C364.076 234.294 364.427 233.965 364.878 233.731C365.329 233.497 365.862 233.38 366.477 233.38C367.101 233.38 367.634 233.497 368.076 233.731C368.527 233.965 368.873 234.294 369.116 234.719C369.367 235.144 369.493 235.642 369.493 236.214V240.296C369.493 240.868 369.367 241.366 369.116 241.791C368.873 242.216 368.527 242.545 368.076 242.779C367.625 243.013 367.092 243.13 366.477 243.13ZM366.477 241.726C366.928 241.726 367.287 241.596 367.556 241.336C367.825 241.076 367.959 240.729 367.959 240.296V236.214C367.959 235.781 367.825 235.434 367.556 235.174C367.287 234.914 366.928 234.784 366.477 234.784C366.026 234.784 365.667 234.914 365.398 235.174C365.129 235.434 364.995 235.781 364.995 236.214V240.296C364.995 240.729 365.129 241.076 365.398 241.336C365.667 241.596 366.026 241.726 366.477 241.726ZM366.477 239.1C366.226 239.1 366.018 239.018 365.853 238.853C365.697 238.688 365.619 238.476 365.619 238.216C365.619 237.956 365.697 237.748 365.853 237.592C366.009 237.436 366.217 237.358 366.477 237.358C366.737 237.358 366.945 237.436 367.101 237.592C367.257 237.748 367.335 237.956 367.335 238.216C367.335 238.476 367.257 238.688 367.101 238.853C366.945 239.018 366.737 239.1 366.477 239.1ZM379.207 243V233.51H385.109V235.018H380.806V237.553H384.771V239.061H380.832V243H379.207ZM387.301 243V233.51H388.926V241.492H392.956V243H387.301ZM394.745 243V233.51H397.748C398.381 233.51 398.927 233.627 399.386 233.861C399.854 234.095 400.218 234.424 400.478 234.849C400.738 235.265 400.868 235.759 400.868 236.331C400.868 236.955 400.708 237.505 400.387 237.982C400.075 238.459 399.65 238.797 399.113 238.996L400.998 243H399.178L397.527 239.23H396.37V243H394.745ZM396.37 237.8H397.748C398.207 237.8 398.567 237.674 398.827 237.423C399.087 237.172 399.217 236.825 399.217 236.383C399.217 235.932 399.087 235.581 398.827 235.33C398.567 235.07 398.207 234.94 397.748 234.94H396.37V237.8Z" fill="black"/>
<rect width="118" height="55" transform="translate(44 109)" fill="#1E26E8"/>
<path d="M72.9903 141V139.934H75.5643V132.485L72.9903 134.409V133.109L75.1353 131.51H76.7343V139.934H78.8403V141H72.9903ZM83.5152 141.13C82.9346 141.13 82.4276 141.017 81.9942 140.792C81.5696 140.558 81.2402 140.233 81.0062 139.817C80.7722 139.392 80.6552 138.898 80.6552 138.335V134.175C80.6552 133.603 80.7722 133.109 81.0062 132.693C81.2402 132.277 81.5696 131.956 81.9942 131.731C82.4276 131.497 82.9346 131.38 83.5152 131.38C84.1046 131.38 84.6116 131.497 85.0362 131.731C85.4609 131.956 85.7902 132.277 86.0242 132.693C86.2582 133.109 86.3752 133.603 86.3752 134.175V138.335C86.3752 138.898 86.2582 139.392 86.0242 139.817C85.7902 140.233 85.4566 140.558 85.0232 140.792C84.5986 141.017 84.0959 141.13 83.5152 141.13ZM83.5152 140.129C84.0352 140.129 84.4512 139.964 84.7632 139.635C85.0839 139.297 85.2442 138.864 85.2442 138.335V134.175C85.2442 133.646 85.0839 133.217 84.7632 132.888C84.4512 132.55 84.0352 132.381 83.5152 132.381C82.9952 132.381 82.5749 132.55 82.2542 132.888C81.9422 133.217 81.7862 133.646 81.7862 134.175V138.335C81.7862 138.864 81.9422 139.297 82.2542 139.635C82.5749 139.964 82.9952 140.129 83.5152 140.129ZM83.5152 137.022C83.2812 137.022 83.0906 136.948 82.9432 136.801C82.8046 136.654 82.7352 136.459 82.7352 136.216C82.7352 135.982 82.8046 135.796 82.9432 135.657C83.0906 135.51 83.2812 135.436 83.5152 135.436C83.7492 135.436 83.9356 135.51 84.0742 135.657C84.2216 135.796 84.2952 135.982 84.2952 136.216C84.2952 136.459 84.2216 136.654 84.0742 136.801C83.9356 136.948 83.7492 137.022 83.5152 137.022ZM99.1571 141.13C98.5851 141.13 98.0824 141.022 97.6491 140.805C97.2244 140.588 96.8951 140.276 96.6611 139.869C96.4271 139.453 96.3101 138.963 96.3101 138.4V136.45C96.3101 135.878 96.4271 135.388 96.6611 134.981C96.8951 134.574 97.2244 134.262 97.6491 134.045C98.0824 133.828 98.5851 133.72 99.1571 133.72C99.9804 133.72 100.643 133.941 101.146 134.383C101.649 134.825 101.913 135.427 101.939 136.19H100.769C100.743 135.731 100.587 135.38 100.301 135.137C100.024 134.886 99.6424 134.76 99.1571 134.76C98.6457 134.76 98.2384 134.907 97.9351 135.202C97.6317 135.488 97.4801 135.9 97.4801 136.437V138.4C97.4801 138.937 97.6317 139.353 97.9351 139.648C98.2384 139.943 98.6457 140.09 99.1571 140.09C99.6424 140.09 100.024 139.964 100.301 139.713C100.587 139.462 100.743 139.111 100.769 138.66H101.939C101.913 139.423 101.649 140.025 101.146 140.467C100.643 140.909 99.9804 141.13 99.1571 141.13ZM105.314 143.34L106.367 140.558L103.715 133.85H105.015L106.679 138.27C106.74 138.417 106.796 138.595 106.848 138.803C106.9 139.002 106.943 139.171 106.978 139.31C107.013 139.171 107.056 139.002 107.108 138.803C107.16 138.595 107.212 138.417 107.264 138.27L108.824 133.85H110.085L106.562 143.34H105.314ZM112.03 141V131.497H117.62V132.563H113.174V135.722H117.282V136.788H113.2V141H112.03ZM120.085 141V131.51H121.255V139.934H125.545V141H120.085ZM127.581 141V131.51H130.519C131.082 131.51 131.576 131.627 132.001 131.861C132.425 132.086 132.755 132.403 132.989 132.81C133.223 133.217 133.34 133.694 133.34 134.24C133.34 134.881 133.171 135.432 132.833 135.891C132.503 136.35 132.053 136.667 131.481 136.84L133.47 141H132.092L130.272 136.97H128.751V141H127.581ZM128.751 135.917H130.519C131.004 135.917 131.394 135.765 131.689 135.462C131.983 135.15 132.131 134.743 132.131 134.24C132.131 133.729 131.983 133.321 131.689 133.018C131.394 132.715 131.004 132.563 130.519 132.563H128.751V135.917Z" fill="white"/>
<rect width="118" height="55" transform="translate(44 239)" fill="#1E26E8"/>
<path d="M61.2979 262.5V261.434H63.8719V253.985L61.2979 255.909V254.609L63.4429 253.01H65.0419V261.434H67.1479V262.5H61.2979ZM71.8229 262.63C71.2422 262.63 70.7352 262.517 70.3019 262.292C69.8772 262.058 69.5479 261.733 69.3139 261.317C69.0799 260.892 68.9629 260.398 68.9629 259.835V255.675C68.9629 255.103 69.0799 254.609 69.3139 254.193C69.5479 253.777 69.8772 253.456 70.3019 253.231C70.7352 252.997 71.2422 252.88 71.8229 252.88C72.4122 252.88 72.9192 252.997 73.3439 253.231C73.7685 253.456 74.0979 253.777 74.3319 254.193C74.5659 254.609 74.6829 255.103 74.6829 255.675V259.835C74.6829 260.398 74.5659 260.892 74.3319 261.317C74.0979 261.733 73.7642 262.058 73.3309 262.292C72.9062 262.517 72.4035 262.63 71.8229 262.63ZM71.8229 261.629C72.3429 261.629 72.7589 261.464 73.0709 261.135C73.3915 260.797 73.5519 260.364 73.5519 259.835V255.675C73.5519 255.146 73.3915 254.717 73.0709 254.388C72.7589 254.05 72.3429 253.881 71.8229 253.881C71.3029 253.881 70.8825 254.05 70.5619 254.388C70.2499 254.717 70.0939 255.146 70.0939 255.675V259.835C70.0939 260.364 70.2499 260.797 70.5619 261.135C70.8825 261.464 71.3029 261.629 71.8229 261.629ZM71.8229 258.522C71.5889 258.522 71.3982 258.448 71.2509 258.301C71.1122 258.154 71.0429 257.959 71.0429 257.716C71.0429 257.482 71.1122 257.296 71.2509 257.157C71.3982 257.01 71.5889 256.936 71.8229 256.936C72.0569 256.936 72.2432 257.01 72.3819 257.157C72.5292 257.296 72.6029 257.482 72.6029 257.716C72.6029 257.959 72.5292 258.154 72.3819 258.301C72.2432 258.448 72.0569 258.522 71.8229 258.522ZM84.7087 262.5V253.01H87.6467C88.21 253.01 88.704 253.127 89.1287 253.361C89.5534 253.586 89.8827 253.903 90.1167 254.31C90.3507 254.717 90.4677 255.194 90.4677 255.74C90.4677 256.381 90.2987 256.932 89.9607 257.391C89.6314 257.85 89.1807 258.167 88.6087 258.34L90.5977 262.5H89.2197L87.3997 258.47H85.8787V262.5H84.7087ZM85.8787 257.417H87.6467C88.132 257.417 88.522 257.265 88.8167 256.962C89.1114 256.65 89.2587 256.243 89.2587 255.74C89.2587 255.229 89.1114 254.821 88.8167 254.518C88.522 254.215 88.132 254.063 87.6467 254.063H85.8787V257.417ZM95.2076 262.63C94.6443 262.63 94.1503 262.517 93.7256 262.292C93.3096 262.067 92.9846 261.75 92.7506 261.343C92.5253 260.927 92.4126 260.446 92.4126 259.9V257.95C92.4126 257.395 92.5253 256.914 92.7506 256.507C92.9846 256.1 93.3096 255.783 93.7256 255.558C94.1503 255.333 94.6443 255.22 95.2076 255.22C95.771 255.22 96.2606 255.333 96.6766 255.558C97.1013 255.783 97.4263 256.1 97.6516 256.507C97.8856 256.914 98.0026 257.395 98.0026 257.95V259.211H93.5566V259.9C93.5566 260.463 93.6996 260.897 93.9856 261.2C94.2716 261.495 94.679 261.642 95.2076 261.642C95.6583 261.642 96.0223 261.564 96.2996 261.408C96.577 261.243 96.746 261.001 96.8066 260.68H97.9766C97.8986 261.278 97.604 261.755 97.0926 262.11C96.59 262.457 95.9616 262.63 95.2076 262.63ZM96.8586 258.431V257.95C96.8586 257.387 96.7156 256.953 96.4296 256.65C96.1523 256.347 95.745 256.195 95.2076 256.195C94.679 256.195 94.2716 256.347 93.9856 256.65C93.6996 256.953 93.5566 257.387 93.5566 257.95V258.327H96.9496L96.8586 258.431ZM103.055 262.63C102.483 262.63 101.98 262.522 101.547 262.305C101.122 262.088 100.793 261.776 100.559 261.369C100.325 260.953 100.208 260.463 100.208 259.9V257.95C100.208 257.378 100.325 256.888 100.559 256.481C100.793 256.074 101.122 255.762 101.547 255.545C101.98 255.328 102.483 255.22 103.055 255.22C103.878 255.22 104.541 255.441 105.044 255.883C105.546 256.325 105.811 256.927 105.837 257.69H104.667C104.641 257.231 104.485 256.88 104.199 256.637C103.921 256.386 103.54 256.26 103.055 256.26C102.543 256.26 102.136 256.407 101.833 256.702C101.529 256.988 101.378 257.4 101.378 257.937V259.9C101.378 260.437 101.529 260.853 101.833 261.148C102.136 261.443 102.543 261.59 103.055 261.59C103.54 261.59 103.921 261.464 104.199 261.213C104.485 260.962 104.641 260.611 104.667 260.16H105.837C105.811 260.923 105.546 261.525 105.044 261.967C104.541 262.409 103.878 262.63 103.055 262.63ZM110.797 262.63C110.234 262.63 109.74 262.517 109.315 262.292C108.899 262.067 108.574 261.75 108.34 261.343C108.115 260.927 108.002 260.446 108.002 259.9V257.95C108.002 257.395 108.115 256.914 108.34 256.507C108.574 256.1 108.899 255.783 109.315 255.558C109.74 255.333 110.234 255.22 110.797 255.22C111.361 255.22 111.85 255.333 112.266 255.558C112.691 255.783 113.016 256.1 113.241 256.507C113.475 256.914 113.592 257.395 113.592 257.95V259.211H109.146V259.9C109.146 260.463 109.289 260.897 109.575 261.2C109.861 261.495 110.269 261.642 110.797 261.642C111.248 261.642 111.612 261.564 111.889 261.408C112.167 261.243 112.336 261.001 112.396 260.68H113.566C113.488 261.278 113.194 261.755 112.682 262.11C112.18 262.457 111.551 262.63 110.797 262.63ZM112.448 258.431V257.95C112.448 257.387 112.305 256.953 112.019 256.65C111.742 256.347 111.335 256.195 110.797 256.195C110.269 256.195 109.861 256.347 109.575 256.65C109.289 256.953 109.146 257.387 109.146 257.95V258.327H112.539L112.448 258.431ZM115.797 262.5V261.434H118.332V256.416H116.122V255.35H119.502V261.434H121.907V262.5H115.797ZM118.787 254.063C118.501 254.063 118.276 253.989 118.111 253.842C117.947 253.695 117.864 253.495 117.864 253.244C117.864 252.984 117.947 252.78 118.111 252.633C118.276 252.477 118.501 252.399 118.787 252.399C119.073 252.399 119.299 252.477 119.463 252.633C119.628 252.78 119.71 252.984 119.71 253.244C119.71 253.495 119.628 253.695 119.463 253.842C119.299 253.989 119.073 254.063 118.787 254.063ZM123.683 264.84V255.35H124.853V256.715H125.087L124.853 256.988C124.853 256.442 125.031 256.013 125.386 255.701C125.75 255.38 126.227 255.22 126.816 255.22C127.536 255.22 128.108 255.458 128.532 255.935C128.966 256.403 129.182 257.049 129.182 257.872V259.965C129.182 260.511 129.083 260.983 128.883 261.382C128.693 261.781 128.42 262.088 128.064 262.305C127.718 262.522 127.302 262.63 126.816 262.63C126.236 262.63 125.763 262.47 125.399 262.149C125.035 261.828 124.853 261.399 124.853 260.862L125.087 261.135H124.827L124.853 262.76V264.84H123.683ZM126.426 261.616C126.92 261.616 127.306 261.469 127.583 261.174C127.869 260.879 128.012 260.455 128.012 259.9V257.95C128.012 257.395 127.869 256.971 127.583 256.676C127.306 256.381 126.92 256.234 126.426 256.234C125.95 256.234 125.568 256.386 125.282 256.689C124.996 256.992 124.853 257.413 124.853 257.95V259.9C124.853 260.437 124.996 260.858 125.282 261.161C125.568 261.464 125.95 261.616 126.426 261.616ZM134.962 262.5C134.347 262.5 133.866 262.335 133.519 262.006C133.181 261.677 133.012 261.213 133.012 260.615V256.416H130.997V255.35H133.012V253.335H134.182V255.35H137.042V256.416H134.182V260.615C134.182 261.161 134.442 261.434 134.962 261.434H136.912V262.5H134.962ZM141.756 262.604C141.271 262.604 140.846 262.53 140.482 262.383C140.127 262.227 139.841 262.01 139.624 261.733C139.416 261.456 139.29 261.126 139.247 260.745H140.417C140.469 260.996 140.608 261.196 140.833 261.343C141.067 261.49 141.375 261.564 141.756 261.564H142.302C142.761 261.564 143.104 261.473 143.329 261.291C143.554 261.1 143.667 260.849 143.667 260.537C143.667 260.234 143.563 259.995 143.355 259.822C143.156 259.64 142.857 259.519 142.458 259.458L141.496 259.302C140.794 259.181 140.27 258.964 139.923 258.652C139.585 258.331 139.416 257.868 139.416 257.261C139.416 256.62 139.62 256.126 140.027 255.779C140.434 255.424 141.045 255.246 141.86 255.246H142.354C143.039 255.246 143.589 255.406 144.005 255.727C144.421 256.048 144.672 256.481 144.759 257.027H143.589C143.537 256.802 143.407 256.624 143.199 256.494C142.991 256.355 142.709 256.286 142.354 256.286H141.86C141.418 256.286 141.093 256.368 140.885 256.533C140.686 256.698 140.586 256.945 140.586 257.274C140.586 257.569 140.673 257.785 140.846 257.924C141.019 258.063 141.292 258.162 141.665 258.223L142.627 258.379C143.398 258.5 143.957 258.726 144.304 259.055C144.659 259.384 144.837 259.861 144.837 260.485C144.837 261.144 144.625 261.664 144.2 262.045C143.784 262.418 143.151 262.604 142.302 262.604H141.756ZM79.9428 281.84C79.2061 281.84 78.5648 281.684 78.0188 281.372C77.4728 281.069 77.0481 280.631 76.7448 280.059C76.4501 279.496 76.3028 278.833 76.3028 278.07V273.65C76.3028 272.87 76.4414 272.198 76.7188 271.635C77.0048 271.072 77.4078 270.638 77.9278 270.335C78.4564 270.032 79.0848 269.88 79.8128 269.88C80.4714 269.88 81.0391 270.01 81.5158 270.27C81.9924 270.521 82.3564 270.885 82.6078 271.362C82.8678 271.839 82.9978 272.406 82.9978 273.065V278.655H82.0748V277.94H81.7108L81.9578 277.68C81.9578 278.009 81.8321 278.278 81.5808 278.486C81.3294 278.685 80.9958 278.785 80.5798 278.785C80.0164 278.785 79.5831 278.616 79.2798 278.278C78.9851 277.931 78.8378 277.429 78.8378 276.77V275.21C78.8378 274.551 78.9851 274.053 79.2798 273.715C79.5831 273.368 80.0164 273.195 80.5798 273.195C80.9958 273.195 81.3294 273.299 81.5808 273.507C81.8321 273.706 81.9578 273.975 81.9578 274.313L81.7758 274.04H82.0878L81.9578 273.13V273.065C81.9578 272.571 81.8754 272.155 81.7108 271.817C81.5461 271.479 81.3034 271.223 80.9828 271.05C80.6708 270.877 80.2808 270.79 79.8128 270.79C79.0328 270.79 78.4261 271.041 77.9928 271.544C77.5594 272.047 77.3428 272.749 77.3428 273.65V278.07C77.3428 278.937 77.5724 279.617 78.0318 280.111C78.4998 280.614 79.1368 280.865 79.9428 280.865H80.8528V281.84H79.9428ZM80.9178 277.966C81.2731 277.966 81.5331 277.858 81.6978 277.641C81.8711 277.424 81.9578 277.091 81.9578 276.64V275.197C81.9578 274.79 81.8711 274.491 81.6978 274.3C81.5331 274.109 81.2731 274.014 80.9178 274.014C80.5711 274.014 80.3111 274.114 80.1378 274.313C79.9644 274.504 79.8778 274.803 79.8778 275.21V276.77C79.8778 277.177 79.9644 277.481 80.1378 277.68C80.3111 277.871 80.5711 277.966 80.9178 277.966ZM94.8826 281.32V279.617C94.068 279.548 93.4266 279.288 92.9586 278.837C92.4993 278.378 92.261 277.775 92.2436 277.03H93.4136C93.4136 277.455 93.5393 277.801 93.7906 278.07C94.0506 278.339 94.4146 278.503 94.8826 278.564V275.158L94.5316 275.054C93.8816 274.855 93.379 274.521 93.0236 274.053C92.677 273.585 92.5036 273.035 92.5036 272.402C92.5036 271.709 92.716 271.137 93.1406 270.686C93.574 270.235 94.1546 269.975 94.8826 269.906V268.19H95.6626V269.893C96.382 269.962 96.9583 270.222 97.3916 270.673C97.825 271.124 98.046 271.704 98.0546 272.415H96.8846C96.8846 272.008 96.7763 271.678 96.5596 271.427C96.3516 271.167 96.0526 271.007 95.6626 270.946V274.17L96.1826 274.339C96.8153 274.538 97.305 274.876 97.6516 275.353C97.9983 275.83 98.1716 276.389 98.1716 277.03C98.1716 277.741 97.942 278.33 97.4826 278.798C97.032 279.266 96.4253 279.539 95.6626 279.617V281.32H94.8826ZM95.6626 278.564C96.0873 278.495 96.4166 278.33 96.6506 278.07C96.8846 277.81 97.0016 277.472 97.0016 277.056C97.0016 276.675 96.8976 276.341 96.6896 276.055C96.4903 275.769 96.2 275.57 95.8186 275.457L95.6626 275.405V278.564ZM94.8826 274.443V270.946C94.5013 271.007 94.2023 271.154 93.9856 271.388C93.7776 271.622 93.6736 271.925 93.6736 272.298C93.6736 272.749 93.8123 273.13 94.0896 273.442C94.367 273.745 94.7656 273.936 95.2856 274.014L94.8826 274.443ZM103.003 279.63C102.422 279.63 101.915 279.517 101.482 279.292C101.057 279.058 100.728 278.733 100.494 278.317C100.26 277.892 100.143 277.398 100.143 276.835V272.675C100.143 272.103 100.26 271.609 100.494 271.193C100.728 270.777 101.057 270.456 101.482 270.231C101.915 269.997 102.422 269.88 103.003 269.88C103.592 269.88 104.099 269.997 104.524 270.231C104.948 270.456 105.278 270.777 105.512 271.193C105.746 271.609 105.863 272.103 105.863 272.675V276.835C105.863 277.398 105.746 277.892 105.512 278.317C105.278 278.733 104.944 279.058 104.511 279.292C104.086 279.517 103.583 279.63 103.003 279.63ZM103.003 278.629C103.523 278.629 103.939 278.464 104.251 278.135C104.571 277.797 104.732 277.364 104.732 276.835V272.675C104.732 272.146 104.571 271.717 104.251 271.388C103.939 271.05 103.523 270.881 103.003 270.881C102.483 270.881 102.062 271.05 101.742 271.388C101.43 271.717 101.274 272.146 101.274 272.675V276.835C101.274 277.364 101.43 277.797 101.742 278.135C102.062 278.464 102.483 278.629 103.003 278.629ZM103.003 275.522C102.769 275.522 102.578 275.448 102.431 275.301C102.292 275.154 102.223 274.959 102.223 274.716C102.223 274.482 102.292 274.296 102.431 274.157C102.578 274.01 102.769 273.936 103.003 273.936C103.237 273.936 103.423 274.01 103.562 274.157C103.709 274.296 103.783 274.482 103.783 274.716C103.783 274.959 103.709 275.154 103.562 275.301C103.423 275.448 103.237 275.522 103.003 275.522ZM110.797 279.63C110.468 279.63 110.204 279.535 110.004 279.344C109.814 279.153 109.718 278.898 109.718 278.577C109.718 278.239 109.814 277.97 110.004 277.771C110.204 277.572 110.468 277.472 110.797 277.472C111.127 277.472 111.387 277.572 111.577 277.771C111.777 277.97 111.876 278.239 111.876 278.577C111.876 278.898 111.777 279.153 111.577 279.344C111.387 279.535 111.127 279.63 110.797 279.63ZM118.592 279.63C118.012 279.63 117.505 279.517 117.071 279.292C116.647 279.058 116.317 278.733 116.083 278.317C115.849 277.892 115.732 277.398 115.732 276.835V272.675C115.732 272.103 115.849 271.609 116.083 271.193C116.317 270.777 116.647 270.456 117.071 270.231C117.505 269.997 118.012 269.88 118.592 269.88C119.182 269.88 119.689 269.997 120.113 270.231C120.538 270.456 120.867 270.777 121.101 271.193C121.335 271.609 121.452 272.103 121.452 272.675V276.835C121.452 277.398 121.335 277.892 121.101 278.317C120.867 278.733 120.534 279.058 120.1 279.292C119.676 279.517 119.173 279.63 118.592 279.63ZM118.592 278.629C119.112 278.629 119.528 278.464 119.84 278.135C120.161 277.797 120.321 277.364 120.321 276.835V272.675C120.321 272.146 120.161 271.717 119.84 271.388C119.528 271.05 119.112 270.881 118.592 270.881C118.072 270.881 117.652 271.05 117.331 271.388C117.019 271.717 116.863 272.146 116.863 272.675V276.835C116.863 277.364 117.019 277.797 117.331 278.135C117.652 278.464 118.072 278.629 118.592 278.629ZM118.592 275.522C118.358 275.522 118.168 275.448 118.02 275.301C117.882 275.154 117.812 274.959 117.812 274.716C117.812 274.482 117.882 274.296 118.02 274.157C118.168 274.01 118.358 273.936 118.592 273.936C118.826 273.936 119.013 274.01 119.151 274.157C119.299 274.296 119.372 274.482 119.372 274.716C119.372 274.959 119.299 275.154 119.151 275.301C119.013 275.448 118.826 275.522 118.592 275.522ZM123.683 279.5V278.304L126.582 275.223C127.076 274.694 127.436 274.226 127.661 273.819C127.887 273.403 127.999 273.004 127.999 272.623C127.999 272.094 127.852 271.678 127.557 271.375C127.271 271.072 126.877 270.92 126.374 270.92C125.82 270.92 125.382 271.076 125.061 271.388C124.749 271.7 124.593 272.129 124.593 272.675H123.423C123.441 272.103 123.571 271.609 123.813 271.193C124.065 270.768 124.407 270.443 124.84 270.218C125.282 269.993 125.794 269.88 126.374 269.88C126.946 269.88 127.44 269.993 127.856 270.218C128.281 270.435 128.606 270.747 128.831 271.154C129.057 271.561 129.169 272.047 129.169 272.61C129.169 273.147 129.026 273.68 128.74 274.209C128.454 274.738 127.986 275.34 127.336 276.016L124.996 278.434H129.325V279.5H123.683Z" fill="white"/>
<path d="M168.328 205.1C167.874 205.1 167.511 204.98 167.238 204.74C166.964 204.493 166.828 204.16 166.828 203.74L167.008 203.95H166.828V205H165.928V197.7H166.828V199.3L166.808 200.55H167.008L166.828 200.76C166.828 200.347 166.964 200.017 167.238 199.77C167.518 199.523 167.881 199.4 168.328 199.4C168.881 199.4 169.324 199.583 169.658 199.95C169.991 200.317 170.158 200.817 170.158 201.45V203.06C170.158 203.687 169.991 204.183 169.658 204.55C169.324 204.917 168.881 205.1 168.328 205.1ZM168.028 204.32C168.408 204.32 168.708 204.207 168.928 203.98C169.148 203.753 169.258 203.427 169.258 203V201.5C169.258 201.073 169.148 200.747 168.928 200.52C168.708 200.293 168.408 200.18 168.028 200.18C167.661 200.18 167.368 200.297 167.148 200.53C166.934 200.763 166.828 201.087 166.828 201.5V203C166.828 203.413 166.934 203.737 167.148 203.97C167.368 204.203 167.661 204.32 168.028 204.32ZM173.994 205.1C173.361 205.1 172.854 204.913 172.474 204.54C172.094 204.16 171.904 203.647 171.904 203V199.5H172.804V203C172.804 203.413 172.911 203.737 173.124 203.97C173.337 204.197 173.627 204.31 173.994 204.31C174.367 204.31 174.661 204.197 174.874 203.97C175.094 203.737 175.204 203.413 175.204 203V199.5H176.104V203C176.104 203.647 175.911 204.16 175.524 204.54C175.137 204.913 174.627 205.1 173.994 205.1ZM178.11 205V199.5H178.99V200.55H179.2L178.91 201.2C178.91 200.607 179.037 200.16 179.29 199.86C179.55 199.553 179.933 199.4 180.44 199.4C181.02 199.4 181.48 199.583 181.82 199.95C182.167 200.31 182.34 200.8 182.34 201.42V201.75H181.44V201.5C181.44 201.067 181.333 200.737 181.12 200.51C180.913 200.277 180.617 200.16 180.23 200.16C179.85 200.16 179.55 200.277 179.33 200.51C179.117 200.743 179.01 201.073 179.01 201.5V205H178.11ZM183.916 205V199.5H184.816V200.55H185.006L184.816 200.76C184.816 200.327 184.946 199.993 185.206 199.76C185.466 199.52 185.826 199.4 186.286 199.4C186.839 199.4 187.279 199.57 187.606 199.91C187.933 200.25 188.096 200.713 188.096 201.3V205H187.196V201.4C187.196 201.007 187.089 200.707 186.876 200.5C186.669 200.287 186.386 200.18 186.026 200.18C185.653 200.18 185.356 200.293 185.136 200.52C184.923 200.747 184.816 201.073 184.816 201.5V205H183.916Z" fill="black"/>
<path d="M467.002 224.1C466.368 224.1 465.862 223.913 465.482 223.54C465.102 223.16 464.912 222.647 464.912 222V218.5H465.812V222C465.812 222.413 465.918 222.737 466.132 222.97C466.345 223.197 466.635 223.31 467.002 223.31C467.375 223.31 467.668 223.197 467.882 222.97C468.102 222.737 468.212 222.413 468.212 222V218.5H469.112V222C469.112 222.647 468.918 223.16 468.532 223.54C468.145 223.913 467.635 224.1 467.002 224.1ZM470.928 224V218.5H471.828V219.55H472.018L471.828 219.76C471.828 219.327 471.958 218.993 472.218 218.76C472.478 218.52 472.838 218.4 473.298 218.4C473.851 218.4 474.291 218.57 474.618 218.91C474.944 219.25 475.108 219.713 475.108 220.3V224H474.208V220.4C474.208 220.007 474.101 219.707 473.888 219.5C473.681 219.287 473.398 219.18 473.038 219.18C472.664 219.18 472.368 219.293 472.148 219.52C471.934 219.747 471.828 220.073 471.828 220.5V224H470.928ZM479.754 224C479.434 224 479.154 223.937 478.914 223.81C478.674 223.683 478.487 223.503 478.354 223.27C478.221 223.037 478.154 222.763 478.154 222.45V217.52H476.304V216.7H479.054V222.45C479.054 222.677 479.117 222.857 479.244 222.99C479.371 223.117 479.541 223.18 479.754 223.18H481.504V224H479.754ZM485 224.08C484.56 224.08 484.18 223.997 483.86 223.83C483.54 223.663 483.29 223.423 483.11 223.11C482.937 222.79 482.85 222.413 482.85 221.98V220.52C482.85 220.08 482.937 219.703 483.11 219.39C483.29 219.077 483.54 218.837 483.86 218.67C484.18 218.503 484.56 218.42 485 218.42C485.44 218.42 485.82 218.503 486.14 218.67C486.46 218.837 486.707 219.077 486.88 219.39C487.06 219.703 487.15 220.077 487.15 220.51V221.98C487.15 222.413 487.06 222.79 486.88 223.11C486.707 223.423 486.46 223.663 486.14 223.83C485.82 223.997 485.44 224.08 485 224.08ZM485 223.28C485.393 223.28 485.7 223.17 485.92 222.95C486.14 222.73 486.25 222.407 486.25 221.98V220.52C486.25 220.093 486.14 219.77 485.92 219.55C485.7 219.33 485.393 219.22 485 219.22C484.613 219.22 484.307 219.33 484.08 219.55C483.86 219.77 483.75 220.093 483.75 220.52V221.98C483.75 222.407 483.86 222.73 484.08 222.95C484.307 223.17 484.613 223.28 485 223.28ZM491.036 224.1C490.596 224.1 490.209 224.017 489.876 223.85C489.549 223.683 489.296 223.443 489.116 223.13C488.936 222.81 488.846 222.433 488.846 222V220.5C488.846 220.06 488.936 219.683 489.116 219.37C489.296 219.057 489.549 218.817 489.876 218.65C490.209 218.483 490.596 218.4 491.036 218.4C491.669 218.4 492.179 218.57 492.566 218.91C492.953 219.25 493.156 219.713 493.176 220.3H492.276C492.256 219.947 492.136 219.677 491.916 219.49C491.703 219.297 491.409 219.2 491.036 219.2C490.643 219.2 490.329 219.313 490.096 219.54C489.863 219.76 489.746 220.077 489.746 220.49V222C489.746 222.413 489.863 222.733 490.096 222.96C490.329 223.187 490.643 223.3 491.036 223.3C491.409 223.3 491.703 223.203 491.916 223.01C492.136 222.817 492.256 222.547 492.276 222.2H493.176C493.156 222.787 492.953 223.25 492.566 223.59C492.179 223.93 491.669 224.1 491.036 224.1ZM494.942 224V216.7H495.842V220.77H496.902L498.502 218.5H499.532L497.682 221.12L499.562 224H498.512L496.912 221.55H495.842V224H494.942Z" fill="black"/>
<path d="M321.1 169.1L326.5 169.1L326.5 177.5L329.5 177.5L329.5 166.1L318.1 166.1L318.1 185.6L337.6 185.6L337.6 161L343 161L343 191L313 191L313 161L334.6 161L334.6 182.6L321.1 182.6L321.1 169.1Z" fill="black"/>
<path d="M442 203C451.778 196.333 456.667 196.333 456.667 203C456.667 209.667 461.556 209.667 471.333 203C481.111 196.333 486 196.333 486 203C486 209.667 490.889 209.667 500.667 203C510.444 196.333 515.333 196.333 515.333 203C515.333 209.667 520.222 209.667 530 203" stroke="black" stroke-linecap="round"/>
<rect width="87" height="37" transform="translate(525 184)" fill="#E72D64"/>
<path d="M545.092 207.13C544.32 207.13 543.688 206.931 543.194 206.532C542.7 206.133 542.409 205.596 542.323 204.92H543.493C543.536 205.293 543.696 205.583 543.974 205.791C544.251 205.99 544.628 206.09 545.105 206.09C545.651 206.09 546.058 205.943 546.327 205.648C546.604 205.353 546.743 204.937 546.743 204.4V203.477C546.743 202.94 546.604 202.524 546.327 202.229C546.058 201.934 545.655 201.787 545.118 201.787C544.78 201.787 544.485 201.878 544.234 202.06C543.982 202.233 543.8 202.467 543.688 202.762H542.518L542.583 197.51H547.575V198.576H543.714L543.675 201.735H544.039L543.675 202.073C543.675 201.666 543.835 201.345 544.156 201.111C544.485 200.877 544.923 200.76 545.469 200.76C546.24 200.751 546.838 200.99 547.263 201.475C547.696 201.952 547.913 202.619 547.913 203.477V204.4C547.913 205.241 547.666 205.908 547.172 206.402C546.678 206.887 545.984 207.13 545.092 207.13ZM552.913 207.13C552.332 207.13 551.825 207.017 551.392 206.792C550.967 206.558 550.638 206.233 550.404 205.817C550.17 205.392 550.053 204.898 550.053 204.335V200.175C550.053 199.603 550.17 199.109 550.404 198.693C550.638 198.277 550.967 197.956 551.392 197.731C551.825 197.497 552.332 197.38 552.913 197.38C553.502 197.38 554.009 197.497 554.434 197.731C554.858 197.956 555.188 198.277 555.422 198.693C555.656 199.109 555.773 199.603 555.773 200.175V204.335C555.773 204.898 555.656 205.392 555.422 205.817C555.188 206.233 554.854 206.558 554.421 206.792C553.996 207.017 553.493 207.13 552.913 207.13ZM552.913 206.129C553.433 206.129 553.849 205.964 554.161 205.635C554.481 205.297 554.642 204.864 554.642 204.335V200.175C554.642 199.646 554.481 199.217 554.161 198.888C553.849 198.55 553.433 198.381 552.913 198.381C552.393 198.381 551.972 198.55 551.652 198.888C551.34 199.217 551.184 199.646 551.184 200.175V204.335C551.184 204.864 551.34 205.297 551.652 205.635C551.972 205.964 552.393 206.129 552.913 206.129ZM552.913 203.022C552.679 203.022 552.488 202.948 552.341 202.801C552.202 202.654 552.133 202.459 552.133 202.216C552.133 201.982 552.202 201.796 552.341 201.657C552.488 201.51 552.679 201.436 552.913 201.436C553.147 201.436 553.333 201.51 553.472 201.657C553.619 201.796 553.693 201.982 553.693 202.216C553.693 202.459 553.619 202.654 553.472 202.801C553.333 202.948 553.147 203.022 552.913 203.022ZM560.708 207.13C560.127 207.13 559.62 207.017 559.187 206.792C558.762 206.558 558.433 206.233 558.199 205.817C557.965 205.392 557.848 204.898 557.848 204.335V200.175C557.848 199.603 557.965 199.109 558.199 198.693C558.433 198.277 558.762 197.956 559.187 197.731C559.62 197.497 560.127 197.38 560.708 197.38C561.297 197.38 561.804 197.497 562.229 197.731C562.653 197.956 562.983 198.277 563.217 198.693C563.451 199.109 563.568 199.603 563.568 200.175V204.335C563.568 204.898 563.451 205.392 563.217 205.817C562.983 206.233 562.649 206.558 562.216 206.792C561.791 207.017 561.288 207.13 560.708 207.13ZM560.708 206.129C561.228 206.129 561.644 205.964 561.956 205.635C562.276 205.297 562.437 204.864 562.437 204.335V200.175C562.437 199.646 562.276 199.217 561.956 198.888C561.644 198.55 561.228 198.381 560.708 198.381C560.188 198.381 559.767 198.55 559.447 198.888C559.135 199.217 558.979 199.646 558.979 200.175V204.335C558.979 204.864 559.135 205.297 559.447 205.635C559.767 205.964 560.188 206.129 560.708 206.129ZM560.708 203.022C560.474 203.022 560.283 202.948 560.136 202.801C559.997 202.654 559.928 202.459 559.928 202.216C559.928 201.982 559.997 201.796 560.136 201.657C560.283 201.51 560.474 201.436 560.708 201.436C560.942 201.436 561.128 201.51 561.267 201.657C561.414 201.796 561.488 201.982 561.488 202.216C561.488 202.459 561.414 202.654 561.267 202.801C561.128 202.948 560.942 203.022 560.708 203.022ZM573.632 207V197.497H579.222V198.563H574.776V201.722H578.884V202.788H574.802V207H573.632ZM581.687 207V197.51H582.857V205.934H587.147V207H581.687ZM589.183 207V197.51H592.121C592.685 197.51 593.179 197.627 593.603 197.861C594.028 198.086 594.357 198.403 594.591 198.81C594.825 199.217 594.942 199.694 594.942 200.24C594.942 200.881 594.773 201.432 594.435 201.891C594.106 202.35 593.655 202.667 593.083 202.84L595.072 207H593.694L591.874 202.97H590.353V207H589.183ZM590.353 201.917H592.121C592.607 201.917 592.997 201.765 593.291 201.462C593.586 201.15 593.733 200.743 593.733 200.24C593.733 199.729 593.586 199.321 593.291 199.018C592.997 198.715 592.607 198.563 592.121 198.563H590.353V201.917Z" fill="white"/>
</svg>
