<svg width="655" height="403" viewBox="0 0 655 403" fill="none" xmlns="http://www.w3.org/2000/svg">
<rect x="0.5" y="0.5" width="654" height="402" fill="white"/>
<rect x="0.5" y="0.5" width="654" height="402" stroke="black"/>
<path d="M442 203C451.778 196.333 456.667 196.333 456.667 203C456.667 209.667 461.556 209.667 471.333 203C481.111 196.333 486 196.333 486 203C486 209.667 490.889 209.667 500.667 203C510.444 196.333 515.333 196.333 515.333 203C515.333 209.667 520.222 209.667 530 203" stroke="black" stroke-linecap="round"/>
<path d="M227.986 201C228.263 201.007 228.492 200.79 228.5 200.514L228.621 196.015C228.629 195.739 228.411 195.509 228.135 195.502C227.859 195.494 227.629 195.712 227.622 195.988L227.514 199.987L223.515 199.879C223.239 199.871 223.009 200.089 223.002 200.365C222.994 200.641 223.212 200.871 223.488 200.878L227.986 201ZM228.363 200.156L226.613 198.309L225.887 198.997L227.637 200.844L228.363 200.156ZM223.113 194.614L219.613 190.92L218.887 191.608L222.387 195.302L223.113 194.614ZM216.113 187.226L212.613 183.531L211.887 184.219L215.387 187.913L216.113 187.226ZM209.113 179.837L205.613 176.142L204.887 176.83L208.387 180.524L209.113 179.837ZM202.113 172.448L198.613 168.753L197.887 169.441L201.387 173.136L202.113 172.448ZM195.113 165.059L191.613 161.364L190.887 162.052L194.387 165.747L195.113 165.059ZM188.113 157.67L184.613 153.976L183.887 154.663L187.387 158.358L188.113 157.67ZM181.113 150.281L177.613 146.587L176.887 147.274L180.387 150.969L181.113 150.281ZM174.113 142.892L170.613 139.198L169.887 139.885L173.387 143.58L174.113 142.892ZM167.113 135.503L165.363 133.656L164.637 134.344L166.387 136.191L167.113 135.503ZM227.986 201C228.263 201.007 228.492 200.79 228.5 200.514L228.621 196.015C228.629 195.739 228.411 195.509 228.135 195.502C227.859 195.494 227.629 195.712 227.622 195.988L227.514 199.987L223.515 199.879C223.239 199.871 223.009 200.089 223.002 200.365C222.994 200.641 223.212 200.871 223.488 200.878L227.986 201ZM228.363 200.156L226.613 198.309L225.887 198.997L227.637 200.844L228.363 200.156ZM223.113 194.614L219.613 190.92L218.887 191.608L222.387 195.302L223.113 194.614ZM216.113 187.226L212.613 183.531L211.887 184.219L215.387 187.913L216.113 187.226ZM209.113 179.837L205.613 176.142L204.887 176.83L208.387 180.524L209.113 179.837ZM202.113 172.448L198.613 168.753L197.887 169.441L201.387 173.136L202.113 172.448ZM195.113 165.059L191.613 161.364L190.887 162.052L194.387 165.747L195.113 165.059ZM188.113 157.67L184.613 153.976L183.887 154.663L187.387 158.358L188.113 157.67ZM181.113 150.281L177.613 146.587L176.887 147.274L180.387 150.969L181.113 150.281ZM174.113 142.892L170.613 139.198L169.887 139.885L173.387 143.58L174.113 142.892ZM167.113 135.503L165.363 133.656L164.637 134.344L166.387 136.191L167.113 135.503Z" fill="black"/>
<path d="M228 201.5C228 201.224 227.776 201 227.5 201L223 201C222.724 201 222.5 201.224 222.5 201.5C222.5 201.776 222.724 202 223 202L227 202L227 206C227 206.276 227.224 206.5 227.5 206.5C227.776 206.5 228 206.276 228 206L228 201.5ZM227.146 201.146L225.41 202.883L226.117 203.59L227.854 201.854L227.146 201.146ZM221.938 206.355L218.466 209.827L219.173 210.534L222.645 207.062L221.938 206.355ZM214.994 213.299L211.521 216.771L212.229 217.479L215.701 214.006L214.994 213.299ZM208.049 220.244L204.577 223.716L205.284 224.423L208.756 220.951L208.049 220.244ZM201.105 227.188L197.633 230.66L198.34 231.367L201.812 227.895L201.105 227.188ZM194.16 234.133L190.688 237.605L191.395 238.312L194.867 234.84L194.16 234.133ZM187.216 241.077L183.744 244.549L184.451 245.256L187.923 241.784L187.216 241.077ZM180.271 248.021L176.799 251.494L177.506 252.201L180.979 248.729L180.271 248.021ZM173.327 254.966L169.855 258.438L170.562 259.145L174.034 255.673L173.327 254.966ZM166.383 261.91L164.646 263.646L165.354 264.354L167.09 262.617L166.383 261.91ZM228 201.5C228 201.224 227.776 201 227.5 201L223 201C222.724 201 222.5 201.224 222.5 201.5C222.5 201.776 222.724 202 223 202L227 202L227 206C227 206.276 227.224 206.5 227.5 206.5C227.776 206.5 228 206.276 228 206L228 201.5ZM227.146 201.146L225.41 202.883L226.117 203.59L227.854 201.854L227.146 201.146ZM221.938 206.355L218.466 209.827L219.173 210.534L222.645 207.062L221.938 206.355ZM214.994 213.299L211.521 216.771L212.229 217.479L215.701 214.006L214.994 213.299ZM208.049 220.244L204.577 223.716L205.284 224.423L208.756 220.951L208.049 220.244ZM201.105 227.188L197.633 230.66L198.34 231.367L201.812 227.895L201.105 227.188ZM194.16 234.133L190.688 237.605L191.395 238.312L194.867 234.84L194.16 234.133ZM187.216 241.077L183.744 244.549L184.451 245.256L187.923 241.784L187.216 241.077ZM180.271 248.021L176.799 251.494L177.506 252.201L180.979 248.729L180.271 248.021ZM173.327 254.966L169.855 258.438L170.562 259.145L174.034 255.673L173.327 254.966ZM166.383 261.91L164.646 263.646L165.354 264.354L167.09 262.617L166.383 261.91Z" fill="black"/>
<rect x="197" y="141" width="261" height="122" fill="#E6E6E6"/>
<path d="M165.516 373V363.51H168.207C169.073 363.51 169.749 363.727 170.235 364.16C170.729 364.593 170.976 365.196 170.976 365.967C170.976 366.4 170.885 366.777 170.703 367.098C170.521 367.419 170.261 367.666 169.923 367.839C169.593 368.012 169.195 368.095 168.727 368.086V367.891C169.229 367.882 169.663 367.978 170.027 368.177C170.399 368.376 170.685 368.662 170.885 369.035C171.093 369.408 171.197 369.85 171.197 370.361C171.197 370.898 171.084 371.366 170.859 371.765C170.633 372.164 170.313 372.471 169.897 372.688C169.481 372.896 168.982 373 168.402 373H165.516ZM166.66 371.947H168.272C168.818 371.947 169.247 371.804 169.559 371.518C169.879 371.223 170.04 370.825 170.04 370.322C170.04 369.802 169.879 369.382 169.559 369.061C169.247 368.732 168.818 368.567 168.272 368.567H166.66V371.947ZM166.66 367.553H168.194C168.696 367.553 169.091 367.419 169.377 367.15C169.671 366.881 169.819 366.517 169.819 366.058C169.819 365.599 169.676 365.235 169.39 364.966C169.104 364.697 168.709 364.563 168.207 364.563H166.66V367.553ZM175.989 373.13C175.165 373.13 174.507 372.887 174.013 372.402C173.519 371.908 173.272 371.241 173.272 370.4V365.85H174.442V370.4C174.442 370.937 174.58 371.358 174.858 371.661C175.135 371.956 175.512 372.103 175.989 372.103C176.474 372.103 176.855 371.956 177.133 371.661C177.419 371.358 177.562 370.937 177.562 370.4V365.85H178.732V370.4C178.732 371.241 178.48 371.908 177.978 372.402C177.475 372.887 176.812 373.13 175.989 373.13ZM181.339 373V365.85H182.483V367.215H182.756L182.379 368.06C182.379 367.289 182.544 366.708 182.873 366.318C183.211 365.919 183.71 365.72 184.368 365.72C185.122 365.72 185.72 365.958 186.162 366.435C186.613 366.903 186.838 367.54 186.838 368.346V368.775H185.668V368.45C185.668 367.887 185.53 367.458 185.252 367.163C184.984 366.86 184.598 366.708 184.095 366.708C183.601 366.708 183.211 366.86 182.925 367.163C182.648 367.466 182.509 367.895 182.509 368.45V373H181.339ZM188.887 373V365.85H190.057V367.215H190.304L190.057 367.488C190.057 366.925 190.226 366.491 190.564 366.188C190.902 365.876 191.37 365.72 191.968 365.72C192.688 365.72 193.26 365.941 193.684 366.383C194.109 366.825 194.321 367.427 194.321 368.19V373H193.151V368.32C193.151 367.809 193.013 367.419 192.735 367.15C192.467 366.873 192.098 366.734 191.63 366.734C191.145 366.734 190.759 366.881 190.473 367.176C190.196 367.471 190.057 367.895 190.057 368.45V373H188.887ZM196.591 373V371.934H199.126V366.916H196.916V365.85H200.296V371.934H202.701V373H196.591ZM199.581 364.563C199.295 364.563 199.07 364.489 198.905 364.342C198.741 364.195 198.658 363.995 198.658 363.744C198.658 363.484 198.741 363.28 198.905 363.133C199.07 362.977 199.295 362.899 199.581 362.899C199.867 362.899 200.093 362.977 200.257 363.133C200.422 363.28 200.504 363.484 200.504 363.744C200.504 363.995 200.422 364.195 200.257 364.342C200.093 364.489 199.867 364.563 199.581 364.563ZM204.477 373V365.85H205.647V367.215H205.894L205.647 367.488C205.647 366.925 205.816 366.491 206.154 366.188C206.492 365.876 206.96 365.72 207.558 365.72C208.278 365.72 208.85 365.941 209.274 366.383C209.699 366.825 209.911 367.427 209.911 368.19V373H208.741V368.32C208.741 367.809 208.603 367.419 208.325 367.15C208.057 366.873 207.688 366.734 207.22 366.734C206.735 366.734 206.349 366.881 206.063 367.176C205.786 367.471 205.647 367.895 205.647 368.45V373H204.477ZM213.169 375.34V374.274H215.444C215.808 374.274 216.073 374.192 216.237 374.027C216.411 373.862 216.497 373.607 216.497 373.26V372.35L216.523 371.05H216.289L216.51 370.855C216.51 371.375 216.337 371.787 215.99 372.09C215.644 372.393 215.18 372.545 214.599 372.545C213.863 372.545 213.282 372.307 212.857 371.83C212.433 371.345 212.22 370.695 212.22 369.88V368.372C212.22 367.557 212.433 366.912 212.857 366.435C213.282 365.958 213.863 365.72 214.599 365.72C215.18 365.72 215.644 365.872 215.99 366.175C216.337 366.478 216.51 366.89 216.51 367.41L216.289 367.215H216.51V365.85H217.667V373.26C217.667 373.901 217.468 374.408 217.069 374.781C216.679 375.154 216.133 375.34 215.431 375.34H213.169ZM214.95 371.531C215.436 371.531 215.817 371.379 216.094 371.076C216.372 370.773 216.51 370.352 216.51 369.815V368.45C216.51 367.913 216.372 367.492 216.094 367.189C215.817 366.886 215.436 366.734 214.95 366.734C214.456 366.734 214.071 366.881 213.793 367.176C213.525 367.471 213.39 367.895 213.39 368.45V369.815C213.39 370.37 213.525 370.794 213.793 371.089C214.071 371.384 214.456 371.531 214.95 371.531ZM230.618 373.13C230.046 373.13 229.543 373.022 229.11 372.805C228.685 372.588 228.356 372.276 228.122 371.869C227.888 371.453 227.771 370.963 227.771 370.4V368.45C227.771 367.878 227.888 367.388 228.122 366.981C228.356 366.574 228.685 366.262 229.11 366.045C229.543 365.828 230.046 365.72 230.618 365.72C231.441 365.72 232.104 365.941 232.607 366.383C233.11 366.825 233.374 367.427 233.4 368.19H232.23C232.204 367.731 232.048 367.38 231.762 367.137C231.485 366.886 231.103 366.76 230.618 366.76C230.107 366.76 229.699 366.907 229.396 367.202C229.093 367.488 228.941 367.9 228.941 368.437V370.4C228.941 370.937 229.093 371.353 229.396 371.648C229.699 371.943 230.107 372.09 230.618 372.09C231.103 372.09 231.485 371.964 231.762 371.713C232.048 371.462 232.204 371.111 232.23 370.66H233.4C233.374 371.423 233.11 372.025 232.607 372.467C232.104 372.909 231.441 373.13 230.618 373.13ZM236.775 375.34L237.828 372.558L235.176 365.85H236.476L238.14 370.27C238.201 370.417 238.257 370.595 238.309 370.803C238.361 371.002 238.404 371.171 238.439 371.31C238.474 371.171 238.517 371.002 238.569 370.803C238.621 370.595 238.673 370.417 238.725 370.27L240.285 365.85H241.546L238.023 375.34H236.775ZM245.935 373.104C245.45 373.104 245.025 373.03 244.661 372.883C244.306 372.727 244.02 372.51 243.803 372.233C243.595 371.956 243.469 371.626 243.426 371.245H244.596C244.648 371.496 244.787 371.696 245.012 371.843C245.246 371.99 245.554 372.064 245.935 372.064H246.481C246.94 372.064 247.283 371.973 247.508 371.791C247.733 371.6 247.846 371.349 247.846 371.037C247.846 370.734 247.742 370.495 247.534 370.322C247.335 370.14 247.036 370.019 246.637 369.958L245.675 369.802C244.973 369.681 244.449 369.464 244.102 369.152C243.764 368.831 243.595 368.368 243.595 367.761C243.595 367.12 243.799 366.626 244.206 366.279C244.613 365.924 245.224 365.746 246.039 365.746H246.533C247.218 365.746 247.768 365.906 248.184 366.227C248.6 366.548 248.851 366.981 248.938 367.527H247.768C247.716 367.302 247.586 367.124 247.378 366.994C247.17 366.855 246.888 366.786 246.533 366.786H246.039C245.597 366.786 245.272 366.868 245.064 367.033C244.865 367.198 244.765 367.445 244.765 367.774C244.765 368.069 244.852 368.285 245.025 368.424C245.198 368.563 245.471 368.662 245.844 368.723L246.806 368.879C247.577 369 248.136 369.226 248.483 369.555C248.838 369.884 249.016 370.361 249.016 370.985C249.016 371.644 248.804 372.164 248.379 372.545C247.963 372.918 247.33 373.104 246.481 373.104H245.935ZM251.286 373V363.497H256.876V364.563H252.43V367.722H256.538V368.788H252.456V373H251.286ZM259.341 373V363.51H260.511V371.934H264.801V373H259.341ZM266.837 373V363.51H269.775C270.338 363.51 270.832 363.627 271.257 363.861C271.681 364.086 272.011 364.403 272.245 364.81C272.479 365.217 272.596 365.694 272.596 366.24C272.596 366.881 272.427 367.432 272.089 367.891C271.759 368.35 271.309 368.667 270.737 368.84L272.726 373H271.348L269.528 368.97H268.007V373H266.837ZM268.007 367.917H269.775C270.26 367.917 270.65 367.765 270.945 367.462C271.239 367.15 271.387 366.743 271.387 366.24C271.387 365.729 271.239 365.321 270.945 365.018C270.65 364.715 270.26 364.563 269.775 364.563H268.007V367.917ZM284.506 373.13C283.752 373.13 283.159 372.939 282.725 372.558C282.292 372.168 282.075 371.644 282.075 370.985C282.075 370.318 282.292 369.793 282.725 369.412C283.159 369.031 283.744 368.84 284.48 368.84H286.69V368.125C286.69 367.683 286.556 367.345 286.287 367.111C286.027 366.868 285.655 366.747 285.169 366.747C284.745 366.747 284.389 366.838 284.103 367.02C283.817 367.193 283.653 367.432 283.609 367.735H282.439C282.517 367.12 282.808 366.63 283.31 366.266C283.813 365.902 284.441 365.72 285.195 365.72C286.019 365.72 286.669 365.932 287.145 366.357C287.622 366.782 287.86 367.358 287.86 368.086V373H286.716V371.635H286.521L286.716 371.44C286.716 371.96 286.513 372.372 286.105 372.675C285.707 372.978 285.174 373.13 284.506 373.13ZM284.792 372.207C285.347 372.207 285.802 372.068 286.157 371.791C286.513 371.514 286.69 371.158 286.69 370.725V369.711H284.506C284.116 369.711 283.809 369.819 283.583 370.036C283.358 370.253 283.245 370.547 283.245 370.92C283.245 371.319 283.38 371.635 283.648 371.869C283.926 372.094 284.307 372.207 284.792 372.207ZM290.221 373V365.85H291.391V367.215H291.638L291.391 367.488C291.391 366.925 291.56 366.491 291.898 366.188C292.236 365.876 292.704 365.72 293.302 365.72C294.022 365.72 294.594 365.941 295.018 366.383C295.443 366.825 295.655 367.427 295.655 368.19V373H294.485V368.32C294.485 367.809 294.347 367.419 294.069 367.15C293.801 366.873 293.432 366.734 292.964 366.734C292.479 366.734 292.093 366.881 291.807 367.176C291.53 367.471 291.391 367.895 291.391 368.45V373H290.221ZM300.304 373.13C299.594 373.13 299.017 372.892 298.575 372.415C298.142 371.938 297.925 371.293 297.925 370.478V368.385C297.925 367.562 298.142 366.912 298.575 366.435C299.009 365.958 299.585 365.72 300.304 365.72C300.894 365.72 301.366 365.88 301.721 366.201C302.077 366.522 302.254 366.951 302.254 367.488L302.02 367.215H302.28L302.254 365.59V363.51H303.424V373H302.254V371.635H302.02L302.254 371.362C302.254 371.908 302.077 372.341 301.721 372.662C301.366 372.974 300.894 373.13 300.304 373.13ZM300.694 372.116C301.18 372.116 301.561 371.964 301.838 371.661C302.116 371.358 302.254 370.937 302.254 370.4V368.45C302.254 367.913 302.116 367.492 301.838 367.189C301.561 366.886 301.18 366.734 300.694 366.734C300.2 366.734 299.81 366.881 299.524 367.176C299.238 367.471 299.095 367.895 299.095 368.45V370.4C299.095 370.955 299.238 371.379 299.524 371.674C299.81 371.969 300.2 372.116 300.694 372.116ZM313.606 373V363.51H316.544C317.107 363.51 317.601 363.627 318.026 363.861C318.451 364.086 318.78 364.403 319.014 364.81C319.248 365.217 319.365 365.694 319.365 366.24C319.365 366.881 319.196 367.432 318.858 367.891C318.529 368.35 318.078 368.667 317.506 368.84L319.495 373H318.117L316.297 368.97H314.776V373H313.606ZM314.776 367.917H316.544C317.029 367.917 317.419 367.765 317.714 367.462C318.009 367.15 318.156 366.743 318.156 366.24C318.156 365.729 318.009 365.321 317.714 365.018C317.419 364.715 317.029 364.563 316.544 364.563H314.776V367.917ZM324.105 373.13C323.542 373.13 323.048 373.017 322.623 372.792C322.207 372.567 321.882 372.25 321.648 371.843C321.423 371.427 321.31 370.946 321.31 370.4V368.45C321.31 367.895 321.423 367.414 321.648 367.007C321.882 366.6 322.207 366.283 322.623 366.058C323.048 365.833 323.542 365.72 324.105 365.72C324.668 365.72 325.158 365.833 325.574 366.058C325.999 366.283 326.324 366.6 326.549 367.007C326.783 367.414 326.9 367.895 326.9 368.45V369.711H322.454V370.4C322.454 370.963 322.597 371.397 322.883 371.7C323.169 371.995 323.576 372.142 324.105 372.142C324.556 372.142 324.92 372.064 325.197 371.908C325.474 371.743 325.643 371.501 325.704 371.18H326.874C326.796 371.778 326.501 372.255 325.99 372.61C325.487 372.957 324.859 373.13 324.105 373.13ZM325.756 368.931V368.45C325.756 367.887 325.613 367.453 325.327 367.15C325.05 366.847 324.642 366.695 324.105 366.695C323.576 366.695 323.169 366.847 322.883 367.15C322.597 367.453 322.454 367.887 322.454 368.45V368.827H325.847L325.756 368.931ZM331.952 373.13C331.38 373.13 330.877 373.022 330.444 372.805C330.019 372.588 329.69 372.276 329.456 371.869C329.222 371.453 329.105 370.963 329.105 370.4V368.45C329.105 367.878 329.222 367.388 329.456 366.981C329.69 366.574 330.019 366.262 330.444 366.045C330.877 365.828 331.38 365.72 331.952 365.72C332.775 365.72 333.438 365.941 333.941 366.383C334.444 366.825 334.708 367.427 334.734 368.19H333.564C333.538 367.731 333.382 367.38 333.096 367.137C332.819 366.886 332.437 366.76 331.952 366.76C331.441 366.76 331.033 366.907 330.73 367.202C330.427 367.488 330.275 367.9 330.275 368.437V370.4C330.275 370.937 330.427 371.353 330.73 371.648C331.033 371.943 331.441 372.09 331.952 372.09C332.437 372.09 332.819 371.964 333.096 371.713C333.382 371.462 333.538 371.111 333.564 370.66H334.734C334.708 371.423 334.444 372.025 333.941 372.467C333.438 372.909 332.775 373.13 331.952 373.13ZM339.695 373.13C339.132 373.13 338.638 373.017 338.213 372.792C337.797 372.567 337.472 372.25 337.238 371.843C337.013 371.427 336.9 370.946 336.9 370.4V368.45C336.9 367.895 337.013 367.414 337.238 367.007C337.472 366.6 337.797 366.283 338.213 366.058C338.638 365.833 339.132 365.72 339.695 365.72C340.258 365.72 340.748 365.833 341.164 366.058C341.589 366.283 341.914 366.6 342.139 367.007C342.373 367.414 342.49 367.895 342.49 368.45V369.711H338.044V370.4C338.044 370.963 338.187 371.397 338.473 371.7C338.759 371.995 339.166 372.142 339.695 372.142C340.146 372.142 340.51 372.064 340.787 371.908C341.064 371.743 341.233 371.501 341.294 371.18H342.464C342.386 371.778 342.091 372.255 341.58 372.61C341.077 372.957 340.449 373.13 339.695 373.13ZM341.346 368.931V368.45C341.346 367.887 341.203 367.453 340.917 367.15C340.64 366.847 340.232 366.695 339.695 366.695C339.166 366.695 338.759 366.847 338.473 367.15C338.187 367.453 338.044 367.887 338.044 368.45V368.827H341.437L341.346 368.931ZM344.695 373V371.934H347.23V366.916H345.02V365.85H348.4V371.934H350.805V373H344.695ZM347.685 364.563C347.399 364.563 347.174 364.489 347.009 364.342C346.844 364.195 346.762 363.995 346.762 363.744C346.762 363.484 346.844 363.28 347.009 363.133C347.174 362.977 347.399 362.899 347.685 362.899C347.971 362.899 348.196 362.977 348.361 363.133C348.526 363.28 348.608 363.484 348.608 363.744C348.608 363.995 348.526 364.195 348.361 364.342C348.196 364.489 347.971 364.563 347.685 364.563ZM352.581 375.34V365.85H353.751V367.215H353.985L353.751 367.488C353.751 366.942 353.928 366.513 354.284 366.201C354.648 365.88 355.124 365.72 355.714 365.72C356.433 365.72 357.005 365.958 357.43 366.435C357.863 366.903 358.08 367.549 358.08 368.372V370.465C358.08 371.011 357.98 371.483 357.781 371.882C357.59 372.281 357.317 372.588 356.962 372.805C356.615 373.022 356.199 373.13 355.714 373.13C355.133 373.13 354.661 372.97 354.297 372.649C353.933 372.328 353.751 371.899 353.751 371.362L353.985 371.635H353.725L353.751 373.26V375.34H352.581ZM355.324 372.116C355.818 372.116 356.203 371.969 356.481 371.674C356.767 371.379 356.91 370.955 356.91 370.4V368.45C356.91 367.895 356.767 367.471 356.481 367.176C356.203 366.881 355.818 366.734 355.324 366.734C354.847 366.734 354.466 366.886 354.18 367.189C353.894 367.492 353.751 367.913 353.751 368.45V370.4C353.751 370.937 353.894 371.358 354.18 371.661C354.466 371.964 354.847 372.116 355.324 372.116ZM363.86 373C363.244 373 362.763 372.835 362.417 372.506C362.079 372.177 361.91 371.713 361.91 371.115V366.916H359.895V365.85H361.91V363.835H363.08V365.85H365.94V366.916H363.08V371.115C363.08 371.661 363.34 371.934 363.86 371.934H365.81V373H363.86ZM370.654 373.104C370.168 373.104 369.744 373.03 369.38 372.883C369.024 372.727 368.738 372.51 368.522 372.233C368.314 371.956 368.188 371.626 368.145 371.245H369.315C369.367 371.496 369.505 371.696 369.731 371.843C369.965 371.99 370.272 372.064 370.654 372.064H371.2C371.659 372.064 372.001 371.973 372.227 371.791C372.452 371.6 372.565 371.349 372.565 371.037C372.565 370.734 372.461 370.495 372.253 370.322C372.053 370.14 371.754 370.019 371.356 369.958L370.394 369.802C369.692 369.681 369.167 369.464 368.821 369.152C368.483 368.831 368.314 368.368 368.314 367.761C368.314 367.12 368.517 366.626 368.925 366.279C369.332 365.924 369.943 365.746 370.758 365.746H371.252C371.936 365.746 372.487 365.906 372.903 366.227C373.319 366.548 373.57 366.981 373.657 367.527H372.487C372.435 367.302 372.305 367.124 372.097 366.994C371.889 366.855 371.607 366.786 371.252 366.786H370.758C370.316 366.786 369.991 366.868 369.783 367.033C369.583 367.198 369.484 367.445 369.484 367.774C369.484 368.069 369.57 368.285 369.744 368.424C369.917 368.563 370.19 368.662 370.563 368.723L371.525 368.879C372.296 369 372.855 369.226 373.202 369.555C373.557 369.884 373.735 370.361 373.735 370.985C373.735 371.644 373.522 372.164 373.098 372.545C372.682 372.918 372.049 373.104 371.2 373.104H370.654ZM387.244 373C386.629 373 386.148 372.835 385.801 372.506C385.463 372.177 385.294 371.713 385.294 371.115V366.916H383.279V365.85H385.294V363.835H386.464V365.85H389.324V366.916H386.464V371.115C386.464 371.661 386.724 371.934 387.244 371.934H389.194V373H387.244ZM394.259 373.104C393.687 373.104 393.193 372.996 392.777 372.779C392.361 372.562 392.036 372.25 391.802 371.843C391.577 371.427 391.464 370.937 391.464 370.374V368.476C391.464 367.904 391.577 367.414 391.802 367.007C392.036 366.6 392.361 366.288 392.777 366.071C393.193 365.854 393.687 365.746 394.259 365.746C394.831 365.746 395.325 365.854 395.741 366.071C396.157 366.288 396.478 366.6 396.703 367.007C396.937 367.414 397.054 367.9 397.054 368.463V370.374C397.054 370.937 396.937 371.427 396.703 371.843C396.478 372.25 396.157 372.562 395.741 372.779C395.325 372.996 394.831 373.104 394.259 373.104ZM394.259 372.064C394.771 372.064 395.169 371.921 395.455 371.635C395.741 371.349 395.884 370.929 395.884 370.374V368.476C395.884 367.921 395.741 367.501 395.455 367.215C395.169 366.929 394.771 366.786 394.259 366.786C393.757 366.786 393.358 366.929 393.063 367.215C392.777 367.501 392.634 367.921 392.634 368.476V370.374C392.634 370.929 392.777 371.349 393.063 371.635C393.358 371.921 393.757 372.064 394.259 372.064ZM409.836 373.13C409.013 373.13 408.354 372.887 407.86 372.402C407.366 371.908 407.119 371.241 407.119 370.4V365.85H408.289V370.4C408.289 370.937 408.428 371.358 408.705 371.661C408.983 371.956 409.36 372.103 409.836 372.103C410.322 372.103 410.703 371.956 410.98 371.661C411.266 371.358 411.409 370.937 411.409 370.4V365.85H412.579V370.4C412.579 371.241 412.328 371.908 411.825 372.402C411.323 372.887 410.66 373.13 409.836 373.13ZM414.94 373V365.85H416.11V367.215H416.357L416.11 367.488C416.11 366.925 416.279 366.491 416.617 366.188C416.955 365.876 417.423 365.72 418.021 365.72C418.74 365.72 419.312 365.941 419.737 366.383C420.162 366.825 420.374 367.427 420.374 368.19V373H419.204V368.32C419.204 367.809 419.065 367.419 418.788 367.15C418.519 366.873 418.151 366.734 417.683 366.734C417.198 366.734 416.812 366.881 416.526 367.176C416.249 367.471 416.11 367.895 416.11 368.45V373H414.94ZM426.414 373C425.998 373 425.634 372.918 425.322 372.753C425.01 372.588 424.767 372.354 424.594 372.051C424.421 371.748 424.334 371.392 424.334 370.985V364.576H421.929V363.51H425.504V370.985C425.504 371.28 425.586 371.514 425.751 371.687C425.916 371.852 426.137 371.934 426.414 371.934H428.689V373H426.414ZM433.234 373.104C432.662 373.104 432.168 372.996 431.752 372.779C431.336 372.562 431.011 372.25 430.777 371.843C430.552 371.427 430.439 370.937 430.439 370.374V368.476C430.439 367.904 430.552 367.414 430.777 367.007C431.011 366.6 431.336 366.288 431.752 366.071C432.168 365.854 432.662 365.746 433.234 365.746C433.806 365.746 434.3 365.854 434.716 366.071C435.132 366.288 435.453 366.6 435.678 367.007C435.912 367.414 436.029 367.9 436.029 368.463V370.374C436.029 370.937 435.912 371.427 435.678 371.843C435.453 372.25 435.132 372.562 434.716 372.779C434.3 372.996 433.806 373.104 433.234 373.104ZM433.234 372.064C433.745 372.064 434.144 371.921 434.43 371.635C434.716 371.349 434.859 370.929 434.859 370.374V368.476C434.859 367.921 434.716 367.501 434.43 367.215C434.144 366.929 433.745 366.786 433.234 366.786C432.731 366.786 432.333 366.929 432.038 367.215C431.752 367.501 431.609 367.921 431.609 368.476V370.374C431.609 370.929 431.752 371.349 432.038 371.635C432.333 371.921 432.731 372.064 433.234 372.064ZM441.081 373.13C440.509 373.13 440.006 373.022 439.573 372.805C439.148 372.588 438.819 372.276 438.585 371.869C438.351 371.453 438.234 370.963 438.234 370.4V368.45C438.234 367.878 438.351 367.388 438.585 366.981C438.819 366.574 439.148 366.262 439.573 366.045C440.006 365.828 440.509 365.72 441.081 365.72C441.904 365.72 442.567 365.941 443.07 366.383C443.573 366.825 443.837 367.427 443.863 368.19H442.693C442.667 367.731 442.511 367.38 442.225 367.137C441.948 366.886 441.566 366.76 441.081 366.76C440.57 366.76 440.162 366.907 439.859 367.202C439.556 367.488 439.404 367.9 439.404 368.437V370.4C439.404 370.937 439.556 371.353 439.859 371.648C440.162 371.943 440.57 372.09 441.081 372.09C441.566 372.09 441.948 371.964 442.225 371.713C442.511 371.462 442.667 371.111 442.693 370.66H443.863C443.837 371.423 443.573 372.025 443.07 372.467C442.567 372.909 441.904 373.13 441.081 373.13ZM446.159 373V363.51H447.329V368.801H448.707L450.787 365.85H452.126L449.721 369.256L452.165 373H450.8L448.72 369.815H447.329V373H446.159ZM464.193 373.104C463.707 373.104 463.283 373.03 462.919 372.883C462.563 372.727 462.277 372.51 462.061 372.233C461.853 371.956 461.727 371.626 461.684 371.245H462.854C462.906 371.496 463.044 371.696 463.27 371.843C463.504 371.99 463.811 372.064 464.193 372.064H464.739C465.198 372.064 465.54 371.973 465.766 371.791C465.991 371.6 466.104 371.349 466.104 371.037C466.104 370.734 466 370.495 465.792 370.322C465.592 370.14 465.293 370.019 464.895 369.958L463.933 369.802C463.231 369.681 462.706 369.464 462.36 369.152C462.022 368.831 461.853 368.368 461.853 367.761C461.853 367.12 462.056 366.626 462.464 366.279C462.871 365.924 463.482 365.746 464.297 365.746H464.791C465.475 365.746 466.026 365.906 466.442 366.227C466.858 366.548 467.109 366.981 467.196 367.527H466.026C465.974 367.302 465.844 367.124 465.636 366.994C465.428 366.855 465.146 366.786 464.791 366.786H464.297C463.855 366.786 463.53 366.868 463.322 367.033C463.122 367.198 463.023 367.445 463.023 367.774C463.023 368.069 463.109 368.285 463.283 368.424C463.456 368.563 463.729 368.662 464.102 368.723L465.064 368.879C465.835 369 466.394 369.226 466.741 369.555C467.096 369.884 467.274 370.361 467.274 370.985C467.274 371.644 467.061 372.164 466.637 372.545C466.221 372.918 465.588 373.104 464.739 373.104H464.193ZM469.544 373V363.497H475.134V364.563H470.688V367.722H474.796V368.788H470.714V373H469.544ZM477.599 373V363.51H478.769V371.934H483.059V373H477.599ZM485.094 373V363.51H488.032C488.596 363.51 489.09 363.627 489.514 363.861C489.939 364.086 490.268 364.403 490.502 364.81C490.736 365.217 490.853 365.694 490.853 366.24C490.853 366.881 490.684 367.432 490.346 367.891C490.017 368.35 489.566 368.667 488.994 368.84L490.983 373H489.605L487.785 368.97H486.264V373H485.094ZM486.264 367.917H488.032C488.518 367.917 488.908 367.765 489.202 367.462C489.497 367.15 489.644 366.743 489.644 366.24C489.644 365.729 489.497 365.321 489.202 365.018C488.908 364.715 488.518 364.563 488.032 364.563H486.264V367.917Z" fill="black"/>
<path d="M218.426 223.13C217.854 223.13 217.351 223.022 216.918 222.805C216.493 222.588 216.164 222.276 215.93 221.869C215.696 221.453 215.579 220.963 215.579 220.4V218.45C215.579 217.878 215.696 217.388 215.93 216.981C216.164 216.574 216.493 216.262 216.918 216.045C217.351 215.828 217.854 215.72 218.426 215.72C219.249 215.72 219.912 215.941 220.415 216.383C220.917 216.825 221.182 217.427 221.208 218.19H220.038C220.012 217.731 219.856 217.38 219.57 217.137C219.292 216.886 218.911 216.76 218.426 216.76C217.914 216.76 217.507 216.907 217.204 217.202C216.9 217.488 216.749 217.9 216.749 218.437V220.4C216.749 220.937 216.9 221.353 217.204 221.648C217.507 221.943 217.914 222.09 218.426 222.09C218.911 222.09 219.292 221.964 219.57 221.713C219.856 221.462 220.012 221.111 220.038 220.66H221.208C221.182 221.423 220.917 222.025 220.415 222.467C219.912 222.909 219.249 223.13 218.426 223.13ZM224.583 225.34L225.636 222.558L222.984 215.85H224.284L225.948 220.27C226.008 220.417 226.065 220.595 226.117 220.803C226.169 221.002 226.212 221.171 226.247 221.31C226.281 221.171 226.325 221.002 226.377 220.803C226.429 220.595 226.481 220.417 226.533 220.27L228.093 215.85H229.354L225.831 225.34H224.583ZM233.742 223.104C233.257 223.104 232.832 223.03 232.468 222.883C232.113 222.727 231.827 222.51 231.61 222.233C231.402 221.956 231.277 221.626 231.233 221.245H232.403C232.455 221.496 232.594 221.696 232.819 221.843C233.053 221.99 233.361 222.064 233.742 222.064H234.288C234.748 222.064 235.09 221.973 235.315 221.791C235.541 221.6 235.653 221.349 235.653 221.037C235.653 220.734 235.549 220.495 235.341 220.322C235.142 220.14 234.843 220.019 234.444 219.958L233.482 219.802C232.78 219.681 232.256 219.464 231.909 219.152C231.571 218.831 231.402 218.368 231.402 217.761C231.402 217.12 231.606 216.626 232.013 216.279C232.421 215.924 233.032 215.746 233.846 215.746H234.34C235.025 215.746 235.575 215.906 235.991 216.227C236.407 216.548 236.659 216.981 236.745 217.527H235.575C235.523 217.302 235.393 217.124 235.185 216.994C234.977 216.855 234.696 216.786 234.34 216.786H233.846C233.404 216.786 233.079 216.868 232.871 217.033C232.672 217.198 232.572 217.445 232.572 217.774C232.572 218.069 232.659 218.285 232.832 218.424C233.006 218.563 233.279 218.662 233.651 218.723L234.613 218.879C235.385 219 235.944 219.226 236.29 219.555C236.646 219.884 236.823 220.361 236.823 220.985C236.823 221.644 236.611 222.164 236.186 222.545C235.77 222.918 235.138 223.104 234.288 223.104H233.742ZM239.093 223V213.497H244.683V214.563H240.237V217.722H244.345V218.788H240.263V223H239.093ZM247.148 223V213.51H248.318V221.934H252.608V223H247.148ZM254.644 223V213.51H257.582C258.146 213.51 258.64 213.627 259.064 213.861C259.489 214.086 259.818 214.403 260.052 214.81C260.286 215.217 260.403 215.694 260.403 216.24C260.403 216.881 260.234 217.432 259.896 217.891C259.567 218.35 259.116 218.667 258.544 218.84L260.533 223H259.155L257.335 218.97H255.814V223H254.644ZM255.814 217.917H257.582C258.068 217.917 258.458 217.765 258.752 217.462C259.047 217.15 259.194 216.743 259.194 216.24C259.194 215.729 259.047 215.321 258.752 215.018C258.458 214.715 258.068 214.563 257.582 214.563H255.814V217.917ZM270.013 224.43L274.628 212.21H275.863L271.248 224.43H270.013ZM285.824 223V213.51H288.762C289.325 213.51 289.819 213.627 290.244 213.861C290.669 214.086 290.998 214.403 291.232 214.81C291.466 215.217 291.583 215.694 291.583 216.24C291.583 216.881 291.414 217.432 291.076 217.891C290.747 218.35 290.296 218.667 289.724 218.84L291.713 223H290.335L288.515 218.97H286.994V223H285.824ZM286.994 217.917H288.762C289.247 217.917 289.637 217.765 289.932 217.462C290.227 217.15 290.374 216.743 290.374 216.24C290.374 215.729 290.227 215.321 289.932 215.018C289.637 214.715 289.247 214.563 288.762 214.563H286.994V217.917ZM296.323 223.13C295.76 223.13 295.266 223.017 294.841 222.792C294.425 222.567 294.1 222.25 293.866 221.843C293.641 221.427 293.528 220.946 293.528 220.4V218.45C293.528 217.895 293.641 217.414 293.866 217.007C294.1 216.6 294.425 216.283 294.841 216.058C295.266 215.833 295.76 215.72 296.323 215.72C296.886 215.72 297.376 215.833 297.792 216.058C298.217 216.283 298.542 216.6 298.767 217.007C299.001 217.414 299.118 217.895 299.118 218.45V219.711H294.672V220.4C294.672 220.963 294.815 221.397 295.101 221.7C295.387 221.995 295.794 222.142 296.323 222.142C296.774 222.142 297.138 222.064 297.415 221.908C297.692 221.743 297.861 221.501 297.922 221.18H299.092C299.014 221.778 298.719 222.255 298.208 222.61C297.705 222.957 297.077 223.13 296.323 223.13ZM297.974 218.931V218.45C297.974 217.887 297.831 217.453 297.545 217.15C297.268 216.847 296.86 216.695 296.323 216.695C295.794 216.695 295.387 216.847 295.101 217.15C294.815 217.453 294.672 217.887 294.672 218.45V218.827H298.065L297.974 218.931ZM304.17 223.13C303.598 223.13 303.095 223.022 302.662 222.805C302.237 222.588 301.908 222.276 301.674 221.869C301.44 221.453 301.323 220.963 301.323 220.4V218.45C301.323 217.878 301.44 217.388 301.674 216.981C301.908 216.574 302.237 216.262 302.662 216.045C303.095 215.828 303.598 215.72 304.17 215.72C304.993 215.72 305.656 215.941 306.159 216.383C306.661 216.825 306.926 217.427 306.952 218.19H305.782C305.756 217.731 305.6 217.38 305.314 217.137C305.036 216.886 304.655 216.76 304.17 216.76C303.658 216.76 303.251 216.907 302.948 217.202C302.644 217.488 302.493 217.9 302.493 218.437V220.4C302.493 220.937 302.644 221.353 302.948 221.648C303.251 221.943 303.658 222.09 304.17 222.09C304.655 222.09 305.036 221.964 305.314 221.713C305.6 221.462 305.756 221.111 305.782 220.66H306.952C306.926 221.423 306.661 222.025 306.159 222.467C305.656 222.909 304.993 223.13 304.17 223.13ZM311.913 223.13C311.349 223.13 310.855 223.017 310.431 222.792C310.015 222.567 309.69 222.25 309.456 221.843C309.23 221.427 309.118 220.946 309.118 220.4V218.45C309.118 217.895 309.23 217.414 309.456 217.007C309.69 216.6 310.015 216.283 310.431 216.058C310.855 215.833 311.349 215.72 311.913 215.72C312.476 215.72 312.966 215.833 313.382 216.058C313.806 216.283 314.131 216.6 314.357 217.007C314.591 217.414 314.708 217.895 314.708 218.45V219.711H310.262V220.4C310.262 220.963 310.405 221.397 310.691 221.7C310.977 221.995 311.384 222.142 311.913 222.142C312.363 222.142 312.727 222.064 313.005 221.908C313.282 221.743 313.451 221.501 313.512 221.18H314.682C314.604 221.778 314.309 222.255 313.798 222.61C313.295 222.957 312.667 223.13 311.913 223.13ZM313.564 218.931V218.45C313.564 217.887 313.421 217.453 313.135 217.15C312.857 216.847 312.45 216.695 311.913 216.695C311.384 216.695 310.977 216.847 310.691 217.15C310.405 217.453 310.262 217.887 310.262 218.45V218.827H313.655L313.564 218.931ZM316.913 223V221.934H319.448V216.916H317.238V215.85H320.618V221.934H323.023V223H316.913ZM319.903 214.563C319.617 214.563 319.391 214.489 319.227 214.342C319.062 214.195 318.98 213.995 318.98 213.744C318.98 213.484 319.062 213.28 319.227 213.133C319.391 212.977 319.617 212.899 319.903 212.899C320.189 212.899 320.414 212.977 320.579 213.133C320.743 213.28 320.826 213.484 320.826 213.744C320.826 213.995 320.743 214.195 320.579 214.342C320.414 214.489 320.189 214.563 319.903 214.563ZM324.799 225.34V215.85H325.969V217.215H326.203L325.969 217.488C325.969 216.942 326.146 216.513 326.502 216.201C326.866 215.88 327.342 215.72 327.932 215.72C328.651 215.72 329.223 215.958 329.648 216.435C330.081 216.903 330.298 217.549 330.298 218.372V220.465C330.298 221.011 330.198 221.483 329.999 221.882C329.808 222.281 329.535 222.588 329.18 222.805C328.833 223.022 328.417 223.13 327.932 223.13C327.351 223.13 326.879 222.97 326.515 222.649C326.151 222.328 325.969 221.899 325.969 221.362L326.203 221.635H325.943L325.969 223.26V225.34H324.799ZM327.542 222.116C328.036 222.116 328.421 221.969 328.699 221.674C328.985 221.379 329.128 220.955 329.128 220.4V218.45C329.128 217.895 328.985 217.471 328.699 217.176C328.421 216.881 328.036 216.734 327.542 216.734C327.065 216.734 326.684 216.886 326.398 217.189C326.112 217.492 325.969 217.913 325.969 218.45V220.4C325.969 220.937 326.112 221.358 326.398 221.661C326.684 221.964 327.065 222.116 327.542 222.116ZM336.077 223C335.462 223 334.981 222.835 334.634 222.506C334.296 222.177 334.127 221.713 334.127 221.115V216.916H332.112V215.85H334.127V213.835H335.297V215.85H338.157V216.916H335.297V221.115C335.297 221.661 335.557 221.934 336.077 221.934H338.027V223H336.077ZM348.183 225.34V215.85H349.353V217.215H349.587L349.353 217.488C349.353 216.942 349.531 216.513 349.886 216.201C350.25 215.88 350.727 215.72 351.316 215.72C352.036 215.72 352.608 215.958 353.032 216.435C353.466 216.903 353.682 217.549 353.682 218.372V220.465C353.682 221.011 353.583 221.483 353.383 221.882C353.193 222.281 352.92 222.588 352.564 222.805C352.218 223.022 351.802 223.13 351.316 223.13C350.736 223.13 350.263 222.97 349.899 222.649C349.535 222.328 349.353 221.899 349.353 221.362L349.587 221.635H349.327L349.353 223.26V225.34H348.183ZM350.926 222.116C351.42 222.116 351.806 221.969 352.083 221.674C352.369 221.379 352.512 220.955 352.512 220.4V218.45C352.512 217.895 352.369 217.471 352.083 217.176C351.806 216.881 351.42 216.734 350.926 216.734C350.45 216.734 350.068 216.886 349.782 217.189C349.496 217.492 349.353 217.913 349.353 218.45V220.4C349.353 220.937 349.496 221.358 349.782 221.661C350.068 221.964 350.45 222.116 350.926 222.116ZM356.225 223V215.85H357.369V217.215H357.642L357.265 218.06C357.265 217.289 357.43 216.708 357.759 216.318C358.097 215.919 358.596 215.72 359.254 215.72C360.008 215.72 360.606 215.958 361.048 216.435C361.499 216.903 361.724 217.54 361.724 218.346V218.775H360.554V218.45C360.554 217.887 360.416 217.458 360.138 217.163C359.87 216.86 359.484 216.708 358.981 216.708C358.487 216.708 358.097 216.86 357.811 217.163C357.534 217.466 357.395 217.895 357.395 218.45V223H356.225ZM363.682 223V221.934H366.217V216.916H364.007V215.85H367.387V221.934H369.792V223H363.682ZM366.672 214.563C366.386 214.563 366.161 214.489 365.996 214.342C365.831 214.195 365.749 213.995 365.749 213.744C365.749 213.484 365.831 213.28 365.996 213.133C366.161 212.977 366.386 212.899 366.672 212.899C366.958 212.899 367.183 212.977 367.348 213.133C367.513 213.28 367.595 213.484 367.595 213.744C367.595 213.995 367.513 214.195 367.348 214.342C367.183 214.489 366.958 214.563 366.672 214.563ZM374.324 223.13C373.752 223.13 373.249 223.022 372.816 222.805C372.391 222.588 372.062 222.276 371.828 221.869C371.594 221.453 371.477 220.963 371.477 220.4V218.45C371.477 217.878 371.594 217.388 371.828 216.981C372.062 216.574 372.391 216.262 372.816 216.045C373.249 215.828 373.752 215.72 374.324 215.72C375.147 215.72 375.81 215.941 376.313 216.383C376.816 216.825 377.08 217.427 377.106 218.19H375.936C375.91 217.731 375.754 217.38 375.468 217.137C375.191 216.886 374.809 216.76 374.324 216.76C373.813 216.76 373.405 216.907 373.102 217.202C372.799 217.488 372.647 217.9 372.647 218.437V220.4C372.647 220.937 372.799 221.353 373.102 221.648C373.405 221.943 373.813 222.09 374.324 222.09C374.809 222.09 375.191 221.964 375.468 221.713C375.754 221.462 375.91 221.111 375.936 220.66H377.106C377.08 221.423 376.816 222.025 376.313 222.467C375.81 222.909 375.147 223.13 374.324 223.13ZM382.067 223.13C381.504 223.13 381.01 223.017 380.585 222.792C380.169 222.567 379.844 222.25 379.61 221.843C379.385 221.427 379.272 220.946 379.272 220.4V218.45C379.272 217.895 379.385 217.414 379.61 217.007C379.844 216.6 380.169 216.283 380.585 216.058C381.01 215.833 381.504 215.72 382.067 215.72C382.63 215.72 383.12 215.833 383.536 216.058C383.961 216.283 384.286 216.6 384.511 217.007C384.745 217.414 384.862 217.895 384.862 218.45V219.711H380.416V220.4C380.416 220.963 380.559 221.397 380.845 221.7C381.131 221.995 381.538 222.142 382.067 222.142C382.518 222.142 382.882 222.064 383.159 221.908C383.436 221.743 383.605 221.501 383.666 221.18H384.836C384.758 221.778 384.463 222.255 383.952 222.61C383.449 222.957 382.821 223.13 382.067 223.13ZM383.718 218.931V218.45C383.718 217.887 383.575 217.453 383.289 217.15C383.012 216.847 382.604 216.695 382.067 216.695C381.538 216.695 381.131 216.847 380.845 217.15C380.559 217.453 380.416 217.887 380.416 218.45V218.827H383.809L383.718 218.931ZM394.862 217.67V216.63H400.452V217.67H394.862ZM394.862 220.79V219.75H400.452V220.79H394.862ZM413.026 223.104C412.54 223.104 412.116 223.03 411.752 222.883C411.396 222.727 411.11 222.51 410.894 222.233C410.686 221.956 410.56 221.626 410.517 221.245H411.687C411.739 221.496 411.877 221.696 412.103 221.843C412.337 221.99 412.644 222.064 413.026 222.064H413.572C414.031 222.064 414.373 221.973 414.599 221.791C414.824 221.6 414.937 221.349 414.937 221.037C414.937 220.734 414.833 220.495 414.625 220.322C414.425 220.14 414.126 220.019 413.728 219.958L412.766 219.802C412.064 219.681 411.539 219.464 411.193 219.152C410.855 218.831 410.686 218.368 410.686 217.761C410.686 217.12 410.889 216.626 411.297 216.279C411.704 215.924 412.315 215.746 413.13 215.746H413.624C414.308 215.746 414.859 215.906 415.275 216.227C415.691 216.548 415.942 216.981 416.029 217.527H414.859C414.807 217.302 414.677 217.124 414.469 216.994C414.261 216.855 413.979 216.786 413.624 216.786H413.13C412.688 216.786 412.363 216.868 412.155 217.033C411.955 217.198 411.856 217.445 411.856 217.774C411.856 218.069 411.942 218.285 412.116 218.424C412.289 218.563 412.562 218.662 412.935 218.723L413.897 218.879C414.668 219 415.227 219.226 415.574 219.555C415.929 219.884 416.107 220.361 416.107 220.985C416.107 221.644 415.894 222.164 415.47 222.545C415.054 222.918 414.421 223.104 413.572 223.104H413.026ZM418.377 223V213.497H423.967V214.563H419.521V217.722H423.629V218.788H419.547V223H418.377ZM426.432 223V213.51H427.602V221.934H431.892V223H426.432ZM433.927 223V213.51H436.865C437.429 213.51 437.923 213.627 438.347 213.861C438.772 214.086 439.101 214.403 439.335 214.81C439.569 215.217 439.686 215.694 439.686 216.24C439.686 216.881 439.517 217.432 439.179 217.891C438.85 218.35 438.399 218.667 437.827 218.84L439.816 223H438.438L436.618 218.97H435.097V223H433.927ZM435.097 217.917H436.865C437.351 217.917 437.741 217.765 438.035 217.462C438.33 217.15 438.477 216.743 438.477 216.24C438.477 215.729 438.33 215.321 438.035 215.018C437.741 214.715 437.351 214.563 436.865 214.563H435.097V217.917ZM250.721 245V243.934H253.295V236.485L250.721 238.409V237.109L252.866 235.51H254.465V243.934H256.571V245H250.721ZM261.246 245.13C260.665 245.13 260.158 245.017 259.725 244.792C259.3 244.558 258.971 244.233 258.737 243.817C258.503 243.392 258.386 242.898 258.386 242.335V238.175C258.386 237.603 258.503 237.109 258.737 236.693C258.971 236.277 259.3 235.956 259.725 235.731C260.158 235.497 260.665 235.38 261.246 235.38C261.835 235.38 262.342 235.497 262.767 235.731C263.191 235.956 263.521 236.277 263.755 236.693C263.989 237.109 264.106 237.603 264.106 238.175V242.335C264.106 242.898 263.989 243.392 263.755 243.817C263.521 244.233 263.187 244.558 262.754 244.792C262.329 245.017 261.826 245.13 261.246 245.13ZM261.246 244.129C261.766 244.129 262.182 243.964 262.494 243.635C262.814 243.297 262.975 242.864 262.975 242.335V238.175C262.975 237.646 262.814 237.217 262.494 236.888C262.182 236.55 261.766 236.381 261.246 236.381C260.726 236.381 260.305 236.55 259.985 236.888C259.673 237.217 259.517 237.646 259.517 238.175V242.335C259.517 242.864 259.673 243.297 259.985 243.635C260.305 243.964 260.726 244.129 261.246 244.129ZM261.246 241.022C261.012 241.022 260.821 240.948 260.674 240.801C260.535 240.654 260.466 240.459 260.466 240.216C260.466 239.982 260.535 239.796 260.674 239.657C260.821 239.51 261.012 239.436 261.246 239.436C261.48 239.436 261.666 239.51 261.805 239.657C261.952 239.796 262.026 239.982 262.026 240.216C262.026 240.459 261.952 240.654 261.805 240.801C261.666 240.948 261.48 241.022 261.246 241.022ZM273.911 246.43L278.526 234.21H279.761L275.146 246.43H273.911ZM292.425 245.13C291.845 245.13 291.338 245.017 290.904 244.792C290.48 244.558 290.15 244.233 289.916 243.817C289.682 243.392 289.565 242.898 289.565 242.335V238.175C289.565 237.603 289.682 237.109 289.916 236.693C290.15 236.277 290.48 235.956 290.904 235.731C291.338 235.497 291.845 235.38 292.425 235.38C293.015 235.38 293.522 235.497 293.946 235.731C294.371 235.956 294.7 236.277 294.934 236.693C295.168 237.109 295.285 237.603 295.285 238.175V242.335C295.285 242.898 295.168 243.392 294.934 243.817C294.7 244.233 294.367 244.558 293.933 244.792C293.509 245.017 293.006 245.13 292.425 245.13ZM292.425 244.129C292.945 244.129 293.361 243.964 293.673 243.635C293.994 243.297 294.154 242.864 294.154 242.335V238.175C294.154 237.646 293.994 237.217 293.673 236.888C293.361 236.55 292.945 236.381 292.425 236.381C291.905 236.381 291.485 236.55 291.164 236.888C290.852 237.217 290.696 237.646 290.696 238.175V242.335C290.696 242.864 290.852 243.297 291.164 243.635C291.485 243.964 291.905 244.129 292.425 244.129ZM292.425 241.022C292.191 241.022 292.001 240.948 291.853 240.801C291.715 240.654 291.645 240.459 291.645 240.216C291.645 239.982 291.715 239.796 291.853 239.657C292.001 239.51 292.191 239.436 292.425 239.436C292.659 239.436 292.846 239.51 292.984 239.657C293.132 239.796 293.205 239.982 293.205 240.216C293.205 240.459 293.132 240.654 292.984 240.801C292.846 240.948 292.659 241.022 292.425 241.022ZM300.22 245.13C299.891 245.13 299.627 245.035 299.427 244.844C299.237 244.653 299.141 244.398 299.141 244.077C299.141 243.739 299.237 243.47 299.427 243.271C299.627 243.072 299.891 242.972 300.22 242.972C300.55 242.972 300.81 243.072 301 243.271C301.2 243.47 301.299 243.739 301.299 244.077C301.299 244.398 301.2 244.653 301 244.844C300.81 245.035 300.55 245.13 300.22 245.13ZM308.015 245.13C307.435 245.13 306.928 245.017 306.494 244.792C306.07 244.558 305.74 244.233 305.506 243.817C305.272 243.392 305.155 242.898 305.155 242.335V238.175C305.155 237.603 305.272 237.109 305.506 236.693C305.74 236.277 306.07 235.956 306.494 235.731C306.928 235.497 307.435 235.38 308.015 235.38C308.605 235.38 309.112 235.497 309.536 235.731C309.961 235.956 310.29 236.277 310.524 236.693C310.758 237.109 310.875 237.603 310.875 238.175V242.335C310.875 242.898 310.758 243.392 310.524 243.817C310.29 244.233 309.957 244.558 309.523 244.792C309.099 245.017 308.596 245.13 308.015 245.13ZM308.015 244.129C308.535 244.129 308.951 243.964 309.263 243.635C309.584 243.297 309.744 242.864 309.744 242.335V238.175C309.744 237.646 309.584 237.217 309.263 236.888C308.951 236.55 308.535 236.381 308.015 236.381C307.495 236.381 307.075 236.55 306.754 236.888C306.442 237.217 306.286 237.646 306.286 238.175V242.335C306.286 242.864 306.442 243.297 306.754 243.635C307.075 243.964 307.495 244.129 308.015 244.129ZM308.015 241.022C307.781 241.022 307.591 240.948 307.443 240.801C307.305 240.654 307.235 240.459 307.235 240.216C307.235 239.982 307.305 239.796 307.443 239.657C307.591 239.51 307.781 239.436 308.015 239.436C308.249 239.436 308.436 239.51 308.574 239.657C308.722 239.796 308.795 239.982 308.795 240.216C308.795 240.459 308.722 240.654 308.574 240.801C308.436 240.948 308.249 241.022 308.015 241.022ZM313.106 245V243.804L316.005 240.723C316.499 240.194 316.859 239.726 317.084 239.319C317.309 238.903 317.422 238.504 317.422 238.123C317.422 237.594 317.275 237.178 316.98 236.875C316.694 236.572 316.3 236.42 315.797 236.42C315.242 236.42 314.805 236.576 314.484 236.888C314.172 237.2 314.016 237.629 314.016 238.175H312.846C312.863 237.603 312.993 237.109 313.236 236.693C313.487 236.268 313.83 235.943 314.263 235.718C314.705 235.493 315.216 235.38 315.797 235.38C316.369 235.38 316.863 235.493 317.279 235.718C317.704 235.935 318.029 236.247 318.254 236.654C318.479 237.061 318.592 237.547 318.592 238.11C318.592 238.647 318.449 239.18 318.163 239.709C317.877 240.238 317.409 240.84 316.759 241.516L314.419 243.934H318.748V245H313.106ZM328.605 239.67V238.63H334.195V239.67H328.605ZM328.605 242.79V241.75H334.195V242.79H328.605ZM346.977 245.13C346.102 245.13 345.4 244.913 344.871 244.48C344.342 244.038 344.052 243.44 344 242.686H345.625C345.66 243.015 345.79 243.271 346.015 243.453C346.249 243.626 346.57 243.713 346.977 243.713C347.428 243.713 347.77 243.596 348.004 243.362C348.238 243.119 348.355 242.786 348.355 242.361V241.438C348.355 241.005 348.238 240.675 348.004 240.45C347.77 240.216 347.428 240.099 346.977 240.099C346.7 240.099 346.461 240.155 346.262 240.268C346.063 240.381 345.911 240.537 345.807 240.736H344.221L344.286 235.51H349.629V236.979H345.82L345.794 239.735H346.171L345.781 240.06C345.781 239.661 345.937 239.349 346.249 239.124C346.57 238.89 346.999 238.773 347.536 238.773C348.307 238.764 348.905 238.998 349.33 239.475C349.763 239.943 349.98 240.597 349.98 241.438V242.361C349.98 243.219 349.711 243.895 349.174 244.389C348.645 244.883 347.913 245.13 346.977 245.13ZM354.785 245.13C354.169 245.13 353.636 245.013 353.186 244.779C352.735 244.545 352.384 244.216 352.133 243.791C351.89 243.366 351.769 242.868 351.769 242.296V238.214C351.769 237.642 351.89 237.144 352.133 236.719C352.384 236.294 352.735 235.965 353.186 235.731C353.636 235.497 354.169 235.38 354.785 235.38C355.409 235.38 355.942 235.497 356.384 235.731C356.834 235.965 357.181 236.294 357.424 236.719C357.675 237.144 357.801 237.642 357.801 238.214V242.296C357.801 242.868 357.675 243.366 357.424 243.791C357.181 244.216 356.834 244.545 356.384 244.779C355.933 245.013 355.4 245.13 354.785 245.13ZM354.785 243.726C355.235 243.726 355.595 243.596 355.864 243.336C356.132 243.076 356.267 242.729 356.267 242.296V238.214C356.267 237.781 356.132 237.434 355.864 237.174C355.595 236.914 355.235 236.784 354.785 236.784C354.334 236.784 353.974 236.914 353.706 237.174C353.437 237.434 353.303 237.781 353.303 238.214V242.296C353.303 242.729 353.437 243.076 353.706 243.336C353.974 243.596 354.334 243.726 354.785 243.726ZM354.785 241.1C354.533 241.1 354.325 241.018 354.161 240.853C354.005 240.688 353.927 240.476 353.927 240.216C353.927 239.956 354.005 239.748 354.161 239.592C354.317 239.436 354.525 239.358 354.785 239.358C355.045 239.358 355.253 239.436 355.409 239.592C355.565 239.748 355.643 239.956 355.643 240.216C355.643 240.476 355.565 240.688 355.409 240.853C355.253 241.018 355.045 241.1 354.785 241.1ZM362.58 245.13C361.964 245.13 361.431 245.013 360.981 244.779C360.53 244.545 360.179 244.216 359.928 243.791C359.685 243.366 359.564 242.868 359.564 242.296V238.214C359.564 237.642 359.685 237.144 359.928 236.719C360.179 236.294 360.53 235.965 360.981 235.731C361.431 235.497 361.964 235.38 362.58 235.38C363.204 235.38 363.737 235.497 364.179 235.731C364.629 235.965 364.976 236.294 365.219 236.719C365.47 237.144 365.596 237.642 365.596 238.214V242.296C365.596 242.868 365.47 243.366 365.219 243.791C364.976 244.216 364.629 244.545 364.179 244.779C363.728 245.013 363.195 245.13 362.58 245.13ZM362.58 243.726C363.03 243.726 363.39 243.596 363.659 243.336C363.927 243.076 364.062 242.729 364.062 242.296V238.214C364.062 237.781 363.927 237.434 363.659 237.174C363.39 236.914 363.03 236.784 362.58 236.784C362.129 236.784 361.769 236.914 361.501 237.174C361.232 237.434 361.098 237.781 361.098 238.214V242.296C361.098 242.729 361.232 243.076 361.501 243.336C361.769 243.596 362.129 243.726 362.58 243.726ZM362.58 241.1C362.328 241.1 362.12 241.018 361.956 240.853C361.8 240.688 361.722 240.476 361.722 240.216C361.722 239.956 361.8 239.748 361.956 239.592C362.112 239.436 362.32 239.358 362.58 239.358C362.84 239.358 363.048 239.436 363.204 239.592C363.36 239.748 363.438 239.956 363.438 240.216C363.438 240.476 363.36 240.688 363.204 240.853C363.048 241.018 362.84 241.1 362.58 241.1ZM377.897 245.117C377.351 245.117 376.874 245.03 376.467 244.857C376.059 244.684 375.739 244.445 375.505 244.142C375.279 243.83 375.158 243.466 375.141 243.05H376.766C376.783 243.275 376.891 243.457 377.091 243.596C377.299 243.735 377.567 243.804 377.897 243.804H378.469C378.867 243.804 379.166 243.726 379.366 243.57C379.565 243.414 379.665 243.202 379.665 242.933C379.665 242.682 379.574 242.487 379.392 242.348C379.218 242.201 378.945 242.105 378.573 242.062L377.689 241.932C376.874 241.819 376.276 241.603 375.895 241.282C375.513 240.961 375.323 240.48 375.323 239.839C375.323 239.172 375.548 238.656 375.999 238.292C376.449 237.919 377.112 237.733 377.988 237.733H378.482C379.279 237.733 379.916 237.911 380.393 238.266C380.869 238.621 381.125 239.098 381.16 239.696H379.535C379.509 239.505 379.4 239.349 379.21 239.228C379.028 239.107 378.785 239.046 378.482 239.046H377.988C377.615 239.046 377.342 239.115 377.169 239.254C377.004 239.384 376.922 239.579 376.922 239.839C376.922 240.082 376.995 240.264 377.143 240.385C377.29 240.498 377.528 240.58 377.858 240.632L378.781 240.762C379.63 240.883 380.254 241.113 380.653 241.451C381.06 241.78 381.264 242.27 381.264 242.92C381.264 243.613 381.025 244.155 380.549 244.545C380.081 244.926 379.387 245.117 378.469 245.117H377.897ZM383.104 245V235.51H389.006V237.018H384.703V239.553H388.668V241.061H384.729V245H383.104ZM391.198 245V235.51H392.823V243.492H396.853V245H391.198ZM398.642 245V235.51H401.645C402.278 235.51 402.824 235.627 403.283 235.861C403.751 236.095 404.115 236.424 404.375 236.849C404.635 237.265 404.765 237.759 404.765 238.331C404.765 238.955 404.605 239.505 404.284 239.982C403.972 240.459 403.548 240.797 403.01 240.996L404.895 245H403.075L401.424 241.23H400.267V245H398.642ZM400.267 239.8H401.645C402.105 239.8 402.464 239.674 402.724 239.423C402.984 239.172 403.114 238.825 403.114 238.383C403.114 237.932 402.984 237.581 402.724 237.33C402.464 237.07 402.105 236.94 401.645 236.94H400.267V239.8Z" fill="black"/>
<rect width="118" height="55" transform="translate(44 109)" fill="#1E26E8"/>
<path d="M69.0929 141V139.934H71.6669V132.485L69.0929 134.409V133.109L71.2379 131.51H72.8369V139.934H74.9429V141H69.0929ZM79.6178 141.13C79.0371 141.13 78.5301 141.017 78.0968 140.792C77.6721 140.558 77.3428 140.233 77.1088 139.817C76.8748 139.392 76.7578 138.898 76.7578 138.335V134.175C76.7578 133.603 76.8748 133.109 77.1088 132.693C77.3428 132.277 77.6721 131.956 78.0968 131.731C78.5301 131.497 79.0371 131.38 79.6178 131.38C80.2071 131.38 80.7141 131.497 81.1388 131.731C81.5634 131.956 81.8928 132.277 82.1268 132.693C82.3608 133.109 82.4778 133.603 82.4778 134.175V138.335C82.4778 138.898 82.3608 139.392 82.1268 139.817C81.8928 140.233 81.5591 140.558 81.1258 140.792C80.7011 141.017 80.1984 141.13 79.6178 141.13ZM79.6178 140.129C80.1378 140.129 80.5538 139.964 80.8658 139.635C81.1864 139.297 81.3468 138.864 81.3468 138.335V134.175C81.3468 133.646 81.1864 133.217 80.8658 132.888C80.5538 132.55 80.1378 132.381 79.6178 132.381C79.0978 132.381 78.6774 132.55 78.3568 132.888C78.0448 133.217 77.8888 133.646 77.8888 134.175V138.335C77.8888 138.864 78.0448 139.297 78.3568 139.635C78.6774 139.964 79.0978 140.129 79.6178 140.129ZM79.6178 137.022C79.3838 137.022 79.1931 136.948 79.0458 136.801C78.9071 136.654 78.8378 136.459 78.8378 136.216C78.8378 135.982 78.9071 135.796 79.0458 135.657C79.1931 135.51 79.3838 135.436 79.6178 135.436C79.8518 135.436 80.0381 135.51 80.1768 135.657C80.3241 135.796 80.3978 135.982 80.3978 136.216C80.3978 136.459 80.3241 136.654 80.1768 136.801C80.0381 136.948 79.8518 137.022 79.6178 137.022ZM95.2596 141.13C94.6876 141.13 94.185 141.022 93.7516 140.805C93.327 140.588 92.9976 140.276 92.7636 139.869C92.5296 139.453 92.4126 138.963 92.4126 138.4V136.45C92.4126 135.878 92.5296 135.388 92.7636 134.981C92.9976 134.574 93.327 134.262 93.7516 134.045C94.185 133.828 94.6876 133.72 95.2596 133.72C96.083 133.72 96.746 133.941 97.2486 134.383C97.7513 134.825 98.0156 135.427 98.0416 136.19H96.8716C96.8456 135.731 96.6896 135.38 96.4036 135.137C96.1263 134.886 95.745 134.76 95.2596 134.76C94.7483 134.76 94.341 134.907 94.0376 135.202C93.7343 135.488 93.5826 135.9 93.5826 136.437V138.4C93.5826 138.937 93.7343 139.353 94.0376 139.648C94.341 139.943 94.7483 140.09 95.2596 140.09C95.745 140.09 96.1263 139.964 96.4036 139.713C96.6896 139.462 96.8456 139.111 96.8716 138.66H98.0416C98.0156 139.423 97.7513 140.025 97.2486 140.467C96.746 140.909 96.083 141.13 95.2596 141.13ZM101.417 143.34L102.47 140.558L99.8175 133.85H101.118L102.782 138.27C102.842 138.417 102.899 138.595 102.951 138.803C103.003 139.002 103.046 139.171 103.081 139.31C103.115 139.171 103.159 139.002 103.211 138.803C103.263 138.595 103.315 138.417 103.367 138.27L104.927 133.85H106.188L102.665 143.34H101.417ZM110.576 141.104C110.091 141.104 109.666 141.03 109.302 140.883C108.947 140.727 108.661 140.51 108.444 140.233C108.236 139.956 108.111 139.626 108.067 139.245H109.237C109.289 139.496 109.428 139.696 109.653 139.843C109.887 139.99 110.195 140.064 110.576 140.064H111.122C111.582 140.064 111.924 139.973 112.149 139.791C112.375 139.6 112.487 139.349 112.487 139.037C112.487 138.734 112.383 138.495 112.175 138.322C111.976 138.14 111.677 138.019 111.278 137.958L110.316 137.802C109.614 137.681 109.09 137.464 108.743 137.152C108.405 136.831 108.236 136.368 108.236 135.761C108.236 135.12 108.44 134.626 108.847 134.279C109.255 133.924 109.866 133.746 110.68 133.746H111.174C111.859 133.746 112.409 133.906 112.825 134.227C113.241 134.548 113.493 134.981 113.579 135.527H112.409C112.357 135.302 112.227 135.124 112.019 134.994C111.811 134.855 111.53 134.786 111.174 134.786H110.68C110.238 134.786 109.913 134.868 109.705 135.033C109.506 135.198 109.406 135.445 109.406 135.774C109.406 136.069 109.493 136.285 109.666 136.424C109.84 136.563 110.113 136.662 110.485 136.723L111.447 136.879C112.219 137 112.778 137.226 113.124 137.555C113.48 137.884 113.657 138.361 113.657 138.985C113.657 139.644 113.445 140.164 113.02 140.545C112.604 140.918 111.972 141.104 111.122 141.104H110.576ZM115.927 141V131.497H121.517V132.563H117.071V135.722H121.179V136.788H117.097V141H115.927ZM123.982 141V131.51H125.152V139.934H129.442V141H123.982ZM131.478 141V131.51H134.416C134.98 131.51 135.474 131.627 135.898 131.861C136.323 132.086 136.652 132.403 136.886 132.81C137.12 133.217 137.237 133.694 137.237 134.24C137.237 134.881 137.068 135.432 136.73 135.891C136.401 136.35 135.95 136.667 135.378 136.84L137.367 141H135.989L134.169 136.97H132.648V141H131.478ZM132.648 135.917H134.416C134.902 135.917 135.292 135.765 135.586 135.462C135.881 135.15 136.028 134.743 136.028 134.24C136.028 133.729 135.881 133.321 135.586 133.018C135.292 132.715 134.902 132.563 134.416 132.563H132.648V135.917Z" fill="white"/>
<rect width="118" height="55" transform="translate(44 239)" fill="#1E26E8"/>
<path d="M61.2979 262.5V261.434H63.8719V253.985L61.2979 255.909V254.609L63.4429 253.01H65.0419V261.434H67.1479V262.5H61.2979ZM71.8229 262.63C71.2422 262.63 70.7352 262.517 70.3019 262.292C69.8772 262.058 69.5479 261.733 69.3139 261.317C69.0799 260.892 68.9629 260.398 68.9629 259.835V255.675C68.9629 255.103 69.0799 254.609 69.3139 254.193C69.5479 253.777 69.8772 253.456 70.3019 253.231C70.7352 252.997 71.2422 252.88 71.8229 252.88C72.4122 252.88 72.9192 252.997 73.3439 253.231C73.7685 253.456 74.0979 253.777 74.3319 254.193C74.5659 254.609 74.6829 255.103 74.6829 255.675V259.835C74.6829 260.398 74.5659 260.892 74.3319 261.317C74.0979 261.733 73.7642 262.058 73.3309 262.292C72.9062 262.517 72.4035 262.63 71.8229 262.63ZM71.8229 261.629C72.3429 261.629 72.7589 261.464 73.0709 261.135C73.3915 260.797 73.5519 260.364 73.5519 259.835V255.675C73.5519 255.146 73.3915 254.717 73.0709 254.388C72.7589 254.05 72.3429 253.881 71.8229 253.881C71.3029 253.881 70.8825 254.05 70.5619 254.388C70.2499 254.717 70.0939 255.146 70.0939 255.675V259.835C70.0939 260.364 70.2499 260.797 70.5619 261.135C70.8825 261.464 71.3029 261.629 71.8229 261.629ZM71.8229 258.522C71.5889 258.522 71.3982 258.448 71.2509 258.301C71.1122 258.154 71.0429 257.959 71.0429 257.716C71.0429 257.482 71.1122 257.296 71.2509 257.157C71.3982 257.01 71.5889 256.936 71.8229 256.936C72.0569 256.936 72.2432 257.01 72.3819 257.157C72.5292 257.296 72.6029 257.482 72.6029 257.716C72.6029 257.959 72.5292 258.154 72.3819 258.301C72.2432 258.448 72.0569 258.522 71.8229 258.522ZM84.7087 262.5V253.01H87.6467C88.21 253.01 88.704 253.127 89.1287 253.361C89.5534 253.586 89.8827 253.903 90.1167 254.31C90.3507 254.717 90.4677 255.194 90.4677 255.74C90.4677 256.381 90.2987 256.932 89.9607 257.391C89.6314 257.85 89.1807 258.167 88.6087 258.34L90.5977 262.5H89.2197L87.3997 258.47H85.8787V262.5H84.7087ZM85.8787 257.417H87.6467C88.132 257.417 88.522 257.265 88.8167 256.962C89.1114 256.65 89.2587 256.243 89.2587 255.74C89.2587 255.229 89.1114 254.821 88.8167 254.518C88.522 254.215 88.132 254.063 87.6467 254.063H85.8787V257.417ZM95.2076 262.63C94.6443 262.63 94.1503 262.517 93.7256 262.292C93.3096 262.067 92.9846 261.75 92.7506 261.343C92.5253 260.927 92.4126 260.446 92.4126 259.9V257.95C92.4126 257.395 92.5253 256.914 92.7506 256.507C92.9846 256.1 93.3096 255.783 93.7256 255.558C94.1503 255.333 94.6443 255.22 95.2076 255.22C95.771 255.22 96.2606 255.333 96.6766 255.558C97.1013 255.783 97.4263 256.1 97.6516 256.507C97.8856 256.914 98.0026 257.395 98.0026 257.95V259.211H93.5566V259.9C93.5566 260.463 93.6996 260.897 93.9856 261.2C94.2716 261.495 94.679 261.642 95.2076 261.642C95.6583 261.642 96.0223 261.564 96.2996 261.408C96.577 261.243 96.746 261.001 96.8066 260.68H97.9766C97.8986 261.278 97.604 261.755 97.0926 262.11C96.59 262.457 95.9616 262.63 95.2076 262.63ZM96.8586 258.431V257.95C96.8586 257.387 96.7156 256.953 96.4296 256.65C96.1523 256.347 95.745 256.195 95.2076 256.195C94.679 256.195 94.2716 256.347 93.9856 256.65C93.6996 256.953 93.5566 257.387 93.5566 257.95V258.327H96.9496L96.8586 258.431ZM103.055 262.63C102.483 262.63 101.98 262.522 101.547 262.305C101.122 262.088 100.793 261.776 100.559 261.369C100.325 260.953 100.208 260.463 100.208 259.9V257.95C100.208 257.378 100.325 256.888 100.559 256.481C100.793 256.074 101.122 255.762 101.547 255.545C101.98 255.328 102.483 255.22 103.055 255.22C103.878 255.22 104.541 255.441 105.044 255.883C105.546 256.325 105.811 256.927 105.837 257.69H104.667C104.641 257.231 104.485 256.88 104.199 256.637C103.921 256.386 103.54 256.26 103.055 256.26C102.543 256.26 102.136 256.407 101.833 256.702C101.529 256.988 101.378 257.4 101.378 257.937V259.9C101.378 260.437 101.529 260.853 101.833 261.148C102.136 261.443 102.543 261.59 103.055 261.59C103.54 261.59 103.921 261.464 104.199 261.213C104.485 260.962 104.641 260.611 104.667 260.16H105.837C105.811 260.923 105.546 261.525 105.044 261.967C104.541 262.409 103.878 262.63 103.055 262.63ZM110.797 262.63C110.234 262.63 109.74 262.517 109.315 262.292C108.899 262.067 108.574 261.75 108.34 261.343C108.115 260.927 108.002 260.446 108.002 259.9V257.95C108.002 257.395 108.115 256.914 108.34 256.507C108.574 256.1 108.899 255.783 109.315 255.558C109.74 255.333 110.234 255.22 110.797 255.22C111.361 255.22 111.85 255.333 112.266 255.558C112.691 255.783 113.016 256.1 113.241 256.507C113.475 256.914 113.592 257.395 113.592 257.95V259.211H109.146V259.9C109.146 260.463 109.289 260.897 109.575 261.2C109.861 261.495 110.269 261.642 110.797 261.642C111.248 261.642 111.612 261.564 111.889 261.408C112.167 261.243 112.336 261.001 112.396 260.68H113.566C113.488 261.278 113.194 261.755 112.682 262.11C112.18 262.457 111.551 262.63 110.797 262.63ZM112.448 258.431V257.95C112.448 257.387 112.305 256.953 112.019 256.65C111.742 256.347 111.335 256.195 110.797 256.195C110.269 256.195 109.861 256.347 109.575 256.65C109.289 256.953 109.146 257.387 109.146 257.95V258.327H112.539L112.448 258.431ZM115.797 262.5V261.434H118.332V256.416H116.122V255.35H119.502V261.434H121.907V262.5H115.797ZM118.787 254.063C118.501 254.063 118.276 253.989 118.111 253.842C117.947 253.695 117.864 253.495 117.864 253.244C117.864 252.984 117.947 252.78 118.111 252.633C118.276 252.477 118.501 252.399 118.787 252.399C119.073 252.399 119.299 252.477 119.463 252.633C119.628 252.78 119.71 252.984 119.71 253.244C119.71 253.495 119.628 253.695 119.463 253.842C119.299 253.989 119.073 254.063 118.787 254.063ZM123.683 264.84V255.35H124.853V256.715H125.087L124.853 256.988C124.853 256.442 125.031 256.013 125.386 255.701C125.75 255.38 126.227 255.22 126.816 255.22C127.536 255.22 128.108 255.458 128.532 255.935C128.966 256.403 129.182 257.049 129.182 257.872V259.965C129.182 260.511 129.083 260.983 128.883 261.382C128.693 261.781 128.42 262.088 128.064 262.305C127.718 262.522 127.302 262.63 126.816 262.63C126.236 262.63 125.763 262.47 125.399 262.149C125.035 261.828 124.853 261.399 124.853 260.862L125.087 261.135H124.827L124.853 262.76V264.84H123.683ZM126.426 261.616C126.92 261.616 127.306 261.469 127.583 261.174C127.869 260.879 128.012 260.455 128.012 259.9V257.95C128.012 257.395 127.869 256.971 127.583 256.676C127.306 256.381 126.92 256.234 126.426 256.234C125.95 256.234 125.568 256.386 125.282 256.689C124.996 256.992 124.853 257.413 124.853 257.95V259.9C124.853 260.437 124.996 260.858 125.282 261.161C125.568 261.464 125.95 261.616 126.426 261.616ZM134.962 262.5C134.347 262.5 133.866 262.335 133.519 262.006C133.181 261.677 133.012 261.213 133.012 260.615V256.416H130.997V255.35H133.012V253.335H134.182V255.35H137.042V256.416H134.182V260.615C134.182 261.161 134.442 261.434 134.962 261.434H136.912V262.5H134.962ZM141.756 262.604C141.271 262.604 140.846 262.53 140.482 262.383C140.127 262.227 139.841 262.01 139.624 261.733C139.416 261.456 139.29 261.126 139.247 260.745H140.417C140.469 260.996 140.608 261.196 140.833 261.343C141.067 261.49 141.375 261.564 141.756 261.564H142.302C142.761 261.564 143.104 261.473 143.329 261.291C143.554 261.1 143.667 260.849 143.667 260.537C143.667 260.234 143.563 259.995 143.355 259.822C143.156 259.64 142.857 259.519 142.458 259.458L141.496 259.302C140.794 259.181 140.27 258.964 139.923 258.652C139.585 258.331 139.416 257.868 139.416 257.261C139.416 256.62 139.62 256.126 140.027 255.779C140.434 255.424 141.045 255.246 141.86 255.246H142.354C143.039 255.246 143.589 255.406 144.005 255.727C144.421 256.048 144.672 256.481 144.759 257.027H143.589C143.537 256.802 143.407 256.624 143.199 256.494C142.991 256.355 142.709 256.286 142.354 256.286H141.86C141.418 256.286 141.093 256.368 140.885 256.533C140.686 256.698 140.586 256.945 140.586 257.274C140.586 257.569 140.673 257.785 140.846 257.924C141.019 258.063 141.292 258.162 141.665 258.223L142.627 258.379C143.398 258.5 143.957 258.726 144.304 259.055C144.659 259.384 144.837 259.861 144.837 260.485C144.837 261.144 144.625 261.664 144.2 262.045C143.784 262.418 143.151 262.604 142.302 262.604H141.756ZM79.9428 281.84C79.2061 281.84 78.5648 281.684 78.0188 281.372C77.4728 281.069 77.0481 280.631 76.7448 280.059C76.4501 279.496 76.3028 278.833 76.3028 278.07V273.65C76.3028 272.87 76.4414 272.198 76.7188 271.635C77.0048 271.072 77.4078 270.638 77.9278 270.335C78.4564 270.032 79.0848 269.88 79.8128 269.88C80.4714 269.88 81.0391 270.01 81.5158 270.27C81.9924 270.521 82.3564 270.885 82.6078 271.362C82.8678 271.839 82.9978 272.406 82.9978 273.065V278.655H82.0748V277.94H81.7108L81.9578 277.68C81.9578 278.009 81.8321 278.278 81.5808 278.486C81.3294 278.685 80.9958 278.785 80.5798 278.785C80.0164 278.785 79.5831 278.616 79.2798 278.278C78.9851 277.931 78.8378 277.429 78.8378 276.77V275.21C78.8378 274.551 78.9851 274.053 79.2798 273.715C79.5831 273.368 80.0164 273.195 80.5798 273.195C80.9958 273.195 81.3294 273.299 81.5808 273.507C81.8321 273.706 81.9578 273.975 81.9578 274.313L81.7758 274.04H82.0878L81.9578 273.13V273.065C81.9578 272.571 81.8754 272.155 81.7108 271.817C81.5461 271.479 81.3034 271.223 80.9828 271.05C80.6708 270.877 80.2808 270.79 79.8128 270.79C79.0328 270.79 78.4261 271.041 77.9928 271.544C77.5594 272.047 77.3428 272.749 77.3428 273.65V278.07C77.3428 278.937 77.5724 279.617 78.0318 280.111C78.4998 280.614 79.1368 280.865 79.9428 280.865H80.8528V281.84H79.9428ZM80.9178 277.966C81.2731 277.966 81.5331 277.858 81.6978 277.641C81.8711 277.424 81.9578 277.091 81.9578 276.64V275.197C81.9578 274.79 81.8711 274.491 81.6978 274.3C81.5331 274.109 81.2731 274.014 80.9178 274.014C80.5711 274.014 80.3111 274.114 80.1378 274.313C79.9644 274.504 79.8778 274.803 79.8778 275.21V276.77C79.8778 277.177 79.9644 277.481 80.1378 277.68C80.3111 277.871 80.5711 277.966 80.9178 277.966ZM94.8826 281.32V279.617C94.068 279.548 93.4266 279.288 92.9586 278.837C92.4993 278.378 92.261 277.775 92.2436 277.03H93.4136C93.4136 277.455 93.5393 277.801 93.7906 278.07C94.0506 278.339 94.4146 278.503 94.8826 278.564V275.158L94.5316 275.054C93.8816 274.855 93.379 274.521 93.0236 274.053C92.677 273.585 92.5036 273.035 92.5036 272.402C92.5036 271.709 92.716 271.137 93.1406 270.686C93.574 270.235 94.1546 269.975 94.8826 269.906V268.19H95.6626V269.893C96.382 269.962 96.9583 270.222 97.3916 270.673C97.825 271.124 98.046 271.704 98.0546 272.415H96.8846C96.8846 272.008 96.7763 271.678 96.5596 271.427C96.3516 271.167 96.0526 271.007 95.6626 270.946V274.17L96.1826 274.339C96.8153 274.538 97.305 274.876 97.6516 275.353C97.9983 275.83 98.1716 276.389 98.1716 277.03C98.1716 277.741 97.942 278.33 97.4826 278.798C97.032 279.266 96.4253 279.539 95.6626 279.617V281.32H94.8826ZM95.6626 278.564C96.0873 278.495 96.4166 278.33 96.6506 278.07C96.8846 277.81 97.0016 277.472 97.0016 277.056C97.0016 276.675 96.8976 276.341 96.6896 276.055C96.4903 275.769 96.2 275.57 95.8186 275.457L95.6626 275.405V278.564ZM94.8826 274.443V270.946C94.5013 271.007 94.2023 271.154 93.9856 271.388C93.7776 271.622 93.6736 271.925 93.6736 272.298C93.6736 272.749 93.8123 273.13 94.0896 273.442C94.367 273.745 94.7656 273.936 95.2856 274.014L94.8826 274.443ZM103.003 279.63C102.422 279.63 101.915 279.517 101.482 279.292C101.057 279.058 100.728 278.733 100.494 278.317C100.26 277.892 100.143 277.398 100.143 276.835V272.675C100.143 272.103 100.26 271.609 100.494 271.193C100.728 270.777 101.057 270.456 101.482 270.231C101.915 269.997 102.422 269.88 103.003 269.88C103.592 269.88 104.099 269.997 104.524 270.231C104.948 270.456 105.278 270.777 105.512 271.193C105.746 271.609 105.863 272.103 105.863 272.675V276.835C105.863 277.398 105.746 277.892 105.512 278.317C105.278 278.733 104.944 279.058 104.511 279.292C104.086 279.517 103.583 279.63 103.003 279.63ZM103.003 278.629C103.523 278.629 103.939 278.464 104.251 278.135C104.571 277.797 104.732 277.364 104.732 276.835V272.675C104.732 272.146 104.571 271.717 104.251 271.388C103.939 271.05 103.523 270.881 103.003 270.881C102.483 270.881 102.062 271.05 101.742 271.388C101.43 271.717 101.274 272.146 101.274 272.675V276.835C101.274 277.364 101.43 277.797 101.742 278.135C102.062 278.464 102.483 278.629 103.003 278.629ZM103.003 275.522C102.769 275.522 102.578 275.448 102.431 275.301C102.292 275.154 102.223 274.959 102.223 274.716C102.223 274.482 102.292 274.296 102.431 274.157C102.578 274.01 102.769 273.936 103.003 273.936C103.237 273.936 103.423 274.01 103.562 274.157C103.709 274.296 103.783 274.482 103.783 274.716C103.783 274.959 103.709 275.154 103.562 275.301C103.423 275.448 103.237 275.522 103.003 275.522ZM110.797 279.63C110.468 279.63 110.204 279.535 110.004 279.344C109.814 279.153 109.718 278.898 109.718 278.577C109.718 278.239 109.814 277.97 110.004 277.771C110.204 277.572 110.468 277.472 110.797 277.472C111.127 277.472 111.387 277.572 111.577 277.771C111.777 277.97 111.876 278.239 111.876 278.577C111.876 278.898 111.777 279.153 111.577 279.344C111.387 279.535 111.127 279.63 110.797 279.63ZM118.592 279.63C118.012 279.63 117.505 279.517 117.071 279.292C116.647 279.058 116.317 278.733 116.083 278.317C115.849 277.892 115.732 277.398 115.732 276.835V272.675C115.732 272.103 115.849 271.609 116.083 271.193C116.317 270.777 116.647 270.456 117.071 270.231C117.505 269.997 118.012 269.88 118.592 269.88C119.182 269.88 119.689 269.997 120.113 270.231C120.538 270.456 120.867 270.777 121.101 271.193C121.335 271.609 121.452 272.103 121.452 272.675V276.835C121.452 277.398 121.335 277.892 121.101 278.317C120.867 278.733 120.534 279.058 120.1 279.292C119.676 279.517 119.173 279.63 118.592 279.63ZM118.592 278.629C119.112 278.629 119.528 278.464 119.84 278.135C120.161 277.797 120.321 277.364 120.321 276.835V272.675C120.321 272.146 120.161 271.717 119.84 271.388C119.528 271.05 119.112 270.881 118.592 270.881C118.072 270.881 117.652 271.05 117.331 271.388C117.019 271.717 116.863 272.146 116.863 272.675V276.835C116.863 277.364 117.019 277.797 117.331 278.135C117.652 278.464 118.072 278.629 118.592 278.629ZM118.592 275.522C118.358 275.522 118.168 275.448 118.02 275.301C117.882 275.154 117.812 274.959 117.812 274.716C117.812 274.482 117.882 274.296 118.02 274.157C118.168 274.01 118.358 273.936 118.592 273.936C118.826 273.936 119.013 274.01 119.151 274.157C119.299 274.296 119.372 274.482 119.372 274.716C119.372 274.959 119.299 275.154 119.151 275.301C119.013 275.448 118.826 275.522 118.592 275.522ZM123.683 279.5V278.304L126.582 275.223C127.076 274.694 127.436 274.226 127.661 273.819C127.887 273.403 127.999 273.004 127.999 272.623C127.999 272.094 127.852 271.678 127.557 271.375C127.271 271.072 126.877 270.92 126.374 270.92C125.82 270.92 125.382 271.076 125.061 271.388C124.749 271.7 124.593 272.129 124.593 272.675H123.423C123.441 272.103 123.571 271.609 123.813 271.193C124.065 270.768 124.407 270.443 124.84 270.218C125.282 269.993 125.794 269.88 126.374 269.88C126.946 269.88 127.44 269.993 127.856 270.218C128.281 270.435 128.606 270.747 128.831 271.154C129.057 271.561 129.169 272.047 129.169 272.61C129.169 273.147 129.026 273.68 128.74 274.209C128.454 274.738 127.986 275.34 127.336 276.016L124.996 278.434H129.325V279.5H123.683Z" fill="white"/>
<path d="M152.461 205.11C151.962 205.11 151.562 204.978 151.262 204.714C150.961 204.443 150.811 204.076 150.811 203.614L151.009 203.845H150.811V205H149.821V196.97H150.811V198.73L150.789 200.105H151.009L150.811 200.336C150.811 199.881 150.961 199.518 151.262 199.247C151.57 198.976 151.969 198.84 152.461 198.84C153.069 198.84 153.557 199.042 153.924 199.445C154.29 199.848 154.474 200.398 154.474 201.095V202.866C154.474 203.555 154.29 204.102 153.924 204.505C153.557 204.908 153.069 205.11 152.461 205.11ZM152.131 204.252C152.549 204.252 152.879 204.127 153.121 203.878C153.363 203.629 153.484 203.269 153.484 202.8V201.15C153.484 200.681 153.363 200.321 153.121 200.072C152.879 199.823 152.549 199.698 152.131 199.698C151.727 199.698 151.405 199.826 151.163 200.083C150.928 200.34 150.811 200.695 150.811 201.15V202.8C150.811 203.255 150.928 203.61 151.163 203.867C151.405 204.124 151.727 204.252 152.131 204.252ZM158.693 205.11C157.997 205.11 157.439 204.905 157.021 204.494C156.603 204.076 156.394 203.511 156.394 202.8V198.95H157.384V202.8C157.384 203.255 157.502 203.61 157.736 203.867C157.971 204.116 158.29 204.241 158.693 204.241C159.104 204.241 159.427 204.116 159.661 203.867C159.903 203.61 160.024 203.255 160.024 202.8V198.95H161.014V202.8C161.014 203.511 160.802 204.076 160.376 204.494C159.951 204.905 159.39 205.11 158.693 205.11ZM163.221 205V198.95H164.189V200.105H164.42L164.101 200.82C164.101 200.167 164.24 199.676 164.519 199.346C164.805 199.009 165.227 198.84 165.784 198.84C166.422 198.84 166.928 199.042 167.302 199.445C167.683 199.841 167.874 200.38 167.874 201.062V201.425H166.884V201.15C166.884 200.673 166.767 200.31 166.532 200.061C166.305 199.804 165.978 199.676 165.553 199.676C165.135 199.676 164.805 199.804 164.563 200.061C164.328 200.318 164.211 200.681 164.211 201.15V205H163.221ZM169.608 205V198.95H170.598V200.105H170.807L170.598 200.336C170.598 199.859 170.741 199.493 171.027 199.236C171.313 198.972 171.709 198.84 172.215 198.84C172.823 198.84 173.307 199.027 173.667 199.401C174.026 199.775 174.206 200.285 174.206 200.93V205H173.216V201.04C173.216 200.607 173.098 200.277 172.864 200.05C172.636 199.815 172.325 199.698 171.929 199.698C171.518 199.698 171.192 199.823 170.95 200.072C170.715 200.321 170.598 200.681 170.598 201.15V205H169.608Z" fill="black"/>
<path d="M467.002 224.1C466.368 224.1 465.862 223.913 465.482 223.54C465.102 223.16 464.912 222.647 464.912 222V218.5H465.812V222C465.812 222.413 465.918 222.737 466.132 222.97C466.345 223.197 466.635 223.31 467.002 223.31C467.375 223.31 467.668 223.197 467.882 222.97C468.102 222.737 468.212 222.413 468.212 222V218.5H469.112V222C469.112 222.647 468.918 223.16 468.532 223.54C468.145 223.913 467.635 224.1 467.002 224.1ZM470.928 224V218.5H471.828V219.55H472.018L471.828 219.76C471.828 219.327 471.958 218.993 472.218 218.76C472.478 218.52 472.838 218.4 473.298 218.4C473.851 218.4 474.291 218.57 474.618 218.91C474.944 219.25 475.108 219.713 475.108 220.3V224H474.208V220.4C474.208 220.007 474.101 219.707 473.888 219.5C473.681 219.287 473.398 219.18 473.038 219.18C472.664 219.18 472.368 219.293 472.148 219.52C471.934 219.747 471.828 220.073 471.828 220.5V224H470.928ZM479.754 224C479.434 224 479.154 223.937 478.914 223.81C478.674 223.683 478.487 223.503 478.354 223.27C478.221 223.037 478.154 222.763 478.154 222.45V217.52H476.304V216.7H479.054V222.45C479.054 222.677 479.117 222.857 479.244 222.99C479.371 223.117 479.541 223.18 479.754 223.18H481.504V224H479.754ZM485 224.08C484.56 224.08 484.18 223.997 483.86 223.83C483.54 223.663 483.29 223.423 483.11 223.11C482.937 222.79 482.85 222.413 482.85 221.98V220.52C482.85 220.08 482.937 219.703 483.11 219.39C483.29 219.077 483.54 218.837 483.86 218.67C484.18 218.503 484.56 218.42 485 218.42C485.44 218.42 485.82 218.503 486.14 218.67C486.46 218.837 486.707 219.077 486.88 219.39C487.06 219.703 487.15 220.077 487.15 220.51V221.98C487.15 222.413 487.06 222.79 486.88 223.11C486.707 223.423 486.46 223.663 486.14 223.83C485.82 223.997 485.44 224.08 485 224.08ZM485 223.28C485.393 223.28 485.7 223.17 485.92 222.95C486.14 222.73 486.25 222.407 486.25 221.98V220.52C486.25 220.093 486.14 219.77 485.92 219.55C485.7 219.33 485.393 219.22 485 219.22C484.613 219.22 484.307 219.33 484.08 219.55C483.86 219.77 483.75 220.093 483.75 220.52V221.98C483.75 222.407 483.86 222.73 484.08 222.95C484.307 223.17 484.613 223.28 485 223.28ZM491.036 224.1C490.596 224.1 490.209 224.017 489.876 223.85C489.549 223.683 489.296 223.443 489.116 223.13C488.936 222.81 488.846 222.433 488.846 222V220.5C488.846 220.06 488.936 219.683 489.116 219.37C489.296 219.057 489.549 218.817 489.876 218.65C490.209 218.483 490.596 218.4 491.036 218.4C491.669 218.4 492.179 218.57 492.566 218.91C492.953 219.25 493.156 219.713 493.176 220.3H492.276C492.256 219.947 492.136 219.677 491.916 219.49C491.703 219.297 491.409 219.2 491.036 219.2C490.643 219.2 490.329 219.313 490.096 219.54C489.863 219.76 489.746 220.077 489.746 220.49V222C489.746 222.413 489.863 222.733 490.096 222.96C490.329 223.187 490.643 223.3 491.036 223.3C491.409 223.3 491.703 223.203 491.916 223.01C492.136 222.817 492.256 222.547 492.276 222.2H493.176C493.156 222.787 492.953 223.25 492.566 223.59C492.179 223.93 491.669 224.1 491.036 224.1ZM494.942 224V216.7H495.842V220.77H496.902L498.502 218.5H499.532L497.682 221.12L499.562 224H498.512L496.912 221.55H495.842V224H494.942Z" fill="black"/>
<path d="M321.1 169.1L326.5 169.1L326.5 177.5L329.5 177.5L329.5 166.1L318.1 166.1L318.1 185.6L337.6 185.6L337.6 161L343 161L343 191L313 191L313 161L334.6 161L334.6 182.6L321.1 182.6L321.1 169.1Z" fill="black"/>
<rect width="87" height="37" transform="translate(525 184)" fill="#E72D64"/>
<path d="M541.194 207.13C540.423 207.13 539.79 206.931 539.296 206.532C538.802 206.133 538.512 205.596 538.425 204.92H539.595C539.639 205.293 539.799 205.583 540.076 205.791C540.354 205.99 540.731 206.09 541.207 206.09C541.753 206.09 542.161 205.943 542.429 205.648C542.707 205.353 542.845 204.937 542.845 204.4V203.477C542.845 202.94 542.707 202.524 542.429 202.229C542.161 201.934 541.758 201.787 541.22 201.787C540.882 201.787 540.588 201.878 540.336 202.06C540.085 202.233 539.903 202.467 539.79 202.762H538.62L538.685 197.51H543.677V198.576H539.816L539.777 201.735H540.141L539.777 202.073C539.777 201.666 539.938 201.345 540.258 201.111C540.588 200.877 541.025 200.76 541.571 200.76C542.343 200.751 542.941 200.99 543.365 201.475C543.799 201.952 544.015 202.619 544.015 203.477V204.4C544.015 205.241 543.768 205.908 543.274 206.402C542.78 206.887 542.087 207.13 541.194 207.13ZM549.015 207.13C548.435 207.13 547.928 207.017 547.494 206.792C547.07 206.558 546.74 206.233 546.506 205.817C546.272 205.392 546.155 204.898 546.155 204.335V200.175C546.155 199.603 546.272 199.109 546.506 198.693C546.74 198.277 547.07 197.956 547.494 197.731C547.928 197.497 548.435 197.38 549.015 197.38C549.605 197.38 550.112 197.497 550.536 197.731C550.961 197.956 551.29 198.277 551.524 198.693C551.758 199.109 551.875 199.603 551.875 200.175V204.335C551.875 204.898 551.758 205.392 551.524 205.817C551.29 206.233 550.957 206.558 550.523 206.792C550.099 207.017 549.596 207.13 549.015 207.13ZM549.015 206.129C549.535 206.129 549.951 205.964 550.263 205.635C550.584 205.297 550.744 204.864 550.744 204.335V200.175C550.744 199.646 550.584 199.217 550.263 198.888C549.951 198.55 549.535 198.381 549.015 198.381C548.495 198.381 548.075 198.55 547.754 198.888C547.442 199.217 547.286 199.646 547.286 200.175V204.335C547.286 204.864 547.442 205.297 547.754 205.635C548.075 205.964 548.495 206.129 549.015 206.129ZM549.015 203.022C548.781 203.022 548.591 202.948 548.443 202.801C548.305 202.654 548.235 202.459 548.235 202.216C548.235 201.982 548.305 201.796 548.443 201.657C548.591 201.51 548.781 201.436 549.015 201.436C549.249 201.436 549.436 201.51 549.574 201.657C549.722 201.796 549.795 201.982 549.795 202.216C549.795 202.459 549.722 202.654 549.574 202.801C549.436 202.948 549.249 203.022 549.015 203.022ZM556.81 207.13C556.229 207.13 555.722 207.017 555.289 206.792C554.864 206.558 554.535 206.233 554.301 205.817C554.067 205.392 553.95 204.898 553.95 204.335V200.175C553.95 199.603 554.067 199.109 554.301 198.693C554.535 198.277 554.864 197.956 555.289 197.731C555.722 197.497 556.229 197.38 556.81 197.38C557.399 197.38 557.906 197.497 558.331 197.731C558.756 197.956 559.085 198.277 559.319 198.693C559.553 199.109 559.67 199.603 559.67 200.175V204.335C559.67 204.898 559.553 205.392 559.319 205.817C559.085 206.233 558.751 206.558 558.318 206.792C557.893 207.017 557.391 207.13 556.81 207.13ZM556.81 206.129C557.33 206.129 557.746 205.964 558.058 205.635C558.379 205.297 558.539 204.864 558.539 204.335V200.175C558.539 199.646 558.379 199.217 558.058 198.888C557.746 198.55 557.33 198.381 556.81 198.381C556.29 198.381 555.87 198.55 555.549 198.888C555.237 199.217 555.081 199.646 555.081 200.175V204.335C555.081 204.864 555.237 205.297 555.549 205.635C555.87 205.964 556.29 206.129 556.81 206.129ZM556.81 203.022C556.576 203.022 556.385 202.948 556.238 202.801C556.099 202.654 556.03 202.459 556.03 202.216C556.03 201.982 556.099 201.796 556.238 201.657C556.385 201.51 556.576 201.436 556.81 201.436C557.044 201.436 557.23 201.51 557.369 201.657C557.516 201.796 557.59 201.982 557.59 202.216C557.59 202.459 557.516 202.654 557.369 202.801C557.23 202.948 557.044 203.022 556.81 203.022ZM572.179 207.104C571.694 207.104 571.269 207.03 570.905 206.883C570.55 206.727 570.264 206.51 570.047 206.233C569.839 205.956 569.713 205.626 569.67 205.245H570.84C570.892 205.496 571.031 205.696 571.256 205.843C571.49 205.99 571.798 206.064 572.179 206.064H572.725C573.184 206.064 573.527 205.973 573.752 205.791C573.977 205.6 574.09 205.349 574.09 205.037C574.09 204.734 573.986 204.495 573.778 204.322C573.579 204.14 573.28 204.019 572.881 203.958L571.919 203.802C571.217 203.681 570.693 203.464 570.346 203.152C570.008 202.831 569.839 202.368 569.839 201.761C569.839 201.12 570.043 200.626 570.45 200.279C570.857 199.924 571.468 199.746 572.283 199.746H572.777C573.462 199.746 574.012 199.906 574.428 200.227C574.844 200.548 575.095 200.981 575.182 201.527H574.012C573.96 201.302 573.83 201.124 573.622 200.994C573.414 200.855 573.132 200.786 572.777 200.786H572.283C571.841 200.786 571.516 200.868 571.308 201.033C571.109 201.198 571.009 201.445 571.009 201.774C571.009 202.069 571.096 202.285 571.269 202.424C571.442 202.563 571.715 202.662 572.088 202.723L573.05 202.879C573.821 203 574.38 203.226 574.727 203.555C575.082 203.884 575.26 204.361 575.26 204.985C575.26 205.644 575.048 206.164 574.623 206.545C574.207 206.918 573.574 207.104 572.725 207.104H572.179ZM577.53 207V197.497H583.12V198.563H578.674V201.722H582.782V202.788H578.7V207H577.53ZM585.585 207V197.51H586.755V205.934H591.045V207H585.585ZM593.081 207V197.51H596.019C596.582 197.51 597.076 197.627 597.501 197.861C597.925 198.086 598.255 198.403 598.489 198.81C598.723 199.217 598.84 199.694 598.84 200.24C598.84 200.881 598.671 201.432 598.333 201.891C598.003 202.35 597.553 202.667 596.981 202.84L598.97 207H597.592L595.772 202.97H594.251V207H593.081ZM594.251 201.917H596.019C596.504 201.917 596.894 201.765 597.189 201.462C597.483 201.15 597.631 200.743 597.631 200.24C597.631 199.729 597.483 199.321 597.189 199.018C596.894 198.715 596.504 198.563 596.019 198.563H594.251V201.917Z" fill="white"/>
</svg>
