<svg width="655" height="403" viewBox="0 0 655 403" fill="none" xmlns="http://www.w3.org/2000/svg">
<rect x="0.5" y="0.5" width="654" height="402" fill="white"/>
<rect x="0.5" y="0.5" width="654" height="402" stroke="black"/>
<path d="M227.986 201C228.263 201.007 228.492 200.79 228.5 200.514L228.621 196.015C228.629 195.739 228.411 195.509 228.135 195.502C227.859 195.494 227.629 195.712 227.622 195.988L227.514 199.987L223.515 199.879C223.239 199.871 223.009 200.089 223.002 200.365C222.994 200.641 223.212 200.871 223.488 200.878L227.986 201ZM228.363 200.156L226.613 198.309L225.887 198.997L227.637 200.844L228.363 200.156ZM223.113 194.614L219.613 190.92L218.887 191.608L222.387 195.302L223.113 194.614ZM216.113 187.226L212.613 183.531L211.887 184.219L215.387 187.913L216.113 187.226ZM209.113 179.837L205.613 176.142L204.887 176.83L208.387 180.524L209.113 179.837ZM202.113 172.448L198.613 168.753L197.887 169.441L201.387 173.136L202.113 172.448ZM195.113 165.059L191.613 161.364L190.887 162.052L194.387 165.747L195.113 165.059ZM188.113 157.67L184.613 153.976L183.887 154.663L187.387 158.358L188.113 157.67ZM181.113 150.281L177.613 146.587L176.887 147.274L180.387 150.969L181.113 150.281ZM174.113 142.892L170.613 139.198L169.887 139.885L173.387 143.58L174.113 142.892ZM167.113 135.503L165.363 133.656L164.637 134.344L166.387 136.191L167.113 135.503ZM227.986 201C228.263 201.007 228.492 200.79 228.5 200.514L228.621 196.015C228.629 195.739 228.411 195.509 228.135 195.502C227.859 195.494 227.629 195.712 227.622 195.988L227.514 199.987L223.515 199.879C223.239 199.871 223.009 200.089 223.002 200.365C222.994 200.641 223.212 200.871 223.488 200.878L227.986 201ZM228.363 200.156L226.613 198.309L225.887 198.997L227.637 200.844L228.363 200.156ZM223.113 194.614L219.613 190.92L218.887 191.608L222.387 195.302L223.113 194.614ZM216.113 187.226L212.613 183.531L211.887 184.219L215.387 187.913L216.113 187.226ZM209.113 179.837L205.613 176.142L204.887 176.83L208.387 180.524L209.113 179.837ZM202.113 172.448L198.613 168.753L197.887 169.441L201.387 173.136L202.113 172.448ZM195.113 165.059L191.613 161.364L190.887 162.052L194.387 165.747L195.113 165.059ZM188.113 157.67L184.613 153.976L183.887 154.663L187.387 158.358L188.113 157.67ZM181.113 150.281L177.613 146.587L176.887 147.274L180.387 150.969L181.113 150.281ZM174.113 142.892L170.613 139.198L169.887 139.885L173.387 143.58L174.113 142.892ZM167.113 135.503L165.363 133.656L164.637 134.344L166.387 136.191L167.113 135.503Z" fill="black"/>
<path d="M228 201.5C228 201.224 227.776 201 227.5 201L223 201C222.724 201 222.5 201.224 222.5 201.5C222.5 201.776 222.724 202 223 202L227 202L227 206C227 206.276 227.224 206.5 227.5 206.5C227.776 206.5 228 206.276 228 206L228 201.5ZM227.146 201.146L225.41 202.883L226.117 203.59L227.854 201.854L227.146 201.146ZM221.938 206.355L218.466 209.827L219.173 210.534L222.645 207.062L221.938 206.355ZM214.994 213.299L211.521 216.771L212.229 217.479L215.701 214.006L214.994 213.299ZM208.049 220.244L204.577 223.716L205.284 224.423L208.756 220.951L208.049 220.244ZM201.105 227.188L197.633 230.66L198.34 231.367L201.812 227.895L201.105 227.188ZM194.16 234.133L190.688 237.605L191.395 238.312L194.867 234.84L194.16 234.133ZM187.216 241.077L183.744 244.549L184.451 245.256L187.923 241.784L187.216 241.077ZM180.271 248.021L176.799 251.494L177.506 252.201L180.979 248.729L180.271 248.021ZM173.327 254.966L169.855 258.438L170.562 259.145L174.034 255.673L173.327 254.966ZM166.383 261.91L164.646 263.646L165.354 264.354L167.09 262.617L166.383 261.91ZM228 201.5C228 201.224 227.776 201 227.5 201L223 201C222.724 201 222.5 201.224 222.5 201.5C222.5 201.776 222.724 202 223 202L227 202L227 206C227 206.276 227.224 206.5 227.5 206.5C227.776 206.5 228 206.276 228 206L228 201.5ZM227.146 201.146L225.41 202.883L226.117 203.59L227.854 201.854L227.146 201.146ZM221.938 206.355L218.466 209.827L219.173 210.534L222.645 207.062L221.938 206.355ZM214.994 213.299L211.521 216.771L212.229 217.479L215.701 214.006L214.994 213.299ZM208.049 220.244L204.577 223.716L205.284 224.423L208.756 220.951L208.049 220.244ZM201.105 227.188L197.633 230.66L198.34 231.367L201.812 227.895L201.105 227.188ZM194.16 234.133L190.688 237.605L191.395 238.312L194.867 234.84L194.16 234.133ZM187.216 241.077L183.744 244.549L184.451 245.256L187.923 241.784L187.216 241.077ZM180.271 248.021L176.799 251.494L177.506 252.201L180.979 248.729L180.271 248.021ZM173.327 254.966L169.855 258.438L170.562 259.145L174.034 255.673L173.327 254.966ZM166.383 261.91L164.646 263.646L165.354 264.354L167.09 262.617L166.383 261.91Z" fill="black"/>
<rect x="213" y="144" width="229" height="116" fill="#E6E6E6"/>
<path d="M177.208 373V363.51H179.899C180.766 363.51 181.442 363.727 181.927 364.16C182.421 364.593 182.668 365.196 182.668 365.967C182.668 366.4 182.577 366.777 182.395 367.098C182.213 367.419 181.953 367.666 181.615 367.839C181.286 368.012 180.887 368.095 180.419 368.086V367.891C180.922 367.882 181.355 367.978 181.719 368.177C182.092 368.376 182.378 368.662 182.577 369.035C182.785 369.408 182.889 369.85 182.889 370.361C182.889 370.898 182.776 371.366 182.551 371.765C182.326 372.164 182.005 372.471 181.589 372.688C181.173 372.896 180.675 373 180.094 373H177.208ZM178.352 371.947H179.964C180.51 371.947 180.939 371.804 181.251 371.518C181.572 371.223 181.732 370.825 181.732 370.322C181.732 369.802 181.572 369.382 181.251 369.061C180.939 368.732 180.51 368.567 179.964 368.567H178.352V371.947ZM178.352 367.553H179.886C180.389 367.553 180.783 367.419 181.069 367.15C181.364 366.881 181.511 366.517 181.511 366.058C181.511 365.599 181.368 365.235 181.082 364.966C180.796 364.697 180.402 364.563 179.899 364.563H178.352V367.553ZM187.681 373.13C186.858 373.13 186.199 372.887 185.705 372.402C185.211 371.908 184.964 371.241 184.964 370.4V365.85H186.134V370.4C186.134 370.937 186.273 371.358 186.55 371.661C186.827 371.956 187.204 372.103 187.681 372.103C188.166 372.103 188.548 371.956 188.825 371.661C189.111 371.358 189.254 370.937 189.254 370.4V365.85H190.424V370.4C190.424 371.241 190.173 371.908 189.67 372.402C189.167 372.887 188.504 373.13 187.681 373.13ZM193.032 373V365.85H194.176V367.215H194.449L194.072 368.06C194.072 367.289 194.237 366.708 194.566 366.318C194.904 365.919 195.402 365.72 196.061 365.72C196.815 365.72 197.413 365.958 197.855 366.435C198.306 366.903 198.531 367.54 198.531 368.346V368.775H197.361V368.45C197.361 367.887 197.222 367.458 196.945 367.163C196.676 366.86 196.291 366.708 195.788 366.708C195.294 366.708 194.904 366.86 194.618 367.163C194.341 367.466 194.202 367.895 194.202 368.45V373H193.032ZM200.58 373V365.85H201.75V367.215H201.997L201.75 367.488C201.75 366.925 201.919 366.491 202.257 366.188C202.595 365.876 203.063 365.72 203.661 365.72C204.38 365.72 204.952 365.941 205.377 366.383C205.801 366.825 206.014 367.427 206.014 368.19V373H204.844V368.32C204.844 367.809 204.705 367.419 204.428 367.15C204.159 366.873 203.791 366.734 203.323 366.734C202.837 366.734 202.452 366.881 202.166 367.176C201.888 367.471 201.75 367.895 201.75 368.45V373H200.58ZM208.284 373V371.934H210.819V366.916H208.609V365.85H211.989V371.934H214.394V373H208.284ZM211.274 364.563C210.988 364.563 210.762 364.489 210.598 364.342C210.433 364.195 210.351 363.995 210.351 363.744C210.351 363.484 210.433 363.28 210.598 363.133C210.762 362.977 210.988 362.899 211.274 362.899C211.56 362.899 211.785 362.977 211.95 363.133C212.114 363.28 212.197 363.484 212.197 363.744C212.197 363.995 212.114 364.195 211.95 364.342C211.785 364.489 211.56 364.563 211.274 364.563ZM216.17 373V365.85H217.34V367.215H217.587L217.34 367.488C217.34 366.925 217.509 366.491 217.847 366.188C218.185 365.876 218.653 365.72 219.251 365.72C219.97 365.72 220.542 365.941 220.967 366.383C221.391 366.825 221.604 367.427 221.604 368.19V373H220.434V368.32C220.434 367.809 220.295 367.419 220.018 367.15C219.749 366.873 219.381 366.734 218.913 366.734C218.427 366.734 218.042 366.881 217.756 367.176C217.478 367.471 217.34 367.895 217.34 368.45V373H216.17ZM224.862 375.34V374.274H227.137C227.501 374.274 227.765 374.192 227.93 374.027C228.103 373.862 228.19 373.607 228.19 373.26V372.35L228.216 371.05H227.982L228.203 370.855C228.203 371.375 228.029 371.787 227.683 372.09C227.336 372.393 226.872 372.545 226.292 372.545C225.555 372.545 224.974 372.307 224.55 371.83C224.125 371.345 223.913 370.695 223.913 369.88V368.372C223.913 367.557 224.125 366.912 224.55 366.435C224.974 365.958 225.555 365.72 226.292 365.72C226.872 365.72 227.336 365.872 227.683 366.175C228.029 366.478 228.203 366.89 228.203 367.41L227.982 367.215H228.203V365.85H229.36V373.26C229.36 373.901 229.16 374.408 228.762 374.781C228.372 375.154 227.826 375.34 227.124 375.34H224.862ZM226.643 371.531C227.128 371.531 227.509 371.379 227.787 371.076C228.064 370.773 228.203 370.352 228.203 369.815V368.45C228.203 367.913 228.064 367.492 227.787 367.189C227.509 366.886 227.128 366.734 226.643 366.734C226.149 366.734 225.763 366.881 225.486 367.176C225.217 367.471 225.083 367.895 225.083 368.45V369.815C225.083 370.37 225.217 370.794 225.486 371.089C225.763 371.384 226.149 371.531 226.643 371.531ZM240.451 375.34V374.274H242.726C243.09 374.274 243.355 374.192 243.519 374.027C243.693 373.862 243.779 373.607 243.779 373.26V372.35L243.805 371.05H243.571L243.792 370.855C243.792 371.375 243.619 371.787 243.272 372.09C242.926 372.393 242.462 372.545 241.881 372.545C241.145 372.545 240.564 372.307 240.139 371.83C239.715 371.345 239.502 370.695 239.502 369.88V368.372C239.502 367.557 239.715 366.912 240.139 366.435C240.564 365.958 241.145 365.72 241.881 365.72C242.462 365.72 242.926 365.872 243.272 366.175C243.619 366.478 243.792 366.89 243.792 367.41L243.571 367.215H243.792V365.85H244.949V373.26C244.949 373.901 244.75 374.408 244.351 374.781C243.961 375.154 243.415 375.34 242.713 375.34H240.451ZM242.232 371.531C242.718 371.531 243.099 371.379 243.376 371.076C243.654 370.773 243.792 370.352 243.792 369.815V368.45C243.792 367.913 243.654 367.492 243.376 367.189C243.099 366.886 242.718 366.734 242.232 366.734C241.738 366.734 241.353 366.881 241.075 367.176C240.807 367.471 240.672 367.895 240.672 368.45V369.815C240.672 370.37 240.807 370.794 241.075 371.089C241.353 371.384 241.738 371.531 242.232 371.531ZM247.388 373V363.497H252.978V364.563H248.532V367.722H252.64V368.788H248.558V373H247.388ZM255.443 373V363.51H256.613V371.934H260.903V373H255.443ZM262.939 373V363.51H265.877C266.44 363.51 266.934 363.627 267.359 363.861C267.784 364.086 268.113 364.403 268.347 364.81C268.581 365.217 268.698 365.694 268.698 366.24C268.698 366.881 268.529 367.432 268.191 367.891C267.862 368.35 267.411 368.667 266.839 368.84L268.828 373H267.45L265.63 368.97H264.109V373H262.939ZM264.109 367.917H265.877C266.362 367.917 266.752 367.765 267.047 367.462C267.342 367.15 267.489 366.743 267.489 366.24C267.489 365.729 267.342 365.321 267.047 365.018C266.752 364.715 266.362 364.563 265.877 364.563H264.109V367.917ZM280.609 373.13C279.855 373.13 279.261 372.939 278.828 372.558C278.395 372.168 278.178 371.644 278.178 370.985C278.178 370.318 278.395 369.793 278.828 369.412C279.261 369.031 279.846 368.84 280.583 368.84H282.793V368.125C282.793 367.683 282.659 367.345 282.39 367.111C282.13 366.868 281.757 366.747 281.272 366.747C280.847 366.747 280.492 366.838 280.206 367.02C279.92 367.193 279.755 367.432 279.712 367.735H278.542C278.62 367.12 278.91 366.63 279.413 366.266C279.916 365.902 280.544 365.72 281.298 365.72C282.121 365.72 282.771 365.932 283.248 366.357C283.725 366.782 283.963 367.358 283.963 368.086V373H282.819V371.635H282.624L282.819 371.44C282.819 371.96 282.615 372.372 282.208 372.675C281.809 372.978 281.276 373.13 280.609 373.13ZM280.895 372.207C281.45 372.207 281.905 372.068 282.26 371.791C282.615 371.514 282.793 371.158 282.793 370.725V369.711H280.609C280.219 369.711 279.911 369.819 279.686 370.036C279.461 370.253 279.348 370.547 279.348 370.92C279.348 371.319 279.482 371.635 279.751 371.869C280.028 372.094 280.41 372.207 280.895 372.207ZM286.324 373V365.85H287.494V367.215H287.741L287.494 367.488C287.494 366.925 287.663 366.491 288.001 366.188C288.339 365.876 288.807 365.72 289.405 365.72C290.124 365.72 290.696 365.941 291.121 366.383C291.546 366.825 291.758 367.427 291.758 368.19V373H290.588V368.32C290.588 367.809 290.449 367.419 290.172 367.15C289.903 366.873 289.535 366.734 289.067 366.734C288.582 366.734 288.196 366.881 287.91 367.176C287.633 367.471 287.494 367.895 287.494 368.45V373H286.324ZM296.407 373.13C295.696 373.13 295.12 372.892 294.678 372.415C294.245 371.938 294.028 371.293 294.028 370.478V368.385C294.028 367.562 294.245 366.912 294.678 366.435C295.111 365.958 295.688 365.72 296.407 365.72C296.996 365.72 297.469 365.88 297.824 366.201C298.179 366.522 298.357 366.951 298.357 367.488L298.123 367.215H298.383L298.357 365.59V363.51H299.527V373H298.357V371.635H298.123L298.357 371.362C298.357 371.908 298.179 372.341 297.824 372.662C297.469 372.974 296.996 373.13 296.407 373.13ZM296.797 372.116C297.282 372.116 297.664 371.964 297.941 371.661C298.218 371.358 298.357 370.937 298.357 370.4V368.45C298.357 367.913 298.218 367.492 297.941 367.189C297.664 366.886 297.282 366.734 296.797 366.734C296.303 366.734 295.913 366.881 295.627 367.176C295.341 367.471 295.198 367.895 295.198 368.45V370.4C295.198 370.955 295.341 371.379 295.627 371.674C295.913 371.969 296.303 372.116 296.797 372.116ZM309.709 373V363.51H312.647C313.21 363.51 313.704 363.627 314.129 363.861C314.553 364.086 314.883 364.403 315.117 364.81C315.351 365.217 315.468 365.694 315.468 366.24C315.468 366.881 315.299 367.432 314.961 367.891C314.631 368.35 314.181 368.667 313.609 368.84L315.598 373H314.22L312.4 368.97H310.879V373H309.709ZM310.879 367.917H312.647C313.132 367.917 313.522 367.765 313.817 367.462C314.111 367.15 314.259 366.743 314.259 366.24C314.259 365.729 314.111 365.321 313.817 365.018C313.522 364.715 313.132 364.563 312.647 364.563H310.879V367.917ZM320.208 373.13C319.644 373.13 319.15 373.017 318.726 372.792C318.31 372.567 317.985 372.25 317.751 371.843C317.525 371.427 317.413 370.946 317.413 370.4V368.45C317.413 367.895 317.525 367.414 317.751 367.007C317.985 366.6 318.31 366.283 318.726 366.058C319.15 365.833 319.644 365.72 320.208 365.72C320.771 365.72 321.261 365.833 321.677 366.058C322.101 366.283 322.426 366.6 322.652 367.007C322.886 367.414 323.003 367.895 323.003 368.45V369.711H318.557V370.4C318.557 370.963 318.7 371.397 318.986 371.7C319.272 371.995 319.679 372.142 320.208 372.142C320.658 372.142 321.022 372.064 321.3 371.908C321.577 371.743 321.746 371.501 321.807 371.18H322.977C322.899 371.778 322.604 372.255 322.093 372.61C321.59 372.957 320.962 373.13 320.208 373.13ZM321.859 368.931V368.45C321.859 367.887 321.716 367.453 321.43 367.15C321.152 366.847 320.745 366.695 320.208 366.695C319.679 366.695 319.272 366.847 318.986 367.15C318.7 367.453 318.557 367.887 318.557 368.45V368.827H321.95L321.859 368.931ZM328.055 373.13C327.483 373.13 326.98 373.022 326.547 372.805C326.122 372.588 325.793 372.276 325.559 371.869C325.325 371.453 325.208 370.963 325.208 370.4V368.45C325.208 367.878 325.325 367.388 325.559 366.981C325.793 366.574 326.122 366.262 326.547 366.045C326.98 365.828 327.483 365.72 328.055 365.72C328.878 365.72 329.541 365.941 330.044 366.383C330.546 366.825 330.811 367.427 330.837 368.19H329.667C329.641 367.731 329.485 367.38 329.199 367.137C328.921 366.886 328.54 366.76 328.055 366.76C327.543 366.76 327.136 366.907 326.833 367.202C326.529 367.488 326.378 367.9 326.378 368.437V370.4C326.378 370.937 326.529 371.353 326.833 371.648C327.136 371.943 327.543 372.09 328.055 372.09C328.54 372.09 328.921 371.964 329.199 371.713C329.485 371.462 329.641 371.111 329.667 370.66H330.837C330.811 371.423 330.546 372.025 330.044 372.467C329.541 372.909 328.878 373.13 328.055 373.13ZM335.797 373.13C335.234 373.13 334.74 373.017 334.315 372.792C333.899 372.567 333.574 372.25 333.34 371.843C333.115 371.427 333.002 370.946 333.002 370.4V368.45C333.002 367.895 333.115 367.414 333.34 367.007C333.574 366.6 333.899 366.283 334.315 366.058C334.74 365.833 335.234 365.72 335.797 365.72C336.361 365.72 336.85 365.833 337.266 366.058C337.691 366.283 338.016 366.6 338.241 367.007C338.475 367.414 338.592 367.895 338.592 368.45V369.711H334.146V370.4C334.146 370.963 334.289 371.397 334.575 371.7C334.861 371.995 335.269 372.142 335.797 372.142C336.248 372.142 336.612 372.064 336.889 371.908C337.167 371.743 337.336 371.501 337.396 371.18H338.566C338.488 371.778 338.194 372.255 337.682 372.61C337.18 372.957 336.551 373.13 335.797 373.13ZM337.448 368.931V368.45C337.448 367.887 337.305 367.453 337.019 367.15C336.742 366.847 336.335 366.695 335.797 366.695C335.269 366.695 334.861 366.847 334.575 367.15C334.289 367.453 334.146 367.887 334.146 368.45V368.827H337.539L337.448 368.931ZM340.797 373V371.934H343.332V366.916H341.122V365.85H344.502V371.934H346.907V373H340.797ZM343.787 364.563C343.501 364.563 343.276 364.489 343.111 364.342C342.947 364.195 342.864 363.995 342.864 363.744C342.864 363.484 342.947 363.28 343.111 363.133C343.276 362.977 343.501 362.899 343.787 362.899C344.073 362.899 344.299 362.977 344.463 363.133C344.628 363.28 344.71 363.484 344.71 363.744C344.71 363.995 344.628 364.195 344.463 364.342C344.299 364.489 344.073 364.563 343.787 364.563ZM348.683 375.34V365.85H349.853V367.215H350.087L349.853 367.488C349.853 366.942 350.031 366.513 350.386 366.201C350.75 365.88 351.227 365.72 351.816 365.72C352.536 365.72 353.108 365.958 353.532 366.435C353.966 366.903 354.182 367.549 354.182 368.372V370.465C354.182 371.011 354.083 371.483 353.883 371.882C353.693 372.281 353.42 372.588 353.064 372.805C352.718 373.022 352.302 373.13 351.816 373.13C351.236 373.13 350.763 372.97 350.399 372.649C350.035 372.328 349.853 371.899 349.853 371.362L350.087 371.635H349.827L349.853 373.26V375.34H348.683ZM351.426 372.116C351.92 372.116 352.306 371.969 352.583 371.674C352.869 371.379 353.012 370.955 353.012 370.4V368.45C353.012 367.895 352.869 367.471 352.583 367.176C352.306 366.881 351.92 366.734 351.426 366.734C350.95 366.734 350.568 366.886 350.282 367.189C349.996 367.492 349.853 367.913 349.853 368.45V370.4C349.853 370.937 349.996 371.358 350.282 371.661C350.568 371.964 350.95 372.116 351.426 372.116ZM359.962 373C359.347 373 358.866 372.835 358.519 372.506C358.181 372.177 358.012 371.713 358.012 371.115V366.916H355.997V365.85H358.012V363.835H359.182V365.85H362.042V366.916H359.182V371.115C359.182 371.661 359.442 371.934 359.962 371.934H361.912V373H359.962ZM366.756 373.104C366.271 373.104 365.846 373.03 365.482 372.883C365.127 372.727 364.841 372.51 364.624 372.233C364.416 371.956 364.29 371.626 364.247 371.245H365.417C365.469 371.496 365.608 371.696 365.833 371.843C366.067 371.99 366.375 372.064 366.756 372.064H367.302C367.761 372.064 368.104 371.973 368.329 371.791C368.554 371.6 368.667 371.349 368.667 371.037C368.667 370.734 368.563 370.495 368.355 370.322C368.156 370.14 367.857 370.019 367.458 369.958L366.496 369.802C365.794 369.681 365.27 369.464 364.923 369.152C364.585 368.831 364.416 368.368 364.416 367.761C364.416 367.12 364.62 366.626 365.027 366.279C365.434 365.924 366.045 365.746 366.86 365.746H367.354C368.039 365.746 368.589 365.906 369.005 366.227C369.421 366.548 369.672 366.981 369.759 367.527H368.589C368.537 367.302 368.407 367.124 368.199 366.994C367.991 366.855 367.709 366.786 367.354 366.786H366.86C366.418 366.786 366.093 366.868 365.885 367.033C365.686 367.198 365.586 367.445 365.586 367.774C365.586 368.069 365.673 368.285 365.846 368.424C366.019 368.563 366.292 368.662 366.665 368.723L367.627 368.879C368.398 369 368.957 369.226 369.304 369.555C369.659 369.884 369.837 370.361 369.837 370.985C369.837 371.644 369.625 372.164 369.2 372.545C368.784 372.918 368.151 373.104 367.302 373.104H366.756ZM383.347 373C382.732 373 382.251 372.835 381.904 372.506C381.566 372.177 381.397 371.713 381.397 371.115V366.916H379.382V365.85H381.397V363.835H382.567V365.85H385.427V366.916H382.567V371.115C382.567 371.661 382.827 371.934 383.347 371.934H385.297V373H383.347ZM390.362 373.104C389.79 373.104 389.296 372.996 388.88 372.779C388.464 372.562 388.139 372.25 387.905 371.843C387.68 371.427 387.567 370.937 387.567 370.374V368.476C387.567 367.904 387.68 367.414 387.905 367.007C388.139 366.6 388.464 366.288 388.88 366.071C389.296 365.854 389.79 365.746 390.362 365.746C390.934 365.746 391.428 365.854 391.844 366.071C392.26 366.288 392.581 366.6 392.806 367.007C393.04 367.414 393.157 367.9 393.157 368.463V370.374C393.157 370.937 393.04 371.427 392.806 371.843C392.581 372.25 392.26 372.562 391.844 372.779C391.428 372.996 390.934 373.104 390.362 373.104ZM390.362 372.064C390.873 372.064 391.272 371.921 391.558 371.635C391.844 371.349 391.987 370.929 391.987 370.374V368.476C391.987 367.921 391.844 367.501 391.558 367.215C391.272 366.929 390.873 366.786 390.362 366.786C389.859 366.786 389.461 366.929 389.166 367.215C388.88 367.501 388.737 367.921 388.737 368.476V370.374C388.737 370.929 388.88 371.349 389.166 371.635C389.461 371.921 389.859 372.064 390.362 372.064ZM405.939 373.13C405.115 373.13 404.457 372.887 403.963 372.402C403.469 371.908 403.222 371.241 403.222 370.4V365.85H404.392V370.4C404.392 370.937 404.53 371.358 404.808 371.661C405.085 371.956 405.462 372.103 405.939 372.103C406.424 372.103 406.805 371.956 407.083 371.661C407.369 371.358 407.512 370.937 407.512 370.4V365.85H408.682V370.4C408.682 371.241 408.43 371.908 407.928 372.402C407.425 372.887 406.762 373.13 405.939 373.13ZM411.043 373V365.85H412.213V367.215H412.46L412.213 367.488C412.213 366.925 412.382 366.491 412.72 366.188C413.058 365.876 413.526 365.72 414.124 365.72C414.843 365.72 415.415 365.941 415.84 366.383C416.264 366.825 416.477 367.427 416.477 368.19V373H415.307V368.32C415.307 367.809 415.168 367.419 414.891 367.15C414.622 366.873 414.254 366.734 413.786 366.734C413.3 366.734 412.915 366.881 412.629 367.176C412.351 367.471 412.213 367.895 412.213 368.45V373H411.043ZM422.517 373C422.101 373 421.737 372.918 421.425 372.753C421.113 372.588 420.87 372.354 420.697 372.051C420.523 371.748 420.437 371.392 420.437 370.985V364.576H418.032V363.51H421.607V370.985C421.607 371.28 421.689 371.514 421.854 371.687C422.018 371.852 422.239 371.934 422.517 371.934H424.792V373H422.517ZM429.337 373.104C428.765 373.104 428.271 372.996 427.855 372.779C427.439 372.562 427.114 372.25 426.88 371.843C426.654 371.427 426.542 370.937 426.542 370.374V368.476C426.542 367.904 426.654 367.414 426.88 367.007C427.114 366.6 427.439 366.288 427.855 366.071C428.271 365.854 428.765 365.746 429.337 365.746C429.909 365.746 430.403 365.854 430.819 366.071C431.235 366.288 431.555 366.6 431.781 367.007C432.015 367.414 432.132 367.9 432.132 368.463V370.374C432.132 370.937 432.015 371.427 431.781 371.843C431.555 372.25 431.235 372.562 430.819 372.779C430.403 372.996 429.909 373.104 429.337 373.104ZM429.337 372.064C429.848 372.064 430.247 371.921 430.533 371.635C430.819 371.349 430.962 370.929 430.962 370.374V368.476C430.962 367.921 430.819 367.501 430.533 367.215C430.247 366.929 429.848 366.786 429.337 366.786C428.834 366.786 428.435 366.929 428.141 367.215C427.855 367.501 427.712 367.921 427.712 368.476V370.374C427.712 370.929 427.855 371.349 428.141 371.635C428.435 371.921 428.834 372.064 429.337 372.064ZM437.183 373.13C436.611 373.13 436.109 373.022 435.675 372.805C435.251 372.588 434.921 372.276 434.687 371.869C434.453 371.453 434.336 370.963 434.336 370.4V368.45C434.336 367.878 434.453 367.388 434.687 366.981C434.921 366.574 435.251 366.262 435.675 366.045C436.109 365.828 436.611 365.72 437.183 365.72C438.007 365.72 438.67 365.941 439.172 366.383C439.675 366.825 439.939 367.427 439.965 368.19H438.795C438.769 367.731 438.613 367.38 438.327 367.137C438.05 366.886 437.669 366.76 437.183 366.76C436.672 366.76 436.265 366.907 435.961 367.202C435.658 367.488 435.506 367.9 435.506 368.437V370.4C435.506 370.937 435.658 371.353 435.961 371.648C436.265 371.943 436.672 372.09 437.183 372.09C437.669 372.09 438.05 371.964 438.327 371.713C438.613 371.462 438.769 371.111 438.795 370.66H439.965C439.939 371.423 439.675 372.025 439.172 372.467C438.67 372.909 438.007 373.13 437.183 373.13ZM442.261 373V363.51H443.431V368.801H444.809L446.889 365.85H448.228L445.823 369.256L448.267 373H446.902L444.822 369.815H443.431V373H442.261ZM457.851 373V363.497H463.441V364.563H458.995V367.722H463.103V368.788H459.021V373H457.851ZM465.906 373V363.51H467.076V371.934H471.366V373H465.906ZM473.402 373V363.51H476.34C476.903 363.51 477.397 363.627 477.822 363.861C478.247 364.086 478.576 364.403 478.81 364.81C479.044 365.217 479.161 365.694 479.161 366.24C479.161 366.881 478.992 367.432 478.654 367.891C478.325 368.35 477.874 368.667 477.302 368.84L479.291 373H477.913L476.093 368.97H474.572V373H473.402ZM474.572 367.917H476.34C476.825 367.917 477.215 367.765 477.51 367.462C477.805 367.15 477.952 366.743 477.952 366.24C477.952 365.729 477.805 365.321 477.51 365.018C477.215 364.715 476.825 364.563 476.34 364.563H474.572V367.917Z" fill="black"/>
<path d="M228.259 223.34V222.274H230.534C230.898 222.274 231.162 222.192 231.327 222.027C231.5 221.862 231.587 221.607 231.587 221.26V220.35L231.613 219.05H231.379L231.6 218.855C231.6 219.375 231.427 219.787 231.08 220.09C230.733 220.393 230.27 220.545 229.689 220.545C228.952 220.545 228.372 220.307 227.947 219.83C227.522 219.345 227.31 218.695 227.31 217.88V216.372C227.31 215.557 227.522 214.912 227.947 214.435C228.372 213.958 228.952 213.72 229.689 213.72C230.27 213.72 230.733 213.872 231.08 214.175C231.427 214.478 231.6 214.89 231.6 215.41L231.379 215.215H231.6V213.85H232.757V221.26C232.757 221.901 232.558 222.408 232.159 222.781C231.769 223.154 231.223 223.34 230.521 223.34H228.259ZM230.04 219.531C230.525 219.531 230.907 219.379 231.184 219.076C231.461 218.773 231.6 218.352 231.6 217.815V216.45C231.6 215.913 231.461 215.492 231.184 215.189C230.907 214.886 230.525 214.734 230.04 214.734C229.546 214.734 229.16 214.881 228.883 215.176C228.614 215.471 228.48 215.895 228.48 216.45V217.815C228.48 218.37 228.614 218.794 228.883 219.089C229.16 219.384 229.546 219.531 230.04 219.531ZM235.196 221V211.497H240.786V212.563H236.34V215.722H240.448V216.788H236.366V221H235.196ZM243.251 221V211.51H244.421V219.934H248.711V221H243.251ZM250.747 221V211.51H253.685C254.248 211.51 254.742 211.627 255.167 211.861C255.591 212.086 255.921 212.403 256.155 212.81C256.389 213.217 256.506 213.694 256.506 214.24C256.506 214.881 256.337 215.432 255.999 215.891C255.669 216.35 255.219 216.667 254.647 216.84L256.636 221H255.258L253.438 216.97H251.917V221H250.747ZM251.917 215.917H253.685C254.17 215.917 254.56 215.765 254.855 215.462C255.149 215.15 255.297 214.743 255.297 214.24C255.297 213.729 255.149 213.321 254.855 213.018C254.56 212.715 254.17 212.563 253.685 212.563H251.917V215.917ZM266.116 222.43L270.731 210.21H271.966L267.351 222.43H266.116ZM281.926 221V211.51H284.864C285.428 211.51 285.922 211.627 286.346 211.861C286.771 212.086 287.1 212.403 287.334 212.81C287.568 213.217 287.685 213.694 287.685 214.24C287.685 214.881 287.516 215.432 287.178 215.891C286.849 216.35 286.398 216.667 285.826 216.84L287.815 221H286.437L284.617 216.97H283.096V221H281.926ZM283.096 215.917H284.864C285.35 215.917 285.74 215.765 286.034 215.462C286.329 215.15 286.476 214.743 286.476 214.24C286.476 213.729 286.329 213.321 286.034 213.018C285.74 212.715 285.35 212.563 284.864 212.563H283.096V215.917ZM292.425 221.13C291.862 221.13 291.368 221.017 290.943 220.792C290.527 220.567 290.202 220.25 289.968 219.843C289.743 219.427 289.63 218.946 289.63 218.4V216.45C289.63 215.895 289.743 215.414 289.968 215.007C290.202 214.6 290.527 214.283 290.943 214.058C291.368 213.833 291.862 213.72 292.425 213.72C292.989 213.72 293.478 213.833 293.894 214.058C294.319 214.283 294.644 214.6 294.869 215.007C295.103 215.414 295.22 215.895 295.22 216.45V217.711H290.774V218.4C290.774 218.963 290.917 219.397 291.203 219.7C291.489 219.995 291.897 220.142 292.425 220.142C292.876 220.142 293.24 220.064 293.517 219.908C293.795 219.743 293.964 219.501 294.024 219.18H295.194C295.116 219.778 294.822 220.255 294.31 220.61C293.808 220.957 293.179 221.13 292.425 221.13ZM294.076 216.931V216.45C294.076 215.887 293.933 215.453 293.647 215.15C293.37 214.847 292.963 214.695 292.425 214.695C291.897 214.695 291.489 214.847 291.203 215.15C290.917 215.453 290.774 215.887 290.774 216.45V216.827H294.167L294.076 216.931ZM300.272 221.13C299.7 221.13 299.198 221.022 298.764 220.805C298.34 220.588 298.01 220.276 297.776 219.869C297.542 219.453 297.425 218.963 297.425 218.4V216.45C297.425 215.878 297.542 215.388 297.776 214.981C298.01 214.574 298.34 214.262 298.764 214.045C299.198 213.828 299.7 213.72 300.272 213.72C301.096 213.72 301.759 213.941 302.261 214.383C302.764 214.825 303.028 215.427 303.054 216.19H301.884C301.858 215.731 301.702 215.38 301.416 215.137C301.139 214.886 300.758 214.76 300.272 214.76C299.761 214.76 299.354 214.907 299.05 215.202C298.747 215.488 298.595 215.9 298.595 216.437V218.4C298.595 218.937 298.747 219.353 299.05 219.648C299.354 219.943 299.761 220.09 300.272 220.09C300.758 220.09 301.139 219.964 301.416 219.713C301.702 219.462 301.858 219.111 301.884 218.66H303.054C303.028 219.423 302.764 220.025 302.261 220.467C301.759 220.909 301.096 221.13 300.272 221.13ZM308.015 221.13C307.452 221.13 306.958 221.017 306.533 220.792C306.117 220.567 305.792 220.25 305.558 219.843C305.333 219.427 305.22 218.946 305.22 218.4V216.45C305.22 215.895 305.333 215.414 305.558 215.007C305.792 214.6 306.117 214.283 306.533 214.058C306.958 213.833 307.452 213.72 308.015 213.72C308.579 213.72 309.068 213.833 309.484 214.058C309.909 214.283 310.234 214.6 310.459 215.007C310.693 215.414 310.81 215.895 310.81 216.45V217.711H306.364V218.4C306.364 218.963 306.507 219.397 306.793 219.7C307.079 219.995 307.487 220.142 308.015 220.142C308.466 220.142 308.83 220.064 309.107 219.908C309.385 219.743 309.554 219.501 309.614 219.18H310.784C310.706 219.778 310.412 220.255 309.9 220.61C309.398 220.957 308.769 221.13 308.015 221.13ZM309.666 216.931V216.45C309.666 215.887 309.523 215.453 309.237 215.15C308.96 214.847 308.553 214.695 308.015 214.695C307.487 214.695 307.079 214.847 306.793 215.15C306.507 215.453 306.364 215.887 306.364 216.45V216.827H309.757L309.666 216.931ZM313.015 221V219.934H315.55V214.916H313.34V213.85H316.72V219.934H319.125V221H313.015ZM316.005 212.563C315.719 212.563 315.494 212.489 315.329 212.342C315.164 212.195 315.082 211.995 315.082 211.744C315.082 211.484 315.164 211.28 315.329 211.133C315.494 210.977 315.719 210.899 316.005 210.899C316.291 210.899 316.516 210.977 316.681 211.133C316.846 211.28 316.928 211.484 316.928 211.744C316.928 211.995 316.846 212.195 316.681 212.342C316.516 212.489 316.291 212.563 316.005 212.563ZM320.901 223.34V213.85H322.071V215.215H322.305L322.071 215.488C322.071 214.942 322.249 214.513 322.604 214.201C322.968 213.88 323.445 213.72 324.034 213.72C324.753 213.72 325.325 213.958 325.75 214.435C326.183 214.903 326.4 215.549 326.4 216.372V218.465C326.4 219.011 326.3 219.483 326.101 219.882C325.91 220.281 325.637 220.588 325.282 220.805C324.935 221.022 324.519 221.13 324.034 221.13C323.453 221.13 322.981 220.97 322.617 220.649C322.253 220.328 322.071 219.899 322.071 219.362L322.305 219.635H322.045L322.071 221.26V223.34H320.901ZM323.644 220.116C324.138 220.116 324.524 219.969 324.801 219.674C325.087 219.379 325.23 218.955 325.23 218.4V216.45C325.23 215.895 325.087 215.471 324.801 215.176C324.524 214.881 324.138 214.734 323.644 214.734C323.167 214.734 322.786 214.886 322.5 215.189C322.214 215.492 322.071 215.913 322.071 216.45V218.4C322.071 218.937 322.214 219.358 322.5 219.661C322.786 219.964 323.167 220.116 323.644 220.116ZM332.18 221C331.565 221 331.084 220.835 330.737 220.506C330.399 220.177 330.23 219.713 330.23 219.115V214.916H328.215V213.85H330.23V211.835H331.4V213.85H334.26V214.916H331.4V219.115C331.4 219.661 331.66 219.934 332.18 219.934H334.13V221H332.18ZM344.286 223.34V213.85H345.456V215.215H345.69L345.456 215.488C345.456 214.942 345.634 214.513 345.989 214.201C346.353 213.88 346.83 213.72 347.419 213.72C348.138 213.72 348.71 213.958 349.135 214.435C349.568 214.903 349.785 215.549 349.785 216.372V218.465C349.785 219.011 349.685 219.483 349.486 219.882C349.295 220.281 349.022 220.588 348.667 220.805C348.32 221.022 347.904 221.13 347.419 221.13C346.838 221.13 346.366 220.97 346.002 220.649C345.638 220.328 345.456 219.899 345.456 219.362L345.69 219.635H345.43L345.456 221.26V223.34H344.286ZM347.029 220.116C347.523 220.116 347.909 219.969 348.186 219.674C348.472 219.379 348.615 218.955 348.615 218.4V216.45C348.615 215.895 348.472 215.471 348.186 215.176C347.909 214.881 347.523 214.734 347.029 214.734C346.552 214.734 346.171 214.886 345.885 215.189C345.599 215.492 345.456 215.913 345.456 216.45V218.4C345.456 218.937 345.599 219.358 345.885 219.661C346.171 219.964 346.552 220.116 347.029 220.116ZM352.328 221V213.85H353.472V215.215H353.745L353.368 216.06C353.368 215.289 353.532 214.708 353.862 214.318C354.2 213.919 354.698 213.72 355.357 213.72C356.111 213.72 356.709 213.958 357.151 214.435C357.601 214.903 357.827 215.54 357.827 216.346V216.775H356.657V216.45C356.657 215.887 356.518 215.458 356.241 215.163C355.972 214.86 355.586 214.708 355.084 214.708C354.59 214.708 354.2 214.86 353.914 215.163C353.636 215.466 353.498 215.895 353.498 216.45V221H352.328ZM359.785 221V219.934H362.32V214.916H360.11V213.85H363.49V219.934H365.895V221H359.785ZM362.775 212.563C362.489 212.563 362.263 212.489 362.099 212.342C361.934 212.195 361.852 211.995 361.852 211.744C361.852 211.484 361.934 211.28 362.099 211.133C362.263 210.977 362.489 210.899 362.775 210.899C363.061 210.899 363.286 210.977 363.451 211.133C363.615 211.28 363.698 211.484 363.698 211.744C363.698 211.995 363.615 212.195 363.451 212.342C363.286 212.489 363.061 212.563 362.775 212.563ZM370.427 221.13C369.855 221.13 369.352 221.022 368.919 220.805C368.494 220.588 368.165 220.276 367.931 219.869C367.697 219.453 367.58 218.963 367.58 218.4V216.45C367.58 215.878 367.697 215.388 367.931 214.981C368.165 214.574 368.494 214.262 368.919 214.045C369.352 213.828 369.855 213.72 370.427 213.72C371.25 213.72 371.913 213.941 372.416 214.383C372.918 214.825 373.183 215.427 373.209 216.19H372.039C372.013 215.731 371.857 215.38 371.571 215.137C371.293 214.886 370.912 214.76 370.427 214.76C369.915 214.76 369.508 214.907 369.205 215.202C368.901 215.488 368.75 215.9 368.75 216.437V218.4C368.75 218.937 368.901 219.353 369.205 219.648C369.508 219.943 369.915 220.09 370.427 220.09C370.912 220.09 371.293 219.964 371.571 219.713C371.857 219.462 372.013 219.111 372.039 218.66H373.209C373.183 219.423 372.918 220.025 372.416 220.467C371.913 220.909 371.25 221.13 370.427 221.13ZM378.17 221.13C377.606 221.13 377.112 221.017 376.688 220.792C376.272 220.567 375.947 220.25 375.713 219.843C375.487 219.427 375.375 218.946 375.375 218.4V216.45C375.375 215.895 375.487 215.414 375.713 215.007C375.947 214.6 376.272 214.283 376.688 214.058C377.112 213.833 377.606 213.72 378.17 213.72C378.733 213.72 379.223 213.833 379.639 214.058C380.063 214.283 380.388 214.6 380.614 215.007C380.848 215.414 380.965 215.895 380.965 216.45V217.711H376.519V218.4C376.519 218.963 376.662 219.397 376.948 219.7C377.234 219.995 377.641 220.142 378.17 220.142C378.62 220.142 378.984 220.064 379.262 219.908C379.539 219.743 379.708 219.501 379.769 219.18H380.939C380.861 219.778 380.566 220.255 380.055 220.61C379.552 220.957 378.924 221.13 378.17 221.13ZM379.821 216.931V216.45C379.821 215.887 379.678 215.453 379.392 215.15C379.114 214.847 378.707 214.695 378.17 214.695C377.641 214.695 377.234 214.847 376.948 215.15C376.662 215.453 376.519 215.887 376.519 216.45V216.827H379.912L379.821 216.931ZM390.964 215.67V214.63H396.554V215.67H390.964ZM390.964 218.79V217.75H396.554V218.79H390.964ZM406.684 221V211.497H412.274V212.563H407.828V215.722H411.936V216.788H407.854V221H406.684ZM414.739 221V211.51H415.909V219.934H420.199V221H414.739ZM422.235 221V211.51H425.173C425.736 211.51 426.23 211.627 426.655 211.861C427.08 212.086 427.409 212.403 427.643 212.81C427.877 213.217 427.994 213.694 427.994 214.24C427.994 214.881 427.825 215.432 427.487 215.891C427.158 216.35 426.707 216.667 426.135 216.84L428.124 221H426.746L424.926 216.97H423.405V221H422.235ZM423.405 215.917H425.173C425.658 215.917 426.048 215.765 426.343 215.462C426.638 215.15 426.785 214.743 426.785 214.24C426.785 213.729 426.638 213.321 426.343 213.018C426.048 212.715 425.658 212.563 425.173 212.563H423.405V215.917ZM254.618 243V241.934H257.192V234.485L254.618 236.409V235.109L256.763 233.51H258.362V241.934H260.468V243H254.618ZM265.143 243.13C264.562 243.13 264.055 243.017 263.622 242.792C263.197 242.558 262.868 242.233 262.634 241.817C262.4 241.392 262.283 240.898 262.283 240.335V236.175C262.283 235.603 262.4 235.109 262.634 234.693C262.868 234.277 263.197 233.956 263.622 233.731C264.055 233.497 264.562 233.38 265.143 233.38C265.732 233.38 266.239 233.497 266.664 233.731C267.089 233.956 267.418 234.277 267.652 234.693C267.886 235.109 268.003 235.603 268.003 236.175V240.335C268.003 240.898 267.886 241.392 267.652 241.817C267.418 242.233 267.084 242.558 266.651 242.792C266.226 243.017 265.724 243.13 265.143 243.13ZM265.143 242.129C265.663 242.129 266.079 241.964 266.391 241.635C266.712 241.297 266.872 240.864 266.872 240.335V236.175C266.872 235.646 266.712 235.217 266.391 234.888C266.079 234.55 265.663 234.381 265.143 234.381C264.623 234.381 264.203 234.55 263.882 234.888C263.57 235.217 263.414 235.646 263.414 236.175V240.335C263.414 240.864 263.57 241.297 263.882 241.635C264.203 241.964 264.623 242.129 265.143 242.129ZM265.143 239.022C264.909 239.022 264.718 238.948 264.571 238.801C264.432 238.654 264.363 238.459 264.363 238.216C264.363 237.982 264.432 237.796 264.571 237.657C264.718 237.51 264.909 237.436 265.143 237.436C265.377 237.436 265.563 237.51 265.702 237.657C265.849 237.796 265.923 237.982 265.923 238.216C265.923 238.459 265.849 238.654 265.702 238.801C265.563 238.948 265.377 239.022 265.143 239.022ZM277.808 244.43L282.423 232.21H283.658L279.043 244.43H277.808ZM296.323 243.13C295.742 243.13 295.235 243.017 294.802 242.792C294.377 242.558 294.048 242.233 293.814 241.817C293.58 241.392 293.463 240.898 293.463 240.335V236.175C293.463 235.603 293.58 235.109 293.814 234.693C294.048 234.277 294.377 233.956 294.802 233.731C295.235 233.497 295.742 233.38 296.323 233.38C296.912 233.38 297.419 233.497 297.844 233.731C298.269 233.956 298.598 234.277 298.832 234.693C299.066 235.109 299.183 235.603 299.183 236.175V240.335C299.183 240.898 299.066 241.392 298.832 241.817C298.598 242.233 298.264 242.558 297.831 242.792C297.406 243.017 296.904 243.13 296.323 243.13ZM296.323 242.129C296.843 242.129 297.259 241.964 297.571 241.635C297.892 241.297 298.052 240.864 298.052 240.335V236.175C298.052 235.646 297.892 235.217 297.571 234.888C297.259 234.55 296.843 234.381 296.323 234.381C295.803 234.381 295.383 234.55 295.062 234.888C294.75 235.217 294.594 235.646 294.594 236.175V240.335C294.594 240.864 294.75 241.297 295.062 241.635C295.383 241.964 295.803 242.129 296.323 242.129ZM296.323 239.022C296.089 239.022 295.898 238.948 295.751 238.801C295.612 238.654 295.543 238.459 295.543 238.216C295.543 237.982 295.612 237.796 295.751 237.657C295.898 237.51 296.089 237.436 296.323 237.436C296.557 237.436 296.743 237.51 296.882 237.657C297.029 237.796 297.103 237.982 297.103 238.216C297.103 238.459 297.029 238.654 296.882 238.801C296.743 238.948 296.557 239.022 296.323 239.022ZM304.118 243.13C303.788 243.13 303.524 243.035 303.325 242.844C303.134 242.653 303.039 242.398 303.039 242.077C303.039 241.739 303.134 241.47 303.325 241.271C303.524 241.072 303.788 240.972 304.118 240.972C304.447 240.972 304.707 241.072 304.898 241.271C305.097 241.47 305.197 241.739 305.197 242.077C305.197 242.398 305.097 242.653 304.898 242.844C304.707 243.035 304.447 243.13 304.118 243.13ZM311.913 243.13C311.332 243.13 310.825 243.017 310.392 242.792C309.967 242.558 309.638 242.233 309.404 241.817C309.17 241.392 309.053 240.898 309.053 240.335V236.175C309.053 235.603 309.17 235.109 309.404 234.693C309.638 234.277 309.967 233.956 310.392 233.731C310.825 233.497 311.332 233.38 311.913 233.38C312.502 233.38 313.009 233.497 313.434 233.731C313.858 233.956 314.188 234.277 314.422 234.693C314.656 235.109 314.773 235.603 314.773 236.175V240.335C314.773 240.898 314.656 241.392 314.422 241.817C314.188 242.233 313.854 242.558 313.421 242.792C312.996 243.017 312.493 243.13 311.913 243.13ZM311.913 242.129C312.433 242.129 312.849 241.964 313.161 241.635C313.481 241.297 313.642 240.864 313.642 240.335V236.175C313.642 235.646 313.481 235.217 313.161 234.888C312.849 234.55 312.433 234.381 311.913 234.381C311.393 234.381 310.972 234.55 310.652 234.888C310.34 235.217 310.184 235.646 310.184 236.175V240.335C310.184 240.864 310.34 241.297 310.652 241.635C310.972 241.964 311.393 242.129 311.913 242.129ZM311.913 239.022C311.679 239.022 311.488 238.948 311.341 238.801C311.202 238.654 311.133 238.459 311.133 238.216C311.133 237.982 311.202 237.796 311.341 237.657C311.488 237.51 311.679 237.436 311.913 237.436C312.147 237.436 312.333 237.51 312.472 237.657C312.619 237.796 312.693 237.982 312.693 238.216C312.693 238.459 312.619 238.654 312.472 238.801C312.333 238.948 312.147 239.022 311.913 239.022ZM317.004 243V241.804L319.903 238.723C320.397 238.194 320.756 237.726 320.982 237.319C321.207 236.903 321.32 236.504 321.32 236.123C321.32 235.594 321.172 235.178 320.878 234.875C320.592 234.572 320.197 234.42 319.695 234.42C319.14 234.42 318.702 234.576 318.382 234.888C318.07 235.2 317.914 235.629 317.914 236.175H316.744C316.761 235.603 316.891 235.109 317.134 234.693C317.385 234.268 317.727 233.943 318.161 233.718C318.603 233.493 319.114 233.38 319.695 233.38C320.267 233.38 320.761 233.493 321.177 233.718C321.601 233.935 321.926 234.247 322.152 234.654C322.377 235.061 322.49 235.547 322.49 236.11C322.49 236.647 322.347 237.18 322.061 237.709C321.775 238.238 321.307 238.84 320.657 239.516L318.317 241.934H322.646V243H317.004ZM332.502 237.67V236.63H338.092V237.67H332.502ZM332.502 240.79V239.75H338.092V240.79H332.502ZM350.874 243.13C349.999 243.13 349.297 242.913 348.768 242.48C348.24 242.038 347.949 241.44 347.897 240.686H349.522C349.557 241.015 349.687 241.271 349.912 241.453C350.146 241.626 350.467 241.713 350.874 241.713C351.325 241.713 351.667 241.596 351.901 241.362C352.135 241.119 352.252 240.786 352.252 240.361V239.438C352.252 239.005 352.135 238.675 351.901 238.45C351.667 238.216 351.325 238.099 350.874 238.099C350.597 238.099 350.359 238.155 350.159 238.268C349.96 238.381 349.808 238.537 349.704 238.736H348.118L348.183 233.51H353.526V234.979H349.717L349.691 237.735H350.068L349.678 238.06C349.678 237.661 349.834 237.349 350.146 237.124C350.467 236.89 350.896 236.773 351.433 236.773C352.205 236.764 352.803 236.998 353.227 237.475C353.661 237.943 353.877 238.597 353.877 239.438V240.361C353.877 241.219 353.609 241.895 353.071 242.389C352.543 242.883 351.81 243.13 350.874 243.13ZM358.682 243.13C358.067 243.13 357.534 243.013 357.083 242.779C356.633 242.545 356.282 242.216 356.03 241.791C355.788 241.366 355.666 240.868 355.666 240.296V236.214C355.666 235.642 355.788 235.144 356.03 234.719C356.282 234.294 356.633 233.965 357.083 233.731C357.534 233.497 358.067 233.38 358.682 233.38C359.306 233.38 359.839 233.497 360.281 233.731C360.732 233.965 361.079 234.294 361.321 234.719C361.573 235.144 361.698 235.642 361.698 236.214V240.296C361.698 240.868 361.573 241.366 361.321 241.791C361.079 242.216 360.732 242.545 360.281 242.779C359.831 243.013 359.298 243.13 358.682 243.13ZM358.682 241.726C359.133 241.726 359.493 241.596 359.761 241.336C360.03 241.076 360.164 240.729 360.164 240.296V236.214C360.164 235.781 360.03 235.434 359.761 235.174C359.493 234.914 359.133 234.784 358.682 234.784C358.232 234.784 357.872 234.914 357.603 235.174C357.335 235.434 357.2 235.781 357.2 236.214V240.296C357.2 240.729 357.335 241.076 357.603 241.336C357.872 241.596 358.232 241.726 358.682 241.726ZM358.682 239.1C358.431 239.1 358.223 239.018 358.058 238.853C357.902 238.688 357.824 238.476 357.824 238.216C357.824 237.956 357.902 237.748 358.058 237.592C358.214 237.436 358.422 237.358 358.682 237.358C358.942 237.358 359.15 237.436 359.306 237.592C359.462 237.748 359.54 237.956 359.54 238.216C359.54 238.476 359.462 238.688 359.306 238.853C359.15 239.018 358.942 239.1 358.682 239.1ZM366.477 243.13C365.862 243.13 365.329 243.013 364.878 242.779C364.427 242.545 364.076 242.216 363.825 241.791C363.582 241.366 363.461 240.868 363.461 240.296V236.214C363.461 235.642 363.582 235.144 363.825 234.719C364.076 234.294 364.427 233.965 364.878 233.731C365.329 233.497 365.862 233.38 366.477 233.38C367.101 233.38 367.634 233.497 368.076 233.731C368.527 233.965 368.873 234.294 369.116 234.719C369.367 235.144 369.493 235.642 369.493 236.214V240.296C369.493 240.868 369.367 241.366 369.116 241.791C368.873 242.216 368.527 242.545 368.076 242.779C367.625 243.013 367.092 243.13 366.477 243.13ZM366.477 241.726C366.928 241.726 367.287 241.596 367.556 241.336C367.825 241.076 367.959 240.729 367.959 240.296V236.214C367.959 235.781 367.825 235.434 367.556 235.174C367.287 234.914 366.928 234.784 366.477 234.784C366.026 234.784 365.667 234.914 365.398 235.174C365.129 235.434 364.995 235.781 364.995 236.214V240.296C364.995 240.729 365.129 241.076 365.398 241.336C365.667 241.596 366.026 241.726 366.477 241.726ZM366.477 239.1C366.226 239.1 366.018 239.018 365.853 238.853C365.697 238.688 365.619 238.476 365.619 238.216C365.619 237.956 365.697 237.748 365.853 237.592C366.009 237.436 366.217 237.358 366.477 237.358C366.737 237.358 366.945 237.436 367.101 237.592C367.257 237.748 367.335 237.956 367.335 238.216C367.335 238.476 367.257 238.688 367.101 238.853C366.945 239.018 366.737 239.1 366.477 239.1ZM379.207 243V233.51H385.109V235.018H380.806V237.553H384.771V239.061H380.832V243H379.207ZM387.301 243V233.51H388.926V241.492H392.956V243H387.301ZM394.745 243V233.51H397.748C398.381 233.51 398.927 233.627 399.386 233.861C399.854 234.095 400.218 234.424 400.478 234.849C400.738 235.265 400.868 235.759 400.868 236.331C400.868 236.955 400.708 237.505 400.387 237.982C400.075 238.459 399.65 238.797 399.113 238.996L400.998 243H399.178L397.527 239.23H396.37V243H394.745ZM396.37 237.8H397.748C398.207 237.8 398.567 237.674 398.827 237.423C399.087 237.172 399.217 236.825 399.217 236.383C399.217 235.932 399.087 235.581 398.827 235.33C398.567 235.07 398.207 234.94 397.748 234.94H396.37V237.8Z" fill="black"/>
<rect width="118" height="55" transform="translate(44 109)" fill="#1E26E8"/>
<path d="M76.8878 141V139.934H79.4618V132.485L76.8878 134.409V133.109L79.0328 131.51H80.6318V139.934H82.7378V141H76.8878ZM87.4127 141.13C86.832 141.13 86.325 141.017 85.8917 140.792C85.467 140.558 85.1377 140.233 84.9037 139.817C84.6697 139.392 84.5527 138.898 84.5527 138.335V134.175C84.5527 133.603 84.6697 133.109 84.9037 132.693C85.1377 132.277 85.467 131.956 85.8917 131.731C86.325 131.497 86.832 131.38 87.4127 131.38C88.002 131.38 88.509 131.497 88.9337 131.731C89.3584 131.956 89.6877 132.277 89.9217 132.693C90.1557 133.109 90.2727 133.603 90.2727 134.175V138.335C90.2727 138.898 90.1557 139.392 89.9217 139.817C89.6877 140.233 89.354 140.558 88.9207 140.792C88.496 141.017 87.9934 141.13 87.4127 141.13ZM87.4127 140.129C87.9327 140.129 88.3487 139.964 88.6607 139.635C88.9814 139.297 89.1417 138.864 89.1417 138.335V134.175C89.1417 133.646 88.9814 133.217 88.6607 132.888C88.3487 132.55 87.9327 132.381 87.4127 132.381C86.8927 132.381 86.4724 132.55 86.1517 132.888C85.8397 133.217 85.6837 133.646 85.6837 134.175V138.335C85.6837 138.864 85.8397 139.297 86.1517 139.635C86.4724 139.964 86.8927 140.129 87.4127 140.129ZM87.4127 137.022C87.1787 137.022 86.988 136.948 86.8407 136.801C86.702 136.654 86.6327 136.459 86.6327 136.216C86.6327 135.982 86.702 135.796 86.8407 135.657C86.988 135.51 87.1787 135.436 87.4127 135.436C87.6467 135.436 87.833 135.51 87.9717 135.657C88.119 135.796 88.1927 135.982 88.1927 136.216C88.1927 136.459 88.119 136.654 87.9717 136.801C87.833 136.948 87.6467 137.022 87.4127 137.022ZM101.196 143.34V142.274H103.471C103.835 142.274 104.099 142.192 104.264 142.027C104.437 141.862 104.524 141.607 104.524 141.26V140.35L104.55 139.05H104.316L104.537 138.855C104.537 139.375 104.363 139.787 104.017 140.09C103.67 140.393 103.206 140.545 102.626 140.545C101.889 140.545 101.308 140.307 100.884 139.83C100.459 139.345 100.247 138.695 100.247 137.88V136.372C100.247 135.557 100.459 134.912 100.884 134.435C101.308 133.958 101.889 133.72 102.626 133.72C103.206 133.72 103.67 133.872 104.017 134.175C104.363 134.478 104.537 134.89 104.537 135.41L104.316 135.215H104.537V133.85H105.694V141.26C105.694 141.901 105.494 142.408 105.096 142.781C104.706 143.154 104.16 143.34 103.458 143.34H101.196ZM102.977 139.531C103.462 139.531 103.843 139.379 104.121 139.076C104.398 138.773 104.537 138.352 104.537 137.815V136.45C104.537 135.913 104.398 135.492 104.121 135.189C103.843 134.886 103.462 134.734 102.977 134.734C102.483 134.734 102.097 134.881 101.82 135.176C101.551 135.471 101.417 135.895 101.417 136.45V137.815C101.417 138.37 101.551 138.794 101.82 139.089C102.097 139.384 102.483 139.531 102.977 139.531ZM108.132 141V131.497H113.722V132.563H109.276V135.722H113.384V136.788H109.302V141H108.132ZM116.187 141V131.51H117.357V139.934H121.647V141H116.187ZM123.683 141V131.51H126.621C127.185 131.51 127.679 131.627 128.103 131.861C128.528 132.086 128.857 132.403 129.091 132.81C129.325 133.217 129.442 133.694 129.442 134.24C129.442 134.881 129.273 135.432 128.935 135.891C128.606 136.35 128.155 136.667 127.583 136.84L129.572 141H128.194L126.374 136.97H124.853V141H123.683ZM124.853 135.917H126.621C127.107 135.917 127.497 135.765 127.791 135.462C128.086 135.15 128.233 134.743 128.233 134.24C128.233 133.729 128.086 133.321 127.791 133.018C127.497 132.715 127.107 132.563 126.621 132.563H124.853V135.917Z" fill="white"/>
<rect width="118" height="55" transform="translate(44 239)" fill="#1E26E8"/>
<path d="M61.2979 262.5V261.434H63.8719V253.985L61.2979 255.909V254.609L63.4429 253.01H65.0419V261.434H67.1479V262.5H61.2979ZM71.8229 262.63C71.2422 262.63 70.7352 262.517 70.3019 262.292C69.8772 262.058 69.5479 261.733 69.3139 261.317C69.0799 260.892 68.9629 260.398 68.9629 259.835V255.675C68.9629 255.103 69.0799 254.609 69.3139 254.193C69.5479 253.777 69.8772 253.456 70.3019 253.231C70.7352 252.997 71.2422 252.88 71.8229 252.88C72.4122 252.88 72.9192 252.997 73.3439 253.231C73.7685 253.456 74.0979 253.777 74.3319 254.193C74.5659 254.609 74.6829 255.103 74.6829 255.675V259.835C74.6829 260.398 74.5659 260.892 74.3319 261.317C74.0979 261.733 73.7642 262.058 73.3309 262.292C72.9062 262.517 72.4035 262.63 71.8229 262.63ZM71.8229 261.629C72.3429 261.629 72.7589 261.464 73.0709 261.135C73.3915 260.797 73.5519 260.364 73.5519 259.835V255.675C73.5519 255.146 73.3915 254.717 73.0709 254.388C72.7589 254.05 72.3429 253.881 71.8229 253.881C71.3029 253.881 70.8825 254.05 70.5619 254.388C70.2499 254.717 70.0939 255.146 70.0939 255.675V259.835C70.0939 260.364 70.2499 260.797 70.5619 261.135C70.8825 261.464 71.3029 261.629 71.8229 261.629ZM71.8229 258.522C71.5889 258.522 71.3982 258.448 71.2509 258.301C71.1122 258.154 71.0429 257.959 71.0429 257.716C71.0429 257.482 71.1122 257.296 71.2509 257.157C71.3982 257.01 71.5889 256.936 71.8229 256.936C72.0569 256.936 72.2432 257.01 72.3819 257.157C72.5292 257.296 72.6029 257.482 72.6029 257.716C72.6029 257.959 72.5292 258.154 72.3819 258.301C72.2432 258.448 72.0569 258.522 71.8229 258.522ZM84.7087 262.5V253.01H87.6467C88.21 253.01 88.704 253.127 89.1287 253.361C89.5534 253.586 89.8827 253.903 90.1167 254.31C90.3507 254.717 90.4677 255.194 90.4677 255.74C90.4677 256.381 90.2987 256.932 89.9607 257.391C89.6314 257.85 89.1807 258.167 88.6087 258.34L90.5977 262.5H89.2197L87.3997 258.47H85.8787V262.5H84.7087ZM85.8787 257.417H87.6467C88.132 257.417 88.522 257.265 88.8167 256.962C89.1114 256.65 89.2587 256.243 89.2587 255.74C89.2587 255.229 89.1114 254.821 88.8167 254.518C88.522 254.215 88.132 254.063 87.6467 254.063H85.8787V257.417ZM95.2076 262.63C94.6443 262.63 94.1503 262.517 93.7256 262.292C93.3096 262.067 92.9846 261.75 92.7506 261.343C92.5253 260.927 92.4126 260.446 92.4126 259.9V257.95C92.4126 257.395 92.5253 256.914 92.7506 256.507C92.9846 256.1 93.3096 255.783 93.7256 255.558C94.1503 255.333 94.6443 255.22 95.2076 255.22C95.771 255.22 96.2606 255.333 96.6766 255.558C97.1013 255.783 97.4263 256.1 97.6516 256.507C97.8856 256.914 98.0026 257.395 98.0026 257.95V259.211H93.5566V259.9C93.5566 260.463 93.6996 260.897 93.9856 261.2C94.2716 261.495 94.679 261.642 95.2076 261.642C95.6583 261.642 96.0223 261.564 96.2996 261.408C96.577 261.243 96.746 261.001 96.8066 260.68H97.9766C97.8986 261.278 97.604 261.755 97.0926 262.11C96.59 262.457 95.9616 262.63 95.2076 262.63ZM96.8586 258.431V257.95C96.8586 257.387 96.7156 256.953 96.4296 256.65C96.1523 256.347 95.745 256.195 95.2076 256.195C94.679 256.195 94.2716 256.347 93.9856 256.65C93.6996 256.953 93.5566 257.387 93.5566 257.95V258.327H96.9496L96.8586 258.431ZM103.055 262.63C102.483 262.63 101.98 262.522 101.547 262.305C101.122 262.088 100.793 261.776 100.559 261.369C100.325 260.953 100.208 260.463 100.208 259.9V257.95C100.208 257.378 100.325 256.888 100.559 256.481C100.793 256.074 101.122 255.762 101.547 255.545C101.98 255.328 102.483 255.22 103.055 255.22C103.878 255.22 104.541 255.441 105.044 255.883C105.546 256.325 105.811 256.927 105.837 257.69H104.667C104.641 257.231 104.485 256.88 104.199 256.637C103.921 256.386 103.54 256.26 103.055 256.26C102.543 256.26 102.136 256.407 101.833 256.702C101.529 256.988 101.378 257.4 101.378 257.937V259.9C101.378 260.437 101.529 260.853 101.833 261.148C102.136 261.443 102.543 261.59 103.055 261.59C103.54 261.59 103.921 261.464 104.199 261.213C104.485 260.962 104.641 260.611 104.667 260.16H105.837C105.811 260.923 105.546 261.525 105.044 261.967C104.541 262.409 103.878 262.63 103.055 262.63ZM110.797 262.63C110.234 262.63 109.74 262.517 109.315 262.292C108.899 262.067 108.574 261.75 108.34 261.343C108.115 260.927 108.002 260.446 108.002 259.9V257.95C108.002 257.395 108.115 256.914 108.34 256.507C108.574 256.1 108.899 255.783 109.315 255.558C109.74 255.333 110.234 255.22 110.797 255.22C111.361 255.22 111.85 255.333 112.266 255.558C112.691 255.783 113.016 256.1 113.241 256.507C113.475 256.914 113.592 257.395 113.592 257.95V259.211H109.146V259.9C109.146 260.463 109.289 260.897 109.575 261.2C109.861 261.495 110.269 261.642 110.797 261.642C111.248 261.642 111.612 261.564 111.889 261.408C112.167 261.243 112.336 261.001 112.396 260.68H113.566C113.488 261.278 113.194 261.755 112.682 262.11C112.18 262.457 111.551 262.63 110.797 262.63ZM112.448 258.431V257.95C112.448 257.387 112.305 256.953 112.019 256.65C111.742 256.347 111.335 256.195 110.797 256.195C110.269 256.195 109.861 256.347 109.575 256.65C109.289 256.953 109.146 257.387 109.146 257.95V258.327H112.539L112.448 258.431ZM115.797 262.5V261.434H118.332V256.416H116.122V255.35H119.502V261.434H121.907V262.5H115.797ZM118.787 254.063C118.501 254.063 118.276 253.989 118.111 253.842C117.947 253.695 117.864 253.495 117.864 253.244C117.864 252.984 117.947 252.78 118.111 252.633C118.276 252.477 118.501 252.399 118.787 252.399C119.073 252.399 119.299 252.477 119.463 252.633C119.628 252.78 119.71 252.984 119.71 253.244C119.71 253.495 119.628 253.695 119.463 253.842C119.299 253.989 119.073 254.063 118.787 254.063ZM123.683 264.84V255.35H124.853V256.715H125.087L124.853 256.988C124.853 256.442 125.031 256.013 125.386 255.701C125.75 255.38 126.227 255.22 126.816 255.22C127.536 255.22 128.108 255.458 128.532 255.935C128.966 256.403 129.182 257.049 129.182 257.872V259.965C129.182 260.511 129.083 260.983 128.883 261.382C128.693 261.781 128.42 262.088 128.064 262.305C127.718 262.522 127.302 262.63 126.816 262.63C126.236 262.63 125.763 262.47 125.399 262.149C125.035 261.828 124.853 261.399 124.853 260.862L125.087 261.135H124.827L124.853 262.76V264.84H123.683ZM126.426 261.616C126.92 261.616 127.306 261.469 127.583 261.174C127.869 260.879 128.012 260.455 128.012 259.9V257.95C128.012 257.395 127.869 256.971 127.583 256.676C127.306 256.381 126.92 256.234 126.426 256.234C125.95 256.234 125.568 256.386 125.282 256.689C124.996 256.992 124.853 257.413 124.853 257.95V259.9C124.853 260.437 124.996 260.858 125.282 261.161C125.568 261.464 125.95 261.616 126.426 261.616ZM134.962 262.5C134.347 262.5 133.866 262.335 133.519 262.006C133.181 261.677 133.012 261.213 133.012 260.615V256.416H130.997V255.35H133.012V253.335H134.182V255.35H137.042V256.416H134.182V260.615C134.182 261.161 134.442 261.434 134.962 261.434H136.912V262.5H134.962ZM141.756 262.604C141.271 262.604 140.846 262.53 140.482 262.383C140.127 262.227 139.841 262.01 139.624 261.733C139.416 261.456 139.29 261.126 139.247 260.745H140.417C140.469 260.996 140.608 261.196 140.833 261.343C141.067 261.49 141.375 261.564 141.756 261.564H142.302C142.761 261.564 143.104 261.473 143.329 261.291C143.554 261.1 143.667 260.849 143.667 260.537C143.667 260.234 143.563 259.995 143.355 259.822C143.156 259.64 142.857 259.519 142.458 259.458L141.496 259.302C140.794 259.181 140.27 258.964 139.923 258.652C139.585 258.331 139.416 257.868 139.416 257.261C139.416 256.62 139.62 256.126 140.027 255.779C140.434 255.424 141.045 255.246 141.86 255.246H142.354C143.039 255.246 143.589 255.406 144.005 255.727C144.421 256.048 144.672 256.481 144.759 257.027H143.589C143.537 256.802 143.407 256.624 143.199 256.494C142.991 256.355 142.709 256.286 142.354 256.286H141.86C141.418 256.286 141.093 256.368 140.885 256.533C140.686 256.698 140.586 256.945 140.586 257.274C140.586 257.569 140.673 257.785 140.846 257.924C141.019 258.063 141.292 258.162 141.665 258.223L142.627 258.379C143.398 258.5 143.957 258.726 144.304 259.055C144.659 259.384 144.837 259.861 144.837 260.485C144.837 261.144 144.625 261.664 144.2 262.045C143.784 262.418 143.151 262.604 142.302 262.604H141.756ZM79.9428 281.84C79.2061 281.84 78.5648 281.684 78.0188 281.372C77.4728 281.069 77.0481 280.631 76.7448 280.059C76.4501 279.496 76.3028 278.833 76.3028 278.07V273.65C76.3028 272.87 76.4414 272.198 76.7188 271.635C77.0048 271.072 77.4078 270.638 77.9278 270.335C78.4564 270.032 79.0848 269.88 79.8128 269.88C80.4714 269.88 81.0391 270.01 81.5158 270.27C81.9924 270.521 82.3564 270.885 82.6078 271.362C82.8678 271.839 82.9978 272.406 82.9978 273.065V278.655H82.0748V277.94H81.7108L81.9578 277.68C81.9578 278.009 81.8321 278.278 81.5808 278.486C81.3294 278.685 80.9958 278.785 80.5798 278.785C80.0164 278.785 79.5831 278.616 79.2798 278.278C78.9851 277.931 78.8378 277.429 78.8378 276.77V275.21C78.8378 274.551 78.9851 274.053 79.2798 273.715C79.5831 273.368 80.0164 273.195 80.5798 273.195C80.9958 273.195 81.3294 273.299 81.5808 273.507C81.8321 273.706 81.9578 273.975 81.9578 274.313L81.7758 274.04H82.0878L81.9578 273.13V273.065C81.9578 272.571 81.8754 272.155 81.7108 271.817C81.5461 271.479 81.3034 271.223 80.9828 271.05C80.6708 270.877 80.2808 270.79 79.8128 270.79C79.0328 270.79 78.4261 271.041 77.9928 271.544C77.5594 272.047 77.3428 272.749 77.3428 273.65V278.07C77.3428 278.937 77.5724 279.617 78.0318 280.111C78.4998 280.614 79.1368 280.865 79.9428 280.865H80.8528V281.84H79.9428ZM80.9178 277.966C81.2731 277.966 81.5331 277.858 81.6978 277.641C81.8711 277.424 81.9578 277.091 81.9578 276.64V275.197C81.9578 274.79 81.8711 274.491 81.6978 274.3C81.5331 274.109 81.2731 274.014 80.9178 274.014C80.5711 274.014 80.3111 274.114 80.1378 274.313C79.9644 274.504 79.8778 274.803 79.8778 275.21V276.77C79.8778 277.177 79.9644 277.481 80.1378 277.68C80.3111 277.871 80.5711 277.966 80.9178 277.966ZM94.8826 281.32V279.617C94.068 279.548 93.4266 279.288 92.9586 278.837C92.4993 278.378 92.261 277.775 92.2436 277.03H93.4136C93.4136 277.455 93.5393 277.801 93.7906 278.07C94.0506 278.339 94.4146 278.503 94.8826 278.564V275.158L94.5316 275.054C93.8816 274.855 93.379 274.521 93.0236 274.053C92.677 273.585 92.5036 273.035 92.5036 272.402C92.5036 271.709 92.716 271.137 93.1406 270.686C93.574 270.235 94.1546 269.975 94.8826 269.906V268.19H95.6626V269.893C96.382 269.962 96.9583 270.222 97.3916 270.673C97.825 271.124 98.046 271.704 98.0546 272.415H96.8846C96.8846 272.008 96.7763 271.678 96.5596 271.427C96.3516 271.167 96.0526 271.007 95.6626 270.946V274.17L96.1826 274.339C96.8153 274.538 97.305 274.876 97.6516 275.353C97.9983 275.83 98.1716 276.389 98.1716 277.03C98.1716 277.741 97.942 278.33 97.4826 278.798C97.032 279.266 96.4253 279.539 95.6626 279.617V281.32H94.8826ZM95.6626 278.564C96.0873 278.495 96.4166 278.33 96.6506 278.07C96.8846 277.81 97.0016 277.472 97.0016 277.056C97.0016 276.675 96.8976 276.341 96.6896 276.055C96.4903 275.769 96.2 275.57 95.8186 275.457L95.6626 275.405V278.564ZM94.8826 274.443V270.946C94.5013 271.007 94.2023 271.154 93.9856 271.388C93.7776 271.622 93.6736 271.925 93.6736 272.298C93.6736 272.749 93.8123 273.13 94.0896 273.442C94.367 273.745 94.7656 273.936 95.2856 274.014L94.8826 274.443ZM103.003 279.63C102.422 279.63 101.915 279.517 101.482 279.292C101.057 279.058 100.728 278.733 100.494 278.317C100.26 277.892 100.143 277.398 100.143 276.835V272.675C100.143 272.103 100.26 271.609 100.494 271.193C100.728 270.777 101.057 270.456 101.482 270.231C101.915 269.997 102.422 269.88 103.003 269.88C103.592 269.88 104.099 269.997 104.524 270.231C104.948 270.456 105.278 270.777 105.512 271.193C105.746 271.609 105.863 272.103 105.863 272.675V276.835C105.863 277.398 105.746 277.892 105.512 278.317C105.278 278.733 104.944 279.058 104.511 279.292C104.086 279.517 103.583 279.63 103.003 279.63ZM103.003 278.629C103.523 278.629 103.939 278.464 104.251 278.135C104.571 277.797 104.732 277.364 104.732 276.835V272.675C104.732 272.146 104.571 271.717 104.251 271.388C103.939 271.05 103.523 270.881 103.003 270.881C102.483 270.881 102.062 271.05 101.742 271.388C101.43 271.717 101.274 272.146 101.274 272.675V276.835C101.274 277.364 101.43 277.797 101.742 278.135C102.062 278.464 102.483 278.629 103.003 278.629ZM103.003 275.522C102.769 275.522 102.578 275.448 102.431 275.301C102.292 275.154 102.223 274.959 102.223 274.716C102.223 274.482 102.292 274.296 102.431 274.157C102.578 274.01 102.769 273.936 103.003 273.936C103.237 273.936 103.423 274.01 103.562 274.157C103.709 274.296 103.783 274.482 103.783 274.716C103.783 274.959 103.709 275.154 103.562 275.301C103.423 275.448 103.237 275.522 103.003 275.522ZM110.797 279.63C110.468 279.63 110.204 279.535 110.004 279.344C109.814 279.153 109.718 278.898 109.718 278.577C109.718 278.239 109.814 277.97 110.004 277.771C110.204 277.572 110.468 277.472 110.797 277.472C111.127 277.472 111.387 277.572 111.577 277.771C111.777 277.97 111.876 278.239 111.876 278.577C111.876 278.898 111.777 279.153 111.577 279.344C111.387 279.535 111.127 279.63 110.797 279.63ZM118.592 279.63C118.012 279.63 117.505 279.517 117.071 279.292C116.647 279.058 116.317 278.733 116.083 278.317C115.849 277.892 115.732 277.398 115.732 276.835V272.675C115.732 272.103 115.849 271.609 116.083 271.193C116.317 270.777 116.647 270.456 117.071 270.231C117.505 269.997 118.012 269.88 118.592 269.88C119.182 269.88 119.689 269.997 120.113 270.231C120.538 270.456 120.867 270.777 121.101 271.193C121.335 271.609 121.452 272.103 121.452 272.675V276.835C121.452 277.398 121.335 277.892 121.101 278.317C120.867 278.733 120.534 279.058 120.1 279.292C119.676 279.517 119.173 279.63 118.592 279.63ZM118.592 278.629C119.112 278.629 119.528 278.464 119.84 278.135C120.161 277.797 120.321 277.364 120.321 276.835V272.675C120.321 272.146 120.161 271.717 119.84 271.388C119.528 271.05 119.112 270.881 118.592 270.881C118.072 270.881 117.652 271.05 117.331 271.388C117.019 271.717 116.863 272.146 116.863 272.675V276.835C116.863 277.364 117.019 277.797 117.331 278.135C117.652 278.464 118.072 278.629 118.592 278.629ZM118.592 275.522C118.358 275.522 118.168 275.448 118.02 275.301C117.882 275.154 117.812 274.959 117.812 274.716C117.812 274.482 117.882 274.296 118.02 274.157C118.168 274.01 118.358 273.936 118.592 273.936C118.826 273.936 119.013 274.01 119.151 274.157C119.299 274.296 119.372 274.482 119.372 274.716C119.372 274.959 119.299 275.154 119.151 275.301C119.013 275.448 118.826 275.522 118.592 275.522ZM123.683 279.5V278.304L126.582 275.223C127.076 274.694 127.436 274.226 127.661 273.819C127.887 273.403 127.999 273.004 127.999 272.623C127.999 272.094 127.852 271.678 127.557 271.375C127.271 271.072 126.877 270.92 126.374 270.92C125.82 270.92 125.382 271.076 125.061 271.388C124.749 271.7 124.593 272.129 124.593 272.675H123.423C123.441 272.103 123.571 271.609 123.813 271.193C124.065 270.768 124.407 270.443 124.84 270.218C125.282 269.993 125.794 269.88 126.374 269.88C126.946 269.88 127.44 269.993 127.856 270.218C128.281 270.435 128.606 270.747 128.831 271.154C129.057 271.561 129.169 272.047 129.169 272.61C129.169 273.147 129.026 273.68 128.74 274.209C128.454 274.738 127.986 275.34 127.336 276.016L124.996 278.434H129.325V279.5H123.683Z" fill="white"/>
<path d="M168.328 205.1C167.874 205.1 167.511 204.98 167.238 204.74C166.964 204.493 166.828 204.16 166.828 203.74L167.008 203.95H166.828V205H165.928V197.7H166.828V199.3L166.808 200.55H167.008L166.828 200.76C166.828 200.347 166.964 200.017 167.238 199.77C167.518 199.523 167.881 199.4 168.328 199.4C168.881 199.4 169.324 199.583 169.658 199.95C169.991 200.317 170.158 200.817 170.158 201.45V203.06C170.158 203.687 169.991 204.183 169.658 204.55C169.324 204.917 168.881 205.1 168.328 205.1ZM168.028 204.32C168.408 204.32 168.708 204.207 168.928 203.98C169.148 203.753 169.258 203.427 169.258 203V201.5C169.258 201.073 169.148 200.747 168.928 200.52C168.708 200.293 168.408 200.18 168.028 200.18C167.661 200.18 167.368 200.297 167.148 200.53C166.934 200.763 166.828 201.087 166.828 201.5V203C166.828 203.413 166.934 203.737 167.148 203.97C167.368 204.203 167.661 204.32 168.028 204.32ZM173.994 205.1C173.361 205.1 172.854 204.913 172.474 204.54C172.094 204.16 171.904 203.647 171.904 203V199.5H172.804V203C172.804 203.413 172.911 203.737 173.124 203.97C173.337 204.197 173.627 204.31 173.994 204.31C174.367 204.31 174.661 204.197 174.874 203.97C175.094 203.737 175.204 203.413 175.204 203V199.5H176.104V203C176.104 203.647 175.911 204.16 175.524 204.54C175.137 204.913 174.627 205.1 173.994 205.1ZM178.11 205V199.5H178.99V200.55H179.2L178.91 201.2C178.91 200.607 179.037 200.16 179.29 199.86C179.55 199.553 179.933 199.4 180.44 199.4C181.02 199.4 181.48 199.583 181.82 199.95C182.167 200.31 182.34 200.8 182.34 201.42V201.75H181.44V201.5C181.44 201.067 181.333 200.737 181.12 200.51C180.913 200.277 180.617 200.16 180.23 200.16C179.85 200.16 179.55 200.277 179.33 200.51C179.117 200.743 179.01 201.073 179.01 201.5V205H178.11ZM183.916 205V199.5H184.816V200.55H185.006L184.816 200.76C184.816 200.327 184.946 199.993 185.206 199.76C185.466 199.52 185.826 199.4 186.286 199.4C186.839 199.4 187.279 199.57 187.606 199.91C187.933 200.25 188.096 200.713 188.096 201.3V205H187.196V201.4C187.196 201.007 187.089 200.707 186.876 200.5C186.669 200.287 186.386 200.18 186.026 200.18C185.653 200.18 185.356 200.293 185.136 200.52C184.923 200.747 184.816 201.073 184.816 201.5V205H183.916Z" fill="black"/>
<path d="M467.002 224.1C466.368 224.1 465.862 223.913 465.482 223.54C465.102 223.16 464.912 222.647 464.912 222V218.5H465.812V222C465.812 222.413 465.918 222.737 466.132 222.97C466.345 223.197 466.635 223.31 467.002 223.31C467.375 223.31 467.668 223.197 467.882 222.97C468.102 222.737 468.212 222.413 468.212 222V218.5H469.112V222C469.112 222.647 468.918 223.16 468.532 223.54C468.145 223.913 467.635 224.1 467.002 224.1ZM470.928 224V218.5H471.828V219.55H472.018L471.828 219.76C471.828 219.327 471.958 218.993 472.218 218.76C472.478 218.52 472.838 218.4 473.298 218.4C473.851 218.4 474.291 218.57 474.618 218.91C474.944 219.25 475.108 219.713 475.108 220.3V224H474.208V220.4C474.208 220.007 474.101 219.707 473.888 219.5C473.681 219.287 473.398 219.18 473.038 219.18C472.664 219.18 472.368 219.293 472.148 219.52C471.934 219.747 471.828 220.073 471.828 220.5V224H470.928ZM479.754 224C479.434 224 479.154 223.937 478.914 223.81C478.674 223.683 478.487 223.503 478.354 223.27C478.221 223.037 478.154 222.763 478.154 222.45V217.52H476.304V216.7H479.054V222.45C479.054 222.677 479.117 222.857 479.244 222.99C479.371 223.117 479.541 223.18 479.754 223.18H481.504V224H479.754ZM485 224.08C484.56 224.08 484.18 223.997 483.86 223.83C483.54 223.663 483.29 223.423 483.11 223.11C482.937 222.79 482.85 222.413 482.85 221.98V220.52C482.85 220.08 482.937 219.703 483.11 219.39C483.29 219.077 483.54 218.837 483.86 218.67C484.18 218.503 484.56 218.42 485 218.42C485.44 218.42 485.82 218.503 486.14 218.67C486.46 218.837 486.707 219.077 486.88 219.39C487.06 219.703 487.15 220.077 487.15 220.51V221.98C487.15 222.413 487.06 222.79 486.88 223.11C486.707 223.423 486.46 223.663 486.14 223.83C485.82 223.997 485.44 224.08 485 224.08ZM485 223.28C485.393 223.28 485.7 223.17 485.92 222.95C486.14 222.73 486.25 222.407 486.25 221.98V220.52C486.25 220.093 486.14 219.77 485.92 219.55C485.7 219.33 485.393 219.22 485 219.22C484.613 219.22 484.307 219.33 484.08 219.55C483.86 219.77 483.75 220.093 483.75 220.52V221.98C483.75 222.407 483.86 222.73 484.08 222.95C484.307 223.17 484.613 223.28 485 223.28ZM491.036 224.1C490.596 224.1 490.209 224.017 489.876 223.85C489.549 223.683 489.296 223.443 489.116 223.13C488.936 222.81 488.846 222.433 488.846 222V220.5C488.846 220.06 488.936 219.683 489.116 219.37C489.296 219.057 489.549 218.817 489.876 218.65C490.209 218.483 490.596 218.4 491.036 218.4C491.669 218.4 492.179 218.57 492.566 218.91C492.953 219.25 493.156 219.713 493.176 220.3H492.276C492.256 219.947 492.136 219.677 491.916 219.49C491.703 219.297 491.409 219.2 491.036 219.2C490.643 219.2 490.329 219.313 490.096 219.54C489.863 219.76 489.746 220.077 489.746 220.49V222C489.746 222.413 489.863 222.733 490.096 222.96C490.329 223.187 490.643 223.3 491.036 223.3C491.409 223.3 491.703 223.203 491.916 223.01C492.136 222.817 492.256 222.547 492.276 222.2H493.176C493.156 222.787 492.953 223.25 492.566 223.59C492.179 223.93 491.669 224.1 491.036 224.1ZM494.942 224V216.7H495.842V220.77H496.902L498.502 218.5H499.532L497.682 221.12L499.562 224H498.512L496.912 221.55H495.842V224H494.942Z" fill="black"/>
<path d="M321.1 169.1L326.5 169.1L326.5 177.5L329.5 177.5L329.5 166.1L318.1 166.1L318.1 185.6L337.6 185.6L337.6 161L343 161L343 191L313 191L313 161L334.6 161L334.6 182.6L321.1 182.6L321.1 169.1Z" fill="black"/>
<path d="M442 203C451.778 196.333 456.667 196.333 456.667 203C456.667 209.667 461.556 209.667 471.333 203C481.111 196.333 486 196.333 486 203C486 209.667 490.889 209.667 500.667 203C510.444 196.333 515.333 196.333 515.333 203C515.333 209.667 520.222 209.667 530 203" stroke="black" stroke-linecap="round"/>
<rect width="87" height="37" transform="translate(525 184)" fill="#E72D64"/>
<path d="M545.092 207.13C544.32 207.13 543.688 206.931 543.194 206.532C542.7 206.133 542.409 205.596 542.323 204.92H543.493C543.536 205.293 543.696 205.583 543.974 205.791C544.251 205.99 544.628 206.09 545.105 206.09C545.651 206.09 546.058 205.943 546.327 205.648C546.604 205.353 546.743 204.937 546.743 204.4V203.477C546.743 202.94 546.604 202.524 546.327 202.229C546.058 201.934 545.655 201.787 545.118 201.787C544.78 201.787 544.485 201.878 544.234 202.06C543.982 202.233 543.8 202.467 543.688 202.762H542.518L542.583 197.51H547.575V198.576H543.714L543.675 201.735H544.039L543.675 202.073C543.675 201.666 543.835 201.345 544.156 201.111C544.485 200.877 544.923 200.76 545.469 200.76C546.24 200.751 546.838 200.99 547.263 201.475C547.696 201.952 547.913 202.619 547.913 203.477V204.4C547.913 205.241 547.666 205.908 547.172 206.402C546.678 206.887 545.984 207.13 545.092 207.13ZM552.913 207.13C552.332 207.13 551.825 207.017 551.392 206.792C550.967 206.558 550.638 206.233 550.404 205.817C550.17 205.392 550.053 204.898 550.053 204.335V200.175C550.053 199.603 550.17 199.109 550.404 198.693C550.638 198.277 550.967 197.956 551.392 197.731C551.825 197.497 552.332 197.38 552.913 197.38C553.502 197.38 554.009 197.497 554.434 197.731C554.858 197.956 555.188 198.277 555.422 198.693C555.656 199.109 555.773 199.603 555.773 200.175V204.335C555.773 204.898 555.656 205.392 555.422 205.817C555.188 206.233 554.854 206.558 554.421 206.792C553.996 207.017 553.493 207.13 552.913 207.13ZM552.913 206.129C553.433 206.129 553.849 205.964 554.161 205.635C554.481 205.297 554.642 204.864 554.642 204.335V200.175C554.642 199.646 554.481 199.217 554.161 198.888C553.849 198.55 553.433 198.381 552.913 198.381C552.393 198.381 551.972 198.55 551.652 198.888C551.34 199.217 551.184 199.646 551.184 200.175V204.335C551.184 204.864 551.34 205.297 551.652 205.635C551.972 205.964 552.393 206.129 552.913 206.129ZM552.913 203.022C552.679 203.022 552.488 202.948 552.341 202.801C552.202 202.654 552.133 202.459 552.133 202.216C552.133 201.982 552.202 201.796 552.341 201.657C552.488 201.51 552.679 201.436 552.913 201.436C553.147 201.436 553.333 201.51 553.472 201.657C553.619 201.796 553.693 201.982 553.693 202.216C553.693 202.459 553.619 202.654 553.472 202.801C553.333 202.948 553.147 203.022 552.913 203.022ZM560.708 207.13C560.127 207.13 559.62 207.017 559.187 206.792C558.762 206.558 558.433 206.233 558.199 205.817C557.965 205.392 557.848 204.898 557.848 204.335V200.175C557.848 199.603 557.965 199.109 558.199 198.693C558.433 198.277 558.762 197.956 559.187 197.731C559.62 197.497 560.127 197.38 560.708 197.38C561.297 197.38 561.804 197.497 562.229 197.731C562.653 197.956 562.983 198.277 563.217 198.693C563.451 199.109 563.568 199.603 563.568 200.175V204.335C563.568 204.898 563.451 205.392 563.217 205.817C562.983 206.233 562.649 206.558 562.216 206.792C561.791 207.017 561.288 207.13 560.708 207.13ZM560.708 206.129C561.228 206.129 561.644 205.964 561.956 205.635C562.276 205.297 562.437 204.864 562.437 204.335V200.175C562.437 199.646 562.276 199.217 561.956 198.888C561.644 198.55 561.228 198.381 560.708 198.381C560.188 198.381 559.767 198.55 559.447 198.888C559.135 199.217 558.979 199.646 558.979 200.175V204.335C558.979 204.864 559.135 205.297 559.447 205.635C559.767 205.964 560.188 206.129 560.708 206.129ZM560.708 203.022C560.474 203.022 560.283 202.948 560.136 202.801C559.997 202.654 559.928 202.459 559.928 202.216C559.928 201.982 559.997 201.796 560.136 201.657C560.283 201.51 560.474 201.436 560.708 201.436C560.942 201.436 561.128 201.51 561.267 201.657C561.414 201.796 561.488 201.982 561.488 202.216C561.488 202.459 561.414 202.654 561.267 202.801C561.128 202.948 560.942 203.022 560.708 203.022ZM573.632 207V197.497H579.222V198.563H574.776V201.722H578.884V202.788H574.802V207H573.632ZM581.687 207V197.51H582.857V205.934H587.147V207H581.687ZM589.183 207V197.51H592.121C592.685 197.51 593.179 197.627 593.603 197.861C594.028 198.086 594.357 198.403 594.591 198.81C594.825 199.217 594.942 199.694 594.942 200.24C594.942 200.881 594.773 201.432 594.435 201.891C594.106 202.35 593.655 202.667 593.083 202.84L595.072 207H593.694L591.874 202.97H590.353V207H589.183ZM590.353 201.917H592.121C592.607 201.917 592.997 201.765 593.291 201.462C593.586 201.15 593.733 200.743 593.733 200.24C593.733 199.729 593.586 199.321 593.291 199.018C592.997 198.715 592.607 198.563 592.121 198.563H590.353V201.917Z" fill="white"/>
</svg>
